%TF.GenerationSoftware,KiCad,Pcbnew,(5.1.9)-1*%
%TF.CreationDate,2021-06-10T09:26:42-06:00*%
%TF.ProjectId,sl-pi-aprs,736c2d70-692d-4617-9072-732e6b696361,rev?*%
%TF.SameCoordinates,Original*%
%TF.FileFunction,Paste,Bot*%
%TF.FilePolarity,Positive*%
%FSLAX46Y46*%
G04 Gerber Fmt 4.6, Leading zero omitted, Abs format (unit mm)*
G04 Created by KiCad (PCBNEW (5.1.9)-1) date 2021-06-10 09:26:42*
%MOMM*%
%LPD*%
G01*
G04 APERTURE LIST*
%ADD10R,1.500000X2.000000*%
%ADD11R,3.800000X2.000000*%
G04 APERTURE END LIST*
%TO.C,C1*%
G36*
G01*
X108512500Y-100262500D02*
X108512500Y-100737500D01*
G75*
G02*
X108275000Y-100975000I-237500J0D01*
G01*
X107675000Y-100975000D01*
G75*
G02*
X107437500Y-100737500I0J237500D01*
G01*
X107437500Y-100262500D01*
G75*
G02*
X107675000Y-100025000I237500J0D01*
G01*
X108275000Y-100025000D01*
G75*
G02*
X108512500Y-100262500I0J-237500D01*
G01*
G37*
G36*
G01*
X110237500Y-100262500D02*
X110237500Y-100737500D01*
G75*
G02*
X110000000Y-100975000I-237500J0D01*
G01*
X109400000Y-100975000D01*
G75*
G02*
X109162500Y-100737500I0J237500D01*
G01*
X109162500Y-100262500D01*
G75*
G02*
X109400000Y-100025000I237500J0D01*
G01*
X110000000Y-100025000D01*
G75*
G02*
X110237500Y-100262500I0J-237500D01*
G01*
G37*
%TD*%
D10*
%TO.C,U2*%
X126490000Y-96835000D03*
X121890000Y-96835000D03*
X124190000Y-96835000D03*
D11*
X124190000Y-90535000D03*
%TD*%
D10*
%TO.C,U1*%
X118290000Y-96835000D03*
X113690000Y-96835000D03*
X115990000Y-96835000D03*
D11*
X115990000Y-90535000D03*
%TD*%
%TO.C,R8*%
G36*
G01*
X106400000Y-90002500D02*
X106400000Y-89527500D01*
G75*
G02*
X106637500Y-89290000I237500J0D01*
G01*
X107137500Y-89290000D01*
G75*
G02*
X107375000Y-89527500I0J-237500D01*
G01*
X107375000Y-90002500D01*
G75*
G02*
X107137500Y-90240000I-237500J0D01*
G01*
X106637500Y-90240000D01*
G75*
G02*
X106400000Y-90002500I0J237500D01*
G01*
G37*
G36*
G01*
X108225000Y-90002500D02*
X108225000Y-89527500D01*
G75*
G02*
X108462500Y-89290000I237500J0D01*
G01*
X108962500Y-89290000D01*
G75*
G02*
X109200000Y-89527500I0J-237500D01*
G01*
X109200000Y-90002500D01*
G75*
G02*
X108962500Y-90240000I-237500J0D01*
G01*
X108462500Y-90240000D01*
G75*
G02*
X108225000Y-90002500I0J237500D01*
G01*
G37*
%TD*%
%TO.C,R7*%
G36*
G01*
X108224800Y-97680500D02*
X108224800Y-97205500D01*
G75*
G02*
X108462300Y-96968000I237500J0D01*
G01*
X108962300Y-96968000D01*
G75*
G02*
X109199800Y-97205500I0J-237500D01*
G01*
X109199800Y-97680500D01*
G75*
G02*
X108962300Y-97918000I-237500J0D01*
G01*
X108462300Y-97918000D01*
G75*
G02*
X108224800Y-97680500I0J237500D01*
G01*
G37*
G36*
G01*
X106399800Y-97680500D02*
X106399800Y-97205500D01*
G75*
G02*
X106637300Y-96968000I237500J0D01*
G01*
X107137300Y-96968000D01*
G75*
G02*
X107374800Y-97205500I0J-237500D01*
G01*
X107374800Y-97680500D01*
G75*
G02*
X107137300Y-97918000I-237500J0D01*
G01*
X106637300Y-97918000D01*
G75*
G02*
X106399800Y-97680500I0J237500D01*
G01*
G37*
%TD*%
%TO.C,R5*%
G36*
G01*
X108225000Y-92572500D02*
X108225000Y-92097500D01*
G75*
G02*
X108462500Y-91860000I237500J0D01*
G01*
X108962500Y-91860000D01*
G75*
G02*
X109200000Y-92097500I0J-237500D01*
G01*
X109200000Y-92572500D01*
G75*
G02*
X108962500Y-92810000I-237500J0D01*
G01*
X108462500Y-92810000D01*
G75*
G02*
X108225000Y-92572500I0J237500D01*
G01*
G37*
G36*
G01*
X106400000Y-92572500D02*
X106400000Y-92097500D01*
G75*
G02*
X106637500Y-91860000I237500J0D01*
G01*
X107137500Y-91860000D01*
G75*
G02*
X107375000Y-92097500I0J-237500D01*
G01*
X107375000Y-92572500D01*
G75*
G02*
X107137500Y-92810000I-237500J0D01*
G01*
X106637500Y-92810000D01*
G75*
G02*
X106400000Y-92572500I0J237500D01*
G01*
G37*
%TD*%
%TO.C,R3*%
G36*
G01*
X108225000Y-95112500D02*
X108225000Y-94637500D01*
G75*
G02*
X108462500Y-94400000I237500J0D01*
G01*
X108962500Y-94400000D01*
G75*
G02*
X109200000Y-94637500I0J-237500D01*
G01*
X109200000Y-95112500D01*
G75*
G02*
X108962500Y-95350000I-237500J0D01*
G01*
X108462500Y-95350000D01*
G75*
G02*
X108225000Y-95112500I0J237500D01*
G01*
G37*
G36*
G01*
X106400000Y-95112500D02*
X106400000Y-94637500D01*
G75*
G02*
X106637500Y-94400000I237500J0D01*
G01*
X107137500Y-94400000D01*
G75*
G02*
X107375000Y-94637500I0J-237500D01*
G01*
X107375000Y-95112500D01*
G75*
G02*
X107137500Y-95350000I-237500J0D01*
G01*
X106637500Y-95350000D01*
G75*
G02*
X106400000Y-95112500I0J237500D01*
G01*
G37*
%TD*%
%TO.C,C3*%
G36*
G01*
X124012500Y-100425000D02*
X124487500Y-100425000D01*
G75*
G02*
X124725000Y-100662500I0J-237500D01*
G01*
X124725000Y-101262500D01*
G75*
G02*
X124487500Y-101500000I-237500J0D01*
G01*
X124012500Y-101500000D01*
G75*
G02*
X123775000Y-101262500I0J237500D01*
G01*
X123775000Y-100662500D01*
G75*
G02*
X124012500Y-100425000I237500J0D01*
G01*
G37*
G36*
G01*
X124012500Y-98700000D02*
X124487500Y-98700000D01*
G75*
G02*
X124725000Y-98937500I0J-237500D01*
G01*
X124725000Y-99537500D01*
G75*
G02*
X124487500Y-99775000I-237500J0D01*
G01*
X124012500Y-99775000D01*
G75*
G02*
X123775000Y-99537500I0J237500D01*
G01*
X123775000Y-98937500D01*
G75*
G02*
X124012500Y-98700000I237500J0D01*
G01*
G37*
%TD*%
%TO.C,C2*%
G36*
G01*
X115762500Y-100425000D02*
X116237500Y-100425000D01*
G75*
G02*
X116475000Y-100662500I0J-237500D01*
G01*
X116475000Y-101262500D01*
G75*
G02*
X116237500Y-101500000I-237500J0D01*
G01*
X115762500Y-101500000D01*
G75*
G02*
X115525000Y-101262500I0J237500D01*
G01*
X115525000Y-100662500D01*
G75*
G02*
X115762500Y-100425000I237500J0D01*
G01*
G37*
G36*
G01*
X115762500Y-98700000D02*
X116237500Y-98700000D01*
G75*
G02*
X116475000Y-98937500I0J-237500D01*
G01*
X116475000Y-99537500D01*
G75*
G02*
X116237500Y-99775000I-237500J0D01*
G01*
X115762500Y-99775000D01*
G75*
G02*
X115525000Y-99537500I0J237500D01*
G01*
X115525000Y-98937500D01*
G75*
G02*
X115762500Y-98700000I237500J0D01*
G01*
G37*
%TD*%
M02*
