M48
; DRILL file {KiCad (5.1.9)-1} date 06/10/21 09:27:14
; FORMAT={-:-/ absolute / inch / decimal}
; #@! TF.CreationDate,2021-06-10T09:27:14-06:00
; #@! TF.GenerationSoftware,Kicad,Pcbnew,(5.1.9)-1
; #@! TF.FileFunction,Plated,1,2,PTH
FMAT,2
INCH
T1C0.0157
T2C0.0315
T3C0.0354
T4C0.0374
T5C0.0394
%
G90
G05
T1
X4.1401Y-3.5341
X4.1402Y-3.6352
X4.1402Y-3.7352
X4.1403Y-3.8363
X4.3976Y-3.689
X4.622Y-4.0906
X4.622Y-4.1969
X4.9567Y-4.0276
X5.0157Y-3.5827
T2
X5.1445Y-3.7835
X5.2445Y-3.7835
X5.3445Y-3.7835
T4
X6.51Y-3.6063
X6.51Y-3.7047
X6.51Y-3.8031
X6.51Y-3.9016
X6.51Y-4.0
T5
X4.2189Y-4.0472
X4.3189Y-4.0472
X4.4488Y-3.2996
X4.4488Y-3.3996
X4.5488Y-3.2996
X4.5488Y-3.3996
X4.6488Y-3.2996
X4.6488Y-3.3996
X4.7488Y-3.2996
X4.7488Y-3.3996
X4.7638Y-4.0051
X4.7638Y-4.1051
X4.7638Y-4.2051
X4.7638Y-4.3051
X4.8488Y-3.2996
X4.8488Y-3.3996
X4.9488Y-3.2996
X4.9488Y-3.3996
X5.0488Y-3.2996
X5.0488Y-3.3996
X5.1165Y-3.5768
X5.1488Y-3.2996
X5.1488Y-3.3996
X5.2165Y-3.5768
X5.2488Y-3.2996
X5.2488Y-3.3996
X5.3488Y-3.2996
X5.3488Y-3.3996
X5.3839Y-4.2051
X5.3839Y-4.3051
X5.4488Y-3.2996
X5.4488Y-3.3996
X5.5488Y-3.2996
X5.5488Y-3.3996
X5.6488Y-3.2996
X5.6488Y-3.3996
X5.7488Y-3.2996
X5.7488Y-3.3996
X5.8488Y-3.2996
X5.8488Y-3.3996
X5.9055Y-4.2067
X5.9055Y-4.3067
X5.9488Y-3.2996
X5.9488Y-3.3996
X6.0488Y-3.2996
X6.0488Y-3.3996
X6.1488Y-3.2996
X6.1488Y-3.3996
X6.2488Y-3.2996
X6.2488Y-3.3996
X6.3488Y-3.2996
X6.3488Y-3.3996
T3
G00X4.4567Y-3.9902
M15
G01X4.4567Y-3.9744
M16
G05
G00X4.4567Y-4.1476
M15
G01X4.4567Y-4.1319
M16
G05
G00X4.4567Y-4.2657
M15
G01X4.4567Y-4.25
M16
G05
G00X4.6378Y-3.9469
M15
G01X4.6378Y-3.9311
M16
G05
G00X5.0768Y-3.9902
M15
G01X5.0768Y-3.9744
M16
G05
G00X5.0768Y-4.1476
M15
G01X5.0768Y-4.1319
M16
G05
G00X5.0768Y-4.2657
M15
G01X5.0768Y-4.25
M16
G05
G00X5.2579Y-3.9469
M15
G01X5.2579Y-3.9311
M16
G05
G00X5.5984Y-3.9902
M15
G01X5.5984Y-3.9744
M16
G05
G00X5.5984Y-4.1476
M15
G01X5.5984Y-4.1319
M16
G05
G00X5.5984Y-4.2657
M15
G01X5.5984Y-4.25
M16
G05
G00X5.7795Y-3.9469
M15
G01X5.7795Y-3.9311
M16
G05
T0
M30
