%TF.GenerationSoftware,KiCad,Pcbnew,(5.1.9)-1*%
%TF.CreationDate,2021-06-10T09:26:42-06:00*%
%TF.ProjectId,sl-pi-aprs,736c2d70-692d-4617-9072-732e6b696361,rev?*%
%TF.SameCoordinates,Original*%
%TF.FileFunction,Legend,Top*%
%TF.FilePolarity,Positive*%
%FSLAX46Y46*%
G04 Gerber Fmt 4.6, Leading zero omitted, Abs format (unit mm)*
G04 Created by KiCad (PCBNEW (5.1.9)-1) date 2021-06-10 09:26:42*
%MOMM*%
%LPD*%
G01*
G04 APERTURE LIST*
%ADD10C,0.187500*%
%ADD11C,0.150000*%
%ADD12C,0.300000*%
%ADD13C,0.250000*%
%ADD14C,0.120000*%
%ADD15C,0.100000*%
G04 APERTURE END LIST*
D10*
X139439285Y-98521428D02*
X138689285Y-98521428D01*
X139225000Y-98271428D01*
X138689285Y-98021428D01*
X139439285Y-98021428D01*
X139439285Y-97664285D02*
X138689285Y-97664285D01*
X139367857Y-96878571D02*
X139403571Y-96914285D01*
X139439285Y-97021428D01*
X139439285Y-97092857D01*
X139403571Y-97200000D01*
X139332142Y-97271428D01*
X139260714Y-97307142D01*
X139117857Y-97342857D01*
X139010714Y-97342857D01*
X138867857Y-97307142D01*
X138796428Y-97271428D01*
X138725000Y-97200000D01*
X138689285Y-97092857D01*
X138689285Y-97021428D01*
X138725000Y-96914285D01*
X138760714Y-96878571D01*
X138725000Y-95592857D02*
X138689285Y-95664285D01*
X138689285Y-95771428D01*
X138725000Y-95878571D01*
X138796428Y-95950000D01*
X138867857Y-95985714D01*
X139010714Y-96021428D01*
X139117857Y-96021428D01*
X139260714Y-95985714D01*
X139332142Y-95950000D01*
X139403571Y-95878571D01*
X139439285Y-95771428D01*
X139439285Y-95700000D01*
X139403571Y-95592857D01*
X139367857Y-95557142D01*
X139117857Y-95557142D01*
X139117857Y-95700000D01*
X139439285Y-94914285D02*
X139046428Y-94914285D01*
X138975000Y-94950000D01*
X138939285Y-95021428D01*
X138939285Y-95164285D01*
X138975000Y-95235714D01*
X139403571Y-94914285D02*
X139439285Y-94985714D01*
X139439285Y-95164285D01*
X139403571Y-95235714D01*
X139332142Y-95271428D01*
X139260714Y-95271428D01*
X139189285Y-95235714D01*
X139153571Y-95164285D01*
X139153571Y-94985714D01*
X139117857Y-94914285D01*
X139439285Y-94557142D02*
X138939285Y-94557142D01*
X138689285Y-94557142D02*
X138725000Y-94592857D01*
X138760714Y-94557142D01*
X138725000Y-94521428D01*
X138689285Y-94557142D01*
X138760714Y-94557142D01*
X138939285Y-94200000D02*
X139439285Y-94200000D01*
X139010714Y-94200000D02*
X138975000Y-94164285D01*
X138939285Y-94092857D01*
X138939285Y-93985714D01*
X138975000Y-93914285D01*
X139046428Y-93878571D01*
X139439285Y-93878571D01*
D11*
X155414285Y-108647619D02*
X155461904Y-108600000D01*
X155557142Y-108552380D01*
X155795238Y-108552380D01*
X155890476Y-108600000D01*
X155938095Y-108647619D01*
X155985714Y-108742857D01*
X155985714Y-108838095D01*
X155938095Y-108980952D01*
X155366666Y-109552380D01*
X155985714Y-109552380D01*
X156604761Y-108552380D02*
X156700000Y-108552380D01*
X156795238Y-108600000D01*
X156842857Y-108647619D01*
X156890476Y-108742857D01*
X156938095Y-108933333D01*
X156938095Y-109171428D01*
X156890476Y-109361904D01*
X156842857Y-109457142D01*
X156795238Y-109504761D01*
X156700000Y-109552380D01*
X156604761Y-109552380D01*
X156509523Y-109504761D01*
X156461904Y-109457142D01*
X156414285Y-109361904D01*
X156366666Y-109171428D01*
X156366666Y-108933333D01*
X156414285Y-108742857D01*
X156461904Y-108647619D01*
X156509523Y-108600000D01*
X156604761Y-108552380D01*
X157319047Y-108647619D02*
X157366666Y-108600000D01*
X157461904Y-108552380D01*
X157700000Y-108552380D01*
X157795238Y-108600000D01*
X157842857Y-108647619D01*
X157890476Y-108742857D01*
X157890476Y-108838095D01*
X157842857Y-108980952D01*
X157271428Y-109552380D01*
X157890476Y-109552380D01*
X158842857Y-109552380D02*
X158271428Y-109552380D01*
X158557142Y-109552380D02*
X158557142Y-108552380D01*
X158461904Y-108695238D01*
X158366666Y-108790476D01*
X158271428Y-108838095D01*
X159271428Y-109171428D02*
X160033333Y-109171428D01*
X160700000Y-108552380D02*
X160795238Y-108552380D01*
X160890476Y-108600000D01*
X160938095Y-108647619D01*
X160985714Y-108742857D01*
X161033333Y-108933333D01*
X161033333Y-109171428D01*
X160985714Y-109361904D01*
X160938095Y-109457142D01*
X160890476Y-109504761D01*
X160795238Y-109552380D01*
X160700000Y-109552380D01*
X160604761Y-109504761D01*
X160557142Y-109457142D01*
X160509523Y-109361904D01*
X160461904Y-109171428D01*
X160461904Y-108933333D01*
X160509523Y-108742857D01*
X160557142Y-108647619D01*
X160604761Y-108600000D01*
X160700000Y-108552380D01*
X161890476Y-108552380D02*
X161700000Y-108552380D01*
X161604761Y-108600000D01*
X161557142Y-108647619D01*
X161461904Y-108790476D01*
X161414285Y-108980952D01*
X161414285Y-109361904D01*
X161461904Y-109457142D01*
X161509523Y-109504761D01*
X161604761Y-109552380D01*
X161795238Y-109552380D01*
X161890476Y-109504761D01*
X161938095Y-109457142D01*
X161985714Y-109361904D01*
X161985714Y-109123809D01*
X161938095Y-109028571D01*
X161890476Y-108980952D01*
X161795238Y-108933333D01*
X161604761Y-108933333D01*
X161509523Y-108980952D01*
X161461904Y-109028571D01*
X161414285Y-109123809D01*
X140123809Y-90002380D02*
X139790476Y-89526190D01*
X139552380Y-90002380D02*
X139552380Y-89002380D01*
X139933333Y-89002380D01*
X140028571Y-89050000D01*
X140076190Y-89097619D01*
X140123809Y-89192857D01*
X140123809Y-89335714D01*
X140076190Y-89430952D01*
X140028571Y-89478571D01*
X139933333Y-89526190D01*
X139552380Y-89526190D01*
X140980952Y-90002380D02*
X140980952Y-89478571D01*
X140933333Y-89383333D01*
X140838095Y-89335714D01*
X140647619Y-89335714D01*
X140552380Y-89383333D01*
X140980952Y-89954761D02*
X140885714Y-90002380D01*
X140647619Y-90002380D01*
X140552380Y-89954761D01*
X140504761Y-89859523D01*
X140504761Y-89764285D01*
X140552380Y-89669047D01*
X140647619Y-89621428D01*
X140885714Y-89621428D01*
X140980952Y-89573809D01*
X141409523Y-89954761D02*
X141504761Y-90002380D01*
X141695238Y-90002380D01*
X141790476Y-89954761D01*
X141838095Y-89859523D01*
X141838095Y-89811904D01*
X141790476Y-89716666D01*
X141695238Y-89669047D01*
X141552380Y-89669047D01*
X141457142Y-89621428D01*
X141409523Y-89526190D01*
X141409523Y-89478571D01*
X141457142Y-89383333D01*
X141552380Y-89335714D01*
X141695238Y-89335714D01*
X141790476Y-89383333D01*
X142266666Y-89335714D02*
X142266666Y-90335714D01*
X142266666Y-89383333D02*
X142361904Y-89335714D01*
X142552380Y-89335714D01*
X142647619Y-89383333D01*
X142695238Y-89430952D01*
X142742857Y-89526190D01*
X142742857Y-89811904D01*
X142695238Y-89907142D01*
X142647619Y-89954761D01*
X142552380Y-90002380D01*
X142361904Y-90002380D01*
X142266666Y-89954761D01*
X143171428Y-90002380D02*
X143171428Y-89002380D01*
X143171428Y-89383333D02*
X143266666Y-89335714D01*
X143457142Y-89335714D01*
X143552380Y-89383333D01*
X143600000Y-89430952D01*
X143647619Y-89526190D01*
X143647619Y-89811904D01*
X143600000Y-89907142D01*
X143552380Y-89954761D01*
X143457142Y-90002380D01*
X143266666Y-90002380D01*
X143171428Y-89954761D01*
X144457142Y-89954761D02*
X144361904Y-90002380D01*
X144171428Y-90002380D01*
X144076190Y-89954761D01*
X144028571Y-89859523D01*
X144028571Y-89478571D01*
X144076190Y-89383333D01*
X144171428Y-89335714D01*
X144361904Y-89335714D01*
X144457142Y-89383333D01*
X144504761Y-89478571D01*
X144504761Y-89573809D01*
X144028571Y-89669047D01*
X144933333Y-90002380D02*
X144933333Y-89335714D01*
X144933333Y-89526190D02*
X144980952Y-89430952D01*
X145028571Y-89383333D01*
X145123809Y-89335714D01*
X145219047Y-89335714D01*
X145552380Y-90002380D02*
X145552380Y-89335714D01*
X145552380Y-89526190D02*
X145600000Y-89430952D01*
X145647619Y-89383333D01*
X145742857Y-89335714D01*
X145838095Y-89335714D01*
X146076190Y-89335714D02*
X146314285Y-90002380D01*
X146552380Y-89335714D02*
X146314285Y-90002380D01*
X146219047Y-90240476D01*
X146171428Y-90288095D01*
X146076190Y-90335714D01*
X147695238Y-90002380D02*
X147695238Y-89002380D01*
X148076190Y-89002380D01*
X148171428Y-89050000D01*
X148219047Y-89097619D01*
X148266666Y-89192857D01*
X148266666Y-89335714D01*
X148219047Y-89430952D01*
X148171428Y-89478571D01*
X148076190Y-89526190D01*
X147695238Y-89526190D01*
X148695238Y-90002380D02*
X148695238Y-89335714D01*
X148695238Y-89002380D02*
X148647619Y-89050000D01*
X148695238Y-89097619D01*
X148742857Y-89050000D01*
X148695238Y-89002380D01*
X148695238Y-89097619D01*
X149885714Y-89716666D02*
X150361904Y-89716666D01*
X149790476Y-90002380D02*
X150123809Y-89002380D01*
X150457142Y-90002380D01*
X150790476Y-90002380D02*
X150790476Y-89002380D01*
X151171428Y-89002380D01*
X151266666Y-89050000D01*
X151314285Y-89097619D01*
X151361904Y-89192857D01*
X151361904Y-89335714D01*
X151314285Y-89430952D01*
X151266666Y-89478571D01*
X151171428Y-89526190D01*
X150790476Y-89526190D01*
X152361904Y-90002380D02*
X152028571Y-89526190D01*
X151790476Y-90002380D02*
X151790476Y-89002380D01*
X152171428Y-89002380D01*
X152266666Y-89050000D01*
X152314285Y-89097619D01*
X152361904Y-89192857D01*
X152361904Y-89335714D01*
X152314285Y-89430952D01*
X152266666Y-89478571D01*
X152171428Y-89526190D01*
X151790476Y-89526190D01*
X152742857Y-89954761D02*
X152885714Y-90002380D01*
X153123809Y-90002380D01*
X153219047Y-89954761D01*
X153266666Y-89907142D01*
X153314285Y-89811904D01*
X153314285Y-89716666D01*
X153266666Y-89621428D01*
X153219047Y-89573809D01*
X153123809Y-89526190D01*
X152933333Y-89478571D01*
X152838095Y-89430952D01*
X152790476Y-89383333D01*
X152742857Y-89288095D01*
X152742857Y-89192857D01*
X152790476Y-89097619D01*
X152838095Y-89050000D01*
X152933333Y-89002380D01*
X153171428Y-89002380D01*
X153314285Y-89050000D01*
X154504761Y-90002380D02*
X154504761Y-89002380D01*
X154980952Y-89335714D02*
X154980952Y-90002380D01*
X154980952Y-89430952D02*
X155028571Y-89383333D01*
X155123809Y-89335714D01*
X155266666Y-89335714D01*
X155361904Y-89383333D01*
X155409523Y-89478571D01*
X155409523Y-90002380D01*
X155742857Y-89335714D02*
X156123809Y-89335714D01*
X155885714Y-89002380D02*
X155885714Y-89859523D01*
X155933333Y-89954761D01*
X156028571Y-90002380D01*
X156123809Y-90002380D01*
X156838095Y-89954761D02*
X156742857Y-90002380D01*
X156552380Y-90002380D01*
X156457142Y-89954761D01*
X156409523Y-89859523D01*
X156409523Y-89478571D01*
X156457142Y-89383333D01*
X156552380Y-89335714D01*
X156742857Y-89335714D01*
X156838095Y-89383333D01*
X156885714Y-89478571D01*
X156885714Y-89573809D01*
X156409523Y-89669047D01*
X157314285Y-90002380D02*
X157314285Y-89335714D01*
X157314285Y-89526190D02*
X157361904Y-89430952D01*
X157409523Y-89383333D01*
X157504761Y-89335714D01*
X157600000Y-89335714D01*
X157790476Y-89335714D02*
X158171428Y-89335714D01*
X157933333Y-90002380D02*
X157933333Y-89145238D01*
X157980952Y-89050000D01*
X158076190Y-89002380D01*
X158171428Y-89002380D01*
X158933333Y-90002380D02*
X158933333Y-89478571D01*
X158885714Y-89383333D01*
X158790476Y-89335714D01*
X158600000Y-89335714D01*
X158504761Y-89383333D01*
X158933333Y-89954761D02*
X158838095Y-90002380D01*
X158600000Y-90002380D01*
X158504761Y-89954761D01*
X158457142Y-89859523D01*
X158457142Y-89764285D01*
X158504761Y-89669047D01*
X158600000Y-89621428D01*
X158838095Y-89621428D01*
X158933333Y-89573809D01*
X159838095Y-89954761D02*
X159742857Y-90002380D01*
X159552380Y-90002380D01*
X159457142Y-89954761D01*
X159409523Y-89907142D01*
X159361904Y-89811904D01*
X159361904Y-89526190D01*
X159409523Y-89430952D01*
X159457142Y-89383333D01*
X159552380Y-89335714D01*
X159742857Y-89335714D01*
X159838095Y-89383333D01*
X160647619Y-89954761D02*
X160552380Y-90002380D01*
X160361904Y-90002380D01*
X160266666Y-89954761D01*
X160219047Y-89859523D01*
X160219047Y-89478571D01*
X160266666Y-89383333D01*
X160361904Y-89335714D01*
X160552380Y-89335714D01*
X160647619Y-89383333D01*
X160695238Y-89478571D01*
X160695238Y-89573809D01*
X160219047Y-89669047D01*
X142290476Y-91604761D02*
X142433333Y-91652380D01*
X142671428Y-91652380D01*
X142766666Y-91604761D01*
X142814285Y-91557142D01*
X142861904Y-91461904D01*
X142861904Y-91366666D01*
X142814285Y-91271428D01*
X142766666Y-91223809D01*
X142671428Y-91176190D01*
X142480952Y-91128571D01*
X142385714Y-91080952D01*
X142338095Y-91033333D01*
X142290476Y-90938095D01*
X142290476Y-90842857D01*
X142338095Y-90747619D01*
X142385714Y-90700000D01*
X142480952Y-90652380D01*
X142719047Y-90652380D01*
X142861904Y-90700000D01*
X143719047Y-91652380D02*
X143719047Y-91128571D01*
X143671428Y-91033333D01*
X143576190Y-90985714D01*
X143385714Y-90985714D01*
X143290476Y-91033333D01*
X143719047Y-91604761D02*
X143623809Y-91652380D01*
X143385714Y-91652380D01*
X143290476Y-91604761D01*
X143242857Y-91509523D01*
X143242857Y-91414285D01*
X143290476Y-91319047D01*
X143385714Y-91271428D01*
X143623809Y-91271428D01*
X143719047Y-91223809D01*
X144195238Y-90985714D02*
X144195238Y-91652380D01*
X144195238Y-91080952D02*
X144242857Y-91033333D01*
X144338095Y-90985714D01*
X144480952Y-90985714D01*
X144576190Y-91033333D01*
X144623809Y-91128571D01*
X144623809Y-91652380D01*
X145528571Y-91652380D02*
X145528571Y-90652380D01*
X145528571Y-91604761D02*
X145433333Y-91652380D01*
X145242857Y-91652380D01*
X145147619Y-91604761D01*
X145100000Y-91557142D01*
X145052380Y-91461904D01*
X145052380Y-91176190D01*
X145100000Y-91080952D01*
X145147619Y-91033333D01*
X145242857Y-90985714D01*
X145433333Y-90985714D01*
X145528571Y-91033333D01*
X146147619Y-91652380D02*
X146052380Y-91604761D01*
X146004761Y-91557142D01*
X145957142Y-91461904D01*
X145957142Y-91176190D01*
X146004761Y-91080952D01*
X146052380Y-91033333D01*
X146147619Y-90985714D01*
X146290476Y-90985714D01*
X146385714Y-91033333D01*
X146433333Y-91080952D01*
X146480952Y-91176190D01*
X146480952Y-91461904D01*
X146433333Y-91557142D01*
X146385714Y-91604761D01*
X146290476Y-91652380D01*
X146147619Y-91652380D01*
X146909523Y-91652380D02*
X146909523Y-90985714D01*
X146909523Y-91176190D02*
X146957142Y-91080952D01*
X147004761Y-91033333D01*
X147100000Y-90985714D01*
X147195238Y-90985714D01*
X148766666Y-91652380D02*
X148290476Y-91652380D01*
X148290476Y-90652380D01*
X149528571Y-91652380D02*
X149528571Y-91128571D01*
X149480952Y-91033333D01*
X149385714Y-90985714D01*
X149195238Y-90985714D01*
X149100000Y-91033333D01*
X149528571Y-91604761D02*
X149433333Y-91652380D01*
X149195238Y-91652380D01*
X149100000Y-91604761D01*
X149052380Y-91509523D01*
X149052380Y-91414285D01*
X149100000Y-91319047D01*
X149195238Y-91271428D01*
X149433333Y-91271428D01*
X149528571Y-91223809D01*
X150004761Y-91652380D02*
X150004761Y-90652380D01*
X150004761Y-91033333D02*
X150100000Y-90985714D01*
X150290476Y-90985714D01*
X150385714Y-91033333D01*
X150433333Y-91080952D01*
X150480952Y-91176190D01*
X150480952Y-91461904D01*
X150433333Y-91557142D01*
X150385714Y-91604761D01*
X150290476Y-91652380D01*
X150100000Y-91652380D01*
X150004761Y-91604761D01*
X151052380Y-91652380D02*
X150957142Y-91604761D01*
X150909523Y-91557142D01*
X150861904Y-91461904D01*
X150861904Y-91176190D01*
X150909523Y-91080952D01*
X150957142Y-91033333D01*
X151052380Y-90985714D01*
X151195238Y-90985714D01*
X151290476Y-91033333D01*
X151338095Y-91080952D01*
X151385714Y-91176190D01*
X151385714Y-91461904D01*
X151338095Y-91557142D01*
X151290476Y-91604761D01*
X151195238Y-91652380D01*
X151052380Y-91652380D01*
X151814285Y-91652380D02*
X151814285Y-90985714D01*
X151814285Y-91176190D02*
X151861904Y-91080952D01*
X151909523Y-91033333D01*
X152004761Y-90985714D01*
X152100000Y-90985714D01*
X152861904Y-91652380D02*
X152861904Y-91128571D01*
X152814285Y-91033333D01*
X152719047Y-90985714D01*
X152528571Y-90985714D01*
X152433333Y-91033333D01*
X152861904Y-91604761D02*
X152766666Y-91652380D01*
X152528571Y-91652380D01*
X152433333Y-91604761D01*
X152385714Y-91509523D01*
X152385714Y-91414285D01*
X152433333Y-91319047D01*
X152528571Y-91271428D01*
X152766666Y-91271428D01*
X152861904Y-91223809D01*
X153195238Y-90985714D02*
X153576190Y-90985714D01*
X153338095Y-90652380D02*
X153338095Y-91509523D01*
X153385714Y-91604761D01*
X153480952Y-91652380D01*
X153576190Y-91652380D01*
X154052380Y-91652380D02*
X153957142Y-91604761D01*
X153909523Y-91557142D01*
X153861904Y-91461904D01*
X153861904Y-91176190D01*
X153909523Y-91080952D01*
X153957142Y-91033333D01*
X154052380Y-90985714D01*
X154195238Y-90985714D01*
X154290476Y-91033333D01*
X154338095Y-91080952D01*
X154385714Y-91176190D01*
X154385714Y-91461904D01*
X154338095Y-91557142D01*
X154290476Y-91604761D01*
X154195238Y-91652380D01*
X154052380Y-91652380D01*
X154814285Y-91652380D02*
X154814285Y-90985714D01*
X154814285Y-91176190D02*
X154861904Y-91080952D01*
X154909523Y-91033333D01*
X155004761Y-90985714D01*
X155100000Y-90985714D01*
X155433333Y-91652380D02*
X155433333Y-90985714D01*
X155433333Y-90652380D02*
X155385714Y-90700000D01*
X155433333Y-90747619D01*
X155480952Y-90700000D01*
X155433333Y-90652380D01*
X155433333Y-90747619D01*
X156290476Y-91604761D02*
X156195238Y-91652380D01*
X156004761Y-91652380D01*
X155909523Y-91604761D01*
X155861904Y-91509523D01*
X155861904Y-91128571D01*
X155909523Y-91033333D01*
X156004761Y-90985714D01*
X156195238Y-90985714D01*
X156290476Y-91033333D01*
X156338095Y-91128571D01*
X156338095Y-91223809D01*
X155861904Y-91319047D01*
X156719047Y-91604761D02*
X156814285Y-91652380D01*
X157004761Y-91652380D01*
X157100000Y-91604761D01*
X157147619Y-91509523D01*
X157147619Y-91461904D01*
X157100000Y-91366666D01*
X157004761Y-91319047D01*
X156861904Y-91319047D01*
X156766666Y-91271428D01*
X156719047Y-91176190D01*
X156719047Y-91128571D01*
X156766666Y-91033333D01*
X156861904Y-90985714D01*
X157004761Y-90985714D01*
X157100000Y-91033333D01*
X148028571Y-93302380D02*
X147695238Y-92826190D01*
X147457142Y-93302380D02*
X147457142Y-92302380D01*
X147838095Y-92302380D01*
X147933333Y-92350000D01*
X147980952Y-92397619D01*
X148028571Y-92492857D01*
X148028571Y-92635714D01*
X147980952Y-92730952D01*
X147933333Y-92778571D01*
X147838095Y-92826190D01*
X147457142Y-92826190D01*
X148838095Y-93254761D02*
X148742857Y-93302380D01*
X148552380Y-93302380D01*
X148457142Y-93254761D01*
X148409523Y-93159523D01*
X148409523Y-92778571D01*
X148457142Y-92683333D01*
X148552380Y-92635714D01*
X148742857Y-92635714D01*
X148838095Y-92683333D01*
X148885714Y-92778571D01*
X148885714Y-92873809D01*
X148409523Y-92969047D01*
X149219047Y-92635714D02*
X149457142Y-93302380D01*
X149695238Y-92635714D01*
X151028571Y-92302380D02*
X151123809Y-92302380D01*
X151219047Y-92350000D01*
X151266666Y-92397619D01*
X151314285Y-92492857D01*
X151361904Y-92683333D01*
X151361904Y-92921428D01*
X151314285Y-93111904D01*
X151266666Y-93207142D01*
X151219047Y-93254761D01*
X151123809Y-93302380D01*
X151028571Y-93302380D01*
X150933333Y-93254761D01*
X150885714Y-93207142D01*
X150838095Y-93111904D01*
X150790476Y-92921428D01*
X150790476Y-92683333D01*
X150838095Y-92492857D01*
X150885714Y-92397619D01*
X150933333Y-92350000D01*
X151028571Y-92302380D01*
X151790476Y-93207142D02*
X151838095Y-93254761D01*
X151790476Y-93302380D01*
X151742857Y-93254761D01*
X151790476Y-93207142D01*
X151790476Y-93302380D01*
X152790476Y-93302380D02*
X152219047Y-93302380D01*
X152504761Y-93302380D02*
X152504761Y-92302380D01*
X152409523Y-92445238D01*
X152314285Y-92540476D01*
X152219047Y-92588095D01*
D10*
X159928857Y-101189285D02*
X160393142Y-101189285D01*
X160143142Y-101475000D01*
X160250285Y-101475000D01*
X160321714Y-101510714D01*
X160357428Y-101546428D01*
X160393142Y-101617857D01*
X160393142Y-101796428D01*
X160357428Y-101867857D01*
X160321714Y-101903571D01*
X160250285Y-101939285D01*
X160036000Y-101939285D01*
X159964571Y-101903571D01*
X159928857Y-101867857D01*
X160714571Y-101867857D02*
X160750285Y-101903571D01*
X160714571Y-101939285D01*
X160678857Y-101903571D01*
X160714571Y-101867857D01*
X160714571Y-101939285D01*
X161000285Y-101189285D02*
X161464571Y-101189285D01*
X161214571Y-101475000D01*
X161321714Y-101475000D01*
X161393142Y-101510714D01*
X161428857Y-101546428D01*
X161464571Y-101617857D01*
X161464571Y-101796428D01*
X161428857Y-101867857D01*
X161393142Y-101903571D01*
X161321714Y-101939285D01*
X161107428Y-101939285D01*
X161036000Y-101903571D01*
X161000285Y-101867857D01*
X161678857Y-101189285D02*
X161928857Y-101939285D01*
X162178857Y-101189285D01*
X160718571Y-98685000D02*
X160647142Y-98649285D01*
X160540000Y-98649285D01*
X160432857Y-98685000D01*
X160361428Y-98756428D01*
X160325714Y-98827857D01*
X160290000Y-98970714D01*
X160290000Y-99077857D01*
X160325714Y-99220714D01*
X160361428Y-99292142D01*
X160432857Y-99363571D01*
X160540000Y-99399285D01*
X160611428Y-99399285D01*
X160718571Y-99363571D01*
X160754285Y-99327857D01*
X160754285Y-99077857D01*
X160611428Y-99077857D01*
X161075714Y-99399285D02*
X161075714Y-98649285D01*
X161504285Y-99399285D01*
X161504285Y-98649285D01*
X161861428Y-99399285D02*
X161861428Y-98649285D01*
X162040000Y-98649285D01*
X162147142Y-98685000D01*
X162218571Y-98756428D01*
X162254285Y-98827857D01*
X162290000Y-98970714D01*
X162290000Y-99077857D01*
X162254285Y-99220714D01*
X162218571Y-99292142D01*
X162147142Y-99363571D01*
X162040000Y-99399285D01*
X161861428Y-99399285D01*
X160972571Y-96109285D02*
X161401142Y-96109285D01*
X161186857Y-96859285D02*
X161186857Y-96109285D01*
X161579714Y-96109285D02*
X162079714Y-96859285D01*
X162079714Y-96109285D02*
X161579714Y-96859285D01*
X161419000Y-94319285D02*
X161169000Y-93962142D01*
X160990428Y-94319285D02*
X160990428Y-93569285D01*
X161276142Y-93569285D01*
X161347571Y-93605000D01*
X161383285Y-93640714D01*
X161419000Y-93712142D01*
X161419000Y-93819285D01*
X161383285Y-93890714D01*
X161347571Y-93926428D01*
X161276142Y-93962142D01*
X160990428Y-93962142D01*
X161669000Y-93569285D02*
X162169000Y-94319285D01*
X162169000Y-93569285D02*
X161669000Y-94319285D01*
X160361428Y-92033285D02*
X160361428Y-91283285D01*
X160647142Y-91283285D01*
X160718571Y-91319000D01*
X160754285Y-91354714D01*
X160790000Y-91426142D01*
X160790000Y-91533285D01*
X160754285Y-91604714D01*
X160718571Y-91640428D01*
X160647142Y-91676142D01*
X160361428Y-91676142D01*
X161111428Y-92033285D02*
X161111428Y-91283285D01*
X161397142Y-91283285D01*
X161468571Y-91319000D01*
X161504285Y-91354714D01*
X161540000Y-91426142D01*
X161540000Y-91533285D01*
X161504285Y-91604714D01*
X161468571Y-91640428D01*
X161397142Y-91676142D01*
X161111428Y-91676142D01*
X161825714Y-91997571D02*
X161932857Y-92033285D01*
X162111428Y-92033285D01*
X162182857Y-91997571D01*
X162218571Y-91961857D01*
X162254285Y-91890428D01*
X162254285Y-91819000D01*
X162218571Y-91747571D01*
X162182857Y-91711857D01*
X162111428Y-91676142D01*
X161968571Y-91640428D01*
X161897142Y-91604714D01*
X161861428Y-91569000D01*
X161825714Y-91497571D01*
X161825714Y-91426142D01*
X161861428Y-91354714D01*
X161897142Y-91319000D01*
X161968571Y-91283285D01*
X162147142Y-91283285D01*
X162254285Y-91319000D01*
X149625000Y-104371428D02*
X149589285Y-104442857D01*
X149589285Y-104550000D01*
X149625000Y-104657142D01*
X149696428Y-104728571D01*
X149767857Y-104764285D01*
X149910714Y-104800000D01*
X150017857Y-104800000D01*
X150160714Y-104764285D01*
X150232142Y-104728571D01*
X150303571Y-104657142D01*
X150339285Y-104550000D01*
X150339285Y-104478571D01*
X150303571Y-104371428D01*
X150267857Y-104335714D01*
X150017857Y-104335714D01*
X150017857Y-104478571D01*
X150339285Y-104014285D02*
X149589285Y-104014285D01*
X150339285Y-103585714D01*
X149589285Y-103585714D01*
X150339285Y-103228571D02*
X149589285Y-103228571D01*
X149589285Y-103050000D01*
X149625000Y-102942857D01*
X149696428Y-102871428D01*
X149767857Y-102835714D01*
X149910714Y-102800000D01*
X150017857Y-102800000D01*
X150160714Y-102835714D01*
X150232142Y-102871428D01*
X150303571Y-102942857D01*
X150339285Y-103050000D01*
X150339285Y-103228571D01*
X136425000Y-104371428D02*
X136389285Y-104442857D01*
X136389285Y-104550000D01*
X136425000Y-104657142D01*
X136496428Y-104728571D01*
X136567857Y-104764285D01*
X136710714Y-104800000D01*
X136817857Y-104800000D01*
X136960714Y-104764285D01*
X137032142Y-104728571D01*
X137103571Y-104657142D01*
X137139285Y-104550000D01*
X137139285Y-104478571D01*
X137103571Y-104371428D01*
X137067857Y-104335714D01*
X136817857Y-104335714D01*
X136817857Y-104478571D01*
X137139285Y-104014285D02*
X136389285Y-104014285D01*
X137139285Y-103585714D01*
X136389285Y-103585714D01*
X137139285Y-103228571D02*
X136389285Y-103228571D01*
X136389285Y-103050000D01*
X136425000Y-102942857D01*
X136496428Y-102871428D01*
X136567857Y-102835714D01*
X136710714Y-102800000D01*
X136817857Y-102800000D01*
X136960714Y-102835714D01*
X137032142Y-102871428D01*
X137103571Y-102942857D01*
X137139285Y-103050000D01*
X137139285Y-103228571D01*
X135283035Y-91667857D02*
X134533035Y-91667857D01*
X134533035Y-91382142D01*
X134568750Y-91310714D01*
X134604464Y-91275000D01*
X134675892Y-91239285D01*
X134783035Y-91239285D01*
X134854464Y-91275000D01*
X134890178Y-91310714D01*
X134925892Y-91382142D01*
X134925892Y-91667857D01*
X134533035Y-91025000D02*
X134533035Y-90596428D01*
X135283035Y-90810714D02*
X134533035Y-90810714D01*
X134533035Y-90453571D02*
X134533035Y-90025000D01*
X135283035Y-90239285D02*
X134533035Y-90239285D01*
X136595535Y-92775000D02*
X135845535Y-92775000D01*
X135845535Y-92596428D01*
X135881250Y-92489285D01*
X135952678Y-92417857D01*
X136024107Y-92382142D01*
X136166964Y-92346428D01*
X136274107Y-92346428D01*
X136416964Y-92382142D01*
X136488392Y-92417857D01*
X136559821Y-92489285D01*
X136595535Y-92596428D01*
X136595535Y-92775000D01*
X136595535Y-92025000D02*
X136095535Y-92025000D01*
X135845535Y-92025000D02*
X135881250Y-92060714D01*
X135916964Y-92025000D01*
X135881250Y-91989285D01*
X135845535Y-92025000D01*
X135916964Y-92025000D01*
X136595535Y-91346428D02*
X136202678Y-91346428D01*
X136131250Y-91382142D01*
X136095535Y-91453571D01*
X136095535Y-91596428D01*
X136131250Y-91667857D01*
X136559821Y-91346428D02*
X136595535Y-91417857D01*
X136595535Y-91596428D01*
X136559821Y-91667857D01*
X136488392Y-91703571D01*
X136416964Y-91703571D01*
X136345535Y-91667857D01*
X136309821Y-91596428D01*
X136309821Y-91417857D01*
X136274107Y-91346428D01*
X136559821Y-91025000D02*
X136595535Y-90953571D01*
X136595535Y-90810714D01*
X136559821Y-90739285D01*
X136488392Y-90703571D01*
X136452678Y-90703571D01*
X136381250Y-90739285D01*
X136345535Y-90810714D01*
X136345535Y-90917857D01*
X136309821Y-90989285D01*
X136238392Y-91025000D01*
X136202678Y-91025000D01*
X136131250Y-90989285D01*
X136095535Y-90917857D01*
X136095535Y-90810714D01*
X136131250Y-90739285D01*
X136595535Y-90382142D02*
X135845535Y-90382142D01*
X136131250Y-90382142D02*
X136095535Y-90310714D01*
X136095535Y-90167857D01*
X136131250Y-90096428D01*
X136166964Y-90060714D01*
X136238392Y-90025000D01*
X136452678Y-90025000D01*
X136524107Y-90060714D01*
X136559821Y-90096428D01*
X136595535Y-90167857D01*
X136595535Y-90310714D01*
X136559821Y-90382142D01*
X136595535Y-89596428D02*
X136559821Y-89667857D01*
X136488392Y-89703571D01*
X135845535Y-89703571D01*
X136559821Y-89025000D02*
X136595535Y-89096428D01*
X136595535Y-89239285D01*
X136559821Y-89310714D01*
X136488392Y-89346428D01*
X136202678Y-89346428D01*
X136131250Y-89310714D01*
X136095535Y-89239285D01*
X136095535Y-89096428D01*
X136131250Y-89025000D01*
X136202678Y-88989285D01*
X136274107Y-88989285D01*
X136345535Y-89346428D01*
X106378571Y-99925000D02*
X106307142Y-99889285D01*
X106200000Y-99889285D01*
X106092857Y-99925000D01*
X106021428Y-99996428D01*
X105985714Y-100067857D01*
X105950000Y-100210714D01*
X105950000Y-100317857D01*
X105985714Y-100460714D01*
X106021428Y-100532142D01*
X106092857Y-100603571D01*
X106200000Y-100639285D01*
X106271428Y-100639285D01*
X106378571Y-100603571D01*
X106414285Y-100567857D01*
X106414285Y-100317857D01*
X106271428Y-100317857D01*
X106735714Y-100639285D02*
X106735714Y-99889285D01*
X107164285Y-100639285D01*
X107164285Y-99889285D01*
X107521428Y-100639285D02*
X107521428Y-99889285D01*
X107700000Y-99889285D01*
X107807142Y-99925000D01*
X107878571Y-99996428D01*
X107914285Y-100067857D01*
X107950000Y-100210714D01*
X107950000Y-100317857D01*
X107914285Y-100460714D01*
X107878571Y-100532142D01*
X107807142Y-100603571D01*
X107700000Y-100639285D01*
X107521428Y-100639285D01*
X108735714Y-100639285D02*
X108735714Y-99889285D01*
X109021428Y-99889285D01*
X109092857Y-99925000D01*
X109128571Y-99960714D01*
X109164285Y-100032142D01*
X109164285Y-100139285D01*
X109128571Y-100210714D01*
X109092857Y-100246428D01*
X109021428Y-100282142D01*
X108735714Y-100282142D01*
X109414285Y-99889285D02*
X109592857Y-100639285D01*
X109735714Y-100103571D01*
X109878571Y-100639285D01*
X110057142Y-99889285D01*
X110771428Y-100639285D02*
X110521428Y-100282142D01*
X110342857Y-100639285D02*
X110342857Y-99889285D01*
X110628571Y-99889285D01*
X110700000Y-99925000D01*
X110735714Y-99960714D01*
X110771428Y-100032142D01*
X110771428Y-100139285D01*
X110735714Y-100210714D01*
X110700000Y-100246428D01*
X110628571Y-100282142D01*
X110342857Y-100282142D01*
X111092857Y-100353571D02*
X111664285Y-100353571D01*
X111378571Y-100639285D02*
X111378571Y-100067857D01*
X111124800Y-96962285D02*
X111160514Y-96890857D01*
X111160514Y-96783714D01*
X111124800Y-96676571D01*
X111053371Y-96605142D01*
X110981942Y-96569428D01*
X110839085Y-96533714D01*
X110731942Y-96533714D01*
X110589085Y-96569428D01*
X110517657Y-96605142D01*
X110446228Y-96676571D01*
X110410514Y-96783714D01*
X110410514Y-96855142D01*
X110446228Y-96962285D01*
X110481942Y-96998000D01*
X110731942Y-96998000D01*
X110731942Y-96855142D01*
X110410514Y-97319428D02*
X111160514Y-97319428D01*
X111160514Y-97605142D01*
X111124800Y-97676571D01*
X111089085Y-97712285D01*
X111017657Y-97748000D01*
X110910514Y-97748000D01*
X110839085Y-97712285D01*
X110803371Y-97676571D01*
X110767657Y-97605142D01*
X110767657Y-97319428D01*
X110446228Y-98033714D02*
X110410514Y-98140857D01*
X110410514Y-98319428D01*
X110446228Y-98390857D01*
X110481942Y-98426571D01*
X110553371Y-98462285D01*
X110624800Y-98462285D01*
X110696228Y-98426571D01*
X110731942Y-98390857D01*
X110767657Y-98319428D01*
X110803371Y-98176571D01*
X110839085Y-98105142D01*
X110874800Y-98069428D01*
X110946228Y-98033714D01*
X111017657Y-98033714D01*
X111089085Y-98069428D01*
X111124800Y-98105142D01*
X111160514Y-98176571D01*
X111160514Y-98355142D01*
X111124800Y-98462285D01*
X110410714Y-92225000D02*
X110767857Y-91975000D01*
X110410714Y-91796428D02*
X111160714Y-91796428D01*
X111160714Y-92082142D01*
X111125000Y-92153571D01*
X111089285Y-92189285D01*
X111017857Y-92225000D01*
X110910714Y-92225000D01*
X110839285Y-92189285D01*
X110803571Y-92153571D01*
X110767857Y-92082142D01*
X110767857Y-91796428D01*
X111160714Y-92475000D02*
X110410714Y-92975000D01*
X111160714Y-92975000D02*
X110410714Y-92475000D01*
X110410714Y-94082142D02*
X111160714Y-94082142D01*
X111160714Y-94367857D01*
X111125000Y-94439285D01*
X111089285Y-94475000D01*
X111017857Y-94510714D01*
X110910714Y-94510714D01*
X110839285Y-94475000D01*
X110803571Y-94439285D01*
X110767857Y-94367857D01*
X110767857Y-94082142D01*
X111160714Y-94725000D02*
X111160714Y-95153571D01*
X110410714Y-94939285D02*
X111160714Y-94939285D01*
X111160714Y-95296428D02*
X111160714Y-95725000D01*
X110410714Y-95510714D02*
X111160714Y-95510714D01*
X110410714Y-88750000D02*
X111160714Y-88750000D01*
X111160714Y-89035714D01*
X111125000Y-89107142D01*
X111089285Y-89142857D01*
X111017857Y-89178571D01*
X110910714Y-89178571D01*
X110839285Y-89142857D01*
X110803571Y-89107142D01*
X110767857Y-89035714D01*
X110767857Y-88750000D01*
X111160714Y-89428571D02*
X110410714Y-89607142D01*
X110946428Y-89750000D01*
X110410714Y-89892857D01*
X111160714Y-90071428D01*
X110410714Y-90785714D02*
X110767857Y-90535714D01*
X110410714Y-90357142D02*
X111160714Y-90357142D01*
X111160714Y-90642857D01*
X111125000Y-90714285D01*
X111089285Y-90750000D01*
X111017857Y-90785714D01*
X110910714Y-90785714D01*
X110839285Y-90750000D01*
X110803571Y-90714285D01*
X110767857Y-90642857D01*
X110767857Y-90357142D01*
D12*
X153150000Y-110514285D02*
X153150000Y-109800000D01*
X153578571Y-110657142D02*
X152078571Y-110157142D01*
X153578571Y-109657142D01*
X152578571Y-108514285D02*
X153578571Y-108514285D01*
X152578571Y-109157142D02*
X153364285Y-109157142D01*
X153507142Y-109085714D01*
X153578571Y-108942857D01*
X153578571Y-108728571D01*
X153507142Y-108585714D01*
X153435714Y-108514285D01*
X153578571Y-107157142D02*
X152078571Y-107157142D01*
X153507142Y-107157142D02*
X153578571Y-107300000D01*
X153578571Y-107585714D01*
X153507142Y-107728571D01*
X153435714Y-107800000D01*
X153292857Y-107871428D01*
X152864285Y-107871428D01*
X152721428Y-107800000D01*
X152650000Y-107728571D01*
X152578571Y-107585714D01*
X152578571Y-107300000D01*
X152650000Y-107157142D01*
X153578571Y-106442857D02*
X152578571Y-106442857D01*
X152078571Y-106442857D02*
X152150000Y-106514285D01*
X152221428Y-106442857D01*
X152150000Y-106371428D01*
X152078571Y-106442857D01*
X152221428Y-106442857D01*
X153578571Y-105514285D02*
X153507142Y-105657142D01*
X153435714Y-105728571D01*
X153292857Y-105800000D01*
X152864285Y-105800000D01*
X152721428Y-105728571D01*
X152650000Y-105657142D01*
X152578571Y-105514285D01*
X152578571Y-105300000D01*
X152650000Y-105157142D01*
X152721428Y-105085714D01*
X152864285Y-105014285D01*
X153292857Y-105014285D01*
X153435714Y-105085714D01*
X153507142Y-105157142D01*
X153578571Y-105300000D01*
X153578571Y-105514285D01*
X152078571Y-102942857D02*
X152078571Y-102657142D01*
X152150000Y-102514285D01*
X152292857Y-102371428D01*
X152578571Y-102300000D01*
X153078571Y-102300000D01*
X153364285Y-102371428D01*
X153507142Y-102514285D01*
X153578571Y-102657142D01*
X153578571Y-102942857D01*
X153507142Y-103085714D01*
X153364285Y-103228571D01*
X153078571Y-103300000D01*
X152578571Y-103300000D01*
X152292857Y-103228571D01*
X152150000Y-103085714D01*
X152078571Y-102942857D01*
X152578571Y-101014285D02*
X153578571Y-101014285D01*
X152578571Y-101657142D02*
X153364285Y-101657142D01*
X153507142Y-101585714D01*
X153578571Y-101442857D01*
X153578571Y-101228571D01*
X153507142Y-101085714D01*
X153435714Y-101014285D01*
X152578571Y-100514285D02*
X152578571Y-99942857D01*
X152078571Y-100300000D02*
X153364285Y-100300000D01*
X153507142Y-100228571D01*
X153578571Y-100085714D01*
X153578571Y-99942857D01*
X139850000Y-110557142D02*
X139850000Y-109842857D01*
X140278571Y-110700000D02*
X138778571Y-110200000D01*
X140278571Y-109700000D01*
X139278571Y-108557142D02*
X140278571Y-108557142D01*
X139278571Y-109200000D02*
X140064285Y-109200000D01*
X140207142Y-109128571D01*
X140278571Y-108985714D01*
X140278571Y-108771428D01*
X140207142Y-108628571D01*
X140135714Y-108557142D01*
X140278571Y-107200000D02*
X138778571Y-107200000D01*
X140207142Y-107200000D02*
X140278571Y-107342857D01*
X140278571Y-107628571D01*
X140207142Y-107771428D01*
X140135714Y-107842857D01*
X139992857Y-107914285D01*
X139564285Y-107914285D01*
X139421428Y-107842857D01*
X139350000Y-107771428D01*
X139278571Y-107628571D01*
X139278571Y-107342857D01*
X139350000Y-107200000D01*
X140278571Y-106485714D02*
X139278571Y-106485714D01*
X138778571Y-106485714D02*
X138850000Y-106557142D01*
X138921428Y-106485714D01*
X138850000Y-106414285D01*
X138778571Y-106485714D01*
X138921428Y-106485714D01*
X140278571Y-105557142D02*
X140207142Y-105700000D01*
X140135714Y-105771428D01*
X139992857Y-105842857D01*
X139564285Y-105842857D01*
X139421428Y-105771428D01*
X139350000Y-105700000D01*
X139278571Y-105557142D01*
X139278571Y-105342857D01*
X139350000Y-105200000D01*
X139421428Y-105128571D01*
X139564285Y-105057142D01*
X139992857Y-105057142D01*
X140135714Y-105128571D01*
X140207142Y-105200000D01*
X140278571Y-105342857D01*
X140278571Y-105557142D01*
X140278571Y-103271428D02*
X138778571Y-103271428D01*
X139278571Y-102557142D02*
X140278571Y-102557142D01*
X139421428Y-102557142D02*
X139350000Y-102485714D01*
X139278571Y-102342857D01*
X139278571Y-102128571D01*
X139350000Y-101985714D01*
X139492857Y-101914285D01*
X140278571Y-101914285D01*
D13*
X123128571Y-109852380D02*
X123128571Y-108852380D01*
X123461904Y-109566666D01*
X123795238Y-108852380D01*
X123795238Y-109852380D01*
X124271428Y-109852380D02*
X124271428Y-108852380D01*
X125319047Y-109757142D02*
X125271428Y-109804761D01*
X125128571Y-109852380D01*
X125033333Y-109852380D01*
X124890476Y-109804761D01*
X124795238Y-109709523D01*
X124747619Y-109614285D01*
X124700000Y-109423809D01*
X124700000Y-109280952D01*
X124747619Y-109090476D01*
X124795238Y-108995238D01*
X124890476Y-108900000D01*
X125033333Y-108852380D01*
X125128571Y-108852380D01*
X125271428Y-108900000D01*
X125319047Y-108947619D01*
X123176190Y-107252380D02*
X123176190Y-106252380D01*
X123557142Y-106252380D01*
X123652380Y-106300000D01*
X123700000Y-106347619D01*
X123747619Y-106442857D01*
X123747619Y-106585714D01*
X123700000Y-106680952D01*
X123652380Y-106728571D01*
X123557142Y-106776190D01*
X123176190Y-106776190D01*
X124033333Y-106252380D02*
X124604761Y-106252380D01*
X124319047Y-107252380D02*
X124319047Y-106252380D01*
X124795238Y-106252380D02*
X125366666Y-106252380D01*
X125080952Y-107252380D02*
X125080952Y-106252380D01*
X123114285Y-104620961D02*
X123257142Y-104668580D01*
X123495238Y-104668580D01*
X123590476Y-104620961D01*
X123638095Y-104573342D01*
X123685714Y-104478104D01*
X123685714Y-104382866D01*
X123638095Y-104287628D01*
X123590476Y-104240009D01*
X123495238Y-104192390D01*
X123304761Y-104144771D01*
X123209523Y-104097152D01*
X123161904Y-104049533D01*
X123114285Y-103954295D01*
X123114285Y-103859057D01*
X123161904Y-103763819D01*
X123209523Y-103716200D01*
X123304761Y-103668580D01*
X123542857Y-103668580D01*
X123685714Y-103716200D01*
X124114285Y-104668580D02*
X124114285Y-103668580D01*
X124495238Y-103668580D01*
X124590476Y-103716200D01*
X124638095Y-103763819D01*
X124685714Y-103859057D01*
X124685714Y-104001914D01*
X124638095Y-104097152D01*
X124590476Y-104144771D01*
X124495238Y-104192390D01*
X124114285Y-104192390D01*
X125114285Y-104668580D02*
X125114285Y-103668580D01*
X125685714Y-104668580D02*
X125257142Y-104097152D01*
X125685714Y-103668580D02*
X125114285Y-104240009D01*
X123638095Y-101300000D02*
X123542857Y-101252380D01*
X123400000Y-101252380D01*
X123257142Y-101300000D01*
X123161904Y-101395238D01*
X123114285Y-101490476D01*
X123066666Y-101680952D01*
X123066666Y-101823809D01*
X123114285Y-102014285D01*
X123161904Y-102109523D01*
X123257142Y-102204761D01*
X123400000Y-102252380D01*
X123495238Y-102252380D01*
X123638095Y-102204761D01*
X123685714Y-102157142D01*
X123685714Y-101823809D01*
X123495238Y-101823809D01*
X124114285Y-102252380D02*
X124114285Y-101252380D01*
X124685714Y-102252380D01*
X124685714Y-101252380D01*
X125161904Y-102252380D02*
X125161904Y-101252380D01*
X125400000Y-101252380D01*
X125542857Y-101300000D01*
X125638095Y-101395238D01*
X125685714Y-101490476D01*
X125733333Y-101680952D01*
X125733333Y-101823809D01*
X125685714Y-102014285D01*
X125638095Y-102109523D01*
X125542857Y-102204761D01*
X125400000Y-102252380D01*
X125161904Y-102252380D01*
D14*
%TO.C,J9*%
X162894000Y-104160000D02*
X168864000Y-104160000D01*
X168864000Y-104160000D02*
X168864000Y-89040000D01*
X168864000Y-89040000D02*
X162894000Y-89040000D01*
X162894000Y-89040000D02*
X162894000Y-104160000D01*
X162904000Y-100850000D02*
X163654000Y-100850000D01*
X163654000Y-100850000D02*
X163654000Y-92350000D01*
X163654000Y-92350000D02*
X162904000Y-92350000D01*
X162904000Y-92350000D02*
X162904000Y-100850000D01*
X162904000Y-104150000D02*
X163654000Y-104150000D01*
X163654000Y-104150000D02*
X163654000Y-102350000D01*
X163654000Y-102350000D02*
X162904000Y-102350000D01*
X162904000Y-102350000D02*
X162904000Y-104150000D01*
X162904000Y-90850000D02*
X163654000Y-90850000D01*
X163654000Y-90850000D02*
X163654000Y-89050000D01*
X163654000Y-89050000D02*
X162904000Y-89050000D01*
X162904000Y-89050000D02*
X162904000Y-90850000D01*
X165154000Y-104150000D02*
X165154000Y-103400000D01*
X165154000Y-103400000D02*
X168104000Y-103400000D01*
X168104000Y-103400000D02*
X168104000Y-96600000D01*
X165154000Y-89050000D02*
X165154000Y-89800000D01*
X165154000Y-89800000D02*
X168104000Y-89800000D01*
X168104000Y-89800000D02*
X168104000Y-96600000D01*
X162604000Y-103200000D02*
X162604000Y-104450000D01*
X162604000Y-104450000D02*
X163854000Y-104450000D01*
%TO.C,C4*%
X127760000Y-96953733D02*
X127760000Y-97246267D01*
X126740000Y-96953733D02*
X126740000Y-97246267D01*
%TO.C,RV1*%
X128325000Y-93570000D02*
X138095000Y-93570000D01*
X128325000Y-98640000D02*
X138095000Y-98640000D01*
X128325000Y-93570000D02*
X128325000Y-98640000D01*
X138095000Y-93570000D02*
X138095000Y-98640000D01*
%TO.C,R6*%
X115977500Y-90345276D02*
X115977500Y-90854724D01*
X117022500Y-90345276D02*
X117022500Y-90854724D01*
%TO.C,R4*%
X121977500Y-90345276D02*
X121977500Y-90854724D01*
X123022500Y-90345276D02*
X123022500Y-90854724D01*
%TO.C,R2*%
X121977500Y-96595276D02*
X121977500Y-97104724D01*
X123022500Y-96595276D02*
X123022500Y-97104724D01*
%TO.C,R1*%
X115977500Y-96505276D02*
X115977500Y-97014724D01*
X117022500Y-96505276D02*
X117022500Y-97014724D01*
D15*
%TO.C,Q4*%
X115150000Y-91425000D02*
X114850000Y-91425000D01*
X115150000Y-91050000D02*
X115150000Y-91425000D01*
X111850000Y-91425000D02*
X111850000Y-90975000D01*
X112150000Y-91425000D02*
X111850000Y-91425000D01*
X112075000Y-91425000D02*
X112200000Y-91425000D01*
X111850000Y-89775000D02*
X112200000Y-89775000D01*
X111850000Y-90250000D02*
X111850000Y-89775000D01*
X114825000Y-89775000D02*
X114825000Y-89000000D01*
X114875000Y-89775000D02*
X114825000Y-89775000D01*
X115150000Y-90150000D02*
X114875000Y-89775000D01*
X115150000Y-90425000D02*
X115150000Y-90150000D01*
%TO.C,Q3*%
X121150000Y-91425000D02*
X120850000Y-91425000D01*
X121150000Y-91050000D02*
X121150000Y-91425000D01*
X117850000Y-91425000D02*
X117850000Y-90975000D01*
X118150000Y-91425000D02*
X117850000Y-91425000D01*
X118075000Y-91425000D02*
X118200000Y-91425000D01*
X117850000Y-89775000D02*
X118200000Y-89775000D01*
X117850000Y-90250000D02*
X117850000Y-89775000D01*
X120825000Y-89775000D02*
X120825000Y-89000000D01*
X120875000Y-89775000D02*
X120825000Y-89775000D01*
X121150000Y-90150000D02*
X120875000Y-89775000D01*
X121150000Y-90425000D02*
X121150000Y-90150000D01*
%TO.C,Q2*%
X121150000Y-97675000D02*
X120850000Y-97675000D01*
X121150000Y-97300000D02*
X121150000Y-97675000D01*
X117850000Y-97675000D02*
X117850000Y-97225000D01*
X118150000Y-97675000D02*
X117850000Y-97675000D01*
X118075000Y-97675000D02*
X118200000Y-97675000D01*
X117850000Y-96025000D02*
X118200000Y-96025000D01*
X117850000Y-96500000D02*
X117850000Y-96025000D01*
X120825000Y-96025000D02*
X120825000Y-95250000D01*
X120875000Y-96025000D02*
X120825000Y-96025000D01*
X121150000Y-96400000D02*
X120875000Y-96025000D01*
X121150000Y-96675000D02*
X121150000Y-96400000D01*
%TO.C,Q1*%
X115145000Y-97585000D02*
X114845000Y-97585000D01*
X115145000Y-97210000D02*
X115145000Y-97585000D01*
X111845000Y-97585000D02*
X111845000Y-97135000D01*
X112145000Y-97585000D02*
X111845000Y-97585000D01*
X112070000Y-97585000D02*
X112195000Y-97585000D01*
X111845000Y-95935000D02*
X112195000Y-95935000D01*
X111845000Y-96410000D02*
X111845000Y-95935000D01*
X114820000Y-95935000D02*
X114820000Y-95160000D01*
X114870000Y-95935000D02*
X114820000Y-95935000D01*
X115145000Y-96310000D02*
X114870000Y-95935000D01*
X115145000Y-96585000D02*
X115145000Y-96310000D01*
D14*
%TO.C,J10*%
X133830000Y-89520000D02*
X133830000Y-90850000D01*
X132500000Y-89520000D02*
X133830000Y-89520000D01*
X131230000Y-89520000D02*
X131230000Y-92180000D01*
X131230000Y-92180000D02*
X128630000Y-92180000D01*
X131230000Y-89520000D02*
X128630000Y-89520000D01*
X128630000Y-89520000D02*
X128630000Y-92180000D01*
%TO.C,J8*%
X151330000Y-110720000D02*
X150000000Y-110720000D01*
X151330000Y-109390000D02*
X151330000Y-110720000D01*
X151330000Y-108120000D02*
X148670000Y-108120000D01*
X148670000Y-108120000D02*
X148670000Y-105520000D01*
X151330000Y-108120000D02*
X151330000Y-105520000D01*
X151330000Y-105520000D02*
X148670000Y-105520000D01*
D11*
%TO.C,J7*%
X141450000Y-111350000D02*
X147550000Y-111350000D01*
X141450000Y-99250000D02*
X147550000Y-99250000D01*
X141450000Y-111350000D02*
X141450000Y-99250000D01*
X147550000Y-111350000D02*
X147550000Y-99250000D01*
X141700000Y-111350000D02*
X141700000Y-113350000D01*
X147300000Y-111350000D02*
X147300000Y-113350000D01*
X141700000Y-113350000D02*
X147300000Y-113350000D01*
D14*
%TO.C,J6*%
X138080000Y-110680000D02*
X136750000Y-110680000D01*
X138080000Y-109350000D02*
X138080000Y-110680000D01*
X138080000Y-108080000D02*
X135420000Y-108080000D01*
X135420000Y-108080000D02*
X135420000Y-105480000D01*
X138080000Y-108080000D02*
X138080000Y-105480000D01*
X138080000Y-105480000D02*
X135420000Y-105480000D01*
D11*
%TO.C,J5*%
X128200000Y-111350000D02*
X134300000Y-111350000D01*
X128200000Y-99250000D02*
X134300000Y-99250000D01*
X128200000Y-111350000D02*
X128200000Y-99250000D01*
X134300000Y-111350000D02*
X134300000Y-99250000D01*
X128450000Y-111350000D02*
X128450000Y-113350000D01*
X134050000Y-111350000D02*
X134050000Y-113350000D01*
X128450000Y-113350000D02*
X134050000Y-113350000D01*
D14*
%TO.C,J4*%
X122330000Y-110680000D02*
X121000000Y-110680000D01*
X122330000Y-109350000D02*
X122330000Y-110680000D01*
X122330000Y-108080000D02*
X119670000Y-108080000D01*
X119670000Y-108080000D02*
X119670000Y-100400000D01*
X122330000Y-108080000D02*
X122330000Y-100400000D01*
X122330000Y-100400000D02*
X119670000Y-100400000D01*
D11*
%TO.C,J3*%
X112450000Y-111350000D02*
X118550000Y-111350000D01*
X112450000Y-99250000D02*
X118550000Y-99250000D01*
X112450000Y-111350000D02*
X112450000Y-99250000D01*
X118550000Y-111350000D02*
X118550000Y-99250000D01*
X112700000Y-111350000D02*
X112700000Y-113350000D01*
X118300000Y-111350000D02*
X118300000Y-113350000D01*
X112700000Y-113350000D02*
X118300000Y-113350000D01*
D14*
%TO.C,J1*%
X111030000Y-101470000D02*
X111030000Y-102800000D01*
X109700000Y-101470000D02*
X111030000Y-101470000D01*
X108430000Y-101470000D02*
X108430000Y-104130000D01*
X108430000Y-104130000D02*
X105830000Y-104130000D01*
X108430000Y-101470000D02*
X105830000Y-101470000D01*
X105830000Y-101470000D02*
X105830000Y-104130000D01*
%TO.C,D1*%
X110085000Y-88630000D02*
X106200000Y-88630000D01*
X110085000Y-90900000D02*
X110085000Y-88630000D01*
X106200000Y-90900000D02*
X110085000Y-90900000D01*
%TO.C,D4*%
X110084800Y-96308000D02*
X106199800Y-96308000D01*
X110084800Y-98578000D02*
X110084800Y-96308000D01*
X106199800Y-98578000D02*
X110084800Y-98578000D01*
%TO.C,D3*%
X110085000Y-91200000D02*
X106200000Y-91200000D01*
X110085000Y-93470000D02*
X110085000Y-91200000D01*
X106200000Y-93470000D02*
X110085000Y-93470000D01*
%TO.C,D2*%
X106200000Y-96010000D02*
X110085000Y-96010000D01*
X110085000Y-96010000D02*
X110085000Y-93740000D01*
X110085000Y-93740000D02*
X106200000Y-93740000D01*
%TO.C,J9*%
D11*
X166798666Y-94702380D02*
X166798666Y-95416666D01*
X166751047Y-95559523D01*
X166655809Y-95654761D01*
X166512952Y-95702380D01*
X166417714Y-95702380D01*
X167322476Y-95702380D02*
X167512952Y-95702380D01*
X167608190Y-95654761D01*
X167655809Y-95607142D01*
X167751047Y-95464285D01*
X167798666Y-95273809D01*
X167798666Y-94892857D01*
X167751047Y-94797619D01*
X167703428Y-94750000D01*
X167608190Y-94702380D01*
X167417714Y-94702380D01*
X167322476Y-94750000D01*
X167274857Y-94797619D01*
X167227238Y-94892857D01*
X167227238Y-95130952D01*
X167274857Y-95226190D01*
X167322476Y-95273809D01*
X167417714Y-95321428D01*
X167608190Y-95321428D01*
X167703428Y-95273809D01*
X167751047Y-95226190D01*
X167798666Y-95130952D01*
%TO.C,C4*%
X127607142Y-94516666D02*
X127654761Y-94564285D01*
X127702380Y-94707142D01*
X127702380Y-94802380D01*
X127654761Y-94945238D01*
X127559523Y-95040476D01*
X127464285Y-95088095D01*
X127273809Y-95135714D01*
X127130952Y-95135714D01*
X126940476Y-95088095D01*
X126845238Y-95040476D01*
X126750000Y-94945238D01*
X126702380Y-94802380D01*
X126702380Y-94707142D01*
X126750000Y-94564285D01*
X126797619Y-94516666D01*
X127035714Y-93659523D02*
X127702380Y-93659523D01*
X126654761Y-93897619D02*
X127369047Y-94135714D01*
X127369047Y-93516666D01*
%TO.C,RV1*%
X135654761Y-98302380D02*
X135321428Y-97826190D01*
X135083333Y-98302380D02*
X135083333Y-97302380D01*
X135464285Y-97302380D01*
X135559523Y-97350000D01*
X135607142Y-97397619D01*
X135654761Y-97492857D01*
X135654761Y-97635714D01*
X135607142Y-97730952D01*
X135559523Y-97778571D01*
X135464285Y-97826190D01*
X135083333Y-97826190D01*
X135940476Y-97302380D02*
X136273809Y-98302380D01*
X136607142Y-97302380D01*
X137464285Y-98302380D02*
X136892857Y-98302380D01*
X137178571Y-98302380D02*
X137178571Y-97302380D01*
X137083333Y-97445238D01*
X136988095Y-97540476D01*
X136892857Y-97588095D01*
%TO.C,R6*%
X116333333Y-88652380D02*
X116000000Y-88176190D01*
X115761904Y-88652380D02*
X115761904Y-87652380D01*
X116142857Y-87652380D01*
X116238095Y-87700000D01*
X116285714Y-87747619D01*
X116333333Y-87842857D01*
X116333333Y-87985714D01*
X116285714Y-88080952D01*
X116238095Y-88128571D01*
X116142857Y-88176190D01*
X115761904Y-88176190D01*
X117190476Y-87652380D02*
X117000000Y-87652380D01*
X116904761Y-87700000D01*
X116857142Y-87747619D01*
X116761904Y-87890476D01*
X116714285Y-88080952D01*
X116714285Y-88461904D01*
X116761904Y-88557142D01*
X116809523Y-88604761D01*
X116904761Y-88652380D01*
X117095238Y-88652380D01*
X117190476Y-88604761D01*
X117238095Y-88557142D01*
X117285714Y-88461904D01*
X117285714Y-88223809D01*
X117238095Y-88128571D01*
X117190476Y-88080952D01*
X117095238Y-88033333D01*
X116904761Y-88033333D01*
X116809523Y-88080952D01*
X116761904Y-88128571D01*
X116714285Y-88223809D01*
%TO.C,R4*%
X122333333Y-88652380D02*
X122000000Y-88176190D01*
X121761904Y-88652380D02*
X121761904Y-87652380D01*
X122142857Y-87652380D01*
X122238095Y-87700000D01*
X122285714Y-87747619D01*
X122333333Y-87842857D01*
X122333333Y-87985714D01*
X122285714Y-88080952D01*
X122238095Y-88128571D01*
X122142857Y-88176190D01*
X121761904Y-88176190D01*
X123190476Y-87985714D02*
X123190476Y-88652380D01*
X122952380Y-87604761D02*
X122714285Y-88319047D01*
X123333333Y-88319047D01*
%TO.C,R2*%
X122333333Y-94952380D02*
X122000000Y-94476190D01*
X121761904Y-94952380D02*
X121761904Y-93952380D01*
X122142857Y-93952380D01*
X122238095Y-94000000D01*
X122285714Y-94047619D01*
X122333333Y-94142857D01*
X122333333Y-94285714D01*
X122285714Y-94380952D01*
X122238095Y-94428571D01*
X122142857Y-94476190D01*
X121761904Y-94476190D01*
X122714285Y-94047619D02*
X122761904Y-94000000D01*
X122857142Y-93952380D01*
X123095238Y-93952380D01*
X123190476Y-94000000D01*
X123238095Y-94047619D01*
X123285714Y-94142857D01*
X123285714Y-94238095D01*
X123238095Y-94380952D01*
X122666666Y-94952380D01*
X123285714Y-94952380D01*
%TO.C,R1*%
X116333333Y-94952380D02*
X116000000Y-94476190D01*
X115761904Y-94952380D02*
X115761904Y-93952380D01*
X116142857Y-93952380D01*
X116238095Y-94000000D01*
X116285714Y-94047619D01*
X116333333Y-94142857D01*
X116333333Y-94285714D01*
X116285714Y-94380952D01*
X116238095Y-94428571D01*
X116142857Y-94476190D01*
X115761904Y-94476190D01*
X117285714Y-94952380D02*
X116714285Y-94952380D01*
X117000000Y-94952380D02*
X117000000Y-93952380D01*
X116904761Y-94095238D01*
X116809523Y-94190476D01*
X116714285Y-94238095D01*
%TO.C,Q4*%
X113404761Y-88647619D02*
X113309523Y-88600000D01*
X113214285Y-88504761D01*
X113071428Y-88361904D01*
X112976190Y-88314285D01*
X112880952Y-88314285D01*
X112928571Y-88552380D02*
X112833333Y-88504761D01*
X112738095Y-88409523D01*
X112690476Y-88219047D01*
X112690476Y-87885714D01*
X112738095Y-87695238D01*
X112833333Y-87600000D01*
X112928571Y-87552380D01*
X113119047Y-87552380D01*
X113214285Y-87600000D01*
X113309523Y-87695238D01*
X113357142Y-87885714D01*
X113357142Y-88219047D01*
X113309523Y-88409523D01*
X113214285Y-88504761D01*
X113119047Y-88552380D01*
X112928571Y-88552380D01*
X114214285Y-87885714D02*
X114214285Y-88552380D01*
X113976190Y-87504761D02*
X113738095Y-88219047D01*
X114357142Y-88219047D01*
%TO.C,Q3*%
X119404761Y-88647619D02*
X119309523Y-88600000D01*
X119214285Y-88504761D01*
X119071428Y-88361904D01*
X118976190Y-88314285D01*
X118880952Y-88314285D01*
X118928571Y-88552380D02*
X118833333Y-88504761D01*
X118738095Y-88409523D01*
X118690476Y-88219047D01*
X118690476Y-87885714D01*
X118738095Y-87695238D01*
X118833333Y-87600000D01*
X118928571Y-87552380D01*
X119119047Y-87552380D01*
X119214285Y-87600000D01*
X119309523Y-87695238D01*
X119357142Y-87885714D01*
X119357142Y-88219047D01*
X119309523Y-88409523D01*
X119214285Y-88504761D01*
X119119047Y-88552380D01*
X118928571Y-88552380D01*
X119690476Y-87552380D02*
X120309523Y-87552380D01*
X119976190Y-87933333D01*
X120119047Y-87933333D01*
X120214285Y-87980952D01*
X120261904Y-88028571D01*
X120309523Y-88123809D01*
X120309523Y-88361904D01*
X120261904Y-88457142D01*
X120214285Y-88504761D01*
X120119047Y-88552380D01*
X119833333Y-88552380D01*
X119738095Y-88504761D01*
X119690476Y-88457142D01*
%TO.C,Q2*%
X119504761Y-94847619D02*
X119409523Y-94800000D01*
X119314285Y-94704761D01*
X119171428Y-94561904D01*
X119076190Y-94514285D01*
X118980952Y-94514285D01*
X119028571Y-94752380D02*
X118933333Y-94704761D01*
X118838095Y-94609523D01*
X118790476Y-94419047D01*
X118790476Y-94085714D01*
X118838095Y-93895238D01*
X118933333Y-93800000D01*
X119028571Y-93752380D01*
X119219047Y-93752380D01*
X119314285Y-93800000D01*
X119409523Y-93895238D01*
X119457142Y-94085714D01*
X119457142Y-94419047D01*
X119409523Y-94609523D01*
X119314285Y-94704761D01*
X119219047Y-94752380D01*
X119028571Y-94752380D01*
X119838095Y-93847619D02*
X119885714Y-93800000D01*
X119980952Y-93752380D01*
X120219047Y-93752380D01*
X120314285Y-93800000D01*
X120361904Y-93847619D01*
X120409523Y-93942857D01*
X120409523Y-94038095D01*
X120361904Y-94180952D01*
X119790476Y-94752380D01*
X120409523Y-94752380D01*
%TO.C,Q1*%
X113404761Y-94747619D02*
X113309523Y-94700000D01*
X113214285Y-94604761D01*
X113071428Y-94461904D01*
X112976190Y-94414285D01*
X112880952Y-94414285D01*
X112928571Y-94652380D02*
X112833333Y-94604761D01*
X112738095Y-94509523D01*
X112690476Y-94319047D01*
X112690476Y-93985714D01*
X112738095Y-93795238D01*
X112833333Y-93700000D01*
X112928571Y-93652380D01*
X113119047Y-93652380D01*
X113214285Y-93700000D01*
X113309523Y-93795238D01*
X113357142Y-93985714D01*
X113357142Y-94319047D01*
X113309523Y-94509523D01*
X113214285Y-94604761D01*
X113119047Y-94652380D01*
X112928571Y-94652380D01*
X114309523Y-94652380D02*
X113738095Y-94652380D01*
X114023809Y-94652380D02*
X114023809Y-93652380D01*
X113928571Y-93795238D01*
X113833333Y-93890476D01*
X113738095Y-93938095D01*
%TO.C,J10*%
X130702380Y-91659523D02*
X131416666Y-91659523D01*
X131559523Y-91707142D01*
X131654761Y-91802380D01*
X131702380Y-91945238D01*
X131702380Y-92040476D01*
X131702380Y-90659523D02*
X131702380Y-91230952D01*
X131702380Y-90945238D02*
X130702380Y-90945238D01*
X130845238Y-91040476D01*
X130940476Y-91135714D01*
X130988095Y-91230952D01*
X130702380Y-90040476D02*
X130702380Y-89945238D01*
X130750000Y-89850000D01*
X130797619Y-89802380D01*
X130892857Y-89754761D01*
X131083333Y-89707142D01*
X131321428Y-89707142D01*
X131511904Y-89754761D01*
X131607142Y-89802380D01*
X131654761Y-89850000D01*
X131702380Y-89945238D01*
X131702380Y-90040476D01*
X131654761Y-90135714D01*
X131607142Y-90183333D01*
X131511904Y-90230952D01*
X131321428Y-90278571D01*
X131083333Y-90278571D01*
X130892857Y-90230952D01*
X130797619Y-90183333D01*
X130750000Y-90135714D01*
X130702380Y-90040476D01*
%TO.C,J8*%
X149452380Y-108683333D02*
X150166666Y-108683333D01*
X150309523Y-108730952D01*
X150404761Y-108826190D01*
X150452380Y-108969047D01*
X150452380Y-109064285D01*
X149880952Y-108064285D02*
X149833333Y-108159523D01*
X149785714Y-108207142D01*
X149690476Y-108254761D01*
X149642857Y-108254761D01*
X149547619Y-108207142D01*
X149500000Y-108159523D01*
X149452380Y-108064285D01*
X149452380Y-107873809D01*
X149500000Y-107778571D01*
X149547619Y-107730952D01*
X149642857Y-107683333D01*
X149690476Y-107683333D01*
X149785714Y-107730952D01*
X149833333Y-107778571D01*
X149880952Y-107873809D01*
X149880952Y-108064285D01*
X149928571Y-108159523D01*
X149976190Y-108207142D01*
X150071428Y-108254761D01*
X150261904Y-108254761D01*
X150357142Y-108207142D01*
X150404761Y-108159523D01*
X150452380Y-108064285D01*
X150452380Y-107873809D01*
X150404761Y-107778571D01*
X150357142Y-107730952D01*
X150261904Y-107683333D01*
X150071428Y-107683333D01*
X149976190Y-107730952D01*
X149928571Y-107778571D01*
X149880952Y-107873809D01*
%TO.C,J6*%
X136202380Y-108433333D02*
X136916666Y-108433333D01*
X137059523Y-108480952D01*
X137154761Y-108576190D01*
X137202380Y-108719047D01*
X137202380Y-108814285D01*
X136202380Y-107528571D02*
X136202380Y-107719047D01*
X136250000Y-107814285D01*
X136297619Y-107861904D01*
X136440476Y-107957142D01*
X136630952Y-108004761D01*
X137011904Y-108004761D01*
X137107142Y-107957142D01*
X137154761Y-107909523D01*
X137202380Y-107814285D01*
X137202380Y-107623809D01*
X137154761Y-107528571D01*
X137107142Y-107480952D01*
X137011904Y-107433333D01*
X136773809Y-107433333D01*
X136678571Y-107480952D01*
X136630952Y-107528571D01*
X136583333Y-107623809D01*
X136583333Y-107814285D01*
X136630952Y-107909523D01*
X136678571Y-107957142D01*
X136773809Y-108004761D01*
%TO.C,J4*%
X120452380Y-105933333D02*
X121166666Y-105933333D01*
X121309523Y-105980952D01*
X121404761Y-106076190D01*
X121452380Y-106219047D01*
X121452380Y-106314285D01*
X120785714Y-105028571D02*
X121452380Y-105028571D01*
X120404761Y-105266666D02*
X121119047Y-105504761D01*
X121119047Y-104885714D01*
%TO.C,J1*%
X108116666Y-102252380D02*
X108116666Y-102966666D01*
X108069047Y-103109523D01*
X107973809Y-103204761D01*
X107830952Y-103252380D01*
X107735714Y-103252380D01*
X109116666Y-103252380D02*
X108545238Y-103252380D01*
X108830952Y-103252380D02*
X108830952Y-102252380D01*
X108735714Y-102395238D01*
X108640476Y-102490476D01*
X108545238Y-102538095D01*
%TO.C,D1*%
X107083904Y-90202380D02*
X107083904Y-89202380D01*
X107322000Y-89202380D01*
X107464857Y-89250000D01*
X107560095Y-89345238D01*
X107607714Y-89440476D01*
X107655333Y-89630952D01*
X107655333Y-89773809D01*
X107607714Y-89964285D01*
X107560095Y-90059523D01*
X107464857Y-90154761D01*
X107322000Y-90202380D01*
X107083904Y-90202380D01*
X108607714Y-90202380D02*
X108036285Y-90202380D01*
X108322000Y-90202380D02*
X108322000Y-89202380D01*
X108226761Y-89345238D01*
X108131523Y-89440476D01*
X108036285Y-89488095D01*
%TO.C,D4*%
X107061704Y-97900380D02*
X107061704Y-96900380D01*
X107299800Y-96900380D01*
X107442657Y-96948000D01*
X107537895Y-97043238D01*
X107585514Y-97138476D01*
X107633133Y-97328952D01*
X107633133Y-97471809D01*
X107585514Y-97662285D01*
X107537895Y-97757523D01*
X107442657Y-97852761D01*
X107299800Y-97900380D01*
X107061704Y-97900380D01*
X108490276Y-97233714D02*
X108490276Y-97900380D01*
X108252180Y-96852761D02*
X108014085Y-97567047D01*
X108633133Y-97567047D01*
%TO.C,D3*%
X107061904Y-92752380D02*
X107061904Y-91752380D01*
X107300000Y-91752380D01*
X107442857Y-91800000D01*
X107538095Y-91895238D01*
X107585714Y-91990476D01*
X107633333Y-92180952D01*
X107633333Y-92323809D01*
X107585714Y-92514285D01*
X107538095Y-92609523D01*
X107442857Y-92704761D01*
X107300000Y-92752380D01*
X107061904Y-92752380D01*
X107966666Y-91752380D02*
X108585714Y-91752380D01*
X108252380Y-92133333D01*
X108395238Y-92133333D01*
X108490476Y-92180952D01*
X108538095Y-92228571D01*
X108585714Y-92323809D01*
X108585714Y-92561904D01*
X108538095Y-92657142D01*
X108490476Y-92704761D01*
X108395238Y-92752380D01*
X108109523Y-92752380D01*
X108014285Y-92704761D01*
X107966666Y-92657142D01*
%TO.C,D2*%
X107083904Y-95352380D02*
X107083904Y-94352380D01*
X107322000Y-94352380D01*
X107464857Y-94400000D01*
X107560095Y-94495238D01*
X107607714Y-94590476D01*
X107655333Y-94780952D01*
X107655333Y-94923809D01*
X107607714Y-95114285D01*
X107560095Y-95209523D01*
X107464857Y-95304761D01*
X107322000Y-95352380D01*
X107083904Y-95352380D01*
X108036285Y-94447619D02*
X108083904Y-94400000D01*
X108179142Y-94352380D01*
X108417238Y-94352380D01*
X108512476Y-94400000D01*
X108560095Y-94447619D01*
X108607714Y-94542857D01*
X108607714Y-94638095D01*
X108560095Y-94780952D01*
X107988666Y-95352380D01*
X108607714Y-95352380D01*
%TD*%
M02*
