%TF.GenerationSoftware,KiCad,Pcbnew,(5.1.9)-1*%
%TF.CreationDate,2021-06-10T09:26:42-06:00*%
%TF.ProjectId,sl-pi-aprs,736c2d70-692d-4617-9072-732e6b696361,rev?*%
%TF.SameCoordinates,Original*%
%TF.FileFunction,Copper,L2,Bot*%
%TF.FilePolarity,Positive*%
%FSLAX46Y46*%
G04 Gerber Fmt 4.6, Leading zero omitted, Abs format (unit mm)*
G04 Created by KiCad (PCBNEW (5.1.9)-1) date 2021-06-10 09:26:42*
%MOMM*%
%LPD*%
G01*
G04 APERTURE LIST*
%TA.AperFunction,ComponentPad*%
%ADD10O,1.950000X1.700000*%
%TD*%
%TA.AperFunction,ComponentPad*%
%ADD11O,1.700000X1.700000*%
%TD*%
%TA.AperFunction,ComponentPad*%
%ADD12R,1.700000X1.700000*%
%TD*%
%TA.AperFunction,ComponentPad*%
%ADD13C,1.440000*%
%TD*%
%TA.AperFunction,SMDPad,CuDef*%
%ADD14R,1.500000X2.000000*%
%TD*%
%TA.AperFunction,SMDPad,CuDef*%
%ADD15R,3.800000X2.000000*%
%TD*%
%TA.AperFunction,ComponentPad*%
%ADD16O,1.600000X2.000000*%
%TD*%
%TA.AperFunction,ViaPad*%
%ADD17C,0.800000*%
%TD*%
%TA.AperFunction,Conductor*%
%ADD18C,0.250000*%
%TD*%
%TA.AperFunction,Conductor*%
%ADD19C,0.750000*%
%TD*%
%TA.AperFunction,Conductor*%
%ADD20C,0.254000*%
%TD*%
%TA.AperFunction,Conductor*%
%ADD21C,0.100000*%
%TD*%
G04 APERTURE END LIST*
D10*
%TO.P,J9,5*%
%TO.N,gps_pps*%
X165354000Y-91600000D03*
%TO.P,J9,4*%
%TO.N,pi_rx*%
X165354000Y-94100000D03*
%TO.P,J9,3*%
%TO.N,pi_tx*%
X165354000Y-96600000D03*
%TO.P,J9,2*%
%TO.N,GND*%
X165354000Y-99100000D03*
%TO.P,J9,1*%
%TO.N,+3V3*%
%TA.AperFunction,ComponentPad*%
G36*
G01*
X166079000Y-102450000D02*
X164629000Y-102450000D01*
G75*
G02*
X164379000Y-102200000I0J250000D01*
G01*
X164379000Y-101000000D01*
G75*
G02*
X164629000Y-100750000I250000J0D01*
G01*
X166079000Y-100750000D01*
G75*
G02*
X166329000Y-101000000I0J-250000D01*
G01*
X166329000Y-102200000D01*
G75*
G02*
X166079000Y-102450000I-250000J0D01*
G01*
G37*
%TD.AperFunction*%
%TD*%
D11*
%TO.P,J2,40*%
%TO.N,Net-(J2-Pad40)*%
X161260000Y-83810000D03*
%TO.P,J2,39*%
%TO.N,GND*%
X161260000Y-86350000D03*
%TO.P,J2,26*%
%TO.N,Net-(J2-Pad26)*%
X143480000Y-83810000D03*
%TO.P,J2,25*%
%TO.N,GND*%
X143480000Y-86350000D03*
%TO.P,J2,22*%
%TO.N,ptt_control*%
X138400000Y-83810000D03*
%TO.P,J2,21*%
%TO.N,Net-(J2-Pad21)*%
X138400000Y-86350000D03*
%TO.P,J2,30*%
%TO.N,GND*%
X148560000Y-83810000D03*
%TO.P,J2,29*%
%TO.N,Net-(J2-Pad29)*%
X148560000Y-86350000D03*
%TO.P,J2,8*%
%TO.N,pi_tx*%
X120620000Y-83810000D03*
%TO.P,J2,7*%
%TO.N,Net-(J2-Pad7)*%
X120620000Y-86350000D03*
%TO.P,J2,32*%
%TO.N,Net-(J2-Pad32)*%
X151100000Y-83810000D03*
%TO.P,J2,31*%
%TO.N,Net-(J2-Pad31)*%
X151100000Y-86350000D03*
%TO.P,J2,18*%
%TO.N,rx_feedback*%
X133320000Y-83810000D03*
%TO.P,J2,17*%
%TO.N,Net-(J2-Pad17)*%
X133320000Y-86350000D03*
%TO.P,J2,36*%
%TO.N,Net-(J2-Pad36)*%
X156180000Y-83810000D03*
%TO.P,J2,35*%
%TO.N,Net-(J2-Pad35)*%
X156180000Y-86350000D03*
%TO.P,J2,34*%
%TO.N,GND*%
X153640000Y-83810000D03*
%TO.P,J2,33*%
%TO.N,Net-(J2-Pad33)*%
X153640000Y-86350000D03*
%TO.P,J2,38*%
%TO.N,Net-(J2-Pad38)*%
X158720000Y-83810000D03*
%TO.P,J2,37*%
%TO.N,Net-(J2-Pad37)*%
X158720000Y-86350000D03*
%TO.P,J2,20*%
%TO.N,GND*%
X135860000Y-83810000D03*
%TO.P,J2,19*%
%TO.N,Net-(J2-Pad19)*%
X135860000Y-86350000D03*
%TO.P,J2,10*%
%TO.N,pi_rx*%
X123160000Y-83810000D03*
%TO.P,J2,9*%
%TO.N,GND*%
X123160000Y-86350000D03*
%TO.P,J2,14*%
X128240000Y-83810000D03*
%TO.P,J2,13*%
%TO.N,Net-(J2-Pad13)*%
X128240000Y-86350000D03*
%TO.P,J2,28*%
%TO.N,Net-(J2-Pad28)*%
X146020000Y-83810000D03*
%TO.P,J2,27*%
%TO.N,Net-(J2-Pad27)*%
X146020000Y-86350000D03*
%TO.P,J2,12*%
%TO.N,Net-(J2-Pad12)*%
X125700000Y-83810000D03*
%TO.P,J2,11*%
%TO.N,Net-(J2-Pad11)*%
X125700000Y-86350000D03*
%TO.P,J2,24*%
%TO.N,Net-(J2-Pad24)*%
X140940000Y-83810000D03*
%TO.P,J2,23*%
%TO.N,Net-(J2-Pad23)*%
X140940000Y-86350000D03*
D12*
%TO.P,J2,1*%
%TO.N,Net-(J2-Pad1)*%
X113000000Y-86350000D03*
D11*
%TO.P,J2,2*%
%TO.N,+5V*%
X113000000Y-83810000D03*
%TO.P,J2,5*%
%TO.N,Net-(J2-Pad5)*%
X118080000Y-86350000D03*
%TO.P,J2,4*%
%TO.N,+5V*%
X115540000Y-83810000D03*
%TO.P,J2,16*%
%TO.N,gps_pps*%
X130780000Y-83810000D03*
%TO.P,J2,15*%
%TO.N,Net-(J2-Pad15)*%
X130780000Y-86350000D03*
%TO.P,J2,3*%
%TO.N,Net-(J2-Pad3)*%
X115540000Y-86350000D03*
%TO.P,J2,6*%
%TO.N,GND*%
X118080000Y-83810000D03*
%TD*%
D13*
%TO.P,RV1,3*%
%TO.N,GND*%
X130670000Y-96100000D03*
%TO.P,RV1,2*%
%TO.N,Net-(C4-Pad1)*%
X133210000Y-96100000D03*
%TO.P,RV1,1*%
%TO.N,audio_in*%
X135750000Y-96100000D03*
%TD*%
%TO.P,C1,2*%
%TO.N,GND*%
%TA.AperFunction,SMDPad,CuDef*%
G36*
G01*
X108512500Y-100262500D02*
X108512500Y-100737500D01*
G75*
G02*
X108275000Y-100975000I-237500J0D01*
G01*
X107675000Y-100975000D01*
G75*
G02*
X107437500Y-100737500I0J237500D01*
G01*
X107437500Y-100262500D01*
G75*
G02*
X107675000Y-100025000I237500J0D01*
G01*
X108275000Y-100025000D01*
G75*
G02*
X108512500Y-100262500I0J-237500D01*
G01*
G37*
%TD.AperFunction*%
%TO.P,C1,1*%
%TO.N,+BATT*%
%TA.AperFunction,SMDPad,CuDef*%
G36*
G01*
X110237500Y-100262500D02*
X110237500Y-100737500D01*
G75*
G02*
X110000000Y-100975000I-237500J0D01*
G01*
X109400000Y-100975000D01*
G75*
G02*
X109162500Y-100737500I0J237500D01*
G01*
X109162500Y-100262500D01*
G75*
G02*
X109400000Y-100025000I237500J0D01*
G01*
X110000000Y-100025000D01*
G75*
G02*
X110237500Y-100262500I0J-237500D01*
G01*
G37*
%TD.AperFunction*%
%TD*%
D14*
%TO.P,U2,1*%
%TO.N,GND*%
X126490000Y-96835000D03*
%TO.P,U2,3*%
%TO.N,+BATT*%
X121890000Y-96835000D03*
%TO.P,U2,2*%
%TO.N,+3V3*%
X124190000Y-96835000D03*
D15*
X124190000Y-90535000D03*
%TD*%
D14*
%TO.P,U1,1*%
%TO.N,GND*%
X118290000Y-96835000D03*
%TO.P,U1,3*%
%TO.N,+BATT*%
X113690000Y-96835000D03*
%TO.P,U1,2*%
%TO.N,+5V*%
X115990000Y-96835000D03*
D15*
X115990000Y-90535000D03*
%TD*%
%TO.P,R8,1*%
%TO.N,Net-(D1-Pad2)*%
%TA.AperFunction,SMDPad,CuDef*%
G36*
G01*
X106400000Y-90002500D02*
X106400000Y-89527500D01*
G75*
G02*
X106637500Y-89290000I237500J0D01*
G01*
X107137500Y-89290000D01*
G75*
G02*
X107375000Y-89527500I0J-237500D01*
G01*
X107375000Y-90002500D01*
G75*
G02*
X107137500Y-90240000I-237500J0D01*
G01*
X106637500Y-90240000D01*
G75*
G02*
X106400000Y-90002500I0J237500D01*
G01*
G37*
%TD.AperFunction*%
%TO.P,R8,2*%
%TO.N,+5V*%
%TA.AperFunction,SMDPad,CuDef*%
G36*
G01*
X108225000Y-90002500D02*
X108225000Y-89527500D01*
G75*
G02*
X108462500Y-89290000I237500J0D01*
G01*
X108962500Y-89290000D01*
G75*
G02*
X109200000Y-89527500I0J-237500D01*
G01*
X109200000Y-90002500D01*
G75*
G02*
X108962500Y-90240000I-237500J0D01*
G01*
X108462500Y-90240000D01*
G75*
G02*
X108225000Y-90002500I0J237500D01*
G01*
G37*
%TD.AperFunction*%
%TD*%
%TO.P,R7,2*%
%TO.N,+3V3*%
%TA.AperFunction,SMDPad,CuDef*%
G36*
G01*
X108224800Y-97680500D02*
X108224800Y-97205500D01*
G75*
G02*
X108462300Y-96968000I237500J0D01*
G01*
X108962300Y-96968000D01*
G75*
G02*
X109199800Y-97205500I0J-237500D01*
G01*
X109199800Y-97680500D01*
G75*
G02*
X108962300Y-97918000I-237500J0D01*
G01*
X108462300Y-97918000D01*
G75*
G02*
X108224800Y-97680500I0J237500D01*
G01*
G37*
%TD.AperFunction*%
%TO.P,R7,1*%
%TO.N,Net-(D4-Pad2)*%
%TA.AperFunction,SMDPad,CuDef*%
G36*
G01*
X106399800Y-97680500D02*
X106399800Y-97205500D01*
G75*
G02*
X106637300Y-96968000I237500J0D01*
G01*
X107137300Y-96968000D01*
G75*
G02*
X107374800Y-97205500I0J-237500D01*
G01*
X107374800Y-97680500D01*
G75*
G02*
X107137300Y-97918000I-237500J0D01*
G01*
X106637300Y-97918000D01*
G75*
G02*
X106399800Y-97680500I0J237500D01*
G01*
G37*
%TD.AperFunction*%
%TD*%
%TO.P,R5,2*%
%TO.N,+3V3*%
%TA.AperFunction,SMDPad,CuDef*%
G36*
G01*
X108225000Y-92572500D02*
X108225000Y-92097500D01*
G75*
G02*
X108462500Y-91860000I237500J0D01*
G01*
X108962500Y-91860000D01*
G75*
G02*
X109200000Y-92097500I0J-237500D01*
G01*
X109200000Y-92572500D01*
G75*
G02*
X108962500Y-92810000I-237500J0D01*
G01*
X108462500Y-92810000D01*
G75*
G02*
X108225000Y-92572500I0J237500D01*
G01*
G37*
%TD.AperFunction*%
%TO.P,R5,1*%
%TO.N,Net-(D3-Pad2)*%
%TA.AperFunction,SMDPad,CuDef*%
G36*
G01*
X106400000Y-92572500D02*
X106400000Y-92097500D01*
G75*
G02*
X106637500Y-91860000I237500J0D01*
G01*
X107137500Y-91860000D01*
G75*
G02*
X107375000Y-92097500I0J-237500D01*
G01*
X107375000Y-92572500D01*
G75*
G02*
X107137500Y-92810000I-237500J0D01*
G01*
X106637500Y-92810000D01*
G75*
G02*
X106400000Y-92572500I0J237500D01*
G01*
G37*
%TD.AperFunction*%
%TD*%
%TO.P,R3,2*%
%TO.N,+3V3*%
%TA.AperFunction,SMDPad,CuDef*%
G36*
G01*
X108225000Y-95112500D02*
X108225000Y-94637500D01*
G75*
G02*
X108462500Y-94400000I237500J0D01*
G01*
X108962500Y-94400000D01*
G75*
G02*
X109200000Y-94637500I0J-237500D01*
G01*
X109200000Y-95112500D01*
G75*
G02*
X108962500Y-95350000I-237500J0D01*
G01*
X108462500Y-95350000D01*
G75*
G02*
X108225000Y-95112500I0J237500D01*
G01*
G37*
%TD.AperFunction*%
%TO.P,R3,1*%
%TO.N,Net-(D2-Pad2)*%
%TA.AperFunction,SMDPad,CuDef*%
G36*
G01*
X106400000Y-95112500D02*
X106400000Y-94637500D01*
G75*
G02*
X106637500Y-94400000I237500J0D01*
G01*
X107137500Y-94400000D01*
G75*
G02*
X107375000Y-94637500I0J-237500D01*
G01*
X107375000Y-95112500D01*
G75*
G02*
X107137500Y-95350000I-237500J0D01*
G01*
X106637500Y-95350000D01*
G75*
G02*
X106400000Y-95112500I0J237500D01*
G01*
G37*
%TD.AperFunction*%
%TD*%
D11*
%TO.P,J10,2*%
%TO.N,Net-(J10-Pad2)*%
X129960000Y-90850000D03*
D12*
%TO.P,J10,1*%
%TO.N,GND*%
X132500000Y-90850000D03*
%TD*%
D11*
%TO.P,J8,2*%
%TO.N,GND*%
X150000000Y-106850000D03*
D12*
%TO.P,J8,1*%
%TO.N,radio_speaker*%
X150000000Y-109390000D03*
%TD*%
D16*
%TO.P,J7,R1*%
%TO.N,GND*%
X142200000Y-105150000D03*
%TO.P,J7,R2*%
X142200000Y-108150000D03*
%TO.P,J7,T*%
%TO.N,radio_speaker*%
X142200000Y-101150000D03*
%TO.P,J7,S*%
%TO.N,GND*%
X146800000Y-100050000D03*
%TD*%
D11*
%TO.P,J6,2*%
%TO.N,GND*%
X136750000Y-106810000D03*
D12*
%TO.P,J6,1*%
%TO.N,audio_in*%
X136750000Y-109350000D03*
%TD*%
D16*
%TO.P,J5,R1*%
%TO.N,GND*%
X128950000Y-105150000D03*
%TO.P,J5,R2*%
X128950000Y-108150000D03*
%TO.P,J5,T*%
%TO.N,audio_in*%
X128950000Y-101150000D03*
%TO.P,J5,S*%
%TO.N,GND*%
X133550000Y-100050000D03*
%TD*%
D11*
%TO.P,J4,4*%
%TO.N,GND*%
X121000000Y-101730000D03*
%TO.P,J4,3*%
%TO.N,radio_speaker*%
X121000000Y-104270000D03*
%TO.P,J4,2*%
%TO.N,ptt*%
X121000000Y-106810000D03*
D12*
%TO.P,J4,1*%
%TO.N,radio_mic*%
X121000000Y-109350000D03*
%TD*%
D16*
%TO.P,J3,R1*%
%TO.N,ptt*%
X113200000Y-105150000D03*
%TO.P,J3,R2*%
%TO.N,radio_mic*%
X113200000Y-108150000D03*
%TO.P,J3,T*%
%TO.N,radio_speaker*%
X113200000Y-101150000D03*
%TO.P,J3,S*%
%TO.N,GND*%
X117800000Y-100050000D03*
%TD*%
D11*
%TO.P,J1,2*%
%TO.N,GND*%
X107160000Y-102800000D03*
D12*
%TO.P,J1,1*%
%TO.N,+BATT*%
X109700000Y-102800000D03*
%TD*%
%TO.P,C3,2*%
%TO.N,GND*%
%TA.AperFunction,SMDPad,CuDef*%
G36*
G01*
X124012500Y-100425000D02*
X124487500Y-100425000D01*
G75*
G02*
X124725000Y-100662500I0J-237500D01*
G01*
X124725000Y-101262500D01*
G75*
G02*
X124487500Y-101500000I-237500J0D01*
G01*
X124012500Y-101500000D01*
G75*
G02*
X123775000Y-101262500I0J237500D01*
G01*
X123775000Y-100662500D01*
G75*
G02*
X124012500Y-100425000I237500J0D01*
G01*
G37*
%TD.AperFunction*%
%TO.P,C3,1*%
%TO.N,+3V3*%
%TA.AperFunction,SMDPad,CuDef*%
G36*
G01*
X124012500Y-98700000D02*
X124487500Y-98700000D01*
G75*
G02*
X124725000Y-98937500I0J-237500D01*
G01*
X124725000Y-99537500D01*
G75*
G02*
X124487500Y-99775000I-237500J0D01*
G01*
X124012500Y-99775000D01*
G75*
G02*
X123775000Y-99537500I0J237500D01*
G01*
X123775000Y-98937500D01*
G75*
G02*
X124012500Y-98700000I237500J0D01*
G01*
G37*
%TD.AperFunction*%
%TD*%
%TO.P,C2,2*%
%TO.N,GND*%
%TA.AperFunction,SMDPad,CuDef*%
G36*
G01*
X115762500Y-100425000D02*
X116237500Y-100425000D01*
G75*
G02*
X116475000Y-100662500I0J-237500D01*
G01*
X116475000Y-101262500D01*
G75*
G02*
X116237500Y-101500000I-237500J0D01*
G01*
X115762500Y-101500000D01*
G75*
G02*
X115525000Y-101262500I0J237500D01*
G01*
X115525000Y-100662500D01*
G75*
G02*
X115762500Y-100425000I237500J0D01*
G01*
G37*
%TD.AperFunction*%
%TO.P,C2,1*%
%TO.N,+5V*%
%TA.AperFunction,SMDPad,CuDef*%
G36*
G01*
X115762500Y-98700000D02*
X116237500Y-98700000D01*
G75*
G02*
X116475000Y-98937500I0J-237500D01*
G01*
X116475000Y-99537500D01*
G75*
G02*
X116237500Y-99775000I-237500J0D01*
G01*
X115762500Y-99775000D01*
G75*
G02*
X115525000Y-99537500I0J237500D01*
G01*
X115525000Y-98937500D01*
G75*
G02*
X115762500Y-98700000I237500J0D01*
G01*
G37*
%TD.AperFunction*%
%TD*%
D17*
%TO.N,GND*%
X111700000Y-93700000D03*
X117400000Y-103900000D03*
X117400000Y-106600000D03*
X125900000Y-102300000D03*
X127400000Y-91000000D03*
%TO.N,Net-(D1-Pad2)*%
X105157400Y-89765000D03*
%TO.N,Net-(D2-Pad2)*%
X105162000Y-94875000D03*
%TO.N,Net-(D3-Pad2)*%
X105162000Y-92335000D03*
%TO.N,Net-(D4-Pad2)*%
X105164600Y-97443000D03*
%TD*%
D18*
%TO.N,GND*%
X107975000Y-101985000D02*
X107160000Y-102800000D01*
X107975000Y-100500000D02*
X107975000Y-101985000D01*
D19*
X118290000Y-99560000D02*
X117800000Y-100050000D01*
X118290000Y-96835000D02*
X118290000Y-99560000D01*
X116887500Y-100962500D02*
X117800000Y-100050000D01*
X116000000Y-100962500D02*
X116887500Y-100962500D01*
X119480000Y-101730000D02*
X117800000Y-100050000D01*
X121000000Y-101730000D02*
X119480000Y-101730000D01*
X123482500Y-101730000D02*
X124250000Y-100962500D01*
X121000000Y-101730000D02*
X123482500Y-101730000D01*
X126515000Y-96835000D02*
X132500000Y-90850000D01*
X126490000Y-96835000D02*
X126515000Y-96835000D01*
X129935000Y-96835000D02*
X130670000Y-96100000D01*
X126490000Y-96835000D02*
X129935000Y-96835000D01*
X160654000Y-94400000D02*
X165354000Y-99100000D01*
X136050000Y-94400000D02*
X160654000Y-94400000D01*
X132500000Y-90850000D02*
X136050000Y-94400000D01*
D18*
X119255001Y-84985001D02*
X118080000Y-83810000D01*
X120994003Y-84985001D02*
X119255001Y-84985001D01*
X122359002Y-86350000D02*
X120994003Y-84985001D01*
X123160000Y-86350000D02*
X122359002Y-86350000D01*
X161260000Y-86350000D02*
X160459002Y-86350000D01*
X123160000Y-86350000D02*
X126019999Y-89209999D01*
X126019999Y-89209999D02*
X126350001Y-89209999D01*
X127400000Y-90259998D02*
X127400000Y-91000000D01*
X149735001Y-84985001D02*
X148560000Y-83810000D01*
X152464999Y-84985001D02*
X149735001Y-84985001D01*
X153640000Y-83810000D02*
X152464999Y-84985001D01*
X147195001Y-85174999D02*
X148560000Y-83810000D01*
X144655001Y-85174999D02*
X147195001Y-85174999D01*
X143480000Y-86350000D02*
X144655001Y-85174999D01*
X137224999Y-85174999D02*
X135860000Y-83810000D01*
X142304999Y-85174999D02*
X137224999Y-85174999D01*
X143480000Y-86350000D02*
X142304999Y-85174999D01*
X159895001Y-84985001D02*
X161260000Y-86350000D01*
X154815001Y-84985001D02*
X159895001Y-84985001D01*
X153640000Y-83810000D02*
X154815001Y-84985001D01*
X126350001Y-89209999D02*
X127400000Y-90259998D01*
%TO.N,+BATT*%
X109262500Y-100800000D02*
X109725000Y-100800000D01*
D19*
X109700000Y-102800000D02*
X109700000Y-100500000D01*
X110025000Y-100500000D02*
X113690000Y-96835000D01*
X109700000Y-100500000D02*
X110025000Y-100500000D01*
X120314999Y-95259999D02*
X121890000Y-96835000D01*
X114779999Y-95259999D02*
X120314999Y-95259999D01*
X113690000Y-96349998D02*
X114779999Y-95259999D01*
X113690000Y-96835000D02*
X113690000Y-96349998D01*
%TO.N,+5V*%
X115220000Y-89765000D02*
X115990000Y-90535000D01*
X112804998Y-83810000D02*
X115540000Y-83810000D01*
X111574999Y-85039999D02*
X112804998Y-83810000D01*
X111574999Y-88769999D02*
X111574999Y-85039999D01*
X113340000Y-90535000D02*
X111574999Y-88769999D01*
X115990000Y-90535000D02*
X113340000Y-90535000D01*
X112570000Y-89765000D02*
X113340000Y-90535000D01*
X108712500Y-89765000D02*
X112570000Y-89765000D01*
X116000000Y-96845000D02*
X115990000Y-96835000D01*
X116000000Y-99237500D02*
X116000000Y-96845000D01*
D18*
%TO.N,+3V3*%
X108712300Y-92335200D02*
X108712500Y-92335000D01*
D19*
X124190000Y-96835000D02*
X124190000Y-90535000D01*
X123240000Y-90535000D02*
X124190000Y-90535000D01*
X121440000Y-92335000D02*
X123240000Y-90535000D01*
X108712500Y-92335000D02*
X121440000Y-92335000D01*
X108712500Y-97442800D02*
X108712300Y-97443000D01*
X108712500Y-92335000D02*
X108712500Y-97442800D01*
X124190000Y-97320002D02*
X124190000Y-96835000D01*
X125344988Y-98474990D02*
X124190000Y-97320002D01*
X162228990Y-98474990D02*
X125344988Y-98474990D01*
X165354000Y-101600000D02*
X162228990Y-98474990D01*
X124250000Y-96895000D02*
X124190000Y-96835000D01*
X124250000Y-99237500D02*
X124250000Y-96895000D01*
D18*
%TO.N,Net-(D1-Pad2)*%
X106887500Y-89765000D02*
X105157400Y-89765000D01*
%TO.N,Net-(D2-Pad2)*%
X106887500Y-94875000D02*
X105162000Y-94875000D01*
%TO.N,Net-(D3-Pad2)*%
X106887500Y-92335000D02*
X105162000Y-92335000D01*
%TO.N,gps_pps*%
X138500000Y-91600000D02*
X165354000Y-91600000D01*
X134495001Y-87595001D02*
X138500000Y-91600000D01*
X134495001Y-85785999D02*
X134495001Y-87595001D01*
X133694003Y-84985001D02*
X134495001Y-85785999D01*
X131955001Y-84985001D02*
X133694003Y-84985001D01*
X130780000Y-83810000D02*
X131955001Y-84985001D01*
%TO.N,pi_rx*%
X124335001Y-84985001D02*
X123160000Y-83810000D01*
X126074003Y-84985001D02*
X124335001Y-84985001D01*
X126875001Y-85785999D02*
X126074003Y-84985001D01*
X126875001Y-86724003D02*
X126875001Y-85785999D01*
X128231007Y-88080009D02*
X126875001Y-86724003D01*
X134343599Y-88080009D02*
X138313600Y-92050010D01*
X128231007Y-88080009D02*
X134343599Y-88080009D01*
X163304010Y-92050010D02*
X165354000Y-94100000D01*
X138313600Y-92050010D02*
X163304010Y-92050010D01*
%TO.N,pi_tx*%
X123534003Y-84985001D02*
X121795001Y-84985001D01*
X121795001Y-84985001D02*
X120620000Y-83810000D01*
X124524999Y-85975997D02*
X123534003Y-84985001D01*
X124524999Y-86914001D02*
X124524999Y-85975997D01*
X126141017Y-88530019D02*
X124524999Y-86914001D01*
X134157199Y-88530019D02*
X138127200Y-92500020D01*
X126141017Y-88530019D02*
X134157199Y-88530019D01*
X161254020Y-92500020D02*
X165354000Y-96600000D01*
X138127200Y-92500020D02*
X161254020Y-92500020D01*
%TO.N,Net-(D4-Pad2)*%
X106887300Y-97443000D02*
X105164600Y-97443000D01*
%TD*%
D20*
%TO.N,GND*%
X169090000Y-84632418D02*
X169090001Y-84632428D01*
X169090000Y-108067581D01*
X169090000Y-108067582D01*
X169090001Y-111040000D01*
X105160000Y-111040000D01*
X105160000Y-107882032D01*
X106120000Y-107882032D01*
X106120000Y-108277968D01*
X106197243Y-108666296D01*
X106348761Y-109032092D01*
X106568731Y-109361301D01*
X106848699Y-109641269D01*
X107177908Y-109861239D01*
X107543704Y-110012757D01*
X107932032Y-110090000D01*
X108327968Y-110090000D01*
X108716296Y-110012757D01*
X109082092Y-109861239D01*
X109411301Y-109641269D01*
X109691269Y-109361301D01*
X109911239Y-109032092D01*
X110062757Y-108666296D01*
X110140000Y-108277968D01*
X110140000Y-107882032D01*
X110062757Y-107493704D01*
X109911239Y-107127908D01*
X109691269Y-106798699D01*
X109411301Y-106518731D01*
X109082092Y-106298761D01*
X108716296Y-106147243D01*
X108327968Y-106070000D01*
X107932032Y-106070000D01*
X107543704Y-106147243D01*
X107177908Y-106298761D01*
X106848699Y-106518731D01*
X106568731Y-106798699D01*
X106348761Y-107127908D01*
X106197243Y-107493704D01*
X106120000Y-107882032D01*
X105160000Y-107882032D01*
X105160000Y-104879508D01*
X111765000Y-104879508D01*
X111765000Y-105420491D01*
X111785764Y-105631308D01*
X111867818Y-105901807D01*
X112001068Y-106151100D01*
X112180392Y-106369607D01*
X112398899Y-106548932D01*
X112587984Y-106650000D01*
X112398900Y-106751068D01*
X112180393Y-106930392D01*
X112001068Y-107148899D01*
X111867818Y-107398192D01*
X111785764Y-107668691D01*
X111765000Y-107879508D01*
X111765000Y-108420491D01*
X111785764Y-108631308D01*
X111867818Y-108901807D01*
X112001068Y-109151100D01*
X112180392Y-109369607D01*
X112398899Y-109548932D01*
X112648192Y-109682182D01*
X112918691Y-109764236D01*
X113200000Y-109791943D01*
X113481308Y-109764236D01*
X113751807Y-109682182D01*
X113815642Y-109648061D01*
X114465000Y-109648061D01*
X114465000Y-109851939D01*
X114504774Y-110051898D01*
X114582795Y-110240256D01*
X114696063Y-110409774D01*
X114840226Y-110553937D01*
X115009744Y-110667205D01*
X115198102Y-110745226D01*
X115398061Y-110785000D01*
X115601939Y-110785000D01*
X115801898Y-110745226D01*
X115990256Y-110667205D01*
X116159774Y-110553937D01*
X116303937Y-110409774D01*
X116417205Y-110240256D01*
X116495226Y-110051898D01*
X116535000Y-109851939D01*
X116535000Y-109648061D01*
X116495226Y-109448102D01*
X116417205Y-109259744D01*
X116303937Y-109090226D01*
X116159774Y-108946063D01*
X115990256Y-108832795D01*
X115801898Y-108754774D01*
X115601939Y-108715000D01*
X115398061Y-108715000D01*
X115198102Y-108754774D01*
X115009744Y-108832795D01*
X114840226Y-108946063D01*
X114696063Y-109090226D01*
X114582795Y-109259744D01*
X114504774Y-109448102D01*
X114465000Y-109648061D01*
X113815642Y-109648061D01*
X114001100Y-109548932D01*
X114219607Y-109369608D01*
X114398932Y-109151101D01*
X114532182Y-108901808D01*
X114614236Y-108631309D01*
X114627169Y-108500000D01*
X119511928Y-108500000D01*
X119511928Y-110200000D01*
X119524188Y-110324482D01*
X119560498Y-110444180D01*
X119619463Y-110554494D01*
X119698815Y-110651185D01*
X119795506Y-110730537D01*
X119905820Y-110789502D01*
X120025518Y-110825812D01*
X120150000Y-110838072D01*
X121850000Y-110838072D01*
X121974482Y-110825812D01*
X122094180Y-110789502D01*
X122204494Y-110730537D01*
X122301185Y-110651185D01*
X122380537Y-110554494D01*
X122439502Y-110444180D01*
X122475812Y-110324482D01*
X122488072Y-110200000D01*
X122488072Y-108502887D01*
X127518063Y-108502887D01*
X127575404Y-108779306D01*
X127685570Y-109039227D01*
X127844327Y-109272662D01*
X128045575Y-109470639D01*
X128281579Y-109625551D01*
X128543270Y-109731444D01*
X128600961Y-109741904D01*
X128823000Y-109619915D01*
X128823000Y-108277000D01*
X129077000Y-108277000D01*
X129077000Y-109619915D01*
X129299039Y-109741904D01*
X129356730Y-109731444D01*
X129562792Y-109648061D01*
X130215000Y-109648061D01*
X130215000Y-109851939D01*
X130254774Y-110051898D01*
X130332795Y-110240256D01*
X130446063Y-110409774D01*
X130590226Y-110553937D01*
X130759744Y-110667205D01*
X130948102Y-110745226D01*
X131148061Y-110785000D01*
X131351939Y-110785000D01*
X131551898Y-110745226D01*
X131740256Y-110667205D01*
X131909774Y-110553937D01*
X132053937Y-110409774D01*
X132167205Y-110240256D01*
X132245226Y-110051898D01*
X132285000Y-109851939D01*
X132285000Y-109648061D01*
X132245226Y-109448102D01*
X132167205Y-109259744D01*
X132053937Y-109090226D01*
X131909774Y-108946063D01*
X131740256Y-108832795D01*
X131551898Y-108754774D01*
X131351939Y-108715000D01*
X131148061Y-108715000D01*
X130948102Y-108754774D01*
X130759744Y-108832795D01*
X130590226Y-108946063D01*
X130446063Y-109090226D01*
X130332795Y-109259744D01*
X130254774Y-109448102D01*
X130215000Y-109648061D01*
X129562792Y-109648061D01*
X129618421Y-109625551D01*
X129854425Y-109470639D01*
X130055673Y-109272662D01*
X130214430Y-109039227D01*
X130324596Y-108779306D01*
X130381937Y-108502887D01*
X130379989Y-108500000D01*
X135261928Y-108500000D01*
X135261928Y-110200000D01*
X135274188Y-110324482D01*
X135310498Y-110444180D01*
X135369463Y-110554494D01*
X135448815Y-110651185D01*
X135545506Y-110730537D01*
X135655820Y-110789502D01*
X135775518Y-110825812D01*
X135900000Y-110838072D01*
X137600000Y-110838072D01*
X137724482Y-110825812D01*
X137844180Y-110789502D01*
X137954494Y-110730537D01*
X138051185Y-110651185D01*
X138130537Y-110554494D01*
X138189502Y-110444180D01*
X138225812Y-110324482D01*
X138238072Y-110200000D01*
X138238072Y-108502887D01*
X140768063Y-108502887D01*
X140825404Y-108779306D01*
X140935570Y-109039227D01*
X141094327Y-109272662D01*
X141295575Y-109470639D01*
X141531579Y-109625551D01*
X141793270Y-109731444D01*
X141850961Y-109741904D01*
X142073000Y-109619915D01*
X142073000Y-108277000D01*
X142327000Y-108277000D01*
X142327000Y-109619915D01*
X142549039Y-109741904D01*
X142606730Y-109731444D01*
X142812792Y-109648061D01*
X143465000Y-109648061D01*
X143465000Y-109851939D01*
X143504774Y-110051898D01*
X143582795Y-110240256D01*
X143696063Y-110409774D01*
X143840226Y-110553937D01*
X144009744Y-110667205D01*
X144198102Y-110745226D01*
X144398061Y-110785000D01*
X144601939Y-110785000D01*
X144801898Y-110745226D01*
X144990256Y-110667205D01*
X145159774Y-110553937D01*
X145303937Y-110409774D01*
X145417205Y-110240256D01*
X145495226Y-110051898D01*
X145535000Y-109851939D01*
X145535000Y-109648061D01*
X145495226Y-109448102D01*
X145417205Y-109259744D01*
X145303937Y-109090226D01*
X145159774Y-108946063D01*
X144990256Y-108832795D01*
X144801898Y-108754774D01*
X144601939Y-108715000D01*
X144398061Y-108715000D01*
X144198102Y-108754774D01*
X144009744Y-108832795D01*
X143840226Y-108946063D01*
X143696063Y-109090226D01*
X143582795Y-109259744D01*
X143504774Y-109448102D01*
X143465000Y-109648061D01*
X142812792Y-109648061D01*
X142868421Y-109625551D01*
X143104425Y-109470639D01*
X143305673Y-109272662D01*
X143464430Y-109039227D01*
X143574596Y-108779306D01*
X143624238Y-108540000D01*
X148511928Y-108540000D01*
X148511928Y-110240000D01*
X148524188Y-110364482D01*
X148560498Y-110484180D01*
X148619463Y-110594494D01*
X148698815Y-110691185D01*
X148795506Y-110770537D01*
X148905820Y-110829502D01*
X149025518Y-110865812D01*
X149150000Y-110878072D01*
X150850000Y-110878072D01*
X150974482Y-110865812D01*
X151094180Y-110829502D01*
X151204494Y-110770537D01*
X151301185Y-110691185D01*
X151380537Y-110594494D01*
X151439502Y-110484180D01*
X151475812Y-110364482D01*
X151488072Y-110240000D01*
X151488072Y-108540000D01*
X151475812Y-108415518D01*
X151439502Y-108295820D01*
X151380537Y-108185506D01*
X151301185Y-108088815D01*
X151204494Y-108009463D01*
X151094180Y-107950498D01*
X151013534Y-107926034D01*
X151062349Y-107882032D01*
X164120000Y-107882032D01*
X164120000Y-108277968D01*
X164197243Y-108666296D01*
X164348761Y-109032092D01*
X164568731Y-109361301D01*
X164848699Y-109641269D01*
X165177908Y-109861239D01*
X165543704Y-110012757D01*
X165932032Y-110090000D01*
X166327968Y-110090000D01*
X166716296Y-110012757D01*
X167082092Y-109861239D01*
X167411301Y-109641269D01*
X167691269Y-109361301D01*
X167911239Y-109032092D01*
X168062757Y-108666296D01*
X168140000Y-108277968D01*
X168140000Y-107882032D01*
X168062757Y-107493704D01*
X167911239Y-107127908D01*
X167691269Y-106798699D01*
X167411301Y-106518731D01*
X167082092Y-106298761D01*
X166716296Y-106147243D01*
X166327968Y-106070000D01*
X165932032Y-106070000D01*
X165543704Y-106147243D01*
X165177908Y-106298761D01*
X164848699Y-106518731D01*
X164568731Y-106798699D01*
X164348761Y-107127908D01*
X164197243Y-107493704D01*
X164120000Y-107882032D01*
X151062349Y-107882032D01*
X151097588Y-107850269D01*
X151271641Y-107616920D01*
X151396825Y-107354099D01*
X151441476Y-107206890D01*
X151320155Y-106977000D01*
X150127000Y-106977000D01*
X150127000Y-106997000D01*
X149873000Y-106997000D01*
X149873000Y-106977000D01*
X148679845Y-106977000D01*
X148558524Y-107206890D01*
X148603175Y-107354099D01*
X148728359Y-107616920D01*
X148902412Y-107850269D01*
X148986466Y-107926034D01*
X148905820Y-107950498D01*
X148795506Y-108009463D01*
X148698815Y-108088815D01*
X148619463Y-108185506D01*
X148560498Y-108295820D01*
X148524188Y-108415518D01*
X148511928Y-108540000D01*
X143624238Y-108540000D01*
X143631937Y-108502887D01*
X143479474Y-108277000D01*
X142327000Y-108277000D01*
X142073000Y-108277000D01*
X140920526Y-108277000D01*
X140768063Y-108502887D01*
X138238072Y-108502887D01*
X138238072Y-108500000D01*
X138225812Y-108375518D01*
X138189502Y-108255820D01*
X138130537Y-108145506D01*
X138051185Y-108048815D01*
X137954494Y-107969463D01*
X137844180Y-107910498D01*
X137763534Y-107886034D01*
X137847588Y-107810269D01*
X138021641Y-107576920D01*
X138146825Y-107314099D01*
X138191476Y-107166890D01*
X138070155Y-106937000D01*
X136877000Y-106937000D01*
X136877000Y-106957000D01*
X136623000Y-106957000D01*
X136623000Y-106937000D01*
X135429845Y-106937000D01*
X135308524Y-107166890D01*
X135353175Y-107314099D01*
X135478359Y-107576920D01*
X135652412Y-107810269D01*
X135736466Y-107886034D01*
X135655820Y-107910498D01*
X135545506Y-107969463D01*
X135448815Y-108048815D01*
X135369463Y-108145506D01*
X135310498Y-108255820D01*
X135274188Y-108375518D01*
X135261928Y-108500000D01*
X130379989Y-108500000D01*
X130229474Y-108277000D01*
X129077000Y-108277000D01*
X128823000Y-108277000D01*
X127670526Y-108277000D01*
X127518063Y-108502887D01*
X122488072Y-108502887D01*
X122488072Y-108500000D01*
X122475812Y-108375518D01*
X122439502Y-108255820D01*
X122380537Y-108145506D01*
X122301185Y-108048815D01*
X122204494Y-107969463D01*
X122094180Y-107910498D01*
X122021620Y-107888487D01*
X122153475Y-107756632D01*
X122315990Y-107513411D01*
X122427932Y-107243158D01*
X122485000Y-106956260D01*
X122485000Y-106663740D01*
X122427932Y-106376842D01*
X122315990Y-106106589D01*
X122153475Y-105863368D01*
X121946632Y-105656525D01*
X121772240Y-105540000D01*
X121827783Y-105502887D01*
X127518063Y-105502887D01*
X127575404Y-105779306D01*
X127685570Y-106039227D01*
X127844327Y-106272662D01*
X128045575Y-106470639D01*
X128281579Y-106625551D01*
X128341999Y-106650000D01*
X128281579Y-106674449D01*
X128045575Y-106829361D01*
X127844327Y-107027338D01*
X127685570Y-107260773D01*
X127575404Y-107520694D01*
X127518063Y-107797113D01*
X127670526Y-108023000D01*
X128823000Y-108023000D01*
X128823000Y-106680085D01*
X128768241Y-106650000D01*
X128823000Y-106619915D01*
X128823000Y-105277000D01*
X129077000Y-105277000D01*
X129077000Y-106619915D01*
X129131759Y-106650000D01*
X129077000Y-106680085D01*
X129077000Y-108023000D01*
X130229474Y-108023000D01*
X130381937Y-107797113D01*
X130324596Y-107520694D01*
X130214430Y-107260773D01*
X130055673Y-107027338D01*
X129854425Y-106829361D01*
X129618421Y-106674449D01*
X129558001Y-106650000D01*
X129618421Y-106625551D01*
X129854425Y-106470639D01*
X129872243Y-106453110D01*
X135308524Y-106453110D01*
X135429845Y-106683000D01*
X136623000Y-106683000D01*
X136623000Y-105489186D01*
X136877000Y-105489186D01*
X136877000Y-106683000D01*
X138070155Y-106683000D01*
X138191476Y-106453110D01*
X138146825Y-106305901D01*
X138021641Y-106043080D01*
X137847588Y-105809731D01*
X137631355Y-105614822D01*
X137443441Y-105502887D01*
X140768063Y-105502887D01*
X140825404Y-105779306D01*
X140935570Y-106039227D01*
X141094327Y-106272662D01*
X141295575Y-106470639D01*
X141531579Y-106625551D01*
X141591999Y-106650000D01*
X141531579Y-106674449D01*
X141295575Y-106829361D01*
X141094327Y-107027338D01*
X140935570Y-107260773D01*
X140825404Y-107520694D01*
X140768063Y-107797113D01*
X140920526Y-108023000D01*
X142073000Y-108023000D01*
X142073000Y-106680085D01*
X142018241Y-106650000D01*
X142073000Y-106619915D01*
X142073000Y-105277000D01*
X142327000Y-105277000D01*
X142327000Y-106619915D01*
X142381759Y-106650000D01*
X142327000Y-106680085D01*
X142327000Y-108023000D01*
X143479474Y-108023000D01*
X143631937Y-107797113D01*
X143574596Y-107520694D01*
X143464430Y-107260773D01*
X143305673Y-107027338D01*
X143104425Y-106829361D01*
X142868421Y-106674449D01*
X142808001Y-106650000D01*
X142868421Y-106625551D01*
X143070191Y-106493110D01*
X148558524Y-106493110D01*
X148679845Y-106723000D01*
X149873000Y-106723000D01*
X149873000Y-105529186D01*
X150127000Y-105529186D01*
X150127000Y-106723000D01*
X151320155Y-106723000D01*
X151441476Y-106493110D01*
X151396825Y-106345901D01*
X151271641Y-106083080D01*
X151097588Y-105849731D01*
X150881355Y-105654822D01*
X150631252Y-105505843D01*
X150356891Y-105408519D01*
X150127000Y-105529186D01*
X149873000Y-105529186D01*
X149643109Y-105408519D01*
X149368748Y-105505843D01*
X149118645Y-105654822D01*
X148902412Y-105849731D01*
X148728359Y-106083080D01*
X148603175Y-106345901D01*
X148558524Y-106493110D01*
X143070191Y-106493110D01*
X143104425Y-106470639D01*
X143305673Y-106272662D01*
X143464430Y-106039227D01*
X143574596Y-105779306D01*
X143631937Y-105502887D01*
X143479474Y-105277000D01*
X142327000Y-105277000D01*
X142073000Y-105277000D01*
X140920526Y-105277000D01*
X140768063Y-105502887D01*
X137443441Y-105502887D01*
X137381252Y-105465843D01*
X137106891Y-105368519D01*
X136877000Y-105489186D01*
X136623000Y-105489186D01*
X136393109Y-105368519D01*
X136118748Y-105465843D01*
X135868645Y-105614822D01*
X135652412Y-105809731D01*
X135478359Y-106043080D01*
X135353175Y-106305901D01*
X135308524Y-106453110D01*
X129872243Y-106453110D01*
X130055673Y-106272662D01*
X130214430Y-106039227D01*
X130324596Y-105779306D01*
X130381937Y-105502887D01*
X130229474Y-105277000D01*
X129077000Y-105277000D01*
X128823000Y-105277000D01*
X127670526Y-105277000D01*
X127518063Y-105502887D01*
X121827783Y-105502887D01*
X121946632Y-105423475D01*
X122153475Y-105216632D01*
X122315990Y-104973411D01*
X122389014Y-104797113D01*
X127518063Y-104797113D01*
X127670526Y-105023000D01*
X128823000Y-105023000D01*
X128823000Y-103680085D01*
X129077000Y-103680085D01*
X129077000Y-105023000D01*
X130229474Y-105023000D01*
X130381937Y-104797113D01*
X140768063Y-104797113D01*
X140920526Y-105023000D01*
X142073000Y-105023000D01*
X142073000Y-103680085D01*
X142327000Y-103680085D01*
X142327000Y-105023000D01*
X143479474Y-105023000D01*
X143631937Y-104797113D01*
X143574596Y-104520694D01*
X143464430Y-104260773D01*
X143305673Y-104027338D01*
X143104425Y-103829361D01*
X142868421Y-103674449D01*
X142606730Y-103568556D01*
X142549039Y-103558096D01*
X142327000Y-103680085D01*
X142073000Y-103680085D01*
X141850961Y-103558096D01*
X141793270Y-103568556D01*
X141531579Y-103674449D01*
X141295575Y-103829361D01*
X141094327Y-104027338D01*
X140935570Y-104260773D01*
X140825404Y-104520694D01*
X140768063Y-104797113D01*
X130381937Y-104797113D01*
X130324596Y-104520694D01*
X130214430Y-104260773D01*
X130055673Y-104027338D01*
X129854425Y-103829361D01*
X129618421Y-103674449D01*
X129356730Y-103568556D01*
X129299039Y-103558096D01*
X129077000Y-103680085D01*
X128823000Y-103680085D01*
X128600961Y-103558096D01*
X128543270Y-103568556D01*
X128281579Y-103674449D01*
X128045575Y-103829361D01*
X127844327Y-104027338D01*
X127685570Y-104260773D01*
X127575404Y-104520694D01*
X127518063Y-104797113D01*
X122389014Y-104797113D01*
X122427932Y-104703158D01*
X122485000Y-104416260D01*
X122485000Y-104123740D01*
X122427932Y-103836842D01*
X122315990Y-103566589D01*
X122153475Y-103323368D01*
X121946632Y-103116525D01*
X121764466Y-102994805D01*
X121881355Y-102925178D01*
X122097588Y-102730269D01*
X122271641Y-102496920D01*
X122396825Y-102234099D01*
X122441476Y-102086890D01*
X122320155Y-101857000D01*
X121127000Y-101857000D01*
X121127000Y-101877000D01*
X120873000Y-101877000D01*
X120873000Y-101857000D01*
X119679845Y-101857000D01*
X119558524Y-102086890D01*
X119603175Y-102234099D01*
X119728359Y-102496920D01*
X119902412Y-102730269D01*
X120118645Y-102925178D01*
X120235534Y-102994805D01*
X120053368Y-103116525D01*
X119846525Y-103323368D01*
X119684010Y-103566589D01*
X119572068Y-103836842D01*
X119515000Y-104123740D01*
X119515000Y-104416260D01*
X119572068Y-104703158D01*
X119684010Y-104973411D01*
X119846525Y-105216632D01*
X120053368Y-105423475D01*
X120227760Y-105540000D01*
X120053368Y-105656525D01*
X119846525Y-105863368D01*
X119684010Y-106106589D01*
X119572068Y-106376842D01*
X119515000Y-106663740D01*
X119515000Y-106956260D01*
X119572068Y-107243158D01*
X119684010Y-107513411D01*
X119846525Y-107756632D01*
X119978380Y-107888487D01*
X119905820Y-107910498D01*
X119795506Y-107969463D01*
X119698815Y-108048815D01*
X119619463Y-108145506D01*
X119560498Y-108255820D01*
X119524188Y-108375518D01*
X119511928Y-108500000D01*
X114627169Y-108500000D01*
X114635000Y-108420492D01*
X114635000Y-107879509D01*
X114614236Y-107668692D01*
X114532182Y-107398193D01*
X114398932Y-107148899D01*
X114219608Y-106930392D01*
X114001101Y-106751068D01*
X113812016Y-106650000D01*
X114001100Y-106548932D01*
X114219607Y-106369608D01*
X114398932Y-106151101D01*
X114532182Y-105901808D01*
X114614236Y-105631309D01*
X114635000Y-105420492D01*
X114635000Y-104879509D01*
X114614236Y-104668692D01*
X114532182Y-104398193D01*
X114398932Y-104148899D01*
X114219608Y-103930392D01*
X114001101Y-103751068D01*
X113751808Y-103617818D01*
X113481309Y-103535764D01*
X113200000Y-103508057D01*
X112918692Y-103535764D01*
X112648193Y-103617818D01*
X112398900Y-103751068D01*
X112180393Y-103930392D01*
X112001068Y-104148899D01*
X111867818Y-104398192D01*
X111785764Y-104668691D01*
X111765000Y-104879508D01*
X105160000Y-104879508D01*
X105160000Y-103156891D01*
X105718519Y-103156891D01*
X105815843Y-103431252D01*
X105964822Y-103681355D01*
X106159731Y-103897588D01*
X106393080Y-104071641D01*
X106655901Y-104196825D01*
X106803110Y-104241476D01*
X107033000Y-104120155D01*
X107033000Y-102927000D01*
X105839186Y-102927000D01*
X105718519Y-103156891D01*
X105160000Y-103156891D01*
X105160000Y-100025000D01*
X106799428Y-100025000D01*
X106802500Y-100214250D01*
X106961250Y-100373000D01*
X107848000Y-100373000D01*
X107848000Y-99548750D01*
X107689250Y-99390000D01*
X107437500Y-99386928D01*
X107313018Y-99399188D01*
X107193320Y-99435498D01*
X107083006Y-99494463D01*
X106986315Y-99573815D01*
X106906963Y-99670506D01*
X106847998Y-99780820D01*
X106811688Y-99900518D01*
X106799428Y-100025000D01*
X105160000Y-100025000D01*
X105160000Y-98478000D01*
X105266539Y-98478000D01*
X105466498Y-98438226D01*
X105654856Y-98360205D01*
X105824374Y-98246937D01*
X105868311Y-98203000D01*
X105938880Y-98203000D01*
X106018177Y-98299623D01*
X106150858Y-98408512D01*
X106302233Y-98489423D01*
X106466484Y-98539248D01*
X106637300Y-98556072D01*
X107137300Y-98556072D01*
X107308116Y-98539248D01*
X107472367Y-98489423D01*
X107623742Y-98408512D01*
X107756423Y-98299623D01*
X107799800Y-98246768D01*
X107843177Y-98299623D01*
X107975858Y-98408512D01*
X108127233Y-98489423D01*
X108291484Y-98539248D01*
X108462300Y-98556072D01*
X108962300Y-98556072D01*
X109133116Y-98539248D01*
X109297367Y-98489423D01*
X109448742Y-98408512D01*
X109581423Y-98299623D01*
X109690312Y-98166942D01*
X109771223Y-98015567D01*
X109821048Y-97851316D01*
X109837872Y-97680500D01*
X109837872Y-97205500D01*
X109821048Y-97034684D01*
X109771223Y-96870433D01*
X109722500Y-96779278D01*
X109722500Y-95539096D01*
X109771423Y-95447567D01*
X109821248Y-95283316D01*
X109838072Y-95112500D01*
X109838072Y-94637500D01*
X109821248Y-94466684D01*
X109771423Y-94302433D01*
X109722500Y-94210904D01*
X109722500Y-93345000D01*
X121390392Y-93345000D01*
X121440000Y-93349886D01*
X121637994Y-93330385D01*
X121736472Y-93300512D01*
X121828380Y-93272632D01*
X122003840Y-93178847D01*
X122157633Y-93052633D01*
X122189261Y-93014094D01*
X123030283Y-92173072D01*
X123180001Y-92173072D01*
X123180000Y-95253954D01*
X123085506Y-95304463D01*
X123040000Y-95341809D01*
X122994494Y-95304463D01*
X122884180Y-95245498D01*
X122764482Y-95209188D01*
X122640000Y-95196928D01*
X121680283Y-95196928D01*
X121064260Y-94580905D01*
X121032632Y-94542366D01*
X120878839Y-94416152D01*
X120703379Y-94322367D01*
X120512993Y-94264614D01*
X120364607Y-94249999D01*
X120314999Y-94245113D01*
X120265391Y-94249999D01*
X114829603Y-94249999D01*
X114779998Y-94245113D01*
X114730393Y-94249999D01*
X114730391Y-94249999D01*
X114582005Y-94264614D01*
X114391619Y-94322367D01*
X114216159Y-94416152D01*
X114062366Y-94542366D01*
X114030738Y-94580905D01*
X113414715Y-95196928D01*
X112940000Y-95196928D01*
X112815518Y-95209188D01*
X112695820Y-95245498D01*
X112585506Y-95304463D01*
X112488815Y-95383815D01*
X112409463Y-95480506D01*
X112350498Y-95590820D01*
X112314188Y-95710518D01*
X112301928Y-95835000D01*
X112301928Y-96794716D01*
X109709717Y-99386928D01*
X109400000Y-99386928D01*
X109229184Y-99403752D01*
X109064933Y-99453577D01*
X108914894Y-99533774D01*
X108866994Y-99494463D01*
X108756680Y-99435498D01*
X108636982Y-99399188D01*
X108512500Y-99386928D01*
X108260750Y-99390000D01*
X108102000Y-99548750D01*
X108102000Y-100373000D01*
X108122000Y-100373000D01*
X108122000Y-100627000D01*
X108102000Y-100627000D01*
X108102000Y-100647000D01*
X107848000Y-100647000D01*
X107848000Y-100627000D01*
X106961250Y-100627000D01*
X106802500Y-100785750D01*
X106799428Y-100975000D01*
X106811688Y-101099482D01*
X106847998Y-101219180D01*
X106906963Y-101329494D01*
X106986315Y-101426185D01*
X107032998Y-101464497D01*
X107032998Y-101479844D01*
X106803110Y-101358524D01*
X106655901Y-101403175D01*
X106393080Y-101528359D01*
X106159731Y-101702412D01*
X105964822Y-101918645D01*
X105815843Y-102168748D01*
X105718519Y-102443109D01*
X105839186Y-102673000D01*
X107033000Y-102673000D01*
X107033000Y-102653000D01*
X107287000Y-102653000D01*
X107287000Y-102673000D01*
X107307000Y-102673000D01*
X107307000Y-102927000D01*
X107287000Y-102927000D01*
X107287000Y-104120155D01*
X107516890Y-104241476D01*
X107664099Y-104196825D01*
X107926920Y-104071641D01*
X108160269Y-103897588D01*
X108236034Y-103813534D01*
X108260498Y-103894180D01*
X108319463Y-104004494D01*
X108398815Y-104101185D01*
X108495506Y-104180537D01*
X108605820Y-104239502D01*
X108725518Y-104275812D01*
X108850000Y-104288072D01*
X110550000Y-104288072D01*
X110674482Y-104275812D01*
X110794180Y-104239502D01*
X110904494Y-104180537D01*
X111001185Y-104101185D01*
X111080537Y-104004494D01*
X111139502Y-103894180D01*
X111175812Y-103774482D01*
X111188072Y-103650000D01*
X111188072Y-101950000D01*
X111175812Y-101825518D01*
X111139502Y-101705820D01*
X111080537Y-101595506D01*
X111001185Y-101498815D01*
X110904494Y-101419463D01*
X110794180Y-101360498D01*
X110710000Y-101334962D01*
X110710000Y-101245890D01*
X110713709Y-101241370D01*
X110742633Y-101217633D01*
X110774261Y-101179094D01*
X111073847Y-100879508D01*
X111765000Y-100879508D01*
X111765000Y-101420491D01*
X111785764Y-101631308D01*
X111867818Y-101901807D01*
X112001068Y-102151100D01*
X112180392Y-102369607D01*
X112398899Y-102548932D01*
X112648192Y-102682182D01*
X112918691Y-102764236D01*
X113200000Y-102791943D01*
X113481308Y-102764236D01*
X113751807Y-102682182D01*
X114001100Y-102548932D01*
X114219607Y-102369608D01*
X114398932Y-102151101D01*
X114532182Y-101901808D01*
X114614236Y-101631309D01*
X114635000Y-101420492D01*
X114635000Y-100879509D01*
X114614236Y-100668692D01*
X114532182Y-100398193D01*
X114398932Y-100148899D01*
X114219608Y-99930392D01*
X114001101Y-99751068D01*
X113751808Y-99617818D01*
X113481309Y-99535764D01*
X113200000Y-99508057D01*
X112918692Y-99535764D01*
X112648193Y-99617818D01*
X112398900Y-99751068D01*
X112180393Y-99930392D01*
X112001068Y-100148899D01*
X111867818Y-100398192D01*
X111785764Y-100668691D01*
X111765000Y-100879508D01*
X111073847Y-100879508D01*
X113480284Y-98473072D01*
X114440000Y-98473072D01*
X114564482Y-98460812D01*
X114684180Y-98424502D01*
X114794494Y-98365537D01*
X114840000Y-98328191D01*
X114885506Y-98365537D01*
X114990000Y-98421391D01*
X114990000Y-98534289D01*
X114953577Y-98602433D01*
X114903752Y-98766684D01*
X114886928Y-98937500D01*
X114886928Y-99537500D01*
X114903752Y-99708316D01*
X114953577Y-99872567D01*
X115033774Y-100022606D01*
X114994463Y-100070506D01*
X114935498Y-100180820D01*
X114899188Y-100300518D01*
X114886928Y-100425000D01*
X114890000Y-100676750D01*
X115048750Y-100835500D01*
X115873000Y-100835500D01*
X115873000Y-100815500D01*
X116127000Y-100815500D01*
X116127000Y-100835500D01*
X116147000Y-100835500D01*
X116147000Y-101089500D01*
X116127000Y-101089500D01*
X116127000Y-101109500D01*
X115873000Y-101109500D01*
X115873000Y-101089500D01*
X115048750Y-101089500D01*
X114890000Y-101248250D01*
X114886928Y-101500000D01*
X114899188Y-101624482D01*
X114935498Y-101744180D01*
X114989938Y-101846029D01*
X114840226Y-101946063D01*
X114696063Y-102090226D01*
X114582795Y-102259744D01*
X114504774Y-102448102D01*
X114465000Y-102648061D01*
X114465000Y-102851939D01*
X114504774Y-103051898D01*
X114582795Y-103240256D01*
X114696063Y-103409774D01*
X114840226Y-103553937D01*
X115009744Y-103667205D01*
X115198102Y-103745226D01*
X115398061Y-103785000D01*
X115601939Y-103785000D01*
X115801898Y-103745226D01*
X115990256Y-103667205D01*
X116159774Y-103553937D01*
X116303937Y-103409774D01*
X116417205Y-103240256D01*
X116495226Y-103051898D01*
X116535000Y-102851939D01*
X116535000Y-102648061D01*
X116495226Y-102448102D01*
X116417205Y-102259744D01*
X116334381Y-102135789D01*
X116475000Y-102138072D01*
X116599482Y-102125812D01*
X116719180Y-102089502D01*
X116829494Y-102030537D01*
X116926185Y-101951185D01*
X117005537Y-101854494D01*
X117064502Y-101744180D01*
X117100812Y-101624482D01*
X117111832Y-101512589D01*
X117131579Y-101525551D01*
X117393270Y-101631444D01*
X117450961Y-101641904D01*
X117673000Y-101519915D01*
X117673000Y-100177000D01*
X117927000Y-100177000D01*
X117927000Y-101519915D01*
X118149039Y-101641904D01*
X118206730Y-101631444D01*
X118468421Y-101525551D01*
X118700660Y-101373110D01*
X119558524Y-101373110D01*
X119679845Y-101603000D01*
X120873000Y-101603000D01*
X120873000Y-100409186D01*
X121127000Y-100409186D01*
X121127000Y-101603000D01*
X122320155Y-101603000D01*
X122374511Y-101500000D01*
X123136928Y-101500000D01*
X123149188Y-101624482D01*
X123185498Y-101744180D01*
X123244463Y-101854494D01*
X123323815Y-101951185D01*
X123420506Y-102030537D01*
X123530820Y-102089502D01*
X123650518Y-102125812D01*
X123775000Y-102138072D01*
X123964250Y-102135000D01*
X124123000Y-101976250D01*
X124123000Y-101089500D01*
X124377000Y-101089500D01*
X124377000Y-101976250D01*
X124535750Y-102135000D01*
X124725000Y-102138072D01*
X124849482Y-102125812D01*
X124969180Y-102089502D01*
X125079494Y-102030537D01*
X125176185Y-101951185D01*
X125255537Y-101854494D01*
X125314502Y-101744180D01*
X125350812Y-101624482D01*
X125363072Y-101500000D01*
X125360000Y-101248250D01*
X125201250Y-101089500D01*
X124377000Y-101089500D01*
X124123000Y-101089500D01*
X123298750Y-101089500D01*
X123140000Y-101248250D01*
X123136928Y-101500000D01*
X122374511Y-101500000D01*
X122441476Y-101373110D01*
X122396825Y-101225901D01*
X122271641Y-100963080D01*
X122209306Y-100879508D01*
X127515000Y-100879508D01*
X127515000Y-101420491D01*
X127535764Y-101631308D01*
X127617818Y-101901807D01*
X127751068Y-102151100D01*
X127930392Y-102369607D01*
X128148899Y-102548932D01*
X128398192Y-102682182D01*
X128668691Y-102764236D01*
X128950000Y-102791943D01*
X129231308Y-102764236D01*
X129501807Y-102682182D01*
X129565642Y-102648061D01*
X130215000Y-102648061D01*
X130215000Y-102851939D01*
X130254774Y-103051898D01*
X130332795Y-103240256D01*
X130446063Y-103409774D01*
X130590226Y-103553937D01*
X130759744Y-103667205D01*
X130948102Y-103745226D01*
X131148061Y-103785000D01*
X131351939Y-103785000D01*
X131551898Y-103745226D01*
X131740256Y-103667205D01*
X131909774Y-103553937D01*
X132053937Y-103409774D01*
X132167205Y-103240256D01*
X132245226Y-103051898D01*
X132285000Y-102851939D01*
X132285000Y-102648061D01*
X132245226Y-102448102D01*
X132167205Y-102259744D01*
X132053937Y-102090226D01*
X131909774Y-101946063D01*
X131740256Y-101832795D01*
X131551898Y-101754774D01*
X131351939Y-101715000D01*
X131148061Y-101715000D01*
X130948102Y-101754774D01*
X130759744Y-101832795D01*
X130590226Y-101946063D01*
X130446063Y-102090226D01*
X130332795Y-102259744D01*
X130254774Y-102448102D01*
X130215000Y-102648061D01*
X129565642Y-102648061D01*
X129751100Y-102548932D01*
X129969607Y-102369608D01*
X130148932Y-102151101D01*
X130282182Y-101901808D01*
X130364236Y-101631309D01*
X130385000Y-101420492D01*
X130385000Y-100879509D01*
X130364236Y-100668692D01*
X130283606Y-100402887D01*
X132118063Y-100402887D01*
X132175404Y-100679306D01*
X132285570Y-100939227D01*
X132444327Y-101172662D01*
X132645575Y-101370639D01*
X132881579Y-101525551D01*
X133143270Y-101631444D01*
X133200961Y-101641904D01*
X133423000Y-101519915D01*
X133423000Y-100177000D01*
X133677000Y-100177000D01*
X133677000Y-101519915D01*
X133899039Y-101641904D01*
X133956730Y-101631444D01*
X134218421Y-101525551D01*
X134454425Y-101370639D01*
X134655673Y-101172662D01*
X134814430Y-100939227D01*
X134839741Y-100879508D01*
X140765000Y-100879508D01*
X140765000Y-101420491D01*
X140785764Y-101631308D01*
X140867818Y-101901807D01*
X141001068Y-102151100D01*
X141180392Y-102369607D01*
X141398899Y-102548932D01*
X141648192Y-102682182D01*
X141918691Y-102764236D01*
X142200000Y-102791943D01*
X142481308Y-102764236D01*
X142751807Y-102682182D01*
X142815642Y-102648061D01*
X143465000Y-102648061D01*
X143465000Y-102851939D01*
X143504774Y-103051898D01*
X143582795Y-103240256D01*
X143696063Y-103409774D01*
X143840226Y-103553937D01*
X144009744Y-103667205D01*
X144198102Y-103745226D01*
X144398061Y-103785000D01*
X144601939Y-103785000D01*
X144801898Y-103745226D01*
X144990256Y-103667205D01*
X145159774Y-103553937D01*
X145303937Y-103409774D01*
X145417205Y-103240256D01*
X145495226Y-103051898D01*
X145535000Y-102851939D01*
X145535000Y-102648061D01*
X145495226Y-102448102D01*
X145417205Y-102259744D01*
X145303937Y-102090226D01*
X145159774Y-101946063D01*
X144990256Y-101832795D01*
X144801898Y-101754774D01*
X144601939Y-101715000D01*
X144398061Y-101715000D01*
X144198102Y-101754774D01*
X144009744Y-101832795D01*
X143840226Y-101946063D01*
X143696063Y-102090226D01*
X143582795Y-102259744D01*
X143504774Y-102448102D01*
X143465000Y-102648061D01*
X142815642Y-102648061D01*
X143001100Y-102548932D01*
X143219607Y-102369608D01*
X143398932Y-102151101D01*
X143532182Y-101901808D01*
X143614236Y-101631309D01*
X143635000Y-101420492D01*
X143635000Y-100879509D01*
X143614236Y-100668692D01*
X143533606Y-100402887D01*
X145368063Y-100402887D01*
X145425404Y-100679306D01*
X145535570Y-100939227D01*
X145694327Y-101172662D01*
X145895575Y-101370639D01*
X146131579Y-101525551D01*
X146393270Y-101631444D01*
X146450961Y-101641904D01*
X146673000Y-101519915D01*
X146673000Y-100177000D01*
X146927000Y-100177000D01*
X146927000Y-101519915D01*
X147149039Y-101641904D01*
X147206730Y-101631444D01*
X147468421Y-101525551D01*
X147704425Y-101370639D01*
X147905673Y-101172662D01*
X148064430Y-100939227D01*
X148174596Y-100679306D01*
X148231937Y-100402887D01*
X148079474Y-100177000D01*
X146927000Y-100177000D01*
X146673000Y-100177000D01*
X145520526Y-100177000D01*
X145368063Y-100402887D01*
X143533606Y-100402887D01*
X143532182Y-100398193D01*
X143398932Y-100148899D01*
X143219608Y-99930392D01*
X143001101Y-99751068D01*
X142751808Y-99617818D01*
X142481309Y-99535764D01*
X142200000Y-99508057D01*
X141918692Y-99535764D01*
X141648193Y-99617818D01*
X141398900Y-99751068D01*
X141180393Y-99930392D01*
X141001068Y-100148899D01*
X140867818Y-100398192D01*
X140785764Y-100668691D01*
X140765000Y-100879508D01*
X134839741Y-100879508D01*
X134924596Y-100679306D01*
X134981937Y-100402887D01*
X134829474Y-100177000D01*
X133677000Y-100177000D01*
X133423000Y-100177000D01*
X132270526Y-100177000D01*
X132118063Y-100402887D01*
X130283606Y-100402887D01*
X130282182Y-100398193D01*
X130148932Y-100148899D01*
X129969608Y-99930392D01*
X129751101Y-99751068D01*
X129501808Y-99617818D01*
X129231309Y-99535764D01*
X128950000Y-99508057D01*
X128668692Y-99535764D01*
X128398193Y-99617818D01*
X128148900Y-99751068D01*
X127930393Y-99930392D01*
X127751068Y-100148899D01*
X127617818Y-100398192D01*
X127535764Y-100668691D01*
X127515000Y-100879508D01*
X122209306Y-100879508D01*
X122097588Y-100729731D01*
X121881355Y-100534822D01*
X121631252Y-100385843D01*
X121356891Y-100288519D01*
X121127000Y-100409186D01*
X120873000Y-100409186D01*
X120643109Y-100288519D01*
X120368748Y-100385843D01*
X120118645Y-100534822D01*
X119902412Y-100729731D01*
X119728359Y-100963080D01*
X119603175Y-101225901D01*
X119558524Y-101373110D01*
X118700660Y-101373110D01*
X118704425Y-101370639D01*
X118905673Y-101172662D01*
X119064430Y-100939227D01*
X119174596Y-100679306D01*
X119231937Y-100402887D01*
X119079474Y-100177000D01*
X117927000Y-100177000D01*
X117673000Y-100177000D01*
X117653000Y-100177000D01*
X117653000Y-99923000D01*
X117673000Y-99923000D01*
X117673000Y-99903000D01*
X117927000Y-99903000D01*
X117927000Y-99923000D01*
X119079474Y-99923000D01*
X119231937Y-99697113D01*
X119174596Y-99420694D01*
X119064430Y-99160773D01*
X118905673Y-98927338D01*
X118704425Y-98729361D01*
X118468421Y-98574449D01*
X118206730Y-98468556D01*
X118149039Y-98458096D01*
X117927002Y-98580084D01*
X117927002Y-98470511D01*
X118004250Y-98470000D01*
X118163000Y-98311250D01*
X118163000Y-96962000D01*
X118417000Y-96962000D01*
X118417000Y-98311250D01*
X118575750Y-98470000D01*
X119040000Y-98473072D01*
X119164482Y-98460812D01*
X119284180Y-98424502D01*
X119394494Y-98365537D01*
X119491185Y-98286185D01*
X119570537Y-98189494D01*
X119629502Y-98079180D01*
X119665812Y-97959482D01*
X119678072Y-97835000D01*
X119675000Y-97120750D01*
X119516250Y-96962000D01*
X118417000Y-96962000D01*
X118163000Y-96962000D01*
X118143000Y-96962000D01*
X118143000Y-96708000D01*
X118163000Y-96708000D01*
X118163000Y-96688000D01*
X118417000Y-96688000D01*
X118417000Y-96708000D01*
X119516250Y-96708000D01*
X119675000Y-96549250D01*
X119676201Y-96269999D01*
X119896644Y-96269999D01*
X120501928Y-96875284D01*
X120501928Y-97835000D01*
X120514188Y-97959482D01*
X120550498Y-98079180D01*
X120609463Y-98189494D01*
X120688815Y-98286185D01*
X120785506Y-98365537D01*
X120895820Y-98424502D01*
X121015518Y-98460812D01*
X121140000Y-98473072D01*
X122640000Y-98473072D01*
X122764482Y-98460812D01*
X122884180Y-98424502D01*
X122994494Y-98365537D01*
X123040000Y-98328191D01*
X123085506Y-98365537D01*
X123195820Y-98424502D01*
X123240000Y-98437904D01*
X123240000Y-98534289D01*
X123203577Y-98602433D01*
X123153752Y-98766684D01*
X123136928Y-98937500D01*
X123136928Y-99537500D01*
X123153752Y-99708316D01*
X123203577Y-99872567D01*
X123283774Y-100022606D01*
X123244463Y-100070506D01*
X123185498Y-100180820D01*
X123149188Y-100300518D01*
X123136928Y-100425000D01*
X123140000Y-100676750D01*
X123298750Y-100835500D01*
X124123000Y-100835500D01*
X124123000Y-100815500D01*
X124377000Y-100815500D01*
X124377000Y-100835500D01*
X125201250Y-100835500D01*
X125360000Y-100676750D01*
X125363072Y-100425000D01*
X125350812Y-100300518D01*
X125314502Y-100180820D01*
X125255537Y-100070506D01*
X125216226Y-100022606D01*
X125296423Y-99872567D01*
X125346248Y-99708316D01*
X125363072Y-99537500D01*
X125363072Y-99488095D01*
X125394596Y-99484990D01*
X132162066Y-99484990D01*
X132118063Y-99697113D01*
X132270526Y-99923000D01*
X133423000Y-99923000D01*
X133423000Y-99903000D01*
X133677000Y-99903000D01*
X133677000Y-99923000D01*
X134829474Y-99923000D01*
X134981937Y-99697113D01*
X134937934Y-99484990D01*
X145412066Y-99484990D01*
X145368063Y-99697113D01*
X145520526Y-99923000D01*
X146673000Y-99923000D01*
X146673000Y-99903000D01*
X146927000Y-99903000D01*
X146927000Y-99923000D01*
X148079474Y-99923000D01*
X148231937Y-99697113D01*
X148187934Y-99484990D01*
X161810635Y-99484990D01*
X163740928Y-101415284D01*
X163740928Y-102200000D01*
X163757992Y-102373254D01*
X163808528Y-102539850D01*
X163890595Y-102693386D01*
X164001038Y-102827962D01*
X164135614Y-102938405D01*
X164289150Y-103020472D01*
X164455746Y-103071008D01*
X164629000Y-103088072D01*
X166079000Y-103088072D01*
X166252254Y-103071008D01*
X166418850Y-103020472D01*
X166572386Y-102938405D01*
X166706962Y-102827962D01*
X166817405Y-102693386D01*
X166899472Y-102539850D01*
X166950008Y-102373254D01*
X166967072Y-102200000D01*
X166967072Y-101000000D01*
X166950008Y-100826746D01*
X166899472Y-100660150D01*
X166817405Y-100506614D01*
X166706962Y-100372038D01*
X166572386Y-100261595D01*
X166467039Y-100205286D01*
X166488429Y-100189049D01*
X166681496Y-99971193D01*
X166828352Y-99719858D01*
X166920476Y-99456890D01*
X166799155Y-99227000D01*
X165481000Y-99227000D01*
X165481000Y-99247000D01*
X165227000Y-99247000D01*
X165227000Y-99227000D01*
X165207000Y-99227000D01*
X165207000Y-98973000D01*
X165227000Y-98973000D01*
X165227000Y-98953000D01*
X165481000Y-98953000D01*
X165481000Y-98973000D01*
X166799155Y-98973000D01*
X166920476Y-98743110D01*
X166828352Y-98480142D01*
X166681496Y-98228807D01*
X166488429Y-98010951D01*
X166282278Y-97854462D01*
X166308014Y-97840706D01*
X166534134Y-97655134D01*
X166719706Y-97429014D01*
X166857599Y-97171034D01*
X166942513Y-96891111D01*
X166971185Y-96600000D01*
X166942513Y-96308889D01*
X166857599Y-96028966D01*
X166719706Y-95770986D01*
X166534134Y-95544866D01*
X166308014Y-95359294D01*
X166290626Y-95350000D01*
X166308014Y-95340706D01*
X166534134Y-95155134D01*
X166719706Y-94929014D01*
X166857599Y-94671034D01*
X166942513Y-94391111D01*
X166971185Y-94100000D01*
X166942513Y-93808889D01*
X166857599Y-93528966D01*
X166719706Y-93270986D01*
X166534134Y-93044866D01*
X166308014Y-92859294D01*
X166290626Y-92850000D01*
X166308014Y-92840706D01*
X166534134Y-92655134D01*
X166719706Y-92429014D01*
X166857599Y-92171034D01*
X166942513Y-91891111D01*
X166971185Y-91600000D01*
X166942513Y-91308889D01*
X166857599Y-91028966D01*
X166719706Y-90770986D01*
X166534134Y-90544866D01*
X166308014Y-90359294D01*
X166050034Y-90221401D01*
X165770111Y-90136487D01*
X165551950Y-90115000D01*
X165156050Y-90115000D01*
X164937889Y-90136487D01*
X164657966Y-90221401D01*
X164399986Y-90359294D01*
X164173866Y-90544866D01*
X163988294Y-90770986D01*
X163951405Y-90840000D01*
X138814802Y-90840000D01*
X135809801Y-87835000D01*
X136006260Y-87835000D01*
X136293158Y-87777932D01*
X136563411Y-87665990D01*
X136806632Y-87503475D01*
X137013475Y-87296632D01*
X137130000Y-87122240D01*
X137246525Y-87296632D01*
X137453368Y-87503475D01*
X137696589Y-87665990D01*
X137966842Y-87777932D01*
X138253740Y-87835000D01*
X138546260Y-87835000D01*
X138833158Y-87777932D01*
X139103411Y-87665990D01*
X139346632Y-87503475D01*
X139553475Y-87296632D01*
X139670000Y-87122240D01*
X139786525Y-87296632D01*
X139993368Y-87503475D01*
X140236589Y-87665990D01*
X140506842Y-87777932D01*
X140793740Y-87835000D01*
X141086260Y-87835000D01*
X141373158Y-87777932D01*
X141643411Y-87665990D01*
X141886632Y-87503475D01*
X142093475Y-87296632D01*
X142215195Y-87114466D01*
X142284822Y-87231355D01*
X142479731Y-87447588D01*
X142713080Y-87621641D01*
X142975901Y-87746825D01*
X143123110Y-87791476D01*
X143353000Y-87670155D01*
X143353000Y-86477000D01*
X143333000Y-86477000D01*
X143333000Y-86223000D01*
X143353000Y-86223000D01*
X143353000Y-86203000D01*
X143607000Y-86203000D01*
X143607000Y-86223000D01*
X143627000Y-86223000D01*
X143627000Y-86477000D01*
X143607000Y-86477000D01*
X143607000Y-87670155D01*
X143836890Y-87791476D01*
X143984099Y-87746825D01*
X144246920Y-87621641D01*
X144480269Y-87447588D01*
X144675178Y-87231355D01*
X144744805Y-87114466D01*
X144866525Y-87296632D01*
X145073368Y-87503475D01*
X145316589Y-87665990D01*
X145586842Y-87777932D01*
X145873740Y-87835000D01*
X146166260Y-87835000D01*
X146453158Y-87777932D01*
X146723411Y-87665990D01*
X146966632Y-87503475D01*
X147173475Y-87296632D01*
X147290000Y-87122240D01*
X147406525Y-87296632D01*
X147613368Y-87503475D01*
X147856589Y-87665990D01*
X148126842Y-87777932D01*
X148413740Y-87835000D01*
X148706260Y-87835000D01*
X148993158Y-87777932D01*
X149263411Y-87665990D01*
X149506632Y-87503475D01*
X149713475Y-87296632D01*
X149830000Y-87122240D01*
X149946525Y-87296632D01*
X150153368Y-87503475D01*
X150396589Y-87665990D01*
X150666842Y-87777932D01*
X150953740Y-87835000D01*
X151246260Y-87835000D01*
X151533158Y-87777932D01*
X151803411Y-87665990D01*
X152046632Y-87503475D01*
X152253475Y-87296632D01*
X152370000Y-87122240D01*
X152486525Y-87296632D01*
X152693368Y-87503475D01*
X152936589Y-87665990D01*
X153206842Y-87777932D01*
X153493740Y-87835000D01*
X153786260Y-87835000D01*
X154073158Y-87777932D01*
X154343411Y-87665990D01*
X154586632Y-87503475D01*
X154793475Y-87296632D01*
X154910000Y-87122240D01*
X155026525Y-87296632D01*
X155233368Y-87503475D01*
X155476589Y-87665990D01*
X155746842Y-87777932D01*
X156033740Y-87835000D01*
X156326260Y-87835000D01*
X156613158Y-87777932D01*
X156883411Y-87665990D01*
X157126632Y-87503475D01*
X157333475Y-87296632D01*
X157450000Y-87122240D01*
X157566525Y-87296632D01*
X157773368Y-87503475D01*
X158016589Y-87665990D01*
X158286842Y-87777932D01*
X158573740Y-87835000D01*
X158866260Y-87835000D01*
X159153158Y-87777932D01*
X159423411Y-87665990D01*
X159666632Y-87503475D01*
X159873475Y-87296632D01*
X159995195Y-87114466D01*
X160064822Y-87231355D01*
X160259731Y-87447588D01*
X160493080Y-87621641D01*
X160755901Y-87746825D01*
X160903110Y-87791476D01*
X161133000Y-87670155D01*
X161133000Y-86477000D01*
X161387000Y-86477000D01*
X161387000Y-87670155D01*
X161616890Y-87791476D01*
X161764099Y-87746825D01*
X162026920Y-87621641D01*
X162260269Y-87447588D01*
X162455178Y-87231355D01*
X162604157Y-86981252D01*
X162701481Y-86706891D01*
X162580814Y-86477000D01*
X161387000Y-86477000D01*
X161133000Y-86477000D01*
X161113000Y-86477000D01*
X161113000Y-86223000D01*
X161133000Y-86223000D01*
X161133000Y-86203000D01*
X161387000Y-86203000D01*
X161387000Y-86223000D01*
X162580814Y-86223000D01*
X162701481Y-85993109D01*
X162604157Y-85718748D01*
X162455178Y-85468645D01*
X162260269Y-85252412D01*
X162030594Y-85081100D01*
X162206632Y-84963475D01*
X162288075Y-84882032D01*
X164120000Y-84882032D01*
X164120000Y-85277968D01*
X164197243Y-85666296D01*
X164348761Y-86032092D01*
X164568731Y-86361301D01*
X164848699Y-86641269D01*
X165177908Y-86861239D01*
X165543704Y-87012757D01*
X165932032Y-87090000D01*
X166327968Y-87090000D01*
X166716296Y-87012757D01*
X167082092Y-86861239D01*
X167411301Y-86641269D01*
X167691269Y-86361301D01*
X167911239Y-86032092D01*
X168062757Y-85666296D01*
X168140000Y-85277968D01*
X168140000Y-84882032D01*
X168062757Y-84493704D01*
X167911239Y-84127908D01*
X167691269Y-83798699D01*
X167411301Y-83518731D01*
X167082092Y-83298761D01*
X166716296Y-83147243D01*
X166327968Y-83070000D01*
X165932032Y-83070000D01*
X165543704Y-83147243D01*
X165177908Y-83298761D01*
X164848699Y-83518731D01*
X164568731Y-83798699D01*
X164348761Y-84127908D01*
X164197243Y-84493704D01*
X164120000Y-84882032D01*
X162288075Y-84882032D01*
X162413475Y-84756632D01*
X162575990Y-84513411D01*
X162687932Y-84243158D01*
X162745000Y-83956260D01*
X162745000Y-83663740D01*
X162687932Y-83376842D01*
X162575990Y-83106589D01*
X162413475Y-82863368D01*
X162206632Y-82656525D01*
X161963411Y-82494010D01*
X161693158Y-82382068D01*
X161406260Y-82325000D01*
X161113740Y-82325000D01*
X160826842Y-82382068D01*
X160556589Y-82494010D01*
X160313368Y-82656525D01*
X160106525Y-82863368D01*
X159990000Y-83037760D01*
X159873475Y-82863368D01*
X159666632Y-82656525D01*
X159423411Y-82494010D01*
X159153158Y-82382068D01*
X158866260Y-82325000D01*
X158573740Y-82325000D01*
X158286842Y-82382068D01*
X158016589Y-82494010D01*
X157773368Y-82656525D01*
X157566525Y-82863368D01*
X157450000Y-83037760D01*
X157333475Y-82863368D01*
X157126632Y-82656525D01*
X156883411Y-82494010D01*
X156613158Y-82382068D01*
X156326260Y-82325000D01*
X156033740Y-82325000D01*
X155746842Y-82382068D01*
X155476589Y-82494010D01*
X155233368Y-82656525D01*
X155026525Y-82863368D01*
X154904805Y-83045534D01*
X154835178Y-82928645D01*
X154640269Y-82712412D01*
X154406920Y-82538359D01*
X154144099Y-82413175D01*
X153996890Y-82368524D01*
X153767000Y-82489845D01*
X153767000Y-83683000D01*
X153787000Y-83683000D01*
X153787000Y-83937000D01*
X153767000Y-83937000D01*
X153767000Y-83957000D01*
X153513000Y-83957000D01*
X153513000Y-83937000D01*
X153493000Y-83937000D01*
X153493000Y-83683000D01*
X153513000Y-83683000D01*
X153513000Y-82489845D01*
X153283110Y-82368524D01*
X153135901Y-82413175D01*
X152873080Y-82538359D01*
X152639731Y-82712412D01*
X152444822Y-82928645D01*
X152375195Y-83045534D01*
X152253475Y-82863368D01*
X152046632Y-82656525D01*
X151803411Y-82494010D01*
X151533158Y-82382068D01*
X151246260Y-82325000D01*
X150953740Y-82325000D01*
X150666842Y-82382068D01*
X150396589Y-82494010D01*
X150153368Y-82656525D01*
X149946525Y-82863368D01*
X149824805Y-83045534D01*
X149755178Y-82928645D01*
X149560269Y-82712412D01*
X149326920Y-82538359D01*
X149064099Y-82413175D01*
X148916890Y-82368524D01*
X148687000Y-82489845D01*
X148687000Y-83683000D01*
X148707000Y-83683000D01*
X148707000Y-83937000D01*
X148687000Y-83937000D01*
X148687000Y-83957000D01*
X148433000Y-83957000D01*
X148433000Y-83937000D01*
X148413000Y-83937000D01*
X148413000Y-83683000D01*
X148433000Y-83683000D01*
X148433000Y-82489845D01*
X148203110Y-82368524D01*
X148055901Y-82413175D01*
X147793080Y-82538359D01*
X147559731Y-82712412D01*
X147364822Y-82928645D01*
X147295195Y-83045534D01*
X147173475Y-82863368D01*
X146966632Y-82656525D01*
X146723411Y-82494010D01*
X146453158Y-82382068D01*
X146166260Y-82325000D01*
X145873740Y-82325000D01*
X145586842Y-82382068D01*
X145316589Y-82494010D01*
X145073368Y-82656525D01*
X144866525Y-82863368D01*
X144750000Y-83037760D01*
X144633475Y-82863368D01*
X144426632Y-82656525D01*
X144183411Y-82494010D01*
X143913158Y-82382068D01*
X143626260Y-82325000D01*
X143333740Y-82325000D01*
X143046842Y-82382068D01*
X142776589Y-82494010D01*
X142533368Y-82656525D01*
X142326525Y-82863368D01*
X142210000Y-83037760D01*
X142093475Y-82863368D01*
X141886632Y-82656525D01*
X141643411Y-82494010D01*
X141373158Y-82382068D01*
X141086260Y-82325000D01*
X140793740Y-82325000D01*
X140506842Y-82382068D01*
X140236589Y-82494010D01*
X139993368Y-82656525D01*
X139786525Y-82863368D01*
X139670000Y-83037760D01*
X139553475Y-82863368D01*
X139346632Y-82656525D01*
X139103411Y-82494010D01*
X138833158Y-82382068D01*
X138546260Y-82325000D01*
X138253740Y-82325000D01*
X137966842Y-82382068D01*
X137696589Y-82494010D01*
X137453368Y-82656525D01*
X137246525Y-82863368D01*
X137124805Y-83045534D01*
X137055178Y-82928645D01*
X136860269Y-82712412D01*
X136626920Y-82538359D01*
X136364099Y-82413175D01*
X136216890Y-82368524D01*
X135987000Y-82489845D01*
X135987000Y-83683000D01*
X136007000Y-83683000D01*
X136007000Y-83937000D01*
X135987000Y-83937000D01*
X135987000Y-83957000D01*
X135733000Y-83957000D01*
X135733000Y-83937000D01*
X135713000Y-83937000D01*
X135713000Y-83683000D01*
X135733000Y-83683000D01*
X135733000Y-82489845D01*
X135503110Y-82368524D01*
X135355901Y-82413175D01*
X135093080Y-82538359D01*
X134859731Y-82712412D01*
X134664822Y-82928645D01*
X134595195Y-83045534D01*
X134473475Y-82863368D01*
X134266632Y-82656525D01*
X134023411Y-82494010D01*
X133753158Y-82382068D01*
X133466260Y-82325000D01*
X133173740Y-82325000D01*
X132886842Y-82382068D01*
X132616589Y-82494010D01*
X132373368Y-82656525D01*
X132166525Y-82863368D01*
X132050000Y-83037760D01*
X131933475Y-82863368D01*
X131726632Y-82656525D01*
X131483411Y-82494010D01*
X131213158Y-82382068D01*
X130926260Y-82325000D01*
X130633740Y-82325000D01*
X130346842Y-82382068D01*
X130076589Y-82494010D01*
X129833368Y-82656525D01*
X129626525Y-82863368D01*
X129504805Y-83045534D01*
X129435178Y-82928645D01*
X129240269Y-82712412D01*
X129006920Y-82538359D01*
X128744099Y-82413175D01*
X128596890Y-82368524D01*
X128367000Y-82489845D01*
X128367000Y-83683000D01*
X128387000Y-83683000D01*
X128387000Y-83937000D01*
X128367000Y-83937000D01*
X128367000Y-83957000D01*
X128113000Y-83957000D01*
X128113000Y-83937000D01*
X128093000Y-83937000D01*
X128093000Y-83683000D01*
X128113000Y-83683000D01*
X128113000Y-82489845D01*
X127883110Y-82368524D01*
X127735901Y-82413175D01*
X127473080Y-82538359D01*
X127239731Y-82712412D01*
X127044822Y-82928645D01*
X126975195Y-83045534D01*
X126853475Y-82863368D01*
X126646632Y-82656525D01*
X126403411Y-82494010D01*
X126133158Y-82382068D01*
X125846260Y-82325000D01*
X125553740Y-82325000D01*
X125266842Y-82382068D01*
X124996589Y-82494010D01*
X124753368Y-82656525D01*
X124546525Y-82863368D01*
X124430000Y-83037760D01*
X124313475Y-82863368D01*
X124106632Y-82656525D01*
X123863411Y-82494010D01*
X123593158Y-82382068D01*
X123306260Y-82325000D01*
X123013740Y-82325000D01*
X122726842Y-82382068D01*
X122456589Y-82494010D01*
X122213368Y-82656525D01*
X122006525Y-82863368D01*
X121890000Y-83037760D01*
X121773475Y-82863368D01*
X121566632Y-82656525D01*
X121323411Y-82494010D01*
X121053158Y-82382068D01*
X120766260Y-82325000D01*
X120473740Y-82325000D01*
X120186842Y-82382068D01*
X119916589Y-82494010D01*
X119673368Y-82656525D01*
X119466525Y-82863368D01*
X119344805Y-83045534D01*
X119275178Y-82928645D01*
X119080269Y-82712412D01*
X118846920Y-82538359D01*
X118584099Y-82413175D01*
X118436890Y-82368524D01*
X118207000Y-82489845D01*
X118207000Y-83683000D01*
X118227000Y-83683000D01*
X118227000Y-83937000D01*
X118207000Y-83937000D01*
X118207000Y-83957000D01*
X117953000Y-83957000D01*
X117953000Y-83937000D01*
X117933000Y-83937000D01*
X117933000Y-83683000D01*
X117953000Y-83683000D01*
X117953000Y-82489845D01*
X117723110Y-82368524D01*
X117575901Y-82413175D01*
X117313080Y-82538359D01*
X117079731Y-82712412D01*
X116884822Y-82928645D01*
X116815195Y-83045534D01*
X116693475Y-82863368D01*
X116486632Y-82656525D01*
X116243411Y-82494010D01*
X115973158Y-82382068D01*
X115686260Y-82325000D01*
X115393740Y-82325000D01*
X115106842Y-82382068D01*
X114836589Y-82494010D01*
X114593368Y-82656525D01*
X114449893Y-82800000D01*
X114090107Y-82800000D01*
X113946632Y-82656525D01*
X113703411Y-82494010D01*
X113433158Y-82382068D01*
X113146260Y-82325000D01*
X112853740Y-82325000D01*
X112566842Y-82382068D01*
X112296589Y-82494010D01*
X112053368Y-82656525D01*
X111846525Y-82863368D01*
X111684010Y-83106589D01*
X111572068Y-83376842D01*
X111515000Y-83663740D01*
X111515000Y-83671643D01*
X110895900Y-84290743D01*
X110857367Y-84322366D01*
X110825744Y-84360899D01*
X110825743Y-84360900D01*
X110731153Y-84476159D01*
X110637367Y-84651620D01*
X110579614Y-84842005D01*
X110560113Y-85039999D01*
X110565000Y-85089617D01*
X110564999Y-88720391D01*
X110561590Y-88755000D01*
X109365710Y-88755000D01*
X109297567Y-88718577D01*
X109133316Y-88668752D01*
X108962500Y-88651928D01*
X108462500Y-88651928D01*
X108291684Y-88668752D01*
X108127433Y-88718577D01*
X107976058Y-88799488D01*
X107843377Y-88908377D01*
X107800000Y-88961232D01*
X107756623Y-88908377D01*
X107623942Y-88799488D01*
X107472567Y-88718577D01*
X107308316Y-88668752D01*
X107137500Y-88651928D01*
X106637500Y-88651928D01*
X106466684Y-88668752D01*
X106302433Y-88718577D01*
X106151058Y-88799488D01*
X106018377Y-88908377D01*
X105939080Y-89005000D01*
X105861111Y-89005000D01*
X105817174Y-88961063D01*
X105647656Y-88847795D01*
X105459298Y-88769774D01*
X105259339Y-88730000D01*
X105160000Y-88730000D01*
X105160000Y-84882032D01*
X106120000Y-84882032D01*
X106120000Y-85277968D01*
X106197243Y-85666296D01*
X106348761Y-86032092D01*
X106568731Y-86361301D01*
X106848699Y-86641269D01*
X107177908Y-86861239D01*
X107543704Y-87012757D01*
X107932032Y-87090000D01*
X108327968Y-87090000D01*
X108716296Y-87012757D01*
X109082092Y-86861239D01*
X109411301Y-86641269D01*
X109691269Y-86361301D01*
X109911239Y-86032092D01*
X110062757Y-85666296D01*
X110140000Y-85277968D01*
X110140000Y-84882032D01*
X110062757Y-84493704D01*
X109911239Y-84127908D01*
X109691269Y-83798699D01*
X109411301Y-83518731D01*
X109082092Y-83298761D01*
X108716296Y-83147243D01*
X108327968Y-83070000D01*
X107932032Y-83070000D01*
X107543704Y-83147243D01*
X107177908Y-83298761D01*
X106848699Y-83518731D01*
X106568731Y-83798699D01*
X106348761Y-84127908D01*
X106197243Y-84493704D01*
X106120000Y-84882032D01*
X105160000Y-84882032D01*
X105160000Y-82110000D01*
X169090001Y-82110000D01*
X169090000Y-84632418D01*
%TA.AperFunction,Conductor*%
D21*
G36*
X169090000Y-84632418D02*
G01*
X169090001Y-84632428D01*
X169090000Y-108067581D01*
X169090000Y-108067582D01*
X169090001Y-111040000D01*
X105160000Y-111040000D01*
X105160000Y-107882032D01*
X106120000Y-107882032D01*
X106120000Y-108277968D01*
X106197243Y-108666296D01*
X106348761Y-109032092D01*
X106568731Y-109361301D01*
X106848699Y-109641269D01*
X107177908Y-109861239D01*
X107543704Y-110012757D01*
X107932032Y-110090000D01*
X108327968Y-110090000D01*
X108716296Y-110012757D01*
X109082092Y-109861239D01*
X109411301Y-109641269D01*
X109691269Y-109361301D01*
X109911239Y-109032092D01*
X110062757Y-108666296D01*
X110140000Y-108277968D01*
X110140000Y-107882032D01*
X110062757Y-107493704D01*
X109911239Y-107127908D01*
X109691269Y-106798699D01*
X109411301Y-106518731D01*
X109082092Y-106298761D01*
X108716296Y-106147243D01*
X108327968Y-106070000D01*
X107932032Y-106070000D01*
X107543704Y-106147243D01*
X107177908Y-106298761D01*
X106848699Y-106518731D01*
X106568731Y-106798699D01*
X106348761Y-107127908D01*
X106197243Y-107493704D01*
X106120000Y-107882032D01*
X105160000Y-107882032D01*
X105160000Y-104879508D01*
X111765000Y-104879508D01*
X111765000Y-105420491D01*
X111785764Y-105631308D01*
X111867818Y-105901807D01*
X112001068Y-106151100D01*
X112180392Y-106369607D01*
X112398899Y-106548932D01*
X112587984Y-106650000D01*
X112398900Y-106751068D01*
X112180393Y-106930392D01*
X112001068Y-107148899D01*
X111867818Y-107398192D01*
X111785764Y-107668691D01*
X111765000Y-107879508D01*
X111765000Y-108420491D01*
X111785764Y-108631308D01*
X111867818Y-108901807D01*
X112001068Y-109151100D01*
X112180392Y-109369607D01*
X112398899Y-109548932D01*
X112648192Y-109682182D01*
X112918691Y-109764236D01*
X113200000Y-109791943D01*
X113481308Y-109764236D01*
X113751807Y-109682182D01*
X113815642Y-109648061D01*
X114465000Y-109648061D01*
X114465000Y-109851939D01*
X114504774Y-110051898D01*
X114582795Y-110240256D01*
X114696063Y-110409774D01*
X114840226Y-110553937D01*
X115009744Y-110667205D01*
X115198102Y-110745226D01*
X115398061Y-110785000D01*
X115601939Y-110785000D01*
X115801898Y-110745226D01*
X115990256Y-110667205D01*
X116159774Y-110553937D01*
X116303937Y-110409774D01*
X116417205Y-110240256D01*
X116495226Y-110051898D01*
X116535000Y-109851939D01*
X116535000Y-109648061D01*
X116495226Y-109448102D01*
X116417205Y-109259744D01*
X116303937Y-109090226D01*
X116159774Y-108946063D01*
X115990256Y-108832795D01*
X115801898Y-108754774D01*
X115601939Y-108715000D01*
X115398061Y-108715000D01*
X115198102Y-108754774D01*
X115009744Y-108832795D01*
X114840226Y-108946063D01*
X114696063Y-109090226D01*
X114582795Y-109259744D01*
X114504774Y-109448102D01*
X114465000Y-109648061D01*
X113815642Y-109648061D01*
X114001100Y-109548932D01*
X114219607Y-109369608D01*
X114398932Y-109151101D01*
X114532182Y-108901808D01*
X114614236Y-108631309D01*
X114627169Y-108500000D01*
X119511928Y-108500000D01*
X119511928Y-110200000D01*
X119524188Y-110324482D01*
X119560498Y-110444180D01*
X119619463Y-110554494D01*
X119698815Y-110651185D01*
X119795506Y-110730537D01*
X119905820Y-110789502D01*
X120025518Y-110825812D01*
X120150000Y-110838072D01*
X121850000Y-110838072D01*
X121974482Y-110825812D01*
X122094180Y-110789502D01*
X122204494Y-110730537D01*
X122301185Y-110651185D01*
X122380537Y-110554494D01*
X122439502Y-110444180D01*
X122475812Y-110324482D01*
X122488072Y-110200000D01*
X122488072Y-108502887D01*
X127518063Y-108502887D01*
X127575404Y-108779306D01*
X127685570Y-109039227D01*
X127844327Y-109272662D01*
X128045575Y-109470639D01*
X128281579Y-109625551D01*
X128543270Y-109731444D01*
X128600961Y-109741904D01*
X128823000Y-109619915D01*
X128823000Y-108277000D01*
X129077000Y-108277000D01*
X129077000Y-109619915D01*
X129299039Y-109741904D01*
X129356730Y-109731444D01*
X129562792Y-109648061D01*
X130215000Y-109648061D01*
X130215000Y-109851939D01*
X130254774Y-110051898D01*
X130332795Y-110240256D01*
X130446063Y-110409774D01*
X130590226Y-110553937D01*
X130759744Y-110667205D01*
X130948102Y-110745226D01*
X131148061Y-110785000D01*
X131351939Y-110785000D01*
X131551898Y-110745226D01*
X131740256Y-110667205D01*
X131909774Y-110553937D01*
X132053937Y-110409774D01*
X132167205Y-110240256D01*
X132245226Y-110051898D01*
X132285000Y-109851939D01*
X132285000Y-109648061D01*
X132245226Y-109448102D01*
X132167205Y-109259744D01*
X132053937Y-109090226D01*
X131909774Y-108946063D01*
X131740256Y-108832795D01*
X131551898Y-108754774D01*
X131351939Y-108715000D01*
X131148061Y-108715000D01*
X130948102Y-108754774D01*
X130759744Y-108832795D01*
X130590226Y-108946063D01*
X130446063Y-109090226D01*
X130332795Y-109259744D01*
X130254774Y-109448102D01*
X130215000Y-109648061D01*
X129562792Y-109648061D01*
X129618421Y-109625551D01*
X129854425Y-109470639D01*
X130055673Y-109272662D01*
X130214430Y-109039227D01*
X130324596Y-108779306D01*
X130381937Y-108502887D01*
X130379989Y-108500000D01*
X135261928Y-108500000D01*
X135261928Y-110200000D01*
X135274188Y-110324482D01*
X135310498Y-110444180D01*
X135369463Y-110554494D01*
X135448815Y-110651185D01*
X135545506Y-110730537D01*
X135655820Y-110789502D01*
X135775518Y-110825812D01*
X135900000Y-110838072D01*
X137600000Y-110838072D01*
X137724482Y-110825812D01*
X137844180Y-110789502D01*
X137954494Y-110730537D01*
X138051185Y-110651185D01*
X138130537Y-110554494D01*
X138189502Y-110444180D01*
X138225812Y-110324482D01*
X138238072Y-110200000D01*
X138238072Y-108502887D01*
X140768063Y-108502887D01*
X140825404Y-108779306D01*
X140935570Y-109039227D01*
X141094327Y-109272662D01*
X141295575Y-109470639D01*
X141531579Y-109625551D01*
X141793270Y-109731444D01*
X141850961Y-109741904D01*
X142073000Y-109619915D01*
X142073000Y-108277000D01*
X142327000Y-108277000D01*
X142327000Y-109619915D01*
X142549039Y-109741904D01*
X142606730Y-109731444D01*
X142812792Y-109648061D01*
X143465000Y-109648061D01*
X143465000Y-109851939D01*
X143504774Y-110051898D01*
X143582795Y-110240256D01*
X143696063Y-110409774D01*
X143840226Y-110553937D01*
X144009744Y-110667205D01*
X144198102Y-110745226D01*
X144398061Y-110785000D01*
X144601939Y-110785000D01*
X144801898Y-110745226D01*
X144990256Y-110667205D01*
X145159774Y-110553937D01*
X145303937Y-110409774D01*
X145417205Y-110240256D01*
X145495226Y-110051898D01*
X145535000Y-109851939D01*
X145535000Y-109648061D01*
X145495226Y-109448102D01*
X145417205Y-109259744D01*
X145303937Y-109090226D01*
X145159774Y-108946063D01*
X144990256Y-108832795D01*
X144801898Y-108754774D01*
X144601939Y-108715000D01*
X144398061Y-108715000D01*
X144198102Y-108754774D01*
X144009744Y-108832795D01*
X143840226Y-108946063D01*
X143696063Y-109090226D01*
X143582795Y-109259744D01*
X143504774Y-109448102D01*
X143465000Y-109648061D01*
X142812792Y-109648061D01*
X142868421Y-109625551D01*
X143104425Y-109470639D01*
X143305673Y-109272662D01*
X143464430Y-109039227D01*
X143574596Y-108779306D01*
X143624238Y-108540000D01*
X148511928Y-108540000D01*
X148511928Y-110240000D01*
X148524188Y-110364482D01*
X148560498Y-110484180D01*
X148619463Y-110594494D01*
X148698815Y-110691185D01*
X148795506Y-110770537D01*
X148905820Y-110829502D01*
X149025518Y-110865812D01*
X149150000Y-110878072D01*
X150850000Y-110878072D01*
X150974482Y-110865812D01*
X151094180Y-110829502D01*
X151204494Y-110770537D01*
X151301185Y-110691185D01*
X151380537Y-110594494D01*
X151439502Y-110484180D01*
X151475812Y-110364482D01*
X151488072Y-110240000D01*
X151488072Y-108540000D01*
X151475812Y-108415518D01*
X151439502Y-108295820D01*
X151380537Y-108185506D01*
X151301185Y-108088815D01*
X151204494Y-108009463D01*
X151094180Y-107950498D01*
X151013534Y-107926034D01*
X151062349Y-107882032D01*
X164120000Y-107882032D01*
X164120000Y-108277968D01*
X164197243Y-108666296D01*
X164348761Y-109032092D01*
X164568731Y-109361301D01*
X164848699Y-109641269D01*
X165177908Y-109861239D01*
X165543704Y-110012757D01*
X165932032Y-110090000D01*
X166327968Y-110090000D01*
X166716296Y-110012757D01*
X167082092Y-109861239D01*
X167411301Y-109641269D01*
X167691269Y-109361301D01*
X167911239Y-109032092D01*
X168062757Y-108666296D01*
X168140000Y-108277968D01*
X168140000Y-107882032D01*
X168062757Y-107493704D01*
X167911239Y-107127908D01*
X167691269Y-106798699D01*
X167411301Y-106518731D01*
X167082092Y-106298761D01*
X166716296Y-106147243D01*
X166327968Y-106070000D01*
X165932032Y-106070000D01*
X165543704Y-106147243D01*
X165177908Y-106298761D01*
X164848699Y-106518731D01*
X164568731Y-106798699D01*
X164348761Y-107127908D01*
X164197243Y-107493704D01*
X164120000Y-107882032D01*
X151062349Y-107882032D01*
X151097588Y-107850269D01*
X151271641Y-107616920D01*
X151396825Y-107354099D01*
X151441476Y-107206890D01*
X151320155Y-106977000D01*
X150127000Y-106977000D01*
X150127000Y-106997000D01*
X149873000Y-106997000D01*
X149873000Y-106977000D01*
X148679845Y-106977000D01*
X148558524Y-107206890D01*
X148603175Y-107354099D01*
X148728359Y-107616920D01*
X148902412Y-107850269D01*
X148986466Y-107926034D01*
X148905820Y-107950498D01*
X148795506Y-108009463D01*
X148698815Y-108088815D01*
X148619463Y-108185506D01*
X148560498Y-108295820D01*
X148524188Y-108415518D01*
X148511928Y-108540000D01*
X143624238Y-108540000D01*
X143631937Y-108502887D01*
X143479474Y-108277000D01*
X142327000Y-108277000D01*
X142073000Y-108277000D01*
X140920526Y-108277000D01*
X140768063Y-108502887D01*
X138238072Y-108502887D01*
X138238072Y-108500000D01*
X138225812Y-108375518D01*
X138189502Y-108255820D01*
X138130537Y-108145506D01*
X138051185Y-108048815D01*
X137954494Y-107969463D01*
X137844180Y-107910498D01*
X137763534Y-107886034D01*
X137847588Y-107810269D01*
X138021641Y-107576920D01*
X138146825Y-107314099D01*
X138191476Y-107166890D01*
X138070155Y-106937000D01*
X136877000Y-106937000D01*
X136877000Y-106957000D01*
X136623000Y-106957000D01*
X136623000Y-106937000D01*
X135429845Y-106937000D01*
X135308524Y-107166890D01*
X135353175Y-107314099D01*
X135478359Y-107576920D01*
X135652412Y-107810269D01*
X135736466Y-107886034D01*
X135655820Y-107910498D01*
X135545506Y-107969463D01*
X135448815Y-108048815D01*
X135369463Y-108145506D01*
X135310498Y-108255820D01*
X135274188Y-108375518D01*
X135261928Y-108500000D01*
X130379989Y-108500000D01*
X130229474Y-108277000D01*
X129077000Y-108277000D01*
X128823000Y-108277000D01*
X127670526Y-108277000D01*
X127518063Y-108502887D01*
X122488072Y-108502887D01*
X122488072Y-108500000D01*
X122475812Y-108375518D01*
X122439502Y-108255820D01*
X122380537Y-108145506D01*
X122301185Y-108048815D01*
X122204494Y-107969463D01*
X122094180Y-107910498D01*
X122021620Y-107888487D01*
X122153475Y-107756632D01*
X122315990Y-107513411D01*
X122427932Y-107243158D01*
X122485000Y-106956260D01*
X122485000Y-106663740D01*
X122427932Y-106376842D01*
X122315990Y-106106589D01*
X122153475Y-105863368D01*
X121946632Y-105656525D01*
X121772240Y-105540000D01*
X121827783Y-105502887D01*
X127518063Y-105502887D01*
X127575404Y-105779306D01*
X127685570Y-106039227D01*
X127844327Y-106272662D01*
X128045575Y-106470639D01*
X128281579Y-106625551D01*
X128341999Y-106650000D01*
X128281579Y-106674449D01*
X128045575Y-106829361D01*
X127844327Y-107027338D01*
X127685570Y-107260773D01*
X127575404Y-107520694D01*
X127518063Y-107797113D01*
X127670526Y-108023000D01*
X128823000Y-108023000D01*
X128823000Y-106680085D01*
X128768241Y-106650000D01*
X128823000Y-106619915D01*
X128823000Y-105277000D01*
X129077000Y-105277000D01*
X129077000Y-106619915D01*
X129131759Y-106650000D01*
X129077000Y-106680085D01*
X129077000Y-108023000D01*
X130229474Y-108023000D01*
X130381937Y-107797113D01*
X130324596Y-107520694D01*
X130214430Y-107260773D01*
X130055673Y-107027338D01*
X129854425Y-106829361D01*
X129618421Y-106674449D01*
X129558001Y-106650000D01*
X129618421Y-106625551D01*
X129854425Y-106470639D01*
X129872243Y-106453110D01*
X135308524Y-106453110D01*
X135429845Y-106683000D01*
X136623000Y-106683000D01*
X136623000Y-105489186D01*
X136877000Y-105489186D01*
X136877000Y-106683000D01*
X138070155Y-106683000D01*
X138191476Y-106453110D01*
X138146825Y-106305901D01*
X138021641Y-106043080D01*
X137847588Y-105809731D01*
X137631355Y-105614822D01*
X137443441Y-105502887D01*
X140768063Y-105502887D01*
X140825404Y-105779306D01*
X140935570Y-106039227D01*
X141094327Y-106272662D01*
X141295575Y-106470639D01*
X141531579Y-106625551D01*
X141591999Y-106650000D01*
X141531579Y-106674449D01*
X141295575Y-106829361D01*
X141094327Y-107027338D01*
X140935570Y-107260773D01*
X140825404Y-107520694D01*
X140768063Y-107797113D01*
X140920526Y-108023000D01*
X142073000Y-108023000D01*
X142073000Y-106680085D01*
X142018241Y-106650000D01*
X142073000Y-106619915D01*
X142073000Y-105277000D01*
X142327000Y-105277000D01*
X142327000Y-106619915D01*
X142381759Y-106650000D01*
X142327000Y-106680085D01*
X142327000Y-108023000D01*
X143479474Y-108023000D01*
X143631937Y-107797113D01*
X143574596Y-107520694D01*
X143464430Y-107260773D01*
X143305673Y-107027338D01*
X143104425Y-106829361D01*
X142868421Y-106674449D01*
X142808001Y-106650000D01*
X142868421Y-106625551D01*
X143070191Y-106493110D01*
X148558524Y-106493110D01*
X148679845Y-106723000D01*
X149873000Y-106723000D01*
X149873000Y-105529186D01*
X150127000Y-105529186D01*
X150127000Y-106723000D01*
X151320155Y-106723000D01*
X151441476Y-106493110D01*
X151396825Y-106345901D01*
X151271641Y-106083080D01*
X151097588Y-105849731D01*
X150881355Y-105654822D01*
X150631252Y-105505843D01*
X150356891Y-105408519D01*
X150127000Y-105529186D01*
X149873000Y-105529186D01*
X149643109Y-105408519D01*
X149368748Y-105505843D01*
X149118645Y-105654822D01*
X148902412Y-105849731D01*
X148728359Y-106083080D01*
X148603175Y-106345901D01*
X148558524Y-106493110D01*
X143070191Y-106493110D01*
X143104425Y-106470639D01*
X143305673Y-106272662D01*
X143464430Y-106039227D01*
X143574596Y-105779306D01*
X143631937Y-105502887D01*
X143479474Y-105277000D01*
X142327000Y-105277000D01*
X142073000Y-105277000D01*
X140920526Y-105277000D01*
X140768063Y-105502887D01*
X137443441Y-105502887D01*
X137381252Y-105465843D01*
X137106891Y-105368519D01*
X136877000Y-105489186D01*
X136623000Y-105489186D01*
X136393109Y-105368519D01*
X136118748Y-105465843D01*
X135868645Y-105614822D01*
X135652412Y-105809731D01*
X135478359Y-106043080D01*
X135353175Y-106305901D01*
X135308524Y-106453110D01*
X129872243Y-106453110D01*
X130055673Y-106272662D01*
X130214430Y-106039227D01*
X130324596Y-105779306D01*
X130381937Y-105502887D01*
X130229474Y-105277000D01*
X129077000Y-105277000D01*
X128823000Y-105277000D01*
X127670526Y-105277000D01*
X127518063Y-105502887D01*
X121827783Y-105502887D01*
X121946632Y-105423475D01*
X122153475Y-105216632D01*
X122315990Y-104973411D01*
X122389014Y-104797113D01*
X127518063Y-104797113D01*
X127670526Y-105023000D01*
X128823000Y-105023000D01*
X128823000Y-103680085D01*
X129077000Y-103680085D01*
X129077000Y-105023000D01*
X130229474Y-105023000D01*
X130381937Y-104797113D01*
X140768063Y-104797113D01*
X140920526Y-105023000D01*
X142073000Y-105023000D01*
X142073000Y-103680085D01*
X142327000Y-103680085D01*
X142327000Y-105023000D01*
X143479474Y-105023000D01*
X143631937Y-104797113D01*
X143574596Y-104520694D01*
X143464430Y-104260773D01*
X143305673Y-104027338D01*
X143104425Y-103829361D01*
X142868421Y-103674449D01*
X142606730Y-103568556D01*
X142549039Y-103558096D01*
X142327000Y-103680085D01*
X142073000Y-103680085D01*
X141850961Y-103558096D01*
X141793270Y-103568556D01*
X141531579Y-103674449D01*
X141295575Y-103829361D01*
X141094327Y-104027338D01*
X140935570Y-104260773D01*
X140825404Y-104520694D01*
X140768063Y-104797113D01*
X130381937Y-104797113D01*
X130324596Y-104520694D01*
X130214430Y-104260773D01*
X130055673Y-104027338D01*
X129854425Y-103829361D01*
X129618421Y-103674449D01*
X129356730Y-103568556D01*
X129299039Y-103558096D01*
X129077000Y-103680085D01*
X128823000Y-103680085D01*
X128600961Y-103558096D01*
X128543270Y-103568556D01*
X128281579Y-103674449D01*
X128045575Y-103829361D01*
X127844327Y-104027338D01*
X127685570Y-104260773D01*
X127575404Y-104520694D01*
X127518063Y-104797113D01*
X122389014Y-104797113D01*
X122427932Y-104703158D01*
X122485000Y-104416260D01*
X122485000Y-104123740D01*
X122427932Y-103836842D01*
X122315990Y-103566589D01*
X122153475Y-103323368D01*
X121946632Y-103116525D01*
X121764466Y-102994805D01*
X121881355Y-102925178D01*
X122097588Y-102730269D01*
X122271641Y-102496920D01*
X122396825Y-102234099D01*
X122441476Y-102086890D01*
X122320155Y-101857000D01*
X121127000Y-101857000D01*
X121127000Y-101877000D01*
X120873000Y-101877000D01*
X120873000Y-101857000D01*
X119679845Y-101857000D01*
X119558524Y-102086890D01*
X119603175Y-102234099D01*
X119728359Y-102496920D01*
X119902412Y-102730269D01*
X120118645Y-102925178D01*
X120235534Y-102994805D01*
X120053368Y-103116525D01*
X119846525Y-103323368D01*
X119684010Y-103566589D01*
X119572068Y-103836842D01*
X119515000Y-104123740D01*
X119515000Y-104416260D01*
X119572068Y-104703158D01*
X119684010Y-104973411D01*
X119846525Y-105216632D01*
X120053368Y-105423475D01*
X120227760Y-105540000D01*
X120053368Y-105656525D01*
X119846525Y-105863368D01*
X119684010Y-106106589D01*
X119572068Y-106376842D01*
X119515000Y-106663740D01*
X119515000Y-106956260D01*
X119572068Y-107243158D01*
X119684010Y-107513411D01*
X119846525Y-107756632D01*
X119978380Y-107888487D01*
X119905820Y-107910498D01*
X119795506Y-107969463D01*
X119698815Y-108048815D01*
X119619463Y-108145506D01*
X119560498Y-108255820D01*
X119524188Y-108375518D01*
X119511928Y-108500000D01*
X114627169Y-108500000D01*
X114635000Y-108420492D01*
X114635000Y-107879509D01*
X114614236Y-107668692D01*
X114532182Y-107398193D01*
X114398932Y-107148899D01*
X114219608Y-106930392D01*
X114001101Y-106751068D01*
X113812016Y-106650000D01*
X114001100Y-106548932D01*
X114219607Y-106369608D01*
X114398932Y-106151101D01*
X114532182Y-105901808D01*
X114614236Y-105631309D01*
X114635000Y-105420492D01*
X114635000Y-104879509D01*
X114614236Y-104668692D01*
X114532182Y-104398193D01*
X114398932Y-104148899D01*
X114219608Y-103930392D01*
X114001101Y-103751068D01*
X113751808Y-103617818D01*
X113481309Y-103535764D01*
X113200000Y-103508057D01*
X112918692Y-103535764D01*
X112648193Y-103617818D01*
X112398900Y-103751068D01*
X112180393Y-103930392D01*
X112001068Y-104148899D01*
X111867818Y-104398192D01*
X111785764Y-104668691D01*
X111765000Y-104879508D01*
X105160000Y-104879508D01*
X105160000Y-103156891D01*
X105718519Y-103156891D01*
X105815843Y-103431252D01*
X105964822Y-103681355D01*
X106159731Y-103897588D01*
X106393080Y-104071641D01*
X106655901Y-104196825D01*
X106803110Y-104241476D01*
X107033000Y-104120155D01*
X107033000Y-102927000D01*
X105839186Y-102927000D01*
X105718519Y-103156891D01*
X105160000Y-103156891D01*
X105160000Y-100025000D01*
X106799428Y-100025000D01*
X106802500Y-100214250D01*
X106961250Y-100373000D01*
X107848000Y-100373000D01*
X107848000Y-99548750D01*
X107689250Y-99390000D01*
X107437500Y-99386928D01*
X107313018Y-99399188D01*
X107193320Y-99435498D01*
X107083006Y-99494463D01*
X106986315Y-99573815D01*
X106906963Y-99670506D01*
X106847998Y-99780820D01*
X106811688Y-99900518D01*
X106799428Y-100025000D01*
X105160000Y-100025000D01*
X105160000Y-98478000D01*
X105266539Y-98478000D01*
X105466498Y-98438226D01*
X105654856Y-98360205D01*
X105824374Y-98246937D01*
X105868311Y-98203000D01*
X105938880Y-98203000D01*
X106018177Y-98299623D01*
X106150858Y-98408512D01*
X106302233Y-98489423D01*
X106466484Y-98539248D01*
X106637300Y-98556072D01*
X107137300Y-98556072D01*
X107308116Y-98539248D01*
X107472367Y-98489423D01*
X107623742Y-98408512D01*
X107756423Y-98299623D01*
X107799800Y-98246768D01*
X107843177Y-98299623D01*
X107975858Y-98408512D01*
X108127233Y-98489423D01*
X108291484Y-98539248D01*
X108462300Y-98556072D01*
X108962300Y-98556072D01*
X109133116Y-98539248D01*
X109297367Y-98489423D01*
X109448742Y-98408512D01*
X109581423Y-98299623D01*
X109690312Y-98166942D01*
X109771223Y-98015567D01*
X109821048Y-97851316D01*
X109837872Y-97680500D01*
X109837872Y-97205500D01*
X109821048Y-97034684D01*
X109771223Y-96870433D01*
X109722500Y-96779278D01*
X109722500Y-95539096D01*
X109771423Y-95447567D01*
X109821248Y-95283316D01*
X109838072Y-95112500D01*
X109838072Y-94637500D01*
X109821248Y-94466684D01*
X109771423Y-94302433D01*
X109722500Y-94210904D01*
X109722500Y-93345000D01*
X121390392Y-93345000D01*
X121440000Y-93349886D01*
X121637994Y-93330385D01*
X121736472Y-93300512D01*
X121828380Y-93272632D01*
X122003840Y-93178847D01*
X122157633Y-93052633D01*
X122189261Y-93014094D01*
X123030283Y-92173072D01*
X123180001Y-92173072D01*
X123180000Y-95253954D01*
X123085506Y-95304463D01*
X123040000Y-95341809D01*
X122994494Y-95304463D01*
X122884180Y-95245498D01*
X122764482Y-95209188D01*
X122640000Y-95196928D01*
X121680283Y-95196928D01*
X121064260Y-94580905D01*
X121032632Y-94542366D01*
X120878839Y-94416152D01*
X120703379Y-94322367D01*
X120512993Y-94264614D01*
X120364607Y-94249999D01*
X120314999Y-94245113D01*
X120265391Y-94249999D01*
X114829603Y-94249999D01*
X114779998Y-94245113D01*
X114730393Y-94249999D01*
X114730391Y-94249999D01*
X114582005Y-94264614D01*
X114391619Y-94322367D01*
X114216159Y-94416152D01*
X114062366Y-94542366D01*
X114030738Y-94580905D01*
X113414715Y-95196928D01*
X112940000Y-95196928D01*
X112815518Y-95209188D01*
X112695820Y-95245498D01*
X112585506Y-95304463D01*
X112488815Y-95383815D01*
X112409463Y-95480506D01*
X112350498Y-95590820D01*
X112314188Y-95710518D01*
X112301928Y-95835000D01*
X112301928Y-96794716D01*
X109709717Y-99386928D01*
X109400000Y-99386928D01*
X109229184Y-99403752D01*
X109064933Y-99453577D01*
X108914894Y-99533774D01*
X108866994Y-99494463D01*
X108756680Y-99435498D01*
X108636982Y-99399188D01*
X108512500Y-99386928D01*
X108260750Y-99390000D01*
X108102000Y-99548750D01*
X108102000Y-100373000D01*
X108122000Y-100373000D01*
X108122000Y-100627000D01*
X108102000Y-100627000D01*
X108102000Y-100647000D01*
X107848000Y-100647000D01*
X107848000Y-100627000D01*
X106961250Y-100627000D01*
X106802500Y-100785750D01*
X106799428Y-100975000D01*
X106811688Y-101099482D01*
X106847998Y-101219180D01*
X106906963Y-101329494D01*
X106986315Y-101426185D01*
X107032998Y-101464497D01*
X107032998Y-101479844D01*
X106803110Y-101358524D01*
X106655901Y-101403175D01*
X106393080Y-101528359D01*
X106159731Y-101702412D01*
X105964822Y-101918645D01*
X105815843Y-102168748D01*
X105718519Y-102443109D01*
X105839186Y-102673000D01*
X107033000Y-102673000D01*
X107033000Y-102653000D01*
X107287000Y-102653000D01*
X107287000Y-102673000D01*
X107307000Y-102673000D01*
X107307000Y-102927000D01*
X107287000Y-102927000D01*
X107287000Y-104120155D01*
X107516890Y-104241476D01*
X107664099Y-104196825D01*
X107926920Y-104071641D01*
X108160269Y-103897588D01*
X108236034Y-103813534D01*
X108260498Y-103894180D01*
X108319463Y-104004494D01*
X108398815Y-104101185D01*
X108495506Y-104180537D01*
X108605820Y-104239502D01*
X108725518Y-104275812D01*
X108850000Y-104288072D01*
X110550000Y-104288072D01*
X110674482Y-104275812D01*
X110794180Y-104239502D01*
X110904494Y-104180537D01*
X111001185Y-104101185D01*
X111080537Y-104004494D01*
X111139502Y-103894180D01*
X111175812Y-103774482D01*
X111188072Y-103650000D01*
X111188072Y-101950000D01*
X111175812Y-101825518D01*
X111139502Y-101705820D01*
X111080537Y-101595506D01*
X111001185Y-101498815D01*
X110904494Y-101419463D01*
X110794180Y-101360498D01*
X110710000Y-101334962D01*
X110710000Y-101245890D01*
X110713709Y-101241370D01*
X110742633Y-101217633D01*
X110774261Y-101179094D01*
X111073847Y-100879508D01*
X111765000Y-100879508D01*
X111765000Y-101420491D01*
X111785764Y-101631308D01*
X111867818Y-101901807D01*
X112001068Y-102151100D01*
X112180392Y-102369607D01*
X112398899Y-102548932D01*
X112648192Y-102682182D01*
X112918691Y-102764236D01*
X113200000Y-102791943D01*
X113481308Y-102764236D01*
X113751807Y-102682182D01*
X114001100Y-102548932D01*
X114219607Y-102369608D01*
X114398932Y-102151101D01*
X114532182Y-101901808D01*
X114614236Y-101631309D01*
X114635000Y-101420492D01*
X114635000Y-100879509D01*
X114614236Y-100668692D01*
X114532182Y-100398193D01*
X114398932Y-100148899D01*
X114219608Y-99930392D01*
X114001101Y-99751068D01*
X113751808Y-99617818D01*
X113481309Y-99535764D01*
X113200000Y-99508057D01*
X112918692Y-99535764D01*
X112648193Y-99617818D01*
X112398900Y-99751068D01*
X112180393Y-99930392D01*
X112001068Y-100148899D01*
X111867818Y-100398192D01*
X111785764Y-100668691D01*
X111765000Y-100879508D01*
X111073847Y-100879508D01*
X113480284Y-98473072D01*
X114440000Y-98473072D01*
X114564482Y-98460812D01*
X114684180Y-98424502D01*
X114794494Y-98365537D01*
X114840000Y-98328191D01*
X114885506Y-98365537D01*
X114990000Y-98421391D01*
X114990000Y-98534289D01*
X114953577Y-98602433D01*
X114903752Y-98766684D01*
X114886928Y-98937500D01*
X114886928Y-99537500D01*
X114903752Y-99708316D01*
X114953577Y-99872567D01*
X115033774Y-100022606D01*
X114994463Y-100070506D01*
X114935498Y-100180820D01*
X114899188Y-100300518D01*
X114886928Y-100425000D01*
X114890000Y-100676750D01*
X115048750Y-100835500D01*
X115873000Y-100835500D01*
X115873000Y-100815500D01*
X116127000Y-100815500D01*
X116127000Y-100835500D01*
X116147000Y-100835500D01*
X116147000Y-101089500D01*
X116127000Y-101089500D01*
X116127000Y-101109500D01*
X115873000Y-101109500D01*
X115873000Y-101089500D01*
X115048750Y-101089500D01*
X114890000Y-101248250D01*
X114886928Y-101500000D01*
X114899188Y-101624482D01*
X114935498Y-101744180D01*
X114989938Y-101846029D01*
X114840226Y-101946063D01*
X114696063Y-102090226D01*
X114582795Y-102259744D01*
X114504774Y-102448102D01*
X114465000Y-102648061D01*
X114465000Y-102851939D01*
X114504774Y-103051898D01*
X114582795Y-103240256D01*
X114696063Y-103409774D01*
X114840226Y-103553937D01*
X115009744Y-103667205D01*
X115198102Y-103745226D01*
X115398061Y-103785000D01*
X115601939Y-103785000D01*
X115801898Y-103745226D01*
X115990256Y-103667205D01*
X116159774Y-103553937D01*
X116303937Y-103409774D01*
X116417205Y-103240256D01*
X116495226Y-103051898D01*
X116535000Y-102851939D01*
X116535000Y-102648061D01*
X116495226Y-102448102D01*
X116417205Y-102259744D01*
X116334381Y-102135789D01*
X116475000Y-102138072D01*
X116599482Y-102125812D01*
X116719180Y-102089502D01*
X116829494Y-102030537D01*
X116926185Y-101951185D01*
X117005537Y-101854494D01*
X117064502Y-101744180D01*
X117100812Y-101624482D01*
X117111832Y-101512589D01*
X117131579Y-101525551D01*
X117393270Y-101631444D01*
X117450961Y-101641904D01*
X117673000Y-101519915D01*
X117673000Y-100177000D01*
X117927000Y-100177000D01*
X117927000Y-101519915D01*
X118149039Y-101641904D01*
X118206730Y-101631444D01*
X118468421Y-101525551D01*
X118700660Y-101373110D01*
X119558524Y-101373110D01*
X119679845Y-101603000D01*
X120873000Y-101603000D01*
X120873000Y-100409186D01*
X121127000Y-100409186D01*
X121127000Y-101603000D01*
X122320155Y-101603000D01*
X122374511Y-101500000D01*
X123136928Y-101500000D01*
X123149188Y-101624482D01*
X123185498Y-101744180D01*
X123244463Y-101854494D01*
X123323815Y-101951185D01*
X123420506Y-102030537D01*
X123530820Y-102089502D01*
X123650518Y-102125812D01*
X123775000Y-102138072D01*
X123964250Y-102135000D01*
X124123000Y-101976250D01*
X124123000Y-101089500D01*
X124377000Y-101089500D01*
X124377000Y-101976250D01*
X124535750Y-102135000D01*
X124725000Y-102138072D01*
X124849482Y-102125812D01*
X124969180Y-102089502D01*
X125079494Y-102030537D01*
X125176185Y-101951185D01*
X125255537Y-101854494D01*
X125314502Y-101744180D01*
X125350812Y-101624482D01*
X125363072Y-101500000D01*
X125360000Y-101248250D01*
X125201250Y-101089500D01*
X124377000Y-101089500D01*
X124123000Y-101089500D01*
X123298750Y-101089500D01*
X123140000Y-101248250D01*
X123136928Y-101500000D01*
X122374511Y-101500000D01*
X122441476Y-101373110D01*
X122396825Y-101225901D01*
X122271641Y-100963080D01*
X122209306Y-100879508D01*
X127515000Y-100879508D01*
X127515000Y-101420491D01*
X127535764Y-101631308D01*
X127617818Y-101901807D01*
X127751068Y-102151100D01*
X127930392Y-102369607D01*
X128148899Y-102548932D01*
X128398192Y-102682182D01*
X128668691Y-102764236D01*
X128950000Y-102791943D01*
X129231308Y-102764236D01*
X129501807Y-102682182D01*
X129565642Y-102648061D01*
X130215000Y-102648061D01*
X130215000Y-102851939D01*
X130254774Y-103051898D01*
X130332795Y-103240256D01*
X130446063Y-103409774D01*
X130590226Y-103553937D01*
X130759744Y-103667205D01*
X130948102Y-103745226D01*
X131148061Y-103785000D01*
X131351939Y-103785000D01*
X131551898Y-103745226D01*
X131740256Y-103667205D01*
X131909774Y-103553937D01*
X132053937Y-103409774D01*
X132167205Y-103240256D01*
X132245226Y-103051898D01*
X132285000Y-102851939D01*
X132285000Y-102648061D01*
X132245226Y-102448102D01*
X132167205Y-102259744D01*
X132053937Y-102090226D01*
X131909774Y-101946063D01*
X131740256Y-101832795D01*
X131551898Y-101754774D01*
X131351939Y-101715000D01*
X131148061Y-101715000D01*
X130948102Y-101754774D01*
X130759744Y-101832795D01*
X130590226Y-101946063D01*
X130446063Y-102090226D01*
X130332795Y-102259744D01*
X130254774Y-102448102D01*
X130215000Y-102648061D01*
X129565642Y-102648061D01*
X129751100Y-102548932D01*
X129969607Y-102369608D01*
X130148932Y-102151101D01*
X130282182Y-101901808D01*
X130364236Y-101631309D01*
X130385000Y-101420492D01*
X130385000Y-100879509D01*
X130364236Y-100668692D01*
X130283606Y-100402887D01*
X132118063Y-100402887D01*
X132175404Y-100679306D01*
X132285570Y-100939227D01*
X132444327Y-101172662D01*
X132645575Y-101370639D01*
X132881579Y-101525551D01*
X133143270Y-101631444D01*
X133200961Y-101641904D01*
X133423000Y-101519915D01*
X133423000Y-100177000D01*
X133677000Y-100177000D01*
X133677000Y-101519915D01*
X133899039Y-101641904D01*
X133956730Y-101631444D01*
X134218421Y-101525551D01*
X134454425Y-101370639D01*
X134655673Y-101172662D01*
X134814430Y-100939227D01*
X134839741Y-100879508D01*
X140765000Y-100879508D01*
X140765000Y-101420491D01*
X140785764Y-101631308D01*
X140867818Y-101901807D01*
X141001068Y-102151100D01*
X141180392Y-102369607D01*
X141398899Y-102548932D01*
X141648192Y-102682182D01*
X141918691Y-102764236D01*
X142200000Y-102791943D01*
X142481308Y-102764236D01*
X142751807Y-102682182D01*
X142815642Y-102648061D01*
X143465000Y-102648061D01*
X143465000Y-102851939D01*
X143504774Y-103051898D01*
X143582795Y-103240256D01*
X143696063Y-103409774D01*
X143840226Y-103553937D01*
X144009744Y-103667205D01*
X144198102Y-103745226D01*
X144398061Y-103785000D01*
X144601939Y-103785000D01*
X144801898Y-103745226D01*
X144990256Y-103667205D01*
X145159774Y-103553937D01*
X145303937Y-103409774D01*
X145417205Y-103240256D01*
X145495226Y-103051898D01*
X145535000Y-102851939D01*
X145535000Y-102648061D01*
X145495226Y-102448102D01*
X145417205Y-102259744D01*
X145303937Y-102090226D01*
X145159774Y-101946063D01*
X144990256Y-101832795D01*
X144801898Y-101754774D01*
X144601939Y-101715000D01*
X144398061Y-101715000D01*
X144198102Y-101754774D01*
X144009744Y-101832795D01*
X143840226Y-101946063D01*
X143696063Y-102090226D01*
X143582795Y-102259744D01*
X143504774Y-102448102D01*
X143465000Y-102648061D01*
X142815642Y-102648061D01*
X143001100Y-102548932D01*
X143219607Y-102369608D01*
X143398932Y-102151101D01*
X143532182Y-101901808D01*
X143614236Y-101631309D01*
X143635000Y-101420492D01*
X143635000Y-100879509D01*
X143614236Y-100668692D01*
X143533606Y-100402887D01*
X145368063Y-100402887D01*
X145425404Y-100679306D01*
X145535570Y-100939227D01*
X145694327Y-101172662D01*
X145895575Y-101370639D01*
X146131579Y-101525551D01*
X146393270Y-101631444D01*
X146450961Y-101641904D01*
X146673000Y-101519915D01*
X146673000Y-100177000D01*
X146927000Y-100177000D01*
X146927000Y-101519915D01*
X147149039Y-101641904D01*
X147206730Y-101631444D01*
X147468421Y-101525551D01*
X147704425Y-101370639D01*
X147905673Y-101172662D01*
X148064430Y-100939227D01*
X148174596Y-100679306D01*
X148231937Y-100402887D01*
X148079474Y-100177000D01*
X146927000Y-100177000D01*
X146673000Y-100177000D01*
X145520526Y-100177000D01*
X145368063Y-100402887D01*
X143533606Y-100402887D01*
X143532182Y-100398193D01*
X143398932Y-100148899D01*
X143219608Y-99930392D01*
X143001101Y-99751068D01*
X142751808Y-99617818D01*
X142481309Y-99535764D01*
X142200000Y-99508057D01*
X141918692Y-99535764D01*
X141648193Y-99617818D01*
X141398900Y-99751068D01*
X141180393Y-99930392D01*
X141001068Y-100148899D01*
X140867818Y-100398192D01*
X140785764Y-100668691D01*
X140765000Y-100879508D01*
X134839741Y-100879508D01*
X134924596Y-100679306D01*
X134981937Y-100402887D01*
X134829474Y-100177000D01*
X133677000Y-100177000D01*
X133423000Y-100177000D01*
X132270526Y-100177000D01*
X132118063Y-100402887D01*
X130283606Y-100402887D01*
X130282182Y-100398193D01*
X130148932Y-100148899D01*
X129969608Y-99930392D01*
X129751101Y-99751068D01*
X129501808Y-99617818D01*
X129231309Y-99535764D01*
X128950000Y-99508057D01*
X128668692Y-99535764D01*
X128398193Y-99617818D01*
X128148900Y-99751068D01*
X127930393Y-99930392D01*
X127751068Y-100148899D01*
X127617818Y-100398192D01*
X127535764Y-100668691D01*
X127515000Y-100879508D01*
X122209306Y-100879508D01*
X122097588Y-100729731D01*
X121881355Y-100534822D01*
X121631252Y-100385843D01*
X121356891Y-100288519D01*
X121127000Y-100409186D01*
X120873000Y-100409186D01*
X120643109Y-100288519D01*
X120368748Y-100385843D01*
X120118645Y-100534822D01*
X119902412Y-100729731D01*
X119728359Y-100963080D01*
X119603175Y-101225901D01*
X119558524Y-101373110D01*
X118700660Y-101373110D01*
X118704425Y-101370639D01*
X118905673Y-101172662D01*
X119064430Y-100939227D01*
X119174596Y-100679306D01*
X119231937Y-100402887D01*
X119079474Y-100177000D01*
X117927000Y-100177000D01*
X117673000Y-100177000D01*
X117653000Y-100177000D01*
X117653000Y-99923000D01*
X117673000Y-99923000D01*
X117673000Y-99903000D01*
X117927000Y-99903000D01*
X117927000Y-99923000D01*
X119079474Y-99923000D01*
X119231937Y-99697113D01*
X119174596Y-99420694D01*
X119064430Y-99160773D01*
X118905673Y-98927338D01*
X118704425Y-98729361D01*
X118468421Y-98574449D01*
X118206730Y-98468556D01*
X118149039Y-98458096D01*
X117927002Y-98580084D01*
X117927002Y-98470511D01*
X118004250Y-98470000D01*
X118163000Y-98311250D01*
X118163000Y-96962000D01*
X118417000Y-96962000D01*
X118417000Y-98311250D01*
X118575750Y-98470000D01*
X119040000Y-98473072D01*
X119164482Y-98460812D01*
X119284180Y-98424502D01*
X119394494Y-98365537D01*
X119491185Y-98286185D01*
X119570537Y-98189494D01*
X119629502Y-98079180D01*
X119665812Y-97959482D01*
X119678072Y-97835000D01*
X119675000Y-97120750D01*
X119516250Y-96962000D01*
X118417000Y-96962000D01*
X118163000Y-96962000D01*
X118143000Y-96962000D01*
X118143000Y-96708000D01*
X118163000Y-96708000D01*
X118163000Y-96688000D01*
X118417000Y-96688000D01*
X118417000Y-96708000D01*
X119516250Y-96708000D01*
X119675000Y-96549250D01*
X119676201Y-96269999D01*
X119896644Y-96269999D01*
X120501928Y-96875284D01*
X120501928Y-97835000D01*
X120514188Y-97959482D01*
X120550498Y-98079180D01*
X120609463Y-98189494D01*
X120688815Y-98286185D01*
X120785506Y-98365537D01*
X120895820Y-98424502D01*
X121015518Y-98460812D01*
X121140000Y-98473072D01*
X122640000Y-98473072D01*
X122764482Y-98460812D01*
X122884180Y-98424502D01*
X122994494Y-98365537D01*
X123040000Y-98328191D01*
X123085506Y-98365537D01*
X123195820Y-98424502D01*
X123240000Y-98437904D01*
X123240000Y-98534289D01*
X123203577Y-98602433D01*
X123153752Y-98766684D01*
X123136928Y-98937500D01*
X123136928Y-99537500D01*
X123153752Y-99708316D01*
X123203577Y-99872567D01*
X123283774Y-100022606D01*
X123244463Y-100070506D01*
X123185498Y-100180820D01*
X123149188Y-100300518D01*
X123136928Y-100425000D01*
X123140000Y-100676750D01*
X123298750Y-100835500D01*
X124123000Y-100835500D01*
X124123000Y-100815500D01*
X124377000Y-100815500D01*
X124377000Y-100835500D01*
X125201250Y-100835500D01*
X125360000Y-100676750D01*
X125363072Y-100425000D01*
X125350812Y-100300518D01*
X125314502Y-100180820D01*
X125255537Y-100070506D01*
X125216226Y-100022606D01*
X125296423Y-99872567D01*
X125346248Y-99708316D01*
X125363072Y-99537500D01*
X125363072Y-99488095D01*
X125394596Y-99484990D01*
X132162066Y-99484990D01*
X132118063Y-99697113D01*
X132270526Y-99923000D01*
X133423000Y-99923000D01*
X133423000Y-99903000D01*
X133677000Y-99903000D01*
X133677000Y-99923000D01*
X134829474Y-99923000D01*
X134981937Y-99697113D01*
X134937934Y-99484990D01*
X145412066Y-99484990D01*
X145368063Y-99697113D01*
X145520526Y-99923000D01*
X146673000Y-99923000D01*
X146673000Y-99903000D01*
X146927000Y-99903000D01*
X146927000Y-99923000D01*
X148079474Y-99923000D01*
X148231937Y-99697113D01*
X148187934Y-99484990D01*
X161810635Y-99484990D01*
X163740928Y-101415284D01*
X163740928Y-102200000D01*
X163757992Y-102373254D01*
X163808528Y-102539850D01*
X163890595Y-102693386D01*
X164001038Y-102827962D01*
X164135614Y-102938405D01*
X164289150Y-103020472D01*
X164455746Y-103071008D01*
X164629000Y-103088072D01*
X166079000Y-103088072D01*
X166252254Y-103071008D01*
X166418850Y-103020472D01*
X166572386Y-102938405D01*
X166706962Y-102827962D01*
X166817405Y-102693386D01*
X166899472Y-102539850D01*
X166950008Y-102373254D01*
X166967072Y-102200000D01*
X166967072Y-101000000D01*
X166950008Y-100826746D01*
X166899472Y-100660150D01*
X166817405Y-100506614D01*
X166706962Y-100372038D01*
X166572386Y-100261595D01*
X166467039Y-100205286D01*
X166488429Y-100189049D01*
X166681496Y-99971193D01*
X166828352Y-99719858D01*
X166920476Y-99456890D01*
X166799155Y-99227000D01*
X165481000Y-99227000D01*
X165481000Y-99247000D01*
X165227000Y-99247000D01*
X165227000Y-99227000D01*
X165207000Y-99227000D01*
X165207000Y-98973000D01*
X165227000Y-98973000D01*
X165227000Y-98953000D01*
X165481000Y-98953000D01*
X165481000Y-98973000D01*
X166799155Y-98973000D01*
X166920476Y-98743110D01*
X166828352Y-98480142D01*
X166681496Y-98228807D01*
X166488429Y-98010951D01*
X166282278Y-97854462D01*
X166308014Y-97840706D01*
X166534134Y-97655134D01*
X166719706Y-97429014D01*
X166857599Y-97171034D01*
X166942513Y-96891111D01*
X166971185Y-96600000D01*
X166942513Y-96308889D01*
X166857599Y-96028966D01*
X166719706Y-95770986D01*
X166534134Y-95544866D01*
X166308014Y-95359294D01*
X166290626Y-95350000D01*
X166308014Y-95340706D01*
X166534134Y-95155134D01*
X166719706Y-94929014D01*
X166857599Y-94671034D01*
X166942513Y-94391111D01*
X166971185Y-94100000D01*
X166942513Y-93808889D01*
X166857599Y-93528966D01*
X166719706Y-93270986D01*
X166534134Y-93044866D01*
X166308014Y-92859294D01*
X166290626Y-92850000D01*
X166308014Y-92840706D01*
X166534134Y-92655134D01*
X166719706Y-92429014D01*
X166857599Y-92171034D01*
X166942513Y-91891111D01*
X166971185Y-91600000D01*
X166942513Y-91308889D01*
X166857599Y-91028966D01*
X166719706Y-90770986D01*
X166534134Y-90544866D01*
X166308014Y-90359294D01*
X166050034Y-90221401D01*
X165770111Y-90136487D01*
X165551950Y-90115000D01*
X165156050Y-90115000D01*
X164937889Y-90136487D01*
X164657966Y-90221401D01*
X164399986Y-90359294D01*
X164173866Y-90544866D01*
X163988294Y-90770986D01*
X163951405Y-90840000D01*
X138814802Y-90840000D01*
X135809801Y-87835000D01*
X136006260Y-87835000D01*
X136293158Y-87777932D01*
X136563411Y-87665990D01*
X136806632Y-87503475D01*
X137013475Y-87296632D01*
X137130000Y-87122240D01*
X137246525Y-87296632D01*
X137453368Y-87503475D01*
X137696589Y-87665990D01*
X137966842Y-87777932D01*
X138253740Y-87835000D01*
X138546260Y-87835000D01*
X138833158Y-87777932D01*
X139103411Y-87665990D01*
X139346632Y-87503475D01*
X139553475Y-87296632D01*
X139670000Y-87122240D01*
X139786525Y-87296632D01*
X139993368Y-87503475D01*
X140236589Y-87665990D01*
X140506842Y-87777932D01*
X140793740Y-87835000D01*
X141086260Y-87835000D01*
X141373158Y-87777932D01*
X141643411Y-87665990D01*
X141886632Y-87503475D01*
X142093475Y-87296632D01*
X142215195Y-87114466D01*
X142284822Y-87231355D01*
X142479731Y-87447588D01*
X142713080Y-87621641D01*
X142975901Y-87746825D01*
X143123110Y-87791476D01*
X143353000Y-87670155D01*
X143353000Y-86477000D01*
X143333000Y-86477000D01*
X143333000Y-86223000D01*
X143353000Y-86223000D01*
X143353000Y-86203000D01*
X143607000Y-86203000D01*
X143607000Y-86223000D01*
X143627000Y-86223000D01*
X143627000Y-86477000D01*
X143607000Y-86477000D01*
X143607000Y-87670155D01*
X143836890Y-87791476D01*
X143984099Y-87746825D01*
X144246920Y-87621641D01*
X144480269Y-87447588D01*
X144675178Y-87231355D01*
X144744805Y-87114466D01*
X144866525Y-87296632D01*
X145073368Y-87503475D01*
X145316589Y-87665990D01*
X145586842Y-87777932D01*
X145873740Y-87835000D01*
X146166260Y-87835000D01*
X146453158Y-87777932D01*
X146723411Y-87665990D01*
X146966632Y-87503475D01*
X147173475Y-87296632D01*
X147290000Y-87122240D01*
X147406525Y-87296632D01*
X147613368Y-87503475D01*
X147856589Y-87665990D01*
X148126842Y-87777932D01*
X148413740Y-87835000D01*
X148706260Y-87835000D01*
X148993158Y-87777932D01*
X149263411Y-87665990D01*
X149506632Y-87503475D01*
X149713475Y-87296632D01*
X149830000Y-87122240D01*
X149946525Y-87296632D01*
X150153368Y-87503475D01*
X150396589Y-87665990D01*
X150666842Y-87777932D01*
X150953740Y-87835000D01*
X151246260Y-87835000D01*
X151533158Y-87777932D01*
X151803411Y-87665990D01*
X152046632Y-87503475D01*
X152253475Y-87296632D01*
X152370000Y-87122240D01*
X152486525Y-87296632D01*
X152693368Y-87503475D01*
X152936589Y-87665990D01*
X153206842Y-87777932D01*
X153493740Y-87835000D01*
X153786260Y-87835000D01*
X154073158Y-87777932D01*
X154343411Y-87665990D01*
X154586632Y-87503475D01*
X154793475Y-87296632D01*
X154910000Y-87122240D01*
X155026525Y-87296632D01*
X155233368Y-87503475D01*
X155476589Y-87665990D01*
X155746842Y-87777932D01*
X156033740Y-87835000D01*
X156326260Y-87835000D01*
X156613158Y-87777932D01*
X156883411Y-87665990D01*
X157126632Y-87503475D01*
X157333475Y-87296632D01*
X157450000Y-87122240D01*
X157566525Y-87296632D01*
X157773368Y-87503475D01*
X158016589Y-87665990D01*
X158286842Y-87777932D01*
X158573740Y-87835000D01*
X158866260Y-87835000D01*
X159153158Y-87777932D01*
X159423411Y-87665990D01*
X159666632Y-87503475D01*
X159873475Y-87296632D01*
X159995195Y-87114466D01*
X160064822Y-87231355D01*
X160259731Y-87447588D01*
X160493080Y-87621641D01*
X160755901Y-87746825D01*
X160903110Y-87791476D01*
X161133000Y-87670155D01*
X161133000Y-86477000D01*
X161387000Y-86477000D01*
X161387000Y-87670155D01*
X161616890Y-87791476D01*
X161764099Y-87746825D01*
X162026920Y-87621641D01*
X162260269Y-87447588D01*
X162455178Y-87231355D01*
X162604157Y-86981252D01*
X162701481Y-86706891D01*
X162580814Y-86477000D01*
X161387000Y-86477000D01*
X161133000Y-86477000D01*
X161113000Y-86477000D01*
X161113000Y-86223000D01*
X161133000Y-86223000D01*
X161133000Y-86203000D01*
X161387000Y-86203000D01*
X161387000Y-86223000D01*
X162580814Y-86223000D01*
X162701481Y-85993109D01*
X162604157Y-85718748D01*
X162455178Y-85468645D01*
X162260269Y-85252412D01*
X162030594Y-85081100D01*
X162206632Y-84963475D01*
X162288075Y-84882032D01*
X164120000Y-84882032D01*
X164120000Y-85277968D01*
X164197243Y-85666296D01*
X164348761Y-86032092D01*
X164568731Y-86361301D01*
X164848699Y-86641269D01*
X165177908Y-86861239D01*
X165543704Y-87012757D01*
X165932032Y-87090000D01*
X166327968Y-87090000D01*
X166716296Y-87012757D01*
X167082092Y-86861239D01*
X167411301Y-86641269D01*
X167691269Y-86361301D01*
X167911239Y-86032092D01*
X168062757Y-85666296D01*
X168140000Y-85277968D01*
X168140000Y-84882032D01*
X168062757Y-84493704D01*
X167911239Y-84127908D01*
X167691269Y-83798699D01*
X167411301Y-83518731D01*
X167082092Y-83298761D01*
X166716296Y-83147243D01*
X166327968Y-83070000D01*
X165932032Y-83070000D01*
X165543704Y-83147243D01*
X165177908Y-83298761D01*
X164848699Y-83518731D01*
X164568731Y-83798699D01*
X164348761Y-84127908D01*
X164197243Y-84493704D01*
X164120000Y-84882032D01*
X162288075Y-84882032D01*
X162413475Y-84756632D01*
X162575990Y-84513411D01*
X162687932Y-84243158D01*
X162745000Y-83956260D01*
X162745000Y-83663740D01*
X162687932Y-83376842D01*
X162575990Y-83106589D01*
X162413475Y-82863368D01*
X162206632Y-82656525D01*
X161963411Y-82494010D01*
X161693158Y-82382068D01*
X161406260Y-82325000D01*
X161113740Y-82325000D01*
X160826842Y-82382068D01*
X160556589Y-82494010D01*
X160313368Y-82656525D01*
X160106525Y-82863368D01*
X159990000Y-83037760D01*
X159873475Y-82863368D01*
X159666632Y-82656525D01*
X159423411Y-82494010D01*
X159153158Y-82382068D01*
X158866260Y-82325000D01*
X158573740Y-82325000D01*
X158286842Y-82382068D01*
X158016589Y-82494010D01*
X157773368Y-82656525D01*
X157566525Y-82863368D01*
X157450000Y-83037760D01*
X157333475Y-82863368D01*
X157126632Y-82656525D01*
X156883411Y-82494010D01*
X156613158Y-82382068D01*
X156326260Y-82325000D01*
X156033740Y-82325000D01*
X155746842Y-82382068D01*
X155476589Y-82494010D01*
X155233368Y-82656525D01*
X155026525Y-82863368D01*
X154904805Y-83045534D01*
X154835178Y-82928645D01*
X154640269Y-82712412D01*
X154406920Y-82538359D01*
X154144099Y-82413175D01*
X153996890Y-82368524D01*
X153767000Y-82489845D01*
X153767000Y-83683000D01*
X153787000Y-83683000D01*
X153787000Y-83937000D01*
X153767000Y-83937000D01*
X153767000Y-83957000D01*
X153513000Y-83957000D01*
X153513000Y-83937000D01*
X153493000Y-83937000D01*
X153493000Y-83683000D01*
X153513000Y-83683000D01*
X153513000Y-82489845D01*
X153283110Y-82368524D01*
X153135901Y-82413175D01*
X152873080Y-82538359D01*
X152639731Y-82712412D01*
X152444822Y-82928645D01*
X152375195Y-83045534D01*
X152253475Y-82863368D01*
X152046632Y-82656525D01*
X151803411Y-82494010D01*
X151533158Y-82382068D01*
X151246260Y-82325000D01*
X150953740Y-82325000D01*
X150666842Y-82382068D01*
X150396589Y-82494010D01*
X150153368Y-82656525D01*
X149946525Y-82863368D01*
X149824805Y-83045534D01*
X149755178Y-82928645D01*
X149560269Y-82712412D01*
X149326920Y-82538359D01*
X149064099Y-82413175D01*
X148916890Y-82368524D01*
X148687000Y-82489845D01*
X148687000Y-83683000D01*
X148707000Y-83683000D01*
X148707000Y-83937000D01*
X148687000Y-83937000D01*
X148687000Y-83957000D01*
X148433000Y-83957000D01*
X148433000Y-83937000D01*
X148413000Y-83937000D01*
X148413000Y-83683000D01*
X148433000Y-83683000D01*
X148433000Y-82489845D01*
X148203110Y-82368524D01*
X148055901Y-82413175D01*
X147793080Y-82538359D01*
X147559731Y-82712412D01*
X147364822Y-82928645D01*
X147295195Y-83045534D01*
X147173475Y-82863368D01*
X146966632Y-82656525D01*
X146723411Y-82494010D01*
X146453158Y-82382068D01*
X146166260Y-82325000D01*
X145873740Y-82325000D01*
X145586842Y-82382068D01*
X145316589Y-82494010D01*
X145073368Y-82656525D01*
X144866525Y-82863368D01*
X144750000Y-83037760D01*
X144633475Y-82863368D01*
X144426632Y-82656525D01*
X144183411Y-82494010D01*
X143913158Y-82382068D01*
X143626260Y-82325000D01*
X143333740Y-82325000D01*
X143046842Y-82382068D01*
X142776589Y-82494010D01*
X142533368Y-82656525D01*
X142326525Y-82863368D01*
X142210000Y-83037760D01*
X142093475Y-82863368D01*
X141886632Y-82656525D01*
X141643411Y-82494010D01*
X141373158Y-82382068D01*
X141086260Y-82325000D01*
X140793740Y-82325000D01*
X140506842Y-82382068D01*
X140236589Y-82494010D01*
X139993368Y-82656525D01*
X139786525Y-82863368D01*
X139670000Y-83037760D01*
X139553475Y-82863368D01*
X139346632Y-82656525D01*
X139103411Y-82494010D01*
X138833158Y-82382068D01*
X138546260Y-82325000D01*
X138253740Y-82325000D01*
X137966842Y-82382068D01*
X137696589Y-82494010D01*
X137453368Y-82656525D01*
X137246525Y-82863368D01*
X137124805Y-83045534D01*
X137055178Y-82928645D01*
X136860269Y-82712412D01*
X136626920Y-82538359D01*
X136364099Y-82413175D01*
X136216890Y-82368524D01*
X135987000Y-82489845D01*
X135987000Y-83683000D01*
X136007000Y-83683000D01*
X136007000Y-83937000D01*
X135987000Y-83937000D01*
X135987000Y-83957000D01*
X135733000Y-83957000D01*
X135733000Y-83937000D01*
X135713000Y-83937000D01*
X135713000Y-83683000D01*
X135733000Y-83683000D01*
X135733000Y-82489845D01*
X135503110Y-82368524D01*
X135355901Y-82413175D01*
X135093080Y-82538359D01*
X134859731Y-82712412D01*
X134664822Y-82928645D01*
X134595195Y-83045534D01*
X134473475Y-82863368D01*
X134266632Y-82656525D01*
X134023411Y-82494010D01*
X133753158Y-82382068D01*
X133466260Y-82325000D01*
X133173740Y-82325000D01*
X132886842Y-82382068D01*
X132616589Y-82494010D01*
X132373368Y-82656525D01*
X132166525Y-82863368D01*
X132050000Y-83037760D01*
X131933475Y-82863368D01*
X131726632Y-82656525D01*
X131483411Y-82494010D01*
X131213158Y-82382068D01*
X130926260Y-82325000D01*
X130633740Y-82325000D01*
X130346842Y-82382068D01*
X130076589Y-82494010D01*
X129833368Y-82656525D01*
X129626525Y-82863368D01*
X129504805Y-83045534D01*
X129435178Y-82928645D01*
X129240269Y-82712412D01*
X129006920Y-82538359D01*
X128744099Y-82413175D01*
X128596890Y-82368524D01*
X128367000Y-82489845D01*
X128367000Y-83683000D01*
X128387000Y-83683000D01*
X128387000Y-83937000D01*
X128367000Y-83937000D01*
X128367000Y-83957000D01*
X128113000Y-83957000D01*
X128113000Y-83937000D01*
X128093000Y-83937000D01*
X128093000Y-83683000D01*
X128113000Y-83683000D01*
X128113000Y-82489845D01*
X127883110Y-82368524D01*
X127735901Y-82413175D01*
X127473080Y-82538359D01*
X127239731Y-82712412D01*
X127044822Y-82928645D01*
X126975195Y-83045534D01*
X126853475Y-82863368D01*
X126646632Y-82656525D01*
X126403411Y-82494010D01*
X126133158Y-82382068D01*
X125846260Y-82325000D01*
X125553740Y-82325000D01*
X125266842Y-82382068D01*
X124996589Y-82494010D01*
X124753368Y-82656525D01*
X124546525Y-82863368D01*
X124430000Y-83037760D01*
X124313475Y-82863368D01*
X124106632Y-82656525D01*
X123863411Y-82494010D01*
X123593158Y-82382068D01*
X123306260Y-82325000D01*
X123013740Y-82325000D01*
X122726842Y-82382068D01*
X122456589Y-82494010D01*
X122213368Y-82656525D01*
X122006525Y-82863368D01*
X121890000Y-83037760D01*
X121773475Y-82863368D01*
X121566632Y-82656525D01*
X121323411Y-82494010D01*
X121053158Y-82382068D01*
X120766260Y-82325000D01*
X120473740Y-82325000D01*
X120186842Y-82382068D01*
X119916589Y-82494010D01*
X119673368Y-82656525D01*
X119466525Y-82863368D01*
X119344805Y-83045534D01*
X119275178Y-82928645D01*
X119080269Y-82712412D01*
X118846920Y-82538359D01*
X118584099Y-82413175D01*
X118436890Y-82368524D01*
X118207000Y-82489845D01*
X118207000Y-83683000D01*
X118227000Y-83683000D01*
X118227000Y-83937000D01*
X118207000Y-83937000D01*
X118207000Y-83957000D01*
X117953000Y-83957000D01*
X117953000Y-83937000D01*
X117933000Y-83937000D01*
X117933000Y-83683000D01*
X117953000Y-83683000D01*
X117953000Y-82489845D01*
X117723110Y-82368524D01*
X117575901Y-82413175D01*
X117313080Y-82538359D01*
X117079731Y-82712412D01*
X116884822Y-82928645D01*
X116815195Y-83045534D01*
X116693475Y-82863368D01*
X116486632Y-82656525D01*
X116243411Y-82494010D01*
X115973158Y-82382068D01*
X115686260Y-82325000D01*
X115393740Y-82325000D01*
X115106842Y-82382068D01*
X114836589Y-82494010D01*
X114593368Y-82656525D01*
X114449893Y-82800000D01*
X114090107Y-82800000D01*
X113946632Y-82656525D01*
X113703411Y-82494010D01*
X113433158Y-82382068D01*
X113146260Y-82325000D01*
X112853740Y-82325000D01*
X112566842Y-82382068D01*
X112296589Y-82494010D01*
X112053368Y-82656525D01*
X111846525Y-82863368D01*
X111684010Y-83106589D01*
X111572068Y-83376842D01*
X111515000Y-83663740D01*
X111515000Y-83671643D01*
X110895900Y-84290743D01*
X110857367Y-84322366D01*
X110825744Y-84360899D01*
X110825743Y-84360900D01*
X110731153Y-84476159D01*
X110637367Y-84651620D01*
X110579614Y-84842005D01*
X110560113Y-85039999D01*
X110565000Y-85089617D01*
X110564999Y-88720391D01*
X110561590Y-88755000D01*
X109365710Y-88755000D01*
X109297567Y-88718577D01*
X109133316Y-88668752D01*
X108962500Y-88651928D01*
X108462500Y-88651928D01*
X108291684Y-88668752D01*
X108127433Y-88718577D01*
X107976058Y-88799488D01*
X107843377Y-88908377D01*
X107800000Y-88961232D01*
X107756623Y-88908377D01*
X107623942Y-88799488D01*
X107472567Y-88718577D01*
X107308316Y-88668752D01*
X107137500Y-88651928D01*
X106637500Y-88651928D01*
X106466684Y-88668752D01*
X106302433Y-88718577D01*
X106151058Y-88799488D01*
X106018377Y-88908377D01*
X105939080Y-89005000D01*
X105861111Y-89005000D01*
X105817174Y-88961063D01*
X105647656Y-88847795D01*
X105459298Y-88769774D01*
X105259339Y-88730000D01*
X105160000Y-88730000D01*
X105160000Y-84882032D01*
X106120000Y-84882032D01*
X106120000Y-85277968D01*
X106197243Y-85666296D01*
X106348761Y-86032092D01*
X106568731Y-86361301D01*
X106848699Y-86641269D01*
X107177908Y-86861239D01*
X107543704Y-87012757D01*
X107932032Y-87090000D01*
X108327968Y-87090000D01*
X108716296Y-87012757D01*
X109082092Y-86861239D01*
X109411301Y-86641269D01*
X109691269Y-86361301D01*
X109911239Y-86032092D01*
X110062757Y-85666296D01*
X110140000Y-85277968D01*
X110140000Y-84882032D01*
X110062757Y-84493704D01*
X109911239Y-84127908D01*
X109691269Y-83798699D01*
X109411301Y-83518731D01*
X109082092Y-83298761D01*
X108716296Y-83147243D01*
X108327968Y-83070000D01*
X107932032Y-83070000D01*
X107543704Y-83147243D01*
X107177908Y-83298761D01*
X106848699Y-83518731D01*
X106568731Y-83798699D01*
X106348761Y-84127908D01*
X106197243Y-84493704D01*
X106120000Y-84882032D01*
X105160000Y-84882032D01*
X105160000Y-82110000D01*
X169090001Y-82110000D01*
X169090000Y-84632418D01*
G37*
%TD.AperFunction*%
D20*
X137563400Y-93011022D02*
X137587199Y-93040021D01*
X137702924Y-93134994D01*
X137834953Y-93205566D01*
X137978214Y-93249023D01*
X138089867Y-93260020D01*
X138089876Y-93260020D01*
X138127199Y-93263696D01*
X138164522Y-93260020D01*
X160939219Y-93260020D01*
X163817296Y-96138098D01*
X163765487Y-96308889D01*
X163736815Y-96600000D01*
X163765487Y-96891111D01*
X163850401Y-97171034D01*
X163988294Y-97429014D01*
X164173866Y-97655134D01*
X164399986Y-97840706D01*
X164425722Y-97854462D01*
X164219571Y-98010951D01*
X164026504Y-98228807D01*
X163879648Y-98480142D01*
X163823311Y-98640956D01*
X162978251Y-97795896D01*
X162946623Y-97757357D01*
X162792830Y-97631143D01*
X162617370Y-97537358D01*
X162426984Y-97479605D01*
X162278598Y-97464990D01*
X162228990Y-97460104D01*
X162179382Y-97464990D01*
X127876481Y-97464990D01*
X127875000Y-97120750D01*
X127789810Y-97035560D01*
X129914045Y-97035560D01*
X129975932Y-97271368D01*
X130217790Y-97384266D01*
X130477027Y-97447811D01*
X130743680Y-97459561D01*
X131007501Y-97419063D01*
X131258353Y-97327875D01*
X131364068Y-97271368D01*
X131425955Y-97035560D01*
X130670000Y-96279605D01*
X129914045Y-97035560D01*
X127789810Y-97035560D01*
X127716250Y-96962000D01*
X126617000Y-96962000D01*
X126617000Y-96982000D01*
X126363000Y-96982000D01*
X126363000Y-96962000D01*
X126343000Y-96962000D01*
X126343000Y-96708000D01*
X126363000Y-96708000D01*
X126363000Y-95358750D01*
X126617000Y-95358750D01*
X126617000Y-96708000D01*
X127716250Y-96708000D01*
X127875000Y-96549250D01*
X127876615Y-96173680D01*
X129310439Y-96173680D01*
X129350937Y-96437501D01*
X129442125Y-96688353D01*
X129498632Y-96794068D01*
X129734440Y-96855955D01*
X130490395Y-96100000D01*
X130849605Y-96100000D01*
X131605560Y-96855955D01*
X131841368Y-96794068D01*
X131941764Y-96578993D01*
X132009215Y-96741833D01*
X132157503Y-96963762D01*
X132346238Y-97152497D01*
X132568167Y-97300785D01*
X132814761Y-97402928D01*
X133076544Y-97455000D01*
X133343456Y-97455000D01*
X133605239Y-97402928D01*
X133851833Y-97300785D01*
X134073762Y-97152497D01*
X134262497Y-96963762D01*
X134410785Y-96741833D01*
X134480000Y-96574734D01*
X134549215Y-96741833D01*
X134697503Y-96963762D01*
X134886238Y-97152497D01*
X135108167Y-97300785D01*
X135354761Y-97402928D01*
X135616544Y-97455000D01*
X135883456Y-97455000D01*
X136145239Y-97402928D01*
X136391833Y-97300785D01*
X136613762Y-97152497D01*
X136802497Y-96963762D01*
X136950785Y-96741833D01*
X137052928Y-96495239D01*
X137105000Y-96233456D01*
X137105000Y-95966544D01*
X137052928Y-95704761D01*
X136950785Y-95458167D01*
X136802497Y-95236238D01*
X136613762Y-95047503D01*
X136391833Y-94899215D01*
X136145239Y-94797072D01*
X135883456Y-94745000D01*
X135616544Y-94745000D01*
X135354761Y-94797072D01*
X135108167Y-94899215D01*
X134886238Y-95047503D01*
X134697503Y-95236238D01*
X134549215Y-95458167D01*
X134480000Y-95625266D01*
X134410785Y-95458167D01*
X134262497Y-95236238D01*
X134073762Y-95047503D01*
X133851833Y-94899215D01*
X133605239Y-94797072D01*
X133343456Y-94745000D01*
X133076544Y-94745000D01*
X132814761Y-94797072D01*
X132568167Y-94899215D01*
X132346238Y-95047503D01*
X132157503Y-95236238D01*
X132009215Y-95458167D01*
X131939562Y-95626324D01*
X131897875Y-95511647D01*
X131841368Y-95405932D01*
X131605560Y-95344045D01*
X130849605Y-96100000D01*
X130490395Y-96100000D01*
X129734440Y-95344045D01*
X129498632Y-95405932D01*
X129385734Y-95647790D01*
X129322189Y-95907027D01*
X129310439Y-96173680D01*
X127876615Y-96173680D01*
X127878072Y-95835000D01*
X127865812Y-95710518D01*
X127829502Y-95590820D01*
X127770537Y-95480506D01*
X127691185Y-95383815D01*
X127594494Y-95304463D01*
X127484180Y-95245498D01*
X127364482Y-95209188D01*
X127240000Y-95196928D01*
X126775750Y-95200000D01*
X126617000Y-95358750D01*
X126363000Y-95358750D01*
X126204250Y-95200000D01*
X125740000Y-95196928D01*
X125615518Y-95209188D01*
X125495820Y-95245498D01*
X125385506Y-95304463D01*
X125340000Y-95341809D01*
X125294494Y-95304463D01*
X125200000Y-95253954D01*
X125200000Y-95164440D01*
X129914045Y-95164440D01*
X130670000Y-95920395D01*
X131425955Y-95164440D01*
X131364068Y-94928632D01*
X131122210Y-94815734D01*
X130862973Y-94752189D01*
X130596320Y-94740439D01*
X130332499Y-94780937D01*
X130081647Y-94872125D01*
X129975932Y-94928632D01*
X129914045Y-95164440D01*
X125200000Y-95164440D01*
X125200000Y-92173072D01*
X126090000Y-92173072D01*
X126214482Y-92160812D01*
X126334180Y-92124502D01*
X126444494Y-92065537D01*
X126541185Y-91986185D01*
X126620537Y-91889494D01*
X126679502Y-91779180D01*
X126715812Y-91659482D01*
X126728072Y-91535000D01*
X126728072Y-90703740D01*
X128475000Y-90703740D01*
X128475000Y-90996260D01*
X128532068Y-91283158D01*
X128644010Y-91553411D01*
X128806525Y-91796632D01*
X129013368Y-92003475D01*
X129256589Y-92165990D01*
X129526842Y-92277932D01*
X129813740Y-92335000D01*
X130106260Y-92335000D01*
X130393158Y-92277932D01*
X130663411Y-92165990D01*
X130906632Y-92003475D01*
X131038487Y-91871620D01*
X131060498Y-91944180D01*
X131119463Y-92054494D01*
X131198815Y-92151185D01*
X131295506Y-92230537D01*
X131405820Y-92289502D01*
X131525518Y-92325812D01*
X131650000Y-92338072D01*
X132214250Y-92335000D01*
X132373000Y-92176250D01*
X132373000Y-90977000D01*
X132627000Y-90977000D01*
X132627000Y-92176250D01*
X132785750Y-92335000D01*
X133350000Y-92338072D01*
X133474482Y-92325812D01*
X133594180Y-92289502D01*
X133704494Y-92230537D01*
X133801185Y-92151185D01*
X133880537Y-92054494D01*
X133939502Y-91944180D01*
X133975812Y-91824482D01*
X133988072Y-91700000D01*
X133985000Y-91135750D01*
X133826250Y-90977000D01*
X132627000Y-90977000D01*
X132373000Y-90977000D01*
X132353000Y-90977000D01*
X132353000Y-90723000D01*
X132373000Y-90723000D01*
X132373000Y-89523750D01*
X132627000Y-89523750D01*
X132627000Y-90723000D01*
X133826250Y-90723000D01*
X133985000Y-90564250D01*
X133988072Y-90000000D01*
X133975812Y-89875518D01*
X133939502Y-89755820D01*
X133880537Y-89645506D01*
X133801185Y-89548815D01*
X133704494Y-89469463D01*
X133594180Y-89410498D01*
X133474482Y-89374188D01*
X133350000Y-89361928D01*
X132785750Y-89365000D01*
X132627000Y-89523750D01*
X132373000Y-89523750D01*
X132214250Y-89365000D01*
X131650000Y-89361928D01*
X131525518Y-89374188D01*
X131405820Y-89410498D01*
X131295506Y-89469463D01*
X131198815Y-89548815D01*
X131119463Y-89645506D01*
X131060498Y-89755820D01*
X131038487Y-89828380D01*
X130906632Y-89696525D01*
X130663411Y-89534010D01*
X130393158Y-89422068D01*
X130106260Y-89365000D01*
X129813740Y-89365000D01*
X129526842Y-89422068D01*
X129256589Y-89534010D01*
X129013368Y-89696525D01*
X128806525Y-89903368D01*
X128644010Y-90146589D01*
X128532068Y-90416842D01*
X128475000Y-90703740D01*
X126728072Y-90703740D01*
X126728072Y-89535000D01*
X126715812Y-89410518D01*
X126679502Y-89290820D01*
X126679074Y-89290019D01*
X133842398Y-89290019D01*
X137563400Y-93011022D01*
%TA.AperFunction,Conductor*%
D21*
G36*
X137563400Y-93011022D02*
G01*
X137587199Y-93040021D01*
X137702924Y-93134994D01*
X137834953Y-93205566D01*
X137978214Y-93249023D01*
X138089867Y-93260020D01*
X138089876Y-93260020D01*
X138127199Y-93263696D01*
X138164522Y-93260020D01*
X160939219Y-93260020D01*
X163817296Y-96138098D01*
X163765487Y-96308889D01*
X163736815Y-96600000D01*
X163765487Y-96891111D01*
X163850401Y-97171034D01*
X163988294Y-97429014D01*
X164173866Y-97655134D01*
X164399986Y-97840706D01*
X164425722Y-97854462D01*
X164219571Y-98010951D01*
X164026504Y-98228807D01*
X163879648Y-98480142D01*
X163823311Y-98640956D01*
X162978251Y-97795896D01*
X162946623Y-97757357D01*
X162792830Y-97631143D01*
X162617370Y-97537358D01*
X162426984Y-97479605D01*
X162278598Y-97464990D01*
X162228990Y-97460104D01*
X162179382Y-97464990D01*
X127876481Y-97464990D01*
X127875000Y-97120750D01*
X127789810Y-97035560D01*
X129914045Y-97035560D01*
X129975932Y-97271368D01*
X130217790Y-97384266D01*
X130477027Y-97447811D01*
X130743680Y-97459561D01*
X131007501Y-97419063D01*
X131258353Y-97327875D01*
X131364068Y-97271368D01*
X131425955Y-97035560D01*
X130670000Y-96279605D01*
X129914045Y-97035560D01*
X127789810Y-97035560D01*
X127716250Y-96962000D01*
X126617000Y-96962000D01*
X126617000Y-96982000D01*
X126363000Y-96982000D01*
X126363000Y-96962000D01*
X126343000Y-96962000D01*
X126343000Y-96708000D01*
X126363000Y-96708000D01*
X126363000Y-95358750D01*
X126617000Y-95358750D01*
X126617000Y-96708000D01*
X127716250Y-96708000D01*
X127875000Y-96549250D01*
X127876615Y-96173680D01*
X129310439Y-96173680D01*
X129350937Y-96437501D01*
X129442125Y-96688353D01*
X129498632Y-96794068D01*
X129734440Y-96855955D01*
X130490395Y-96100000D01*
X130849605Y-96100000D01*
X131605560Y-96855955D01*
X131841368Y-96794068D01*
X131941764Y-96578993D01*
X132009215Y-96741833D01*
X132157503Y-96963762D01*
X132346238Y-97152497D01*
X132568167Y-97300785D01*
X132814761Y-97402928D01*
X133076544Y-97455000D01*
X133343456Y-97455000D01*
X133605239Y-97402928D01*
X133851833Y-97300785D01*
X134073762Y-97152497D01*
X134262497Y-96963762D01*
X134410785Y-96741833D01*
X134480000Y-96574734D01*
X134549215Y-96741833D01*
X134697503Y-96963762D01*
X134886238Y-97152497D01*
X135108167Y-97300785D01*
X135354761Y-97402928D01*
X135616544Y-97455000D01*
X135883456Y-97455000D01*
X136145239Y-97402928D01*
X136391833Y-97300785D01*
X136613762Y-97152497D01*
X136802497Y-96963762D01*
X136950785Y-96741833D01*
X137052928Y-96495239D01*
X137105000Y-96233456D01*
X137105000Y-95966544D01*
X137052928Y-95704761D01*
X136950785Y-95458167D01*
X136802497Y-95236238D01*
X136613762Y-95047503D01*
X136391833Y-94899215D01*
X136145239Y-94797072D01*
X135883456Y-94745000D01*
X135616544Y-94745000D01*
X135354761Y-94797072D01*
X135108167Y-94899215D01*
X134886238Y-95047503D01*
X134697503Y-95236238D01*
X134549215Y-95458167D01*
X134480000Y-95625266D01*
X134410785Y-95458167D01*
X134262497Y-95236238D01*
X134073762Y-95047503D01*
X133851833Y-94899215D01*
X133605239Y-94797072D01*
X133343456Y-94745000D01*
X133076544Y-94745000D01*
X132814761Y-94797072D01*
X132568167Y-94899215D01*
X132346238Y-95047503D01*
X132157503Y-95236238D01*
X132009215Y-95458167D01*
X131939562Y-95626324D01*
X131897875Y-95511647D01*
X131841368Y-95405932D01*
X131605560Y-95344045D01*
X130849605Y-96100000D01*
X130490395Y-96100000D01*
X129734440Y-95344045D01*
X129498632Y-95405932D01*
X129385734Y-95647790D01*
X129322189Y-95907027D01*
X129310439Y-96173680D01*
X127876615Y-96173680D01*
X127878072Y-95835000D01*
X127865812Y-95710518D01*
X127829502Y-95590820D01*
X127770537Y-95480506D01*
X127691185Y-95383815D01*
X127594494Y-95304463D01*
X127484180Y-95245498D01*
X127364482Y-95209188D01*
X127240000Y-95196928D01*
X126775750Y-95200000D01*
X126617000Y-95358750D01*
X126363000Y-95358750D01*
X126204250Y-95200000D01*
X125740000Y-95196928D01*
X125615518Y-95209188D01*
X125495820Y-95245498D01*
X125385506Y-95304463D01*
X125340000Y-95341809D01*
X125294494Y-95304463D01*
X125200000Y-95253954D01*
X125200000Y-95164440D01*
X129914045Y-95164440D01*
X130670000Y-95920395D01*
X131425955Y-95164440D01*
X131364068Y-94928632D01*
X131122210Y-94815734D01*
X130862973Y-94752189D01*
X130596320Y-94740439D01*
X130332499Y-94780937D01*
X130081647Y-94872125D01*
X129975932Y-94928632D01*
X129914045Y-95164440D01*
X125200000Y-95164440D01*
X125200000Y-92173072D01*
X126090000Y-92173072D01*
X126214482Y-92160812D01*
X126334180Y-92124502D01*
X126444494Y-92065537D01*
X126541185Y-91986185D01*
X126620537Y-91889494D01*
X126679502Y-91779180D01*
X126715812Y-91659482D01*
X126728072Y-91535000D01*
X126728072Y-90703740D01*
X128475000Y-90703740D01*
X128475000Y-90996260D01*
X128532068Y-91283158D01*
X128644010Y-91553411D01*
X128806525Y-91796632D01*
X129013368Y-92003475D01*
X129256589Y-92165990D01*
X129526842Y-92277932D01*
X129813740Y-92335000D01*
X130106260Y-92335000D01*
X130393158Y-92277932D01*
X130663411Y-92165990D01*
X130906632Y-92003475D01*
X131038487Y-91871620D01*
X131060498Y-91944180D01*
X131119463Y-92054494D01*
X131198815Y-92151185D01*
X131295506Y-92230537D01*
X131405820Y-92289502D01*
X131525518Y-92325812D01*
X131650000Y-92338072D01*
X132214250Y-92335000D01*
X132373000Y-92176250D01*
X132373000Y-90977000D01*
X132627000Y-90977000D01*
X132627000Y-92176250D01*
X132785750Y-92335000D01*
X133350000Y-92338072D01*
X133474482Y-92325812D01*
X133594180Y-92289502D01*
X133704494Y-92230537D01*
X133801185Y-92151185D01*
X133880537Y-92054494D01*
X133939502Y-91944180D01*
X133975812Y-91824482D01*
X133988072Y-91700000D01*
X133985000Y-91135750D01*
X133826250Y-90977000D01*
X132627000Y-90977000D01*
X132373000Y-90977000D01*
X132353000Y-90977000D01*
X132353000Y-90723000D01*
X132373000Y-90723000D01*
X132373000Y-89523750D01*
X132627000Y-89523750D01*
X132627000Y-90723000D01*
X133826250Y-90723000D01*
X133985000Y-90564250D01*
X133988072Y-90000000D01*
X133975812Y-89875518D01*
X133939502Y-89755820D01*
X133880537Y-89645506D01*
X133801185Y-89548815D01*
X133704494Y-89469463D01*
X133594180Y-89410498D01*
X133474482Y-89374188D01*
X133350000Y-89361928D01*
X132785750Y-89365000D01*
X132627000Y-89523750D01*
X132373000Y-89523750D01*
X132214250Y-89365000D01*
X131650000Y-89361928D01*
X131525518Y-89374188D01*
X131405820Y-89410498D01*
X131295506Y-89469463D01*
X131198815Y-89548815D01*
X131119463Y-89645506D01*
X131060498Y-89755820D01*
X131038487Y-89828380D01*
X130906632Y-89696525D01*
X130663411Y-89534010D01*
X130393158Y-89422068D01*
X130106260Y-89365000D01*
X129813740Y-89365000D01*
X129526842Y-89422068D01*
X129256589Y-89534010D01*
X129013368Y-89696525D01*
X128806525Y-89903368D01*
X128644010Y-90146589D01*
X128532068Y-90416842D01*
X128475000Y-90703740D01*
X126728072Y-90703740D01*
X126728072Y-89535000D01*
X126715812Y-89410518D01*
X126679502Y-89290820D01*
X126679074Y-89290019D01*
X133842398Y-89290019D01*
X137563400Y-93011022D01*
G37*
%TD.AperFunction*%
D20*
X123287000Y-86223000D02*
X123307000Y-86223000D01*
X123307000Y-86477000D01*
X123287000Y-86477000D01*
X123287000Y-87670155D01*
X123516890Y-87791476D01*
X123664099Y-87746825D01*
X123926920Y-87621641D01*
X124059184Y-87522987D01*
X125433124Y-88896928D01*
X122290000Y-88896928D01*
X122165518Y-88909188D01*
X122045820Y-88945498D01*
X121935506Y-89004463D01*
X121838815Y-89083815D01*
X121759463Y-89180506D01*
X121700498Y-89290820D01*
X121664188Y-89410518D01*
X121651928Y-89535000D01*
X121651928Y-90694717D01*
X121021645Y-91325000D01*
X118528072Y-91325000D01*
X118528072Y-89535000D01*
X118515812Y-89410518D01*
X118479502Y-89290820D01*
X118420537Y-89180506D01*
X118341185Y-89083815D01*
X118244494Y-89004463D01*
X118134180Y-88945498D01*
X118014482Y-88909188D01*
X117890000Y-88896928D01*
X115738516Y-88896928D01*
X115608379Y-88827368D01*
X115417994Y-88769615D01*
X115220000Y-88750114D01*
X115022006Y-88769615D01*
X114831621Y-88827368D01*
X114701484Y-88896928D01*
X114090000Y-88896928D01*
X113965518Y-88909188D01*
X113845820Y-88945498D01*
X113735506Y-89004463D01*
X113638815Y-89083815D01*
X113559463Y-89180506D01*
X113508746Y-89275390D01*
X113319260Y-89085905D01*
X113287633Y-89047367D01*
X113249094Y-89015739D01*
X112584999Y-88351644D01*
X112584999Y-87838072D01*
X113850000Y-87838072D01*
X113974482Y-87825812D01*
X114094180Y-87789502D01*
X114204494Y-87730537D01*
X114301185Y-87651185D01*
X114380537Y-87554494D01*
X114439502Y-87444180D01*
X114461513Y-87371620D01*
X114593368Y-87503475D01*
X114836589Y-87665990D01*
X115106842Y-87777932D01*
X115393740Y-87835000D01*
X115686260Y-87835000D01*
X115973158Y-87777932D01*
X116243411Y-87665990D01*
X116486632Y-87503475D01*
X116693475Y-87296632D01*
X116810000Y-87122240D01*
X116926525Y-87296632D01*
X117133368Y-87503475D01*
X117376589Y-87665990D01*
X117646842Y-87777932D01*
X117933740Y-87835000D01*
X118226260Y-87835000D01*
X118513158Y-87777932D01*
X118783411Y-87665990D01*
X119026632Y-87503475D01*
X119233475Y-87296632D01*
X119350000Y-87122240D01*
X119466525Y-87296632D01*
X119673368Y-87503475D01*
X119916589Y-87665990D01*
X120186842Y-87777932D01*
X120473740Y-87835000D01*
X120766260Y-87835000D01*
X121053158Y-87777932D01*
X121323411Y-87665990D01*
X121566632Y-87503475D01*
X121773475Y-87296632D01*
X121895195Y-87114466D01*
X121964822Y-87231355D01*
X122159731Y-87447588D01*
X122393080Y-87621641D01*
X122655901Y-87746825D01*
X122803110Y-87791476D01*
X123033000Y-87670155D01*
X123033000Y-86477000D01*
X123013000Y-86477000D01*
X123013000Y-86223000D01*
X123033000Y-86223000D01*
X123033000Y-86203000D01*
X123287000Y-86203000D01*
X123287000Y-86223000D01*
%TA.AperFunction,Conductor*%
D21*
G36*
X123287000Y-86223000D02*
G01*
X123307000Y-86223000D01*
X123307000Y-86477000D01*
X123287000Y-86477000D01*
X123287000Y-87670155D01*
X123516890Y-87791476D01*
X123664099Y-87746825D01*
X123926920Y-87621641D01*
X124059184Y-87522987D01*
X125433124Y-88896928D01*
X122290000Y-88896928D01*
X122165518Y-88909188D01*
X122045820Y-88945498D01*
X121935506Y-89004463D01*
X121838815Y-89083815D01*
X121759463Y-89180506D01*
X121700498Y-89290820D01*
X121664188Y-89410518D01*
X121651928Y-89535000D01*
X121651928Y-90694717D01*
X121021645Y-91325000D01*
X118528072Y-91325000D01*
X118528072Y-89535000D01*
X118515812Y-89410518D01*
X118479502Y-89290820D01*
X118420537Y-89180506D01*
X118341185Y-89083815D01*
X118244494Y-89004463D01*
X118134180Y-88945498D01*
X118014482Y-88909188D01*
X117890000Y-88896928D01*
X115738516Y-88896928D01*
X115608379Y-88827368D01*
X115417994Y-88769615D01*
X115220000Y-88750114D01*
X115022006Y-88769615D01*
X114831621Y-88827368D01*
X114701484Y-88896928D01*
X114090000Y-88896928D01*
X113965518Y-88909188D01*
X113845820Y-88945498D01*
X113735506Y-89004463D01*
X113638815Y-89083815D01*
X113559463Y-89180506D01*
X113508746Y-89275390D01*
X113319260Y-89085905D01*
X113287633Y-89047367D01*
X113249094Y-89015739D01*
X112584999Y-88351644D01*
X112584999Y-87838072D01*
X113850000Y-87838072D01*
X113974482Y-87825812D01*
X114094180Y-87789502D01*
X114204494Y-87730537D01*
X114301185Y-87651185D01*
X114380537Y-87554494D01*
X114439502Y-87444180D01*
X114461513Y-87371620D01*
X114593368Y-87503475D01*
X114836589Y-87665990D01*
X115106842Y-87777932D01*
X115393740Y-87835000D01*
X115686260Y-87835000D01*
X115973158Y-87777932D01*
X116243411Y-87665990D01*
X116486632Y-87503475D01*
X116693475Y-87296632D01*
X116810000Y-87122240D01*
X116926525Y-87296632D01*
X117133368Y-87503475D01*
X117376589Y-87665990D01*
X117646842Y-87777932D01*
X117933740Y-87835000D01*
X118226260Y-87835000D01*
X118513158Y-87777932D01*
X118783411Y-87665990D01*
X119026632Y-87503475D01*
X119233475Y-87296632D01*
X119350000Y-87122240D01*
X119466525Y-87296632D01*
X119673368Y-87503475D01*
X119916589Y-87665990D01*
X120186842Y-87777932D01*
X120473740Y-87835000D01*
X120766260Y-87835000D01*
X121053158Y-87777932D01*
X121323411Y-87665990D01*
X121566632Y-87503475D01*
X121773475Y-87296632D01*
X121895195Y-87114466D01*
X121964822Y-87231355D01*
X122159731Y-87447588D01*
X122393080Y-87621641D01*
X122655901Y-87746825D01*
X122803110Y-87791476D01*
X123033000Y-87670155D01*
X123033000Y-86477000D01*
X123013000Y-86477000D01*
X123013000Y-86223000D01*
X123033000Y-86223000D01*
X123033000Y-86203000D01*
X123287000Y-86203000D01*
X123287000Y-86223000D01*
G37*
%TD.AperFunction*%
D20*
X142326525Y-84756632D02*
X142533368Y-84963475D01*
X142709406Y-85081100D01*
X142479731Y-85252412D01*
X142284822Y-85468645D01*
X142215195Y-85585534D01*
X142093475Y-85403368D01*
X141886632Y-85196525D01*
X141712240Y-85080000D01*
X141886632Y-84963475D01*
X142093475Y-84756632D01*
X142210000Y-84582240D01*
X142326525Y-84756632D01*
%TA.AperFunction,Conductor*%
D21*
G36*
X142326525Y-84756632D02*
G01*
X142533368Y-84963475D01*
X142709406Y-85081100D01*
X142479731Y-85252412D01*
X142284822Y-85468645D01*
X142215195Y-85585534D01*
X142093475Y-85403368D01*
X141886632Y-85196525D01*
X141712240Y-85080000D01*
X141886632Y-84963475D01*
X142093475Y-84756632D01*
X142210000Y-84582240D01*
X142326525Y-84756632D01*
G37*
%TD.AperFunction*%
D20*
X144866525Y-84756632D02*
X145073368Y-84963475D01*
X145247760Y-85080000D01*
X145073368Y-85196525D01*
X144866525Y-85403368D01*
X144744805Y-85585534D01*
X144675178Y-85468645D01*
X144480269Y-85252412D01*
X144250594Y-85081100D01*
X144426632Y-84963475D01*
X144633475Y-84756632D01*
X144750000Y-84582240D01*
X144866525Y-84756632D01*
%TA.AperFunction,Conductor*%
D21*
G36*
X144866525Y-84756632D02*
G01*
X145073368Y-84963475D01*
X145247760Y-85080000D01*
X145073368Y-85196525D01*
X144866525Y-85403368D01*
X144744805Y-85585534D01*
X144675178Y-85468645D01*
X144480269Y-85252412D01*
X144250594Y-85081100D01*
X144426632Y-84963475D01*
X144633475Y-84756632D01*
X144750000Y-84582240D01*
X144866525Y-84756632D01*
G37*
%TD.AperFunction*%
D20*
X160106525Y-84756632D02*
X160313368Y-84963475D01*
X160489406Y-85081100D01*
X160259731Y-85252412D01*
X160064822Y-85468645D01*
X159995195Y-85585534D01*
X159873475Y-85403368D01*
X159666632Y-85196525D01*
X159492240Y-85080000D01*
X159666632Y-84963475D01*
X159873475Y-84756632D01*
X159990000Y-84582240D01*
X160106525Y-84756632D01*
%TA.AperFunction,Conductor*%
D21*
G36*
X160106525Y-84756632D02*
G01*
X160313368Y-84963475D01*
X160489406Y-85081100D01*
X160259731Y-85252412D01*
X160064822Y-85468645D01*
X159995195Y-85585534D01*
X159873475Y-85403368D01*
X159666632Y-85196525D01*
X159492240Y-85080000D01*
X159666632Y-84963475D01*
X159873475Y-84756632D01*
X159990000Y-84582240D01*
X160106525Y-84756632D01*
G37*
%TD.AperFunction*%
D20*
X147364822Y-84691355D02*
X147559731Y-84907588D01*
X147789406Y-85078900D01*
X147613368Y-85196525D01*
X147406525Y-85403368D01*
X147290000Y-85577760D01*
X147173475Y-85403368D01*
X146966632Y-85196525D01*
X146792240Y-85080000D01*
X146966632Y-84963475D01*
X147173475Y-84756632D01*
X147295195Y-84574466D01*
X147364822Y-84691355D01*
%TA.AperFunction,Conductor*%
D21*
G36*
X147364822Y-84691355D02*
G01*
X147559731Y-84907588D01*
X147789406Y-85078900D01*
X147613368Y-85196525D01*
X147406525Y-85403368D01*
X147290000Y-85577760D01*
X147173475Y-85403368D01*
X146966632Y-85196525D01*
X146792240Y-85080000D01*
X146966632Y-84963475D01*
X147173475Y-84756632D01*
X147295195Y-84574466D01*
X147364822Y-84691355D01*
G37*
%TD.AperFunction*%
D20*
X149946525Y-84756632D02*
X150153368Y-84963475D01*
X150327760Y-85080000D01*
X150153368Y-85196525D01*
X149946525Y-85403368D01*
X149830000Y-85577760D01*
X149713475Y-85403368D01*
X149506632Y-85196525D01*
X149330594Y-85078900D01*
X149560269Y-84907588D01*
X149755178Y-84691355D01*
X149824805Y-84574466D01*
X149946525Y-84756632D01*
%TA.AperFunction,Conductor*%
D21*
G36*
X149946525Y-84756632D02*
G01*
X150153368Y-84963475D01*
X150327760Y-85080000D01*
X150153368Y-85196525D01*
X149946525Y-85403368D01*
X149830000Y-85577760D01*
X149713475Y-85403368D01*
X149506632Y-85196525D01*
X149330594Y-85078900D01*
X149560269Y-84907588D01*
X149755178Y-84691355D01*
X149824805Y-84574466D01*
X149946525Y-84756632D01*
G37*
%TD.AperFunction*%
D20*
X152444822Y-84691355D02*
X152639731Y-84907588D01*
X152869406Y-85078900D01*
X152693368Y-85196525D01*
X152486525Y-85403368D01*
X152370000Y-85577760D01*
X152253475Y-85403368D01*
X152046632Y-85196525D01*
X151872240Y-85080000D01*
X152046632Y-84963475D01*
X152253475Y-84756632D01*
X152375195Y-84574466D01*
X152444822Y-84691355D01*
%TA.AperFunction,Conductor*%
D21*
G36*
X152444822Y-84691355D02*
G01*
X152639731Y-84907588D01*
X152869406Y-85078900D01*
X152693368Y-85196525D01*
X152486525Y-85403368D01*
X152370000Y-85577760D01*
X152253475Y-85403368D01*
X152046632Y-85196525D01*
X151872240Y-85080000D01*
X152046632Y-84963475D01*
X152253475Y-84756632D01*
X152375195Y-84574466D01*
X152444822Y-84691355D01*
G37*
%TD.AperFunction*%
D20*
X119466525Y-84756632D02*
X119673368Y-84963475D01*
X119847760Y-85080000D01*
X119673368Y-85196525D01*
X119466525Y-85403368D01*
X119350000Y-85577760D01*
X119233475Y-85403368D01*
X119026632Y-85196525D01*
X118850594Y-85078900D01*
X119080269Y-84907588D01*
X119275178Y-84691355D01*
X119344805Y-84574466D01*
X119466525Y-84756632D01*
%TA.AperFunction,Conductor*%
D21*
G36*
X119466525Y-84756632D02*
G01*
X119673368Y-84963475D01*
X119847760Y-85080000D01*
X119673368Y-85196525D01*
X119466525Y-85403368D01*
X119350000Y-85577760D01*
X119233475Y-85403368D01*
X119026632Y-85196525D01*
X118850594Y-85078900D01*
X119080269Y-84907588D01*
X119275178Y-84691355D01*
X119344805Y-84574466D01*
X119466525Y-84756632D01*
G37*
%TD.AperFunction*%
D20*
X155026525Y-84756632D02*
X155233368Y-84963475D01*
X155407760Y-85080000D01*
X155233368Y-85196525D01*
X155026525Y-85403368D01*
X154910000Y-85577760D01*
X154793475Y-85403368D01*
X154586632Y-85196525D01*
X154410594Y-85078900D01*
X154640269Y-84907588D01*
X154835178Y-84691355D01*
X154904805Y-84574466D01*
X155026525Y-84756632D01*
%TA.AperFunction,Conductor*%
D21*
G36*
X155026525Y-84756632D02*
G01*
X155233368Y-84963475D01*
X155407760Y-85080000D01*
X155233368Y-85196525D01*
X155026525Y-85403368D01*
X154910000Y-85577760D01*
X154793475Y-85403368D01*
X154586632Y-85196525D01*
X154410594Y-85078900D01*
X154640269Y-84907588D01*
X154835178Y-84691355D01*
X154904805Y-84574466D01*
X155026525Y-84756632D01*
G37*
%TD.AperFunction*%
D20*
X137246525Y-84756632D02*
X137453368Y-84963475D01*
X137627760Y-85080000D01*
X137453368Y-85196525D01*
X137246525Y-85403368D01*
X137130000Y-85577760D01*
X137013475Y-85403368D01*
X136806632Y-85196525D01*
X136630594Y-85078900D01*
X136860269Y-84907588D01*
X137055178Y-84691355D01*
X137124805Y-84574466D01*
X137246525Y-84756632D01*
%TA.AperFunction,Conductor*%
D21*
G36*
X137246525Y-84756632D02*
G01*
X137453368Y-84963475D01*
X137627760Y-85080000D01*
X137453368Y-85196525D01*
X137246525Y-85403368D01*
X137130000Y-85577760D01*
X137013475Y-85403368D01*
X136806632Y-85196525D01*
X136630594Y-85078900D01*
X136860269Y-84907588D01*
X137055178Y-84691355D01*
X137124805Y-84574466D01*
X137246525Y-84756632D01*
G37*
%TD.AperFunction*%
%TD*%
M02*
