%TF.GenerationSoftware,KiCad,Pcbnew,(5.1.9)-1*%
%TF.CreationDate,2021-06-10T09:26:42-06:00*%
%TF.ProjectId,sl-pi-aprs,736c2d70-692d-4617-9072-732e6b696361,rev?*%
%TF.SameCoordinates,Original*%
%TF.FileFunction,Soldermask,Bot*%
%TF.FilePolarity,Negative*%
%FSLAX46Y46*%
G04 Gerber Fmt 4.6, Leading zero omitted, Abs format (unit mm)*
G04 Created by KiCad (PCBNEW (5.1.9)-1) date 2021-06-10 09:26:42*
%MOMM*%
%LPD*%
G01*
G04 APERTURE LIST*
%ADD10O,1.950000X1.700000*%
%ADD11C,6.000000*%
%ADD12O,1.700000X1.700000*%
%ADD13R,1.700000X1.700000*%
%ADD14C,1.440000*%
%ADD15R,1.500000X2.000000*%
%ADD16R,3.800000X2.000000*%
%ADD17O,1.600000X2.000000*%
%ADD18C,0.800000*%
G04 APERTURE END LIST*
D10*
%TO.C,J9*%
X165354000Y-91600000D03*
X165354000Y-94100000D03*
X165354000Y-96600000D03*
X165354000Y-99100000D03*
G36*
G01*
X166079000Y-102450000D02*
X164629000Y-102450000D01*
G75*
G02*
X164379000Y-102200000I0J250000D01*
G01*
X164379000Y-101000000D01*
G75*
G02*
X164629000Y-100750000I250000J0D01*
G01*
X166079000Y-100750000D01*
G75*
G02*
X166329000Y-101000000I0J-250000D01*
G01*
X166329000Y-102200000D01*
G75*
G02*
X166079000Y-102450000I-250000J0D01*
G01*
G37*
%TD*%
D11*
%TO.C,J2*%
X166130000Y-85080000D03*
X108130000Y-108080000D03*
X166130000Y-108080000D03*
X108130000Y-85080000D03*
D12*
X161260000Y-83810000D03*
X161260000Y-86350000D03*
X143480000Y-83810000D03*
X143480000Y-86350000D03*
X138400000Y-83810000D03*
X138400000Y-86350000D03*
X148560000Y-83810000D03*
X148560000Y-86350000D03*
X120620000Y-83810000D03*
X120620000Y-86350000D03*
X151100000Y-83810000D03*
X151100000Y-86350000D03*
X133320000Y-83810000D03*
X133320000Y-86350000D03*
X156180000Y-83810000D03*
X156180000Y-86350000D03*
X153640000Y-83810000D03*
X153640000Y-86350000D03*
X158720000Y-83810000D03*
X158720000Y-86350000D03*
X135860000Y-83810000D03*
X135860000Y-86350000D03*
X123160000Y-83810000D03*
X123160000Y-86350000D03*
X128240000Y-83810000D03*
X128240000Y-86350000D03*
X146020000Y-83810000D03*
X146020000Y-86350000D03*
X125700000Y-83810000D03*
X125700000Y-86350000D03*
X140940000Y-83810000D03*
X140940000Y-86350000D03*
D13*
X113000000Y-86350000D03*
D12*
X113000000Y-83810000D03*
X118080000Y-86350000D03*
X115540000Y-83810000D03*
X130780000Y-83810000D03*
X130780000Y-86350000D03*
X115540000Y-86350000D03*
X118080000Y-83810000D03*
%TD*%
D14*
%TO.C,RV1*%
X130670000Y-96100000D03*
X133210000Y-96100000D03*
X135750000Y-96100000D03*
%TD*%
%TO.C,C1*%
G36*
G01*
X108512500Y-100262500D02*
X108512500Y-100737500D01*
G75*
G02*
X108275000Y-100975000I-237500J0D01*
G01*
X107675000Y-100975000D01*
G75*
G02*
X107437500Y-100737500I0J237500D01*
G01*
X107437500Y-100262500D01*
G75*
G02*
X107675000Y-100025000I237500J0D01*
G01*
X108275000Y-100025000D01*
G75*
G02*
X108512500Y-100262500I0J-237500D01*
G01*
G37*
G36*
G01*
X110237500Y-100262500D02*
X110237500Y-100737500D01*
G75*
G02*
X110000000Y-100975000I-237500J0D01*
G01*
X109400000Y-100975000D01*
G75*
G02*
X109162500Y-100737500I0J237500D01*
G01*
X109162500Y-100262500D01*
G75*
G02*
X109400000Y-100025000I237500J0D01*
G01*
X110000000Y-100025000D01*
G75*
G02*
X110237500Y-100262500I0J-237500D01*
G01*
G37*
%TD*%
D15*
%TO.C,U2*%
X126490000Y-96835000D03*
X121890000Y-96835000D03*
X124190000Y-96835000D03*
D16*
X124190000Y-90535000D03*
%TD*%
D15*
%TO.C,U1*%
X118290000Y-96835000D03*
X113690000Y-96835000D03*
X115990000Y-96835000D03*
D16*
X115990000Y-90535000D03*
%TD*%
%TO.C,R8*%
G36*
G01*
X106400000Y-90002500D02*
X106400000Y-89527500D01*
G75*
G02*
X106637500Y-89290000I237500J0D01*
G01*
X107137500Y-89290000D01*
G75*
G02*
X107375000Y-89527500I0J-237500D01*
G01*
X107375000Y-90002500D01*
G75*
G02*
X107137500Y-90240000I-237500J0D01*
G01*
X106637500Y-90240000D01*
G75*
G02*
X106400000Y-90002500I0J237500D01*
G01*
G37*
G36*
G01*
X108225000Y-90002500D02*
X108225000Y-89527500D01*
G75*
G02*
X108462500Y-89290000I237500J0D01*
G01*
X108962500Y-89290000D01*
G75*
G02*
X109200000Y-89527500I0J-237500D01*
G01*
X109200000Y-90002500D01*
G75*
G02*
X108962500Y-90240000I-237500J0D01*
G01*
X108462500Y-90240000D01*
G75*
G02*
X108225000Y-90002500I0J237500D01*
G01*
G37*
%TD*%
%TO.C,R7*%
G36*
G01*
X108224800Y-97680500D02*
X108224800Y-97205500D01*
G75*
G02*
X108462300Y-96968000I237500J0D01*
G01*
X108962300Y-96968000D01*
G75*
G02*
X109199800Y-97205500I0J-237500D01*
G01*
X109199800Y-97680500D01*
G75*
G02*
X108962300Y-97918000I-237500J0D01*
G01*
X108462300Y-97918000D01*
G75*
G02*
X108224800Y-97680500I0J237500D01*
G01*
G37*
G36*
G01*
X106399800Y-97680500D02*
X106399800Y-97205500D01*
G75*
G02*
X106637300Y-96968000I237500J0D01*
G01*
X107137300Y-96968000D01*
G75*
G02*
X107374800Y-97205500I0J-237500D01*
G01*
X107374800Y-97680500D01*
G75*
G02*
X107137300Y-97918000I-237500J0D01*
G01*
X106637300Y-97918000D01*
G75*
G02*
X106399800Y-97680500I0J237500D01*
G01*
G37*
%TD*%
%TO.C,R5*%
G36*
G01*
X108225000Y-92572500D02*
X108225000Y-92097500D01*
G75*
G02*
X108462500Y-91860000I237500J0D01*
G01*
X108962500Y-91860000D01*
G75*
G02*
X109200000Y-92097500I0J-237500D01*
G01*
X109200000Y-92572500D01*
G75*
G02*
X108962500Y-92810000I-237500J0D01*
G01*
X108462500Y-92810000D01*
G75*
G02*
X108225000Y-92572500I0J237500D01*
G01*
G37*
G36*
G01*
X106400000Y-92572500D02*
X106400000Y-92097500D01*
G75*
G02*
X106637500Y-91860000I237500J0D01*
G01*
X107137500Y-91860000D01*
G75*
G02*
X107375000Y-92097500I0J-237500D01*
G01*
X107375000Y-92572500D01*
G75*
G02*
X107137500Y-92810000I-237500J0D01*
G01*
X106637500Y-92810000D01*
G75*
G02*
X106400000Y-92572500I0J237500D01*
G01*
G37*
%TD*%
%TO.C,R3*%
G36*
G01*
X108225000Y-95112500D02*
X108225000Y-94637500D01*
G75*
G02*
X108462500Y-94400000I237500J0D01*
G01*
X108962500Y-94400000D01*
G75*
G02*
X109200000Y-94637500I0J-237500D01*
G01*
X109200000Y-95112500D01*
G75*
G02*
X108962500Y-95350000I-237500J0D01*
G01*
X108462500Y-95350000D01*
G75*
G02*
X108225000Y-95112500I0J237500D01*
G01*
G37*
G36*
G01*
X106400000Y-95112500D02*
X106400000Y-94637500D01*
G75*
G02*
X106637500Y-94400000I237500J0D01*
G01*
X107137500Y-94400000D01*
G75*
G02*
X107375000Y-94637500I0J-237500D01*
G01*
X107375000Y-95112500D01*
G75*
G02*
X107137500Y-95350000I-237500J0D01*
G01*
X106637500Y-95350000D01*
G75*
G02*
X106400000Y-95112500I0J237500D01*
G01*
G37*
%TD*%
D12*
%TO.C,J10*%
X129960000Y-90850000D03*
D13*
X132500000Y-90850000D03*
%TD*%
D12*
%TO.C,J8*%
X150000000Y-106850000D03*
D13*
X150000000Y-109390000D03*
%TD*%
D17*
%TO.C,J7*%
X142200000Y-105150000D03*
D18*
X144500000Y-109750000D03*
X144500000Y-102750000D03*
D17*
X142200000Y-108150000D03*
X142200000Y-101150000D03*
X146800000Y-100050000D03*
%TD*%
D12*
%TO.C,J6*%
X136750000Y-106810000D03*
D13*
X136750000Y-109350000D03*
%TD*%
D17*
%TO.C,J5*%
X128950000Y-105150000D03*
D18*
X131250000Y-109750000D03*
X131250000Y-102750000D03*
D17*
X128950000Y-108150000D03*
X128950000Y-101150000D03*
X133550000Y-100050000D03*
%TD*%
D12*
%TO.C,J4*%
X121000000Y-101730000D03*
X121000000Y-104270000D03*
X121000000Y-106810000D03*
D13*
X121000000Y-109350000D03*
%TD*%
D17*
%TO.C,J3*%
X113200000Y-105150000D03*
D18*
X115500000Y-109750000D03*
X115500000Y-102750000D03*
D17*
X113200000Y-108150000D03*
X113200000Y-101150000D03*
X117800000Y-100050000D03*
%TD*%
D12*
%TO.C,J1*%
X107160000Y-102800000D03*
D13*
X109700000Y-102800000D03*
%TD*%
%TO.C,C3*%
G36*
G01*
X124012500Y-100425000D02*
X124487500Y-100425000D01*
G75*
G02*
X124725000Y-100662500I0J-237500D01*
G01*
X124725000Y-101262500D01*
G75*
G02*
X124487500Y-101500000I-237500J0D01*
G01*
X124012500Y-101500000D01*
G75*
G02*
X123775000Y-101262500I0J237500D01*
G01*
X123775000Y-100662500D01*
G75*
G02*
X124012500Y-100425000I237500J0D01*
G01*
G37*
G36*
G01*
X124012500Y-98700000D02*
X124487500Y-98700000D01*
G75*
G02*
X124725000Y-98937500I0J-237500D01*
G01*
X124725000Y-99537500D01*
G75*
G02*
X124487500Y-99775000I-237500J0D01*
G01*
X124012500Y-99775000D01*
G75*
G02*
X123775000Y-99537500I0J237500D01*
G01*
X123775000Y-98937500D01*
G75*
G02*
X124012500Y-98700000I237500J0D01*
G01*
G37*
%TD*%
%TO.C,C2*%
G36*
G01*
X115762500Y-100425000D02*
X116237500Y-100425000D01*
G75*
G02*
X116475000Y-100662500I0J-237500D01*
G01*
X116475000Y-101262500D01*
G75*
G02*
X116237500Y-101500000I-237500J0D01*
G01*
X115762500Y-101500000D01*
G75*
G02*
X115525000Y-101262500I0J237500D01*
G01*
X115525000Y-100662500D01*
G75*
G02*
X115762500Y-100425000I237500J0D01*
G01*
G37*
G36*
G01*
X115762500Y-98700000D02*
X116237500Y-98700000D01*
G75*
G02*
X116475000Y-98937500I0J-237500D01*
G01*
X116475000Y-99537500D01*
G75*
G02*
X116237500Y-99775000I-237500J0D01*
G01*
X115762500Y-99775000D01*
G75*
G02*
X115525000Y-99537500I0J237500D01*
G01*
X115525000Y-98937500D01*
G75*
G02*
X115762500Y-98700000I237500J0D01*
G01*
G37*
%TD*%
M02*
