%TF.GenerationSoftware,KiCad,Pcbnew,(5.1.9)-1*%
%TF.CreationDate,2021-06-10T09:26:42-06:00*%
%TF.ProjectId,sl-pi-aprs,736c2d70-692d-4617-9072-732e6b696361,rev?*%
%TF.SameCoordinates,Original*%
%TF.FileFunction,Paste,Top*%
%TF.FilePolarity,Positive*%
%FSLAX46Y46*%
G04 Gerber Fmt 4.6, Leading zero omitted, Abs format (unit mm)*
G04 Created by KiCad (PCBNEW (5.1.9)-1) date 2021-06-10 09:26:42*
%MOMM*%
%LPD*%
G01*
G04 APERTURE LIST*
%ADD10R,0.600000X1.300000*%
G04 APERTURE END LIST*
%TO.C,C4*%
G36*
G01*
X127012500Y-97425000D02*
X127487500Y-97425000D01*
G75*
G02*
X127725000Y-97662500I0J-237500D01*
G01*
X127725000Y-98262500D01*
G75*
G02*
X127487500Y-98500000I-237500J0D01*
G01*
X127012500Y-98500000D01*
G75*
G02*
X126775000Y-98262500I0J237500D01*
G01*
X126775000Y-97662500D01*
G75*
G02*
X127012500Y-97425000I237500J0D01*
G01*
G37*
G36*
G01*
X127012500Y-95700000D02*
X127487500Y-95700000D01*
G75*
G02*
X127725000Y-95937500I0J-237500D01*
G01*
X127725000Y-96537500D01*
G75*
G02*
X127487500Y-96775000I-237500J0D01*
G01*
X127012500Y-96775000D01*
G75*
G02*
X126775000Y-96537500I0J237500D01*
G01*
X126775000Y-95937500D01*
G75*
G02*
X127012500Y-95700000I237500J0D01*
G01*
G37*
%TD*%
%TO.C,R6*%
G36*
G01*
X116262500Y-91025000D02*
X116737500Y-91025000D01*
G75*
G02*
X116975000Y-91262500I0J-237500D01*
G01*
X116975000Y-91762500D01*
G75*
G02*
X116737500Y-92000000I-237500J0D01*
G01*
X116262500Y-92000000D01*
G75*
G02*
X116025000Y-91762500I0J237500D01*
G01*
X116025000Y-91262500D01*
G75*
G02*
X116262500Y-91025000I237500J0D01*
G01*
G37*
G36*
G01*
X116262500Y-89200000D02*
X116737500Y-89200000D01*
G75*
G02*
X116975000Y-89437500I0J-237500D01*
G01*
X116975000Y-89937500D01*
G75*
G02*
X116737500Y-90175000I-237500J0D01*
G01*
X116262500Y-90175000D01*
G75*
G02*
X116025000Y-89937500I0J237500D01*
G01*
X116025000Y-89437500D01*
G75*
G02*
X116262500Y-89200000I237500J0D01*
G01*
G37*
%TD*%
%TO.C,R4*%
G36*
G01*
X122262500Y-91025000D02*
X122737500Y-91025000D01*
G75*
G02*
X122975000Y-91262500I0J-237500D01*
G01*
X122975000Y-91762500D01*
G75*
G02*
X122737500Y-92000000I-237500J0D01*
G01*
X122262500Y-92000000D01*
G75*
G02*
X122025000Y-91762500I0J237500D01*
G01*
X122025000Y-91262500D01*
G75*
G02*
X122262500Y-91025000I237500J0D01*
G01*
G37*
G36*
G01*
X122262500Y-89200000D02*
X122737500Y-89200000D01*
G75*
G02*
X122975000Y-89437500I0J-237500D01*
G01*
X122975000Y-89937500D01*
G75*
G02*
X122737500Y-90175000I-237500J0D01*
G01*
X122262500Y-90175000D01*
G75*
G02*
X122025000Y-89937500I0J237500D01*
G01*
X122025000Y-89437500D01*
G75*
G02*
X122262500Y-89200000I237500J0D01*
G01*
G37*
%TD*%
%TO.C,R2*%
G36*
G01*
X122262500Y-97275000D02*
X122737500Y-97275000D01*
G75*
G02*
X122975000Y-97512500I0J-237500D01*
G01*
X122975000Y-98012500D01*
G75*
G02*
X122737500Y-98250000I-237500J0D01*
G01*
X122262500Y-98250000D01*
G75*
G02*
X122025000Y-98012500I0J237500D01*
G01*
X122025000Y-97512500D01*
G75*
G02*
X122262500Y-97275000I237500J0D01*
G01*
G37*
G36*
G01*
X122262500Y-95450000D02*
X122737500Y-95450000D01*
G75*
G02*
X122975000Y-95687500I0J-237500D01*
G01*
X122975000Y-96187500D01*
G75*
G02*
X122737500Y-96425000I-237500J0D01*
G01*
X122262500Y-96425000D01*
G75*
G02*
X122025000Y-96187500I0J237500D01*
G01*
X122025000Y-95687500D01*
G75*
G02*
X122262500Y-95450000I237500J0D01*
G01*
G37*
%TD*%
%TO.C,R1*%
G36*
G01*
X116262500Y-97185000D02*
X116737500Y-97185000D01*
G75*
G02*
X116975000Y-97422500I0J-237500D01*
G01*
X116975000Y-97922500D01*
G75*
G02*
X116737500Y-98160000I-237500J0D01*
G01*
X116262500Y-98160000D01*
G75*
G02*
X116025000Y-97922500I0J237500D01*
G01*
X116025000Y-97422500D01*
G75*
G02*
X116262500Y-97185000I237500J0D01*
G01*
G37*
G36*
G01*
X116262500Y-95360000D02*
X116737500Y-95360000D01*
G75*
G02*
X116975000Y-95597500I0J-237500D01*
G01*
X116975000Y-96097500D01*
G75*
G02*
X116737500Y-96335000I-237500J0D01*
G01*
X116262500Y-96335000D01*
G75*
G02*
X116025000Y-96097500I0J237500D01*
G01*
X116025000Y-95597500D01*
G75*
G02*
X116262500Y-95360000I237500J0D01*
G01*
G37*
%TD*%
D10*
%TO.C,Q4*%
X114450000Y-89550000D03*
X112550000Y-89550000D03*
X113500000Y-91650000D03*
%TD*%
%TO.C,Q3*%
X120450000Y-89550000D03*
X118550000Y-89550000D03*
X119500000Y-91650000D03*
%TD*%
%TO.C,Q2*%
X120450000Y-95800000D03*
X118550000Y-95800000D03*
X119500000Y-97900000D03*
%TD*%
%TO.C,Q1*%
X114445000Y-95710000D03*
X112545000Y-95710000D03*
X113495000Y-97810000D03*
%TD*%
%TO.C,D1*%
G36*
G01*
X107025000Y-89140000D02*
X107025000Y-90390000D01*
G75*
G02*
X106775000Y-90640000I-250000J0D01*
G01*
X106025000Y-90640000D01*
G75*
G02*
X105775000Y-90390000I0J250000D01*
G01*
X105775000Y-89140000D01*
G75*
G02*
X106025000Y-88890000I250000J0D01*
G01*
X106775000Y-88890000D01*
G75*
G02*
X107025000Y-89140000I0J-250000D01*
G01*
G37*
G36*
G01*
X109825000Y-89140000D02*
X109825000Y-90390000D01*
G75*
G02*
X109575000Y-90640000I-250000J0D01*
G01*
X108825000Y-90640000D01*
G75*
G02*
X108575000Y-90390000I0J250000D01*
G01*
X108575000Y-89140000D01*
G75*
G02*
X108825000Y-88890000I250000J0D01*
G01*
X109575000Y-88890000D01*
G75*
G02*
X109825000Y-89140000I0J-250000D01*
G01*
G37*
%TD*%
%TO.C,D4*%
G36*
G01*
X107024800Y-96818000D02*
X107024800Y-98068000D01*
G75*
G02*
X106774800Y-98318000I-250000J0D01*
G01*
X106024800Y-98318000D01*
G75*
G02*
X105774800Y-98068000I0J250000D01*
G01*
X105774800Y-96818000D01*
G75*
G02*
X106024800Y-96568000I250000J0D01*
G01*
X106774800Y-96568000D01*
G75*
G02*
X107024800Y-96818000I0J-250000D01*
G01*
G37*
G36*
G01*
X109824800Y-96818000D02*
X109824800Y-98068000D01*
G75*
G02*
X109574800Y-98318000I-250000J0D01*
G01*
X108824800Y-98318000D01*
G75*
G02*
X108574800Y-98068000I0J250000D01*
G01*
X108574800Y-96818000D01*
G75*
G02*
X108824800Y-96568000I250000J0D01*
G01*
X109574800Y-96568000D01*
G75*
G02*
X109824800Y-96818000I0J-250000D01*
G01*
G37*
%TD*%
%TO.C,D3*%
G36*
G01*
X107025000Y-91710000D02*
X107025000Y-92960000D01*
G75*
G02*
X106775000Y-93210000I-250000J0D01*
G01*
X106025000Y-93210000D01*
G75*
G02*
X105775000Y-92960000I0J250000D01*
G01*
X105775000Y-91710000D01*
G75*
G02*
X106025000Y-91460000I250000J0D01*
G01*
X106775000Y-91460000D01*
G75*
G02*
X107025000Y-91710000I0J-250000D01*
G01*
G37*
G36*
G01*
X109825000Y-91710000D02*
X109825000Y-92960000D01*
G75*
G02*
X109575000Y-93210000I-250000J0D01*
G01*
X108825000Y-93210000D01*
G75*
G02*
X108575000Y-92960000I0J250000D01*
G01*
X108575000Y-91710000D01*
G75*
G02*
X108825000Y-91460000I250000J0D01*
G01*
X109575000Y-91460000D01*
G75*
G02*
X109825000Y-91710000I0J-250000D01*
G01*
G37*
%TD*%
%TO.C,D2*%
G36*
G01*
X109825000Y-94250000D02*
X109825000Y-95500000D01*
G75*
G02*
X109575000Y-95750000I-250000J0D01*
G01*
X108825000Y-95750000D01*
G75*
G02*
X108575000Y-95500000I0J250000D01*
G01*
X108575000Y-94250000D01*
G75*
G02*
X108825000Y-94000000I250000J0D01*
G01*
X109575000Y-94000000D01*
G75*
G02*
X109825000Y-94250000I0J-250000D01*
G01*
G37*
G36*
G01*
X107025000Y-94250000D02*
X107025000Y-95500000D01*
G75*
G02*
X106775000Y-95750000I-250000J0D01*
G01*
X106025000Y-95750000D01*
G75*
G02*
X105775000Y-95500000I0J250000D01*
G01*
X105775000Y-94250000D01*
G75*
G02*
X106025000Y-94000000I250000J0D01*
G01*
X106775000Y-94000000D01*
G75*
G02*
X107025000Y-94250000I0J-250000D01*
G01*
G37*
%TD*%
M02*
