%TF.GenerationSoftware,KiCad,Pcbnew,(5.1.9)-1*%
%TF.CreationDate,2021-06-10T09:26:42-06:00*%
%TF.ProjectId,sl-pi-aprs,736c2d70-692d-4617-9072-732e6b696361,rev?*%
%TF.SameCoordinates,Original*%
%TF.FileFunction,Copper,L1,Top*%
%TF.FilePolarity,Positive*%
%FSLAX46Y46*%
G04 Gerber Fmt 4.6, Leading zero omitted, Abs format (unit mm)*
G04 Created by KiCad (PCBNEW (5.1.9)-1) date 2021-06-10 09:26:42*
%MOMM*%
%LPD*%
G01*
G04 APERTURE LIST*
%TA.AperFunction,ComponentPad*%
%ADD10O,1.950000X1.700000*%
%TD*%
%TA.AperFunction,ComponentPad*%
%ADD11O,1.700000X1.700000*%
%TD*%
%TA.AperFunction,ComponentPad*%
%ADD12R,1.700000X1.700000*%
%TD*%
%TA.AperFunction,ComponentPad*%
%ADD13C,1.440000*%
%TD*%
%TA.AperFunction,SMDPad,CuDef*%
%ADD14R,0.600000X1.300000*%
%TD*%
%TA.AperFunction,ComponentPad*%
%ADD15O,1.600000X2.000000*%
%TD*%
%TA.AperFunction,ViaPad*%
%ADD16C,0.800000*%
%TD*%
%TA.AperFunction,Conductor*%
%ADD17C,0.250000*%
%TD*%
%TA.AperFunction,Conductor*%
%ADD18C,0.254000*%
%TD*%
%TA.AperFunction,Conductor*%
%ADD19C,0.100000*%
%TD*%
G04 APERTURE END LIST*
D10*
%TO.P,J9,5*%
%TO.N,gps_pps*%
X165354000Y-91600000D03*
%TO.P,J9,4*%
%TO.N,pi_rx*%
X165354000Y-94100000D03*
%TO.P,J9,3*%
%TO.N,pi_tx*%
X165354000Y-96600000D03*
%TO.P,J9,2*%
%TO.N,GND*%
X165354000Y-99100000D03*
%TO.P,J9,1*%
%TO.N,+3V3*%
%TA.AperFunction,ComponentPad*%
G36*
G01*
X166079000Y-102450000D02*
X164629000Y-102450000D01*
G75*
G02*
X164379000Y-102200000I0J250000D01*
G01*
X164379000Y-101000000D01*
G75*
G02*
X164629000Y-100750000I250000J0D01*
G01*
X166079000Y-100750000D01*
G75*
G02*
X166329000Y-101000000I0J-250000D01*
G01*
X166329000Y-102200000D01*
G75*
G02*
X166079000Y-102450000I-250000J0D01*
G01*
G37*
%TD.AperFunction*%
%TD*%
D11*
%TO.P,J2,40*%
%TO.N,Net-(J2-Pad40)*%
X161260000Y-83810000D03*
%TO.P,J2,39*%
%TO.N,GND*%
X161260000Y-86350000D03*
%TO.P,J2,26*%
%TO.N,Net-(J2-Pad26)*%
X143480000Y-83810000D03*
%TO.P,J2,25*%
%TO.N,GND*%
X143480000Y-86350000D03*
%TO.P,J2,22*%
%TO.N,ptt_control*%
X138400000Y-83810000D03*
%TO.P,J2,21*%
%TO.N,Net-(J2-Pad21)*%
X138400000Y-86350000D03*
%TO.P,J2,30*%
%TO.N,GND*%
X148560000Y-83810000D03*
%TO.P,J2,29*%
%TO.N,Net-(J2-Pad29)*%
X148560000Y-86350000D03*
%TO.P,J2,8*%
%TO.N,pi_tx*%
X120620000Y-83810000D03*
%TO.P,J2,7*%
%TO.N,Net-(J2-Pad7)*%
X120620000Y-86350000D03*
%TO.P,J2,32*%
%TO.N,Net-(J2-Pad32)*%
X151100000Y-83810000D03*
%TO.P,J2,31*%
%TO.N,Net-(J2-Pad31)*%
X151100000Y-86350000D03*
%TO.P,J2,18*%
%TO.N,rx_feedback*%
X133320000Y-83810000D03*
%TO.P,J2,17*%
%TO.N,Net-(J2-Pad17)*%
X133320000Y-86350000D03*
%TO.P,J2,36*%
%TO.N,Net-(J2-Pad36)*%
X156180000Y-83810000D03*
%TO.P,J2,35*%
%TO.N,Net-(J2-Pad35)*%
X156180000Y-86350000D03*
%TO.P,J2,34*%
%TO.N,GND*%
X153640000Y-83810000D03*
%TO.P,J2,33*%
%TO.N,Net-(J2-Pad33)*%
X153640000Y-86350000D03*
%TO.P,J2,38*%
%TO.N,Net-(J2-Pad38)*%
X158720000Y-83810000D03*
%TO.P,J2,37*%
%TO.N,Net-(J2-Pad37)*%
X158720000Y-86350000D03*
%TO.P,J2,20*%
%TO.N,GND*%
X135860000Y-83810000D03*
%TO.P,J2,19*%
%TO.N,Net-(J2-Pad19)*%
X135860000Y-86350000D03*
%TO.P,J2,10*%
%TO.N,pi_rx*%
X123160000Y-83810000D03*
%TO.P,J2,9*%
%TO.N,GND*%
X123160000Y-86350000D03*
%TO.P,J2,14*%
X128240000Y-83810000D03*
%TO.P,J2,13*%
%TO.N,Net-(J2-Pad13)*%
X128240000Y-86350000D03*
%TO.P,J2,28*%
%TO.N,Net-(J2-Pad28)*%
X146020000Y-83810000D03*
%TO.P,J2,27*%
%TO.N,Net-(J2-Pad27)*%
X146020000Y-86350000D03*
%TO.P,J2,12*%
%TO.N,Net-(J2-Pad12)*%
X125700000Y-83810000D03*
%TO.P,J2,11*%
%TO.N,Net-(J2-Pad11)*%
X125700000Y-86350000D03*
%TO.P,J2,24*%
%TO.N,Net-(J2-Pad24)*%
X140940000Y-83810000D03*
%TO.P,J2,23*%
%TO.N,Net-(J2-Pad23)*%
X140940000Y-86350000D03*
D12*
%TO.P,J2,1*%
%TO.N,Net-(J2-Pad1)*%
X113000000Y-86350000D03*
D11*
%TO.P,J2,2*%
%TO.N,+5V*%
X113000000Y-83810000D03*
%TO.P,J2,5*%
%TO.N,Net-(J2-Pad5)*%
X118080000Y-86350000D03*
%TO.P,J2,4*%
%TO.N,+5V*%
X115540000Y-83810000D03*
%TO.P,J2,16*%
%TO.N,gps_pps*%
X130780000Y-83810000D03*
%TO.P,J2,15*%
%TO.N,Net-(J2-Pad15)*%
X130780000Y-86350000D03*
%TO.P,J2,3*%
%TO.N,Net-(J2-Pad3)*%
X115540000Y-86350000D03*
%TO.P,J2,6*%
%TO.N,GND*%
X118080000Y-83810000D03*
%TD*%
%TO.P,C4,2*%
%TO.N,radio_mic*%
%TA.AperFunction,SMDPad,CuDef*%
G36*
G01*
X127012500Y-97425000D02*
X127487500Y-97425000D01*
G75*
G02*
X127725000Y-97662500I0J-237500D01*
G01*
X127725000Y-98262500D01*
G75*
G02*
X127487500Y-98500000I-237500J0D01*
G01*
X127012500Y-98500000D01*
G75*
G02*
X126775000Y-98262500I0J237500D01*
G01*
X126775000Y-97662500D01*
G75*
G02*
X127012500Y-97425000I237500J0D01*
G01*
G37*
%TD.AperFunction*%
%TO.P,C4,1*%
%TO.N,Net-(C4-Pad1)*%
%TA.AperFunction,SMDPad,CuDef*%
G36*
G01*
X127012500Y-95700000D02*
X127487500Y-95700000D01*
G75*
G02*
X127725000Y-95937500I0J-237500D01*
G01*
X127725000Y-96537500D01*
G75*
G02*
X127487500Y-96775000I-237500J0D01*
G01*
X127012500Y-96775000D01*
G75*
G02*
X126775000Y-96537500I0J237500D01*
G01*
X126775000Y-95937500D01*
G75*
G02*
X127012500Y-95700000I237500J0D01*
G01*
G37*
%TD.AperFunction*%
%TD*%
D13*
%TO.P,RV1,3*%
%TO.N,GND*%
X130670000Y-96100000D03*
%TO.P,RV1,2*%
%TO.N,Net-(C4-Pad1)*%
X133210000Y-96100000D03*
%TO.P,RV1,1*%
%TO.N,audio_in*%
X135750000Y-96100000D03*
%TD*%
%TO.P,R6,2*%
%TO.N,Net-(Q4-Pad1)*%
%TA.AperFunction,SMDPad,CuDef*%
G36*
G01*
X116262500Y-91025000D02*
X116737500Y-91025000D01*
G75*
G02*
X116975000Y-91262500I0J-237500D01*
G01*
X116975000Y-91762500D01*
G75*
G02*
X116737500Y-92000000I-237500J0D01*
G01*
X116262500Y-92000000D01*
G75*
G02*
X116025000Y-91762500I0J237500D01*
G01*
X116025000Y-91262500D01*
G75*
G02*
X116262500Y-91025000I237500J0D01*
G01*
G37*
%TD.AperFunction*%
%TO.P,R6,1*%
%TO.N,gps_pps*%
%TA.AperFunction,SMDPad,CuDef*%
G36*
G01*
X116262500Y-89200000D02*
X116737500Y-89200000D01*
G75*
G02*
X116975000Y-89437500I0J-237500D01*
G01*
X116975000Y-89937500D01*
G75*
G02*
X116737500Y-90175000I-237500J0D01*
G01*
X116262500Y-90175000D01*
G75*
G02*
X116025000Y-89937500I0J237500D01*
G01*
X116025000Y-89437500D01*
G75*
G02*
X116262500Y-89200000I237500J0D01*
G01*
G37*
%TD.AperFunction*%
%TD*%
%TO.P,R4,2*%
%TO.N,Net-(Q3-Pad1)*%
%TA.AperFunction,SMDPad,CuDef*%
G36*
G01*
X122262500Y-91025000D02*
X122737500Y-91025000D01*
G75*
G02*
X122975000Y-91262500I0J-237500D01*
G01*
X122975000Y-91762500D01*
G75*
G02*
X122737500Y-92000000I-237500J0D01*
G01*
X122262500Y-92000000D01*
G75*
G02*
X122025000Y-91762500I0J237500D01*
G01*
X122025000Y-91262500D01*
G75*
G02*
X122262500Y-91025000I237500J0D01*
G01*
G37*
%TD.AperFunction*%
%TO.P,R4,1*%
%TO.N,rx_feedback*%
%TA.AperFunction,SMDPad,CuDef*%
G36*
G01*
X122262500Y-89200000D02*
X122737500Y-89200000D01*
G75*
G02*
X122975000Y-89437500I0J-237500D01*
G01*
X122975000Y-89937500D01*
G75*
G02*
X122737500Y-90175000I-237500J0D01*
G01*
X122262500Y-90175000D01*
G75*
G02*
X122025000Y-89937500I0J237500D01*
G01*
X122025000Y-89437500D01*
G75*
G02*
X122262500Y-89200000I237500J0D01*
G01*
G37*
%TD.AperFunction*%
%TD*%
%TO.P,R2,2*%
%TO.N,Net-(Q2-Pad1)*%
%TA.AperFunction,SMDPad,CuDef*%
G36*
G01*
X122262500Y-97275000D02*
X122737500Y-97275000D01*
G75*
G02*
X122975000Y-97512500I0J-237500D01*
G01*
X122975000Y-98012500D01*
G75*
G02*
X122737500Y-98250000I-237500J0D01*
G01*
X122262500Y-98250000D01*
G75*
G02*
X122025000Y-98012500I0J237500D01*
G01*
X122025000Y-97512500D01*
G75*
G02*
X122262500Y-97275000I237500J0D01*
G01*
G37*
%TD.AperFunction*%
%TO.P,R2,1*%
%TO.N,ptt_control*%
%TA.AperFunction,SMDPad,CuDef*%
G36*
G01*
X122262500Y-95450000D02*
X122737500Y-95450000D01*
G75*
G02*
X122975000Y-95687500I0J-237500D01*
G01*
X122975000Y-96187500D01*
G75*
G02*
X122737500Y-96425000I-237500J0D01*
G01*
X122262500Y-96425000D01*
G75*
G02*
X122025000Y-96187500I0J237500D01*
G01*
X122025000Y-95687500D01*
G75*
G02*
X122262500Y-95450000I237500J0D01*
G01*
G37*
%TD.AperFunction*%
%TD*%
%TO.P,R1,2*%
%TO.N,Net-(J10-Pad2)*%
%TA.AperFunction,SMDPad,CuDef*%
G36*
G01*
X116262500Y-97185000D02*
X116737500Y-97185000D01*
G75*
G02*
X116975000Y-97422500I0J-237500D01*
G01*
X116975000Y-97922500D01*
G75*
G02*
X116737500Y-98160000I-237500J0D01*
G01*
X116262500Y-98160000D01*
G75*
G02*
X116025000Y-97922500I0J237500D01*
G01*
X116025000Y-97422500D01*
G75*
G02*
X116262500Y-97185000I237500J0D01*
G01*
G37*
%TD.AperFunction*%
%TO.P,R1,1*%
%TO.N,ptt_control*%
%TA.AperFunction,SMDPad,CuDef*%
G36*
G01*
X116262500Y-95360000D02*
X116737500Y-95360000D01*
G75*
G02*
X116975000Y-95597500I0J-237500D01*
G01*
X116975000Y-96097500D01*
G75*
G02*
X116737500Y-96335000I-237500J0D01*
G01*
X116262500Y-96335000D01*
G75*
G02*
X116025000Y-96097500I0J237500D01*
G01*
X116025000Y-95597500D01*
G75*
G02*
X116262500Y-95360000I237500J0D01*
G01*
G37*
%TD.AperFunction*%
%TD*%
D14*
%TO.P,Q4,1*%
%TO.N,Net-(Q4-Pad1)*%
X114450000Y-89550000D03*
%TO.P,Q4,2*%
%TO.N,GND*%
X112550000Y-89550000D03*
%TO.P,Q4,3*%
%TO.N,Net-(D4-Pad1)*%
X113500000Y-91650000D03*
%TD*%
%TO.P,Q3,1*%
%TO.N,Net-(Q3-Pad1)*%
X120450000Y-89550000D03*
%TO.P,Q3,2*%
%TO.N,GND*%
X118550000Y-89550000D03*
%TO.P,Q3,3*%
%TO.N,Net-(D3-Pad1)*%
X119500000Y-91650000D03*
%TD*%
%TO.P,Q2,1*%
%TO.N,Net-(Q2-Pad1)*%
X120450000Y-95800000D03*
%TO.P,Q2,2*%
%TO.N,GND*%
X118550000Y-95800000D03*
%TO.P,Q2,3*%
%TO.N,Net-(D2-Pad1)*%
X119500000Y-97900000D03*
%TD*%
%TO.P,Q1,1*%
%TO.N,Net-(J10-Pad2)*%
X114445000Y-95710000D03*
%TO.P,Q1,2*%
%TO.N,GND*%
X112545000Y-95710000D03*
%TO.P,Q1,3*%
%TO.N,ptt*%
X113495000Y-97810000D03*
%TD*%
D11*
%TO.P,J10,2*%
%TO.N,Net-(J10-Pad2)*%
X129960000Y-90850000D03*
D12*
%TO.P,J10,1*%
%TO.N,GND*%
X132500000Y-90850000D03*
%TD*%
D11*
%TO.P,J8,2*%
%TO.N,GND*%
X150000000Y-106850000D03*
D12*
%TO.P,J8,1*%
%TO.N,radio_speaker*%
X150000000Y-109390000D03*
%TD*%
D15*
%TO.P,J7,R1*%
%TO.N,GND*%
X142200000Y-105150000D03*
%TO.P,J7,R2*%
X142200000Y-108150000D03*
%TO.P,J7,T*%
%TO.N,radio_speaker*%
X142200000Y-101150000D03*
%TO.P,J7,S*%
%TO.N,GND*%
X146800000Y-100050000D03*
%TD*%
D11*
%TO.P,J6,2*%
%TO.N,GND*%
X136750000Y-106810000D03*
D12*
%TO.P,J6,1*%
%TO.N,audio_in*%
X136750000Y-109350000D03*
%TD*%
D15*
%TO.P,J5,R1*%
%TO.N,GND*%
X128950000Y-105150000D03*
%TO.P,J5,R2*%
X128950000Y-108150000D03*
%TO.P,J5,T*%
%TO.N,audio_in*%
X128950000Y-101150000D03*
%TO.P,J5,S*%
%TO.N,GND*%
X133550000Y-100050000D03*
%TD*%
D11*
%TO.P,J4,4*%
%TO.N,GND*%
X121000000Y-101730000D03*
%TO.P,J4,3*%
%TO.N,radio_speaker*%
X121000000Y-104270000D03*
%TO.P,J4,2*%
%TO.N,ptt*%
X121000000Y-106810000D03*
D12*
%TO.P,J4,1*%
%TO.N,radio_mic*%
X121000000Y-109350000D03*
%TD*%
D15*
%TO.P,J3,R1*%
%TO.N,ptt*%
X113200000Y-105150000D03*
%TO.P,J3,R2*%
%TO.N,radio_mic*%
X113200000Y-108150000D03*
%TO.P,J3,T*%
%TO.N,radio_speaker*%
X113200000Y-101150000D03*
%TO.P,J3,S*%
%TO.N,GND*%
X117800000Y-100050000D03*
%TD*%
D11*
%TO.P,J1,2*%
%TO.N,GND*%
X107160000Y-102800000D03*
D12*
%TO.P,J1,1*%
%TO.N,+BATT*%
X109700000Y-102800000D03*
%TD*%
%TO.P,D1,2*%
%TO.N,Net-(D1-Pad2)*%
%TA.AperFunction,SMDPad,CuDef*%
G36*
G01*
X107025000Y-89140000D02*
X107025000Y-90390000D01*
G75*
G02*
X106775000Y-90640000I-250000J0D01*
G01*
X106025000Y-90640000D01*
G75*
G02*
X105775000Y-90390000I0J250000D01*
G01*
X105775000Y-89140000D01*
G75*
G02*
X106025000Y-88890000I250000J0D01*
G01*
X106775000Y-88890000D01*
G75*
G02*
X107025000Y-89140000I0J-250000D01*
G01*
G37*
%TD.AperFunction*%
%TO.P,D1,1*%
%TO.N,GND*%
%TA.AperFunction,SMDPad,CuDef*%
G36*
G01*
X109825000Y-89140000D02*
X109825000Y-90390000D01*
G75*
G02*
X109575000Y-90640000I-250000J0D01*
G01*
X108825000Y-90640000D01*
G75*
G02*
X108575000Y-90390000I0J250000D01*
G01*
X108575000Y-89140000D01*
G75*
G02*
X108825000Y-88890000I250000J0D01*
G01*
X109575000Y-88890000D01*
G75*
G02*
X109825000Y-89140000I0J-250000D01*
G01*
G37*
%TD.AperFunction*%
%TD*%
%TO.P,D4,2*%
%TO.N,Net-(D4-Pad2)*%
%TA.AperFunction,SMDPad,CuDef*%
G36*
G01*
X107024800Y-96818000D02*
X107024800Y-98068000D01*
G75*
G02*
X106774800Y-98318000I-250000J0D01*
G01*
X106024800Y-98318000D01*
G75*
G02*
X105774800Y-98068000I0J250000D01*
G01*
X105774800Y-96818000D01*
G75*
G02*
X106024800Y-96568000I250000J0D01*
G01*
X106774800Y-96568000D01*
G75*
G02*
X107024800Y-96818000I0J-250000D01*
G01*
G37*
%TD.AperFunction*%
%TO.P,D4,1*%
%TO.N,Net-(D4-Pad1)*%
%TA.AperFunction,SMDPad,CuDef*%
G36*
G01*
X109824800Y-96818000D02*
X109824800Y-98068000D01*
G75*
G02*
X109574800Y-98318000I-250000J0D01*
G01*
X108824800Y-98318000D01*
G75*
G02*
X108574800Y-98068000I0J250000D01*
G01*
X108574800Y-96818000D01*
G75*
G02*
X108824800Y-96568000I250000J0D01*
G01*
X109574800Y-96568000D01*
G75*
G02*
X109824800Y-96818000I0J-250000D01*
G01*
G37*
%TD.AperFunction*%
%TD*%
%TO.P,D3,2*%
%TO.N,Net-(D3-Pad2)*%
%TA.AperFunction,SMDPad,CuDef*%
G36*
G01*
X107025000Y-91710000D02*
X107025000Y-92960000D01*
G75*
G02*
X106775000Y-93210000I-250000J0D01*
G01*
X106025000Y-93210000D01*
G75*
G02*
X105775000Y-92960000I0J250000D01*
G01*
X105775000Y-91710000D01*
G75*
G02*
X106025000Y-91460000I250000J0D01*
G01*
X106775000Y-91460000D01*
G75*
G02*
X107025000Y-91710000I0J-250000D01*
G01*
G37*
%TD.AperFunction*%
%TO.P,D3,1*%
%TO.N,Net-(D3-Pad1)*%
%TA.AperFunction,SMDPad,CuDef*%
G36*
G01*
X109825000Y-91710000D02*
X109825000Y-92960000D01*
G75*
G02*
X109575000Y-93210000I-250000J0D01*
G01*
X108825000Y-93210000D01*
G75*
G02*
X108575000Y-92960000I0J250000D01*
G01*
X108575000Y-91710000D01*
G75*
G02*
X108825000Y-91460000I250000J0D01*
G01*
X109575000Y-91460000D01*
G75*
G02*
X109825000Y-91710000I0J-250000D01*
G01*
G37*
%TD.AperFunction*%
%TD*%
%TO.P,D2,1*%
%TO.N,Net-(D2-Pad1)*%
%TA.AperFunction,SMDPad,CuDef*%
G36*
G01*
X109825000Y-94250000D02*
X109825000Y-95500000D01*
G75*
G02*
X109575000Y-95750000I-250000J0D01*
G01*
X108825000Y-95750000D01*
G75*
G02*
X108575000Y-95500000I0J250000D01*
G01*
X108575000Y-94250000D01*
G75*
G02*
X108825000Y-94000000I250000J0D01*
G01*
X109575000Y-94000000D01*
G75*
G02*
X109825000Y-94250000I0J-250000D01*
G01*
G37*
%TD.AperFunction*%
%TO.P,D2,2*%
%TO.N,Net-(D2-Pad2)*%
%TA.AperFunction,SMDPad,CuDef*%
G36*
G01*
X107025000Y-94250000D02*
X107025000Y-95500000D01*
G75*
G02*
X106775000Y-95750000I-250000J0D01*
G01*
X106025000Y-95750000D01*
G75*
G02*
X105775000Y-95500000I0J250000D01*
G01*
X105775000Y-94250000D01*
G75*
G02*
X106025000Y-94000000I250000J0D01*
G01*
X106775000Y-94000000D01*
G75*
G02*
X107025000Y-94250000I0J-250000D01*
G01*
G37*
%TD.AperFunction*%
%TD*%
D16*
%TO.N,GND*%
X111700000Y-93700000D03*
X117400000Y-103900000D03*
X117400000Y-106600000D03*
X125900000Y-102300000D03*
X127400000Y-91000000D03*
%TO.N,Net-(D1-Pad2)*%
X105157400Y-89765000D03*
%TO.N,Net-(D2-Pad2)*%
X105162000Y-94875000D03*
%TO.N,Net-(D3-Pad2)*%
X105162000Y-92335000D03*
%TO.N,Net-(D4-Pad2)*%
X105164600Y-97443000D03*
%TD*%
D17*
%TO.N,GND*%
X115699990Y-89204500D02*
X117004500Y-87899990D01*
X121610010Y-87899990D02*
X123160000Y-86350000D01*
X117004500Y-87899990D02*
X121610010Y-87899990D01*
X115700010Y-90500010D02*
X117599990Y-90500010D01*
X115699990Y-90499990D02*
X115700010Y-90500010D01*
X115699990Y-89204500D02*
X115699990Y-90499990D01*
X117599990Y-90500010D02*
X118550000Y-89550000D01*
X115070489Y-88574999D02*
X115699990Y-89204500D01*
X113525001Y-88574999D02*
X115070489Y-88574999D01*
X112550000Y-89550000D02*
X113525001Y-88574999D01*
X121000000Y-97864998D02*
X121000000Y-101730000D01*
X118935002Y-95800000D02*
X121000000Y-97864998D01*
X118550000Y-95800000D02*
X118935002Y-95800000D01*
X118935002Y-89550000D02*
X120900000Y-91514998D01*
X118550000Y-89550000D02*
X118935002Y-89550000D01*
X120900000Y-91514998D02*
X120900000Y-92200000D01*
X120900000Y-92200000D02*
X121500000Y-92800000D01*
X125600000Y-92800000D02*
X127400000Y-91000000D01*
X121500000Y-92800000D02*
X125600000Y-92800000D01*
%TO.N,Net-(D1-Pad2)*%
X106400000Y-89765000D02*
X105157400Y-89765000D01*
X105157400Y-89765000D02*
X105157400Y-89765000D01*
%TO.N,Net-(D2-Pad2)*%
X106400000Y-94875000D02*
X105162000Y-94875000D01*
X105162000Y-94875000D02*
X105162000Y-94875000D01*
%TO.N,Net-(D2-Pad1)*%
X111010001Y-96685001D02*
X109200000Y-94875000D01*
X115705012Y-98485010D02*
X113905003Y-96685001D01*
X118914990Y-98485010D02*
X115705012Y-98485010D01*
X113905003Y-96685001D02*
X111010001Y-96685001D01*
X119500000Y-97900000D02*
X118914990Y-98485010D01*
%TO.N,Net-(D3-Pad2)*%
X106400000Y-92335000D02*
X105162000Y-92335000D01*
X105162000Y-92335000D02*
X105162000Y-92335000D01*
%TO.N,Net-(D3-Pad1)*%
X109490001Y-92625001D02*
X109200000Y-92335000D01*
X118524999Y-92625001D02*
X109490001Y-92625001D01*
X119500000Y-91650000D02*
X118524999Y-92625001D01*
%TO.N,rx_feedback*%
X132144999Y-84985001D02*
X133320000Y-83810000D01*
X132144999Y-86724003D02*
X132144999Y-84985001D01*
X129181502Y-89687500D02*
X132144999Y-86724003D01*
X122500000Y-89687500D02*
X129181502Y-89687500D01*
%TO.N,ptt_control*%
X131485012Y-94149990D02*
X124450010Y-94149990D01*
X137035001Y-88600001D02*
X131485012Y-94149990D01*
X137035001Y-85174999D02*
X137035001Y-88600001D01*
X138400000Y-83810000D02*
X137035001Y-85174999D01*
X122662500Y-95937500D02*
X122500000Y-95937500D01*
X124450010Y-94149990D02*
X122662500Y-95937500D01*
X117522501Y-94824999D02*
X116500000Y-95847500D01*
X122500000Y-95937500D02*
X121387499Y-94824999D01*
X121387499Y-94824999D02*
X117522501Y-94824999D01*
%TO.N,gps_pps*%
X129604999Y-86724003D02*
X127979002Y-88350000D01*
X129604999Y-84985001D02*
X129604999Y-86724003D01*
X130780000Y-83810000D02*
X129604999Y-84985001D01*
X127979002Y-88350000D02*
X117250000Y-88350000D01*
X116500000Y-89100000D02*
X117250000Y-88350000D01*
X116500000Y-89687500D02*
X116500000Y-89100000D01*
%TO.N,ptt*%
X119340000Y-105150000D02*
X121000000Y-106810000D01*
X113200000Y-105150000D02*
X119340000Y-105150000D01*
X112074990Y-99230010D02*
X113495000Y-97810000D01*
X112074990Y-104024990D02*
X112074990Y-99230010D01*
X113200000Y-105150000D02*
X112074990Y-104024990D01*
%TO.N,radio_mic*%
X119800000Y-108150000D02*
X113200000Y-108150000D01*
X121000000Y-109350000D02*
X119800000Y-108150000D01*
X127250000Y-103100000D02*
X121000000Y-109350000D01*
X127250000Y-97962500D02*
X127250000Y-103100000D01*
%TO.N,radio_speaker*%
X118105010Y-101375010D02*
X121000000Y-104270000D01*
X113425010Y-101375010D02*
X118105010Y-101375010D01*
X113200000Y-101150000D02*
X113425010Y-101375010D01*
X142200000Y-101590000D02*
X142200000Y-101150000D01*
X150000000Y-109390000D02*
X142200000Y-101590000D01*
X142200000Y-99900000D02*
X136900000Y-94600000D01*
X142200000Y-101150000D02*
X142200000Y-99900000D01*
X127554490Y-94600000D02*
X136900000Y-94600000D01*
X122175001Y-99979489D02*
X127554490Y-94600000D01*
X122175001Y-103094999D02*
X122175001Y-99979489D01*
X121000000Y-104270000D02*
X122175001Y-103094999D01*
%TO.N,Net-(J10-Pad2)*%
X116407500Y-97672500D02*
X114445000Y-95710000D01*
X116500000Y-97672500D02*
X116407500Y-97672500D01*
X127110020Y-93699980D02*
X129960000Y-90850000D01*
X116455020Y-93699980D02*
X127110020Y-93699980D01*
X114445000Y-95710000D02*
X116455020Y-93699980D01*
%TO.N,Net-(Q2-Pad1)*%
X122412500Y-97762500D02*
X120450000Y-95800000D01*
X122500000Y-97762500D02*
X122412500Y-97762500D01*
%TO.N,Net-(Q3-Pad1)*%
X122412500Y-91512500D02*
X120450000Y-89550000D01*
X122500000Y-91512500D02*
X122412500Y-91512500D01*
%TO.N,Net-(Q4-Pad1)*%
X116500000Y-91512500D02*
X116412500Y-91512500D01*
X114450000Y-89550000D02*
X114450000Y-90850000D01*
X115112500Y-91512500D02*
X116500000Y-91512500D01*
X114450000Y-90850000D02*
X115112500Y-91512500D01*
%TO.N,audio_in*%
X128950000Y-101550000D02*
X128950000Y-101150000D01*
X136750000Y-109350000D02*
X128950000Y-101550000D01*
X130000000Y-101150000D02*
X135050000Y-96100000D01*
X135050000Y-96100000D02*
X135750000Y-96100000D01*
X128950000Y-101150000D02*
X130000000Y-101150000D01*
%TO.N,Net-(C4-Pad1)*%
X128252245Y-97239745D02*
X127250000Y-96237500D01*
X132070255Y-97239745D02*
X128252245Y-97239745D01*
X133210000Y-96100000D02*
X132070255Y-97239745D01*
%TO.N,Net-(D4-Pad2)*%
X106399800Y-97443000D02*
X105164600Y-97443000D01*
X105164600Y-97443000D02*
X105164600Y-97443000D01*
%TO.N,Net-(D4-Pad1)*%
X112984990Y-91134990D02*
X113500000Y-91650000D01*
X108586820Y-91134990D02*
X112984990Y-91134990D01*
X108249990Y-91471820D02*
X108586820Y-91134990D01*
X108249990Y-96493190D02*
X108249990Y-91471820D01*
X109199800Y-97443000D02*
X108249990Y-96493190D01*
%TD*%
D18*
%TO.N,GND*%
X169090000Y-84632418D02*
X169090001Y-84632428D01*
X169090000Y-108067581D01*
X169090000Y-108067582D01*
X169090001Y-111040000D01*
X105160000Y-111040000D01*
X105160000Y-107882032D01*
X106120000Y-107882032D01*
X106120000Y-108277968D01*
X106197243Y-108666296D01*
X106348761Y-109032092D01*
X106568731Y-109361301D01*
X106848699Y-109641269D01*
X107177908Y-109861239D01*
X107543704Y-110012757D01*
X107932032Y-110090000D01*
X108327968Y-110090000D01*
X108716296Y-110012757D01*
X109082092Y-109861239D01*
X109411301Y-109641269D01*
X109691269Y-109361301D01*
X109911239Y-109032092D01*
X110062757Y-108666296D01*
X110140000Y-108277968D01*
X110140000Y-107882032D01*
X110062757Y-107493704D01*
X109911239Y-107127908D01*
X109691269Y-106798699D01*
X109411301Y-106518731D01*
X109082092Y-106298761D01*
X108716296Y-106147243D01*
X108327968Y-106070000D01*
X107932032Y-106070000D01*
X107543704Y-106147243D01*
X107177908Y-106298761D01*
X106848699Y-106518731D01*
X106568731Y-106798699D01*
X106348761Y-107127908D01*
X106197243Y-107493704D01*
X106120000Y-107882032D01*
X105160000Y-107882032D01*
X105160000Y-103156891D01*
X105718519Y-103156891D01*
X105815843Y-103431252D01*
X105964822Y-103681355D01*
X106159731Y-103897588D01*
X106393080Y-104071641D01*
X106655901Y-104196825D01*
X106803110Y-104241476D01*
X107033000Y-104120155D01*
X107033000Y-102927000D01*
X105839186Y-102927000D01*
X105718519Y-103156891D01*
X105160000Y-103156891D01*
X105160000Y-102443109D01*
X105718519Y-102443109D01*
X105839186Y-102673000D01*
X107033000Y-102673000D01*
X107033000Y-101479845D01*
X107287000Y-101479845D01*
X107287000Y-102673000D01*
X107307000Y-102673000D01*
X107307000Y-102927000D01*
X107287000Y-102927000D01*
X107287000Y-104120155D01*
X107516890Y-104241476D01*
X107664099Y-104196825D01*
X107926920Y-104071641D01*
X108160269Y-103897588D01*
X108236034Y-103813534D01*
X108260498Y-103894180D01*
X108319463Y-104004494D01*
X108398815Y-104101185D01*
X108495506Y-104180537D01*
X108605820Y-104239502D01*
X108725518Y-104275812D01*
X108850000Y-104288072D01*
X110550000Y-104288072D01*
X110674482Y-104275812D01*
X110794180Y-104239502D01*
X110904494Y-104180537D01*
X111001185Y-104101185D01*
X111080537Y-104004494D01*
X111139502Y-103894180D01*
X111175812Y-103774482D01*
X111188072Y-103650000D01*
X111188072Y-101950000D01*
X111175812Y-101825518D01*
X111139502Y-101705820D01*
X111080537Y-101595506D01*
X111001185Y-101498815D01*
X110904494Y-101419463D01*
X110794180Y-101360498D01*
X110674482Y-101324188D01*
X110550000Y-101311928D01*
X108850000Y-101311928D01*
X108725518Y-101324188D01*
X108605820Y-101360498D01*
X108495506Y-101419463D01*
X108398815Y-101498815D01*
X108319463Y-101595506D01*
X108260498Y-101705820D01*
X108236034Y-101786466D01*
X108160269Y-101702412D01*
X107926920Y-101528359D01*
X107664099Y-101403175D01*
X107516890Y-101358524D01*
X107287000Y-101479845D01*
X107033000Y-101479845D01*
X106803110Y-101358524D01*
X106655901Y-101403175D01*
X106393080Y-101528359D01*
X106159731Y-101702412D01*
X105964822Y-101918645D01*
X105815843Y-102168748D01*
X105718519Y-102443109D01*
X105160000Y-102443109D01*
X105160000Y-98478000D01*
X105241824Y-98478000D01*
X105286395Y-98561386D01*
X105396838Y-98695962D01*
X105531414Y-98806405D01*
X105684950Y-98888472D01*
X105851546Y-98939008D01*
X106024800Y-98956072D01*
X106774800Y-98956072D01*
X106948054Y-98939008D01*
X107114650Y-98888472D01*
X107268186Y-98806405D01*
X107402762Y-98695962D01*
X107513205Y-98561386D01*
X107595272Y-98407850D01*
X107645808Y-98241254D01*
X107662872Y-98068000D01*
X107662872Y-96975778D01*
X107709989Y-97033191D01*
X107738992Y-97056994D01*
X107936728Y-97254729D01*
X107936728Y-98068000D01*
X107953792Y-98241254D01*
X108004328Y-98407850D01*
X108086395Y-98561386D01*
X108196838Y-98695962D01*
X108331414Y-98806405D01*
X108484950Y-98888472D01*
X108651546Y-98939008D01*
X108824800Y-98956072D01*
X109574800Y-98956072D01*
X109748054Y-98939008D01*
X109914650Y-98888472D01*
X110068186Y-98806405D01*
X110202762Y-98695962D01*
X110313205Y-98561386D01*
X110395272Y-98407850D01*
X110445808Y-98241254D01*
X110462872Y-98068000D01*
X110462872Y-97216317D01*
X110470000Y-97225002D01*
X110498998Y-97248800D01*
X110585724Y-97319975D01*
X110706003Y-97384266D01*
X110717754Y-97390547D01*
X110861015Y-97434004D01*
X110972668Y-97445001D01*
X110972678Y-97445001D01*
X111010001Y-97448677D01*
X111047324Y-97445001D01*
X112556928Y-97445001D01*
X112556928Y-97673270D01*
X111563988Y-98666211D01*
X111534990Y-98690009D01*
X111511192Y-98719007D01*
X111511191Y-98719008D01*
X111440016Y-98805734D01*
X111369444Y-98937764D01*
X111369067Y-98939008D01*
X111325988Y-99081024D01*
X111320369Y-99138072D01*
X111311314Y-99230010D01*
X111314991Y-99267342D01*
X111314990Y-103987667D01*
X111311314Y-104024990D01*
X111314990Y-104062312D01*
X111314990Y-104062322D01*
X111325987Y-104173975D01*
X111369444Y-104317236D01*
X111440016Y-104449266D01*
X111479861Y-104497816D01*
X111534989Y-104564991D01*
X111563992Y-104588793D01*
X111773043Y-104797845D01*
X111765000Y-104879508D01*
X111765000Y-105420491D01*
X111785764Y-105631308D01*
X111867818Y-105901807D01*
X112001068Y-106151100D01*
X112180392Y-106369607D01*
X112398899Y-106548932D01*
X112587984Y-106650000D01*
X112398900Y-106751068D01*
X112180393Y-106930392D01*
X112001068Y-107148899D01*
X111867818Y-107398192D01*
X111785764Y-107668691D01*
X111765000Y-107879508D01*
X111765000Y-108420491D01*
X111785764Y-108631308D01*
X111867818Y-108901807D01*
X112001068Y-109151100D01*
X112180392Y-109369607D01*
X112398899Y-109548932D01*
X112648192Y-109682182D01*
X112918691Y-109764236D01*
X113200000Y-109791943D01*
X113481308Y-109764236D01*
X113751807Y-109682182D01*
X114001100Y-109548932D01*
X114219607Y-109369608D01*
X114398932Y-109151101D01*
X114527803Y-108910000D01*
X114894198Y-108910000D01*
X114840226Y-108946063D01*
X114696063Y-109090226D01*
X114582795Y-109259744D01*
X114504774Y-109448102D01*
X114465000Y-109648061D01*
X114465000Y-109851939D01*
X114504774Y-110051898D01*
X114582795Y-110240256D01*
X114696063Y-110409774D01*
X114840226Y-110553937D01*
X115009744Y-110667205D01*
X115198102Y-110745226D01*
X115398061Y-110785000D01*
X115601939Y-110785000D01*
X115801898Y-110745226D01*
X115990256Y-110667205D01*
X116159774Y-110553937D01*
X116303937Y-110409774D01*
X116417205Y-110240256D01*
X116495226Y-110051898D01*
X116535000Y-109851939D01*
X116535000Y-109648061D01*
X116495226Y-109448102D01*
X116417205Y-109259744D01*
X116303937Y-109090226D01*
X116159774Y-108946063D01*
X116105802Y-108910000D01*
X119485199Y-108910000D01*
X119511928Y-108936729D01*
X119511928Y-110200000D01*
X119524188Y-110324482D01*
X119560498Y-110444180D01*
X119619463Y-110554494D01*
X119698815Y-110651185D01*
X119795506Y-110730537D01*
X119905820Y-110789502D01*
X120025518Y-110825812D01*
X120150000Y-110838072D01*
X121850000Y-110838072D01*
X121974482Y-110825812D01*
X122094180Y-110789502D01*
X122204494Y-110730537D01*
X122301185Y-110651185D01*
X122380537Y-110554494D01*
X122439502Y-110444180D01*
X122475812Y-110324482D01*
X122488072Y-110200000D01*
X122488072Y-108936729D01*
X122921914Y-108502887D01*
X127518063Y-108502887D01*
X127575404Y-108779306D01*
X127685570Y-109039227D01*
X127844327Y-109272662D01*
X128045575Y-109470639D01*
X128281579Y-109625551D01*
X128543270Y-109731444D01*
X128600961Y-109741904D01*
X128823000Y-109619915D01*
X128823000Y-108277000D01*
X129077000Y-108277000D01*
X129077000Y-109619915D01*
X129299039Y-109741904D01*
X129356730Y-109731444D01*
X129562792Y-109648061D01*
X130215000Y-109648061D01*
X130215000Y-109851939D01*
X130254774Y-110051898D01*
X130332795Y-110240256D01*
X130446063Y-110409774D01*
X130590226Y-110553937D01*
X130759744Y-110667205D01*
X130948102Y-110745226D01*
X131148061Y-110785000D01*
X131351939Y-110785000D01*
X131551898Y-110745226D01*
X131740256Y-110667205D01*
X131909774Y-110553937D01*
X132053937Y-110409774D01*
X132167205Y-110240256D01*
X132245226Y-110051898D01*
X132285000Y-109851939D01*
X132285000Y-109648061D01*
X132245226Y-109448102D01*
X132167205Y-109259744D01*
X132053937Y-109090226D01*
X131909774Y-108946063D01*
X131740256Y-108832795D01*
X131551898Y-108754774D01*
X131351939Y-108715000D01*
X131148061Y-108715000D01*
X130948102Y-108754774D01*
X130759744Y-108832795D01*
X130590226Y-108946063D01*
X130446063Y-109090226D01*
X130332795Y-109259744D01*
X130254774Y-109448102D01*
X130215000Y-109648061D01*
X129562792Y-109648061D01*
X129618421Y-109625551D01*
X129854425Y-109470639D01*
X130055673Y-109272662D01*
X130214430Y-109039227D01*
X130324596Y-108779306D01*
X130381937Y-108502887D01*
X130229474Y-108277000D01*
X129077000Y-108277000D01*
X128823000Y-108277000D01*
X127670526Y-108277000D01*
X127518063Y-108502887D01*
X122921914Y-108502887D01*
X125921914Y-105502887D01*
X127518063Y-105502887D01*
X127575404Y-105779306D01*
X127685570Y-106039227D01*
X127844327Y-106272662D01*
X128045575Y-106470639D01*
X128281579Y-106625551D01*
X128341999Y-106650000D01*
X128281579Y-106674449D01*
X128045575Y-106829361D01*
X127844327Y-107027338D01*
X127685570Y-107260773D01*
X127575404Y-107520694D01*
X127518063Y-107797113D01*
X127670526Y-108023000D01*
X128823000Y-108023000D01*
X128823000Y-106680085D01*
X128768241Y-106650000D01*
X128823000Y-106619915D01*
X128823000Y-105277000D01*
X129077000Y-105277000D01*
X129077000Y-106619915D01*
X129131759Y-106650000D01*
X129077000Y-106680085D01*
X129077000Y-108023000D01*
X130229474Y-108023000D01*
X130381937Y-107797113D01*
X130324596Y-107520694D01*
X130214430Y-107260773D01*
X130055673Y-107027338D01*
X129854425Y-106829361D01*
X129618421Y-106674449D01*
X129558001Y-106650000D01*
X129618421Y-106625551D01*
X129854425Y-106470639D01*
X130055673Y-106272662D01*
X130214430Y-106039227D01*
X130324596Y-105779306D01*
X130381937Y-105502887D01*
X130229474Y-105277000D01*
X129077000Y-105277000D01*
X128823000Y-105277000D01*
X127670526Y-105277000D01*
X127518063Y-105502887D01*
X125921914Y-105502887D01*
X126627688Y-104797113D01*
X127518063Y-104797113D01*
X127670526Y-105023000D01*
X128823000Y-105023000D01*
X128823000Y-103680085D01*
X129077000Y-103680085D01*
X129077000Y-105023000D01*
X130229474Y-105023000D01*
X130381937Y-104797113D01*
X130324596Y-104520694D01*
X130214430Y-104260773D01*
X130055673Y-104027338D01*
X129854425Y-103829361D01*
X129618421Y-103674449D01*
X129356730Y-103568556D01*
X129299039Y-103558096D01*
X129077000Y-103680085D01*
X128823000Y-103680085D01*
X128600961Y-103558096D01*
X128543270Y-103568556D01*
X128281579Y-103674449D01*
X128045575Y-103829361D01*
X127844327Y-104027338D01*
X127685570Y-104260773D01*
X127575404Y-104520694D01*
X127518063Y-104797113D01*
X126627688Y-104797113D01*
X127761003Y-103663799D01*
X127790001Y-103640001D01*
X127884974Y-103524276D01*
X127955546Y-103392247D01*
X127999003Y-103248986D01*
X128010000Y-103137333D01*
X128010000Y-103137325D01*
X128013676Y-103100000D01*
X128010000Y-103062675D01*
X128010000Y-102434940D01*
X128148899Y-102548932D01*
X128398192Y-102682182D01*
X128668691Y-102764236D01*
X128950000Y-102791943D01*
X129102156Y-102776957D01*
X135261928Y-108936730D01*
X135261928Y-110200000D01*
X135274188Y-110324482D01*
X135310498Y-110444180D01*
X135369463Y-110554494D01*
X135448815Y-110651185D01*
X135545506Y-110730537D01*
X135655820Y-110789502D01*
X135775518Y-110825812D01*
X135900000Y-110838072D01*
X137600000Y-110838072D01*
X137724482Y-110825812D01*
X137844180Y-110789502D01*
X137954494Y-110730537D01*
X138051185Y-110651185D01*
X138130537Y-110554494D01*
X138189502Y-110444180D01*
X138225812Y-110324482D01*
X138238072Y-110200000D01*
X138238072Y-108502887D01*
X140768063Y-108502887D01*
X140825404Y-108779306D01*
X140935570Y-109039227D01*
X141094327Y-109272662D01*
X141295575Y-109470639D01*
X141531579Y-109625551D01*
X141793270Y-109731444D01*
X141850961Y-109741904D01*
X142073000Y-109619915D01*
X142073000Y-108277000D01*
X142327000Y-108277000D01*
X142327000Y-109619915D01*
X142549039Y-109741904D01*
X142606730Y-109731444D01*
X142812792Y-109648061D01*
X143465000Y-109648061D01*
X143465000Y-109851939D01*
X143504774Y-110051898D01*
X143582795Y-110240256D01*
X143696063Y-110409774D01*
X143840226Y-110553937D01*
X144009744Y-110667205D01*
X144198102Y-110745226D01*
X144398061Y-110785000D01*
X144601939Y-110785000D01*
X144801898Y-110745226D01*
X144990256Y-110667205D01*
X145159774Y-110553937D01*
X145303937Y-110409774D01*
X145417205Y-110240256D01*
X145495226Y-110051898D01*
X145535000Y-109851939D01*
X145535000Y-109648061D01*
X145495226Y-109448102D01*
X145417205Y-109259744D01*
X145303937Y-109090226D01*
X145159774Y-108946063D01*
X144990256Y-108832795D01*
X144801898Y-108754774D01*
X144601939Y-108715000D01*
X144398061Y-108715000D01*
X144198102Y-108754774D01*
X144009744Y-108832795D01*
X143840226Y-108946063D01*
X143696063Y-109090226D01*
X143582795Y-109259744D01*
X143504774Y-109448102D01*
X143465000Y-109648061D01*
X142812792Y-109648061D01*
X142868421Y-109625551D01*
X143104425Y-109470639D01*
X143305673Y-109272662D01*
X143464430Y-109039227D01*
X143574596Y-108779306D01*
X143631937Y-108502887D01*
X143479474Y-108277000D01*
X142327000Y-108277000D01*
X142073000Y-108277000D01*
X140920526Y-108277000D01*
X140768063Y-108502887D01*
X138238072Y-108502887D01*
X138238072Y-108500000D01*
X138225812Y-108375518D01*
X138189502Y-108255820D01*
X138130537Y-108145506D01*
X138051185Y-108048815D01*
X137954494Y-107969463D01*
X137844180Y-107910498D01*
X137763534Y-107886034D01*
X137847588Y-107810269D01*
X138021641Y-107576920D01*
X138146825Y-107314099D01*
X138191476Y-107166890D01*
X138070155Y-106937000D01*
X136877000Y-106937000D01*
X136877000Y-106957000D01*
X136623000Y-106957000D01*
X136623000Y-106937000D01*
X136603000Y-106937000D01*
X136603000Y-106683000D01*
X136623000Y-106683000D01*
X136623000Y-105489186D01*
X136877000Y-105489186D01*
X136877000Y-106683000D01*
X138070155Y-106683000D01*
X138191476Y-106453110D01*
X138146825Y-106305901D01*
X138021641Y-106043080D01*
X137847588Y-105809731D01*
X137631355Y-105614822D01*
X137443441Y-105502887D01*
X140768063Y-105502887D01*
X140825404Y-105779306D01*
X140935570Y-106039227D01*
X141094327Y-106272662D01*
X141295575Y-106470639D01*
X141531579Y-106625551D01*
X141591999Y-106650000D01*
X141531579Y-106674449D01*
X141295575Y-106829361D01*
X141094327Y-107027338D01*
X140935570Y-107260773D01*
X140825404Y-107520694D01*
X140768063Y-107797113D01*
X140920526Y-108023000D01*
X142073000Y-108023000D01*
X142073000Y-106680085D01*
X142018241Y-106650000D01*
X142073000Y-106619915D01*
X142073000Y-105277000D01*
X142327000Y-105277000D01*
X142327000Y-106619915D01*
X142381759Y-106650000D01*
X142327000Y-106680085D01*
X142327000Y-108023000D01*
X143479474Y-108023000D01*
X143631937Y-107797113D01*
X143574596Y-107520694D01*
X143464430Y-107260773D01*
X143305673Y-107027338D01*
X143104425Y-106829361D01*
X142868421Y-106674449D01*
X142808001Y-106650000D01*
X142868421Y-106625551D01*
X143104425Y-106470639D01*
X143305673Y-106272662D01*
X143464430Y-106039227D01*
X143574596Y-105779306D01*
X143631937Y-105502887D01*
X143479474Y-105277000D01*
X142327000Y-105277000D01*
X142073000Y-105277000D01*
X140920526Y-105277000D01*
X140768063Y-105502887D01*
X137443441Y-105502887D01*
X137381252Y-105465843D01*
X137106891Y-105368519D01*
X136877000Y-105489186D01*
X136623000Y-105489186D01*
X136393109Y-105368519D01*
X136118748Y-105465843D01*
X135868645Y-105614822D01*
X135652412Y-105809731D01*
X135478359Y-106043080D01*
X135353175Y-106305901D01*
X135308524Y-106453110D01*
X135429844Y-106682998D01*
X135265000Y-106682998D01*
X135265000Y-106790198D01*
X133271915Y-104797113D01*
X140768063Y-104797113D01*
X140920526Y-105023000D01*
X142073000Y-105023000D01*
X142073000Y-103680085D01*
X142327000Y-103680085D01*
X142327000Y-105023000D01*
X143479474Y-105023000D01*
X143631937Y-104797113D01*
X143574596Y-104520694D01*
X143464430Y-104260773D01*
X143305673Y-104027338D01*
X143104425Y-103829361D01*
X142868421Y-103674449D01*
X142606730Y-103568556D01*
X142549039Y-103558096D01*
X142327000Y-103680085D01*
X142073000Y-103680085D01*
X141850961Y-103558096D01*
X141793270Y-103568556D01*
X141531579Y-103674449D01*
X141295575Y-103829361D01*
X141094327Y-104027338D01*
X140935570Y-104260773D01*
X140825404Y-104520694D01*
X140768063Y-104797113D01*
X133271915Y-104797113D01*
X131969256Y-103494455D01*
X132053937Y-103409774D01*
X132167205Y-103240256D01*
X132245226Y-103051898D01*
X132285000Y-102851939D01*
X132285000Y-102648061D01*
X132245226Y-102448102D01*
X132167205Y-102259744D01*
X132053937Y-102090226D01*
X131909774Y-101946063D01*
X131740256Y-101832795D01*
X131551898Y-101754774D01*
X131351939Y-101715000D01*
X131148061Y-101715000D01*
X130948102Y-101754774D01*
X130759744Y-101832795D01*
X130590226Y-101946063D01*
X130505545Y-102030744D01*
X130317076Y-101842275D01*
X130424276Y-101784974D01*
X130540001Y-101690001D01*
X130563804Y-101660997D01*
X132115000Y-100109802D01*
X132115000Y-100177002D01*
X132270525Y-100177002D01*
X132118063Y-100402887D01*
X132175404Y-100679306D01*
X132285570Y-100939227D01*
X132444327Y-101172662D01*
X132645575Y-101370639D01*
X132881579Y-101525551D01*
X133143270Y-101631444D01*
X133200961Y-101641904D01*
X133423000Y-101519915D01*
X133423000Y-100177000D01*
X133677000Y-100177000D01*
X133677000Y-101519915D01*
X133899039Y-101641904D01*
X133956730Y-101631444D01*
X134218421Y-101525551D01*
X134454425Y-101370639D01*
X134655673Y-101172662D01*
X134814430Y-100939227D01*
X134924596Y-100679306D01*
X134981937Y-100402887D01*
X134829474Y-100177000D01*
X133677000Y-100177000D01*
X133423000Y-100177000D01*
X133403000Y-100177000D01*
X133403000Y-99923000D01*
X133423000Y-99923000D01*
X133423000Y-99903000D01*
X133677000Y-99903000D01*
X133677000Y-99923000D01*
X134829474Y-99923000D01*
X134981937Y-99697113D01*
X134924596Y-99420694D01*
X134814430Y-99160773D01*
X134655673Y-98927338D01*
X134454425Y-98729361D01*
X134218421Y-98574449D01*
X133956730Y-98468556D01*
X133899039Y-98458096D01*
X133677002Y-98580084D01*
X133677002Y-98547800D01*
X134997778Y-97227025D01*
X135108167Y-97300785D01*
X135354761Y-97402928D01*
X135616544Y-97455000D01*
X135883456Y-97455000D01*
X136145239Y-97402928D01*
X136391833Y-97300785D01*
X136613762Y-97152497D01*
X136802497Y-96963762D01*
X136950785Y-96741833D01*
X137052928Y-96495239D01*
X137105000Y-96233456D01*
X137105000Y-95966544D01*
X137083461Y-95858263D01*
X141169213Y-99944015D01*
X141001068Y-100148899D01*
X140867818Y-100398192D01*
X140785764Y-100668691D01*
X140765000Y-100879508D01*
X140765000Y-101420491D01*
X140785764Y-101631308D01*
X140867818Y-101901807D01*
X141001068Y-102151100D01*
X141180392Y-102369607D01*
X141398899Y-102548932D01*
X141648192Y-102682182D01*
X141918691Y-102764236D01*
X142200000Y-102791943D01*
X142315742Y-102780543D01*
X148511928Y-108976730D01*
X148511928Y-110240000D01*
X148524188Y-110364482D01*
X148560498Y-110484180D01*
X148619463Y-110594494D01*
X148698815Y-110691185D01*
X148795506Y-110770537D01*
X148905820Y-110829502D01*
X149025518Y-110865812D01*
X149150000Y-110878072D01*
X150850000Y-110878072D01*
X150974482Y-110865812D01*
X151094180Y-110829502D01*
X151204494Y-110770537D01*
X151301185Y-110691185D01*
X151380537Y-110594494D01*
X151439502Y-110484180D01*
X151475812Y-110364482D01*
X151488072Y-110240000D01*
X151488072Y-108540000D01*
X151475812Y-108415518D01*
X151439502Y-108295820D01*
X151380537Y-108185506D01*
X151301185Y-108088815D01*
X151204494Y-108009463D01*
X151094180Y-107950498D01*
X151013534Y-107926034D01*
X151062349Y-107882032D01*
X164120000Y-107882032D01*
X164120000Y-108277968D01*
X164197243Y-108666296D01*
X164348761Y-109032092D01*
X164568731Y-109361301D01*
X164848699Y-109641269D01*
X165177908Y-109861239D01*
X165543704Y-110012757D01*
X165932032Y-110090000D01*
X166327968Y-110090000D01*
X166716296Y-110012757D01*
X167082092Y-109861239D01*
X167411301Y-109641269D01*
X167691269Y-109361301D01*
X167911239Y-109032092D01*
X168062757Y-108666296D01*
X168140000Y-108277968D01*
X168140000Y-107882032D01*
X168062757Y-107493704D01*
X167911239Y-107127908D01*
X167691269Y-106798699D01*
X167411301Y-106518731D01*
X167082092Y-106298761D01*
X166716296Y-106147243D01*
X166327968Y-106070000D01*
X165932032Y-106070000D01*
X165543704Y-106147243D01*
X165177908Y-106298761D01*
X164848699Y-106518731D01*
X164568731Y-106798699D01*
X164348761Y-107127908D01*
X164197243Y-107493704D01*
X164120000Y-107882032D01*
X151062349Y-107882032D01*
X151097588Y-107850269D01*
X151271641Y-107616920D01*
X151396825Y-107354099D01*
X151441476Y-107206890D01*
X151320155Y-106977000D01*
X150127000Y-106977000D01*
X150127000Y-106997000D01*
X149873000Y-106997000D01*
X149873000Y-106977000D01*
X149853000Y-106977000D01*
X149853000Y-106723000D01*
X149873000Y-106723000D01*
X149873000Y-105529186D01*
X150127000Y-105529186D01*
X150127000Y-106723000D01*
X151320155Y-106723000D01*
X151441476Y-106493110D01*
X151396825Y-106345901D01*
X151271641Y-106083080D01*
X151097588Y-105849731D01*
X150881355Y-105654822D01*
X150631252Y-105505843D01*
X150356891Y-105408519D01*
X150127000Y-105529186D01*
X149873000Y-105529186D01*
X149643109Y-105408519D01*
X149368748Y-105505843D01*
X149118645Y-105654822D01*
X148902412Y-105849731D01*
X148728359Y-106083080D01*
X148603175Y-106345901D01*
X148558524Y-106493110D01*
X148679844Y-106722998D01*
X148515000Y-106722998D01*
X148515000Y-106830198D01*
X145199256Y-103514455D01*
X145303937Y-103409774D01*
X145417205Y-103240256D01*
X145495226Y-103051898D01*
X145535000Y-102851939D01*
X145535000Y-102648061D01*
X145495226Y-102448102D01*
X145417205Y-102259744D01*
X145303937Y-102090226D01*
X145159774Y-101946063D01*
X144990256Y-101832795D01*
X144801898Y-101754774D01*
X144601939Y-101715000D01*
X144398061Y-101715000D01*
X144198102Y-101754774D01*
X144009744Y-101832795D01*
X143840226Y-101946063D01*
X143735545Y-102050744D01*
X143544849Y-101860048D01*
X143614236Y-101631309D01*
X143635000Y-101420492D01*
X143635000Y-100879509D01*
X143614236Y-100668692D01*
X143533606Y-100402887D01*
X145368063Y-100402887D01*
X145425404Y-100679306D01*
X145535570Y-100939227D01*
X145694327Y-101172662D01*
X145895575Y-101370639D01*
X146131579Y-101525551D01*
X146393270Y-101631444D01*
X146450961Y-101641904D01*
X146673000Y-101519915D01*
X146673000Y-100177000D01*
X146927000Y-100177000D01*
X146927000Y-101519915D01*
X147149039Y-101641904D01*
X147206730Y-101631444D01*
X147468421Y-101525551D01*
X147704425Y-101370639D01*
X147905673Y-101172662D01*
X148023098Y-101000000D01*
X163740928Y-101000000D01*
X163740928Y-102200000D01*
X163757992Y-102373254D01*
X163808528Y-102539850D01*
X163890595Y-102693386D01*
X164001038Y-102827962D01*
X164135614Y-102938405D01*
X164289150Y-103020472D01*
X164455746Y-103071008D01*
X164629000Y-103088072D01*
X166079000Y-103088072D01*
X166252254Y-103071008D01*
X166418850Y-103020472D01*
X166572386Y-102938405D01*
X166706962Y-102827962D01*
X166817405Y-102693386D01*
X166899472Y-102539850D01*
X166950008Y-102373254D01*
X166967072Y-102200000D01*
X166967072Y-101000000D01*
X166950008Y-100826746D01*
X166899472Y-100660150D01*
X166817405Y-100506614D01*
X166706962Y-100372038D01*
X166572386Y-100261595D01*
X166467039Y-100205286D01*
X166488429Y-100189049D01*
X166681496Y-99971193D01*
X166828352Y-99719858D01*
X166920476Y-99456890D01*
X166799155Y-99227000D01*
X165481000Y-99227000D01*
X165481000Y-99247000D01*
X165227000Y-99247000D01*
X165227000Y-99227000D01*
X163908845Y-99227000D01*
X163787524Y-99456890D01*
X163879648Y-99719858D01*
X164026504Y-99971193D01*
X164219571Y-100189049D01*
X164240961Y-100205286D01*
X164135614Y-100261595D01*
X164001038Y-100372038D01*
X163890595Y-100506614D01*
X163808528Y-100660150D01*
X163757992Y-100826746D01*
X163740928Y-101000000D01*
X148023098Y-101000000D01*
X148064430Y-100939227D01*
X148174596Y-100679306D01*
X148231937Y-100402887D01*
X148079474Y-100177000D01*
X146927000Y-100177000D01*
X146673000Y-100177000D01*
X145520526Y-100177000D01*
X145368063Y-100402887D01*
X143533606Y-100402887D01*
X143532182Y-100398193D01*
X143398932Y-100148899D01*
X143219608Y-99930392D01*
X143001101Y-99751068D01*
X142938941Y-99717843D01*
X142932653Y-99697113D01*
X145368063Y-99697113D01*
X145520526Y-99923000D01*
X146673000Y-99923000D01*
X146673000Y-98580085D01*
X146927000Y-98580085D01*
X146927000Y-99923000D01*
X148079474Y-99923000D01*
X148231937Y-99697113D01*
X148174596Y-99420694D01*
X148064430Y-99160773D01*
X147905673Y-98927338D01*
X147704425Y-98729361D01*
X147468421Y-98574449D01*
X147206730Y-98468556D01*
X147149039Y-98458096D01*
X146927000Y-98580085D01*
X146673000Y-98580085D01*
X146450961Y-98458096D01*
X146393270Y-98468556D01*
X146131579Y-98574449D01*
X145895575Y-98729361D01*
X145694327Y-98927338D01*
X145535570Y-99160773D01*
X145425404Y-99420694D01*
X145368063Y-99697113D01*
X142932653Y-99697113D01*
X142905546Y-99607753D01*
X142834974Y-99475723D01*
X142763799Y-99388997D01*
X142740001Y-99359999D01*
X142711003Y-99336201D01*
X137463804Y-94089003D01*
X137440001Y-94059999D01*
X137324276Y-93965026D01*
X137192247Y-93894454D01*
X137048986Y-93850997D01*
X136937333Y-93840000D01*
X136937322Y-93840000D01*
X136900000Y-93836324D01*
X136862678Y-93840000D01*
X132869803Y-93840000D01*
X135109803Y-91600000D01*
X163736815Y-91600000D01*
X163765487Y-91891111D01*
X163850401Y-92171034D01*
X163988294Y-92429014D01*
X164173866Y-92655134D01*
X164399986Y-92840706D01*
X164417374Y-92850000D01*
X164399986Y-92859294D01*
X164173866Y-93044866D01*
X163988294Y-93270986D01*
X163850401Y-93528966D01*
X163765487Y-93808889D01*
X163736815Y-94100000D01*
X163765487Y-94391111D01*
X163850401Y-94671034D01*
X163988294Y-94929014D01*
X164173866Y-95155134D01*
X164399986Y-95340706D01*
X164417374Y-95350000D01*
X164399986Y-95359294D01*
X164173866Y-95544866D01*
X163988294Y-95770986D01*
X163850401Y-96028966D01*
X163765487Y-96308889D01*
X163736815Y-96600000D01*
X163765487Y-96891111D01*
X163850401Y-97171034D01*
X163988294Y-97429014D01*
X164173866Y-97655134D01*
X164399986Y-97840706D01*
X164425722Y-97854462D01*
X164219571Y-98010951D01*
X164026504Y-98228807D01*
X163879648Y-98480142D01*
X163787524Y-98743110D01*
X163908845Y-98973000D01*
X165227000Y-98973000D01*
X165227000Y-98953000D01*
X165481000Y-98953000D01*
X165481000Y-98973000D01*
X166799155Y-98973000D01*
X166920476Y-98743110D01*
X166828352Y-98480142D01*
X166681496Y-98228807D01*
X166488429Y-98010951D01*
X166282278Y-97854462D01*
X166308014Y-97840706D01*
X166534134Y-97655134D01*
X166719706Y-97429014D01*
X166857599Y-97171034D01*
X166942513Y-96891111D01*
X166971185Y-96600000D01*
X166942513Y-96308889D01*
X166857599Y-96028966D01*
X166719706Y-95770986D01*
X166534134Y-95544866D01*
X166308014Y-95359294D01*
X166290626Y-95350000D01*
X166308014Y-95340706D01*
X166534134Y-95155134D01*
X166719706Y-94929014D01*
X166857599Y-94671034D01*
X166942513Y-94391111D01*
X166971185Y-94100000D01*
X166942513Y-93808889D01*
X166857599Y-93528966D01*
X166719706Y-93270986D01*
X166534134Y-93044866D01*
X166308014Y-92859294D01*
X166290626Y-92850000D01*
X166308014Y-92840706D01*
X166534134Y-92655134D01*
X166719706Y-92429014D01*
X166857599Y-92171034D01*
X166942513Y-91891111D01*
X166971185Y-91600000D01*
X166942513Y-91308889D01*
X166857599Y-91028966D01*
X166719706Y-90770986D01*
X166534134Y-90544866D01*
X166308014Y-90359294D01*
X166050034Y-90221401D01*
X165770111Y-90136487D01*
X165551950Y-90115000D01*
X165156050Y-90115000D01*
X164937889Y-90136487D01*
X164657966Y-90221401D01*
X164399986Y-90359294D01*
X164173866Y-90544866D01*
X163988294Y-90770986D01*
X163850401Y-91028966D01*
X163765487Y-91308889D01*
X163736815Y-91600000D01*
X135109803Y-91600000D01*
X137546004Y-89163800D01*
X137575002Y-89140002D01*
X137669975Y-89024277D01*
X137740547Y-88892248D01*
X137784004Y-88748987D01*
X137795001Y-88637334D01*
X137795001Y-88637326D01*
X137798677Y-88600001D01*
X137795001Y-88562676D01*
X137795001Y-87706753D01*
X137966842Y-87777932D01*
X138253740Y-87835000D01*
X138546260Y-87835000D01*
X138833158Y-87777932D01*
X139103411Y-87665990D01*
X139346632Y-87503475D01*
X139553475Y-87296632D01*
X139670000Y-87122240D01*
X139786525Y-87296632D01*
X139993368Y-87503475D01*
X140236589Y-87665990D01*
X140506842Y-87777932D01*
X140793740Y-87835000D01*
X141086260Y-87835000D01*
X141373158Y-87777932D01*
X141643411Y-87665990D01*
X141886632Y-87503475D01*
X142093475Y-87296632D01*
X142215195Y-87114466D01*
X142284822Y-87231355D01*
X142479731Y-87447588D01*
X142713080Y-87621641D01*
X142975901Y-87746825D01*
X143123110Y-87791476D01*
X143353000Y-87670155D01*
X143353000Y-86477000D01*
X143333000Y-86477000D01*
X143333000Y-86223000D01*
X143353000Y-86223000D01*
X143353000Y-86203000D01*
X143607000Y-86203000D01*
X143607000Y-86223000D01*
X143627000Y-86223000D01*
X143627000Y-86477000D01*
X143607000Y-86477000D01*
X143607000Y-87670155D01*
X143836890Y-87791476D01*
X143984099Y-87746825D01*
X144246920Y-87621641D01*
X144480269Y-87447588D01*
X144675178Y-87231355D01*
X144744805Y-87114466D01*
X144866525Y-87296632D01*
X145073368Y-87503475D01*
X145316589Y-87665990D01*
X145586842Y-87777932D01*
X145873740Y-87835000D01*
X146166260Y-87835000D01*
X146453158Y-87777932D01*
X146723411Y-87665990D01*
X146966632Y-87503475D01*
X147173475Y-87296632D01*
X147290000Y-87122240D01*
X147406525Y-87296632D01*
X147613368Y-87503475D01*
X147856589Y-87665990D01*
X148126842Y-87777932D01*
X148413740Y-87835000D01*
X148706260Y-87835000D01*
X148993158Y-87777932D01*
X149263411Y-87665990D01*
X149506632Y-87503475D01*
X149713475Y-87296632D01*
X149830000Y-87122240D01*
X149946525Y-87296632D01*
X150153368Y-87503475D01*
X150396589Y-87665990D01*
X150666842Y-87777932D01*
X150953740Y-87835000D01*
X151246260Y-87835000D01*
X151533158Y-87777932D01*
X151803411Y-87665990D01*
X152046632Y-87503475D01*
X152253475Y-87296632D01*
X152370000Y-87122240D01*
X152486525Y-87296632D01*
X152693368Y-87503475D01*
X152936589Y-87665990D01*
X153206842Y-87777932D01*
X153493740Y-87835000D01*
X153786260Y-87835000D01*
X154073158Y-87777932D01*
X154343411Y-87665990D01*
X154586632Y-87503475D01*
X154793475Y-87296632D01*
X154910000Y-87122240D01*
X155026525Y-87296632D01*
X155233368Y-87503475D01*
X155476589Y-87665990D01*
X155746842Y-87777932D01*
X156033740Y-87835000D01*
X156326260Y-87835000D01*
X156613158Y-87777932D01*
X156883411Y-87665990D01*
X157126632Y-87503475D01*
X157333475Y-87296632D01*
X157450000Y-87122240D01*
X157566525Y-87296632D01*
X157773368Y-87503475D01*
X158016589Y-87665990D01*
X158286842Y-87777932D01*
X158573740Y-87835000D01*
X158866260Y-87835000D01*
X159153158Y-87777932D01*
X159423411Y-87665990D01*
X159666632Y-87503475D01*
X159873475Y-87296632D01*
X159995195Y-87114466D01*
X160064822Y-87231355D01*
X160259731Y-87447588D01*
X160493080Y-87621641D01*
X160755901Y-87746825D01*
X160903110Y-87791476D01*
X161133000Y-87670155D01*
X161133000Y-86477000D01*
X161387000Y-86477000D01*
X161387000Y-87670155D01*
X161616890Y-87791476D01*
X161764099Y-87746825D01*
X162026920Y-87621641D01*
X162260269Y-87447588D01*
X162455178Y-87231355D01*
X162604157Y-86981252D01*
X162701481Y-86706891D01*
X162580814Y-86477000D01*
X161387000Y-86477000D01*
X161133000Y-86477000D01*
X161113000Y-86477000D01*
X161113000Y-86223000D01*
X161133000Y-86223000D01*
X161133000Y-86203000D01*
X161387000Y-86203000D01*
X161387000Y-86223000D01*
X162580814Y-86223000D01*
X162701481Y-85993109D01*
X162604157Y-85718748D01*
X162455178Y-85468645D01*
X162260269Y-85252412D01*
X162030594Y-85081100D01*
X162206632Y-84963475D01*
X162288075Y-84882032D01*
X164120000Y-84882032D01*
X164120000Y-85277968D01*
X164197243Y-85666296D01*
X164348761Y-86032092D01*
X164568731Y-86361301D01*
X164848699Y-86641269D01*
X165177908Y-86861239D01*
X165543704Y-87012757D01*
X165932032Y-87090000D01*
X166327968Y-87090000D01*
X166716296Y-87012757D01*
X167082092Y-86861239D01*
X167411301Y-86641269D01*
X167691269Y-86361301D01*
X167911239Y-86032092D01*
X168062757Y-85666296D01*
X168140000Y-85277968D01*
X168140000Y-84882032D01*
X168062757Y-84493704D01*
X167911239Y-84127908D01*
X167691269Y-83798699D01*
X167411301Y-83518731D01*
X167082092Y-83298761D01*
X166716296Y-83147243D01*
X166327968Y-83070000D01*
X165932032Y-83070000D01*
X165543704Y-83147243D01*
X165177908Y-83298761D01*
X164848699Y-83518731D01*
X164568731Y-83798699D01*
X164348761Y-84127908D01*
X164197243Y-84493704D01*
X164120000Y-84882032D01*
X162288075Y-84882032D01*
X162413475Y-84756632D01*
X162575990Y-84513411D01*
X162687932Y-84243158D01*
X162745000Y-83956260D01*
X162745000Y-83663740D01*
X162687932Y-83376842D01*
X162575990Y-83106589D01*
X162413475Y-82863368D01*
X162206632Y-82656525D01*
X161963411Y-82494010D01*
X161693158Y-82382068D01*
X161406260Y-82325000D01*
X161113740Y-82325000D01*
X160826842Y-82382068D01*
X160556589Y-82494010D01*
X160313368Y-82656525D01*
X160106525Y-82863368D01*
X159990000Y-83037760D01*
X159873475Y-82863368D01*
X159666632Y-82656525D01*
X159423411Y-82494010D01*
X159153158Y-82382068D01*
X158866260Y-82325000D01*
X158573740Y-82325000D01*
X158286842Y-82382068D01*
X158016589Y-82494010D01*
X157773368Y-82656525D01*
X157566525Y-82863368D01*
X157450000Y-83037760D01*
X157333475Y-82863368D01*
X157126632Y-82656525D01*
X156883411Y-82494010D01*
X156613158Y-82382068D01*
X156326260Y-82325000D01*
X156033740Y-82325000D01*
X155746842Y-82382068D01*
X155476589Y-82494010D01*
X155233368Y-82656525D01*
X155026525Y-82863368D01*
X154904805Y-83045534D01*
X154835178Y-82928645D01*
X154640269Y-82712412D01*
X154406920Y-82538359D01*
X154144099Y-82413175D01*
X153996890Y-82368524D01*
X153767000Y-82489845D01*
X153767000Y-83683000D01*
X153787000Y-83683000D01*
X153787000Y-83937000D01*
X153767000Y-83937000D01*
X153767000Y-83957000D01*
X153513000Y-83957000D01*
X153513000Y-83937000D01*
X153493000Y-83937000D01*
X153493000Y-83683000D01*
X153513000Y-83683000D01*
X153513000Y-82489845D01*
X153283110Y-82368524D01*
X153135901Y-82413175D01*
X152873080Y-82538359D01*
X152639731Y-82712412D01*
X152444822Y-82928645D01*
X152375195Y-83045534D01*
X152253475Y-82863368D01*
X152046632Y-82656525D01*
X151803411Y-82494010D01*
X151533158Y-82382068D01*
X151246260Y-82325000D01*
X150953740Y-82325000D01*
X150666842Y-82382068D01*
X150396589Y-82494010D01*
X150153368Y-82656525D01*
X149946525Y-82863368D01*
X149824805Y-83045534D01*
X149755178Y-82928645D01*
X149560269Y-82712412D01*
X149326920Y-82538359D01*
X149064099Y-82413175D01*
X148916890Y-82368524D01*
X148687000Y-82489845D01*
X148687000Y-83683000D01*
X148707000Y-83683000D01*
X148707000Y-83937000D01*
X148687000Y-83937000D01*
X148687000Y-83957000D01*
X148433000Y-83957000D01*
X148433000Y-83937000D01*
X148413000Y-83937000D01*
X148413000Y-83683000D01*
X148433000Y-83683000D01*
X148433000Y-82489845D01*
X148203110Y-82368524D01*
X148055901Y-82413175D01*
X147793080Y-82538359D01*
X147559731Y-82712412D01*
X147364822Y-82928645D01*
X147295195Y-83045534D01*
X147173475Y-82863368D01*
X146966632Y-82656525D01*
X146723411Y-82494010D01*
X146453158Y-82382068D01*
X146166260Y-82325000D01*
X145873740Y-82325000D01*
X145586842Y-82382068D01*
X145316589Y-82494010D01*
X145073368Y-82656525D01*
X144866525Y-82863368D01*
X144750000Y-83037760D01*
X144633475Y-82863368D01*
X144426632Y-82656525D01*
X144183411Y-82494010D01*
X143913158Y-82382068D01*
X143626260Y-82325000D01*
X143333740Y-82325000D01*
X143046842Y-82382068D01*
X142776589Y-82494010D01*
X142533368Y-82656525D01*
X142326525Y-82863368D01*
X142210000Y-83037760D01*
X142093475Y-82863368D01*
X141886632Y-82656525D01*
X141643411Y-82494010D01*
X141373158Y-82382068D01*
X141086260Y-82325000D01*
X140793740Y-82325000D01*
X140506842Y-82382068D01*
X140236589Y-82494010D01*
X139993368Y-82656525D01*
X139786525Y-82863368D01*
X139670000Y-83037760D01*
X139553475Y-82863368D01*
X139346632Y-82656525D01*
X139103411Y-82494010D01*
X138833158Y-82382068D01*
X138546260Y-82325000D01*
X138253740Y-82325000D01*
X137966842Y-82382068D01*
X137696589Y-82494010D01*
X137453368Y-82656525D01*
X137246525Y-82863368D01*
X137124805Y-83045534D01*
X137055178Y-82928645D01*
X136860269Y-82712412D01*
X136626920Y-82538359D01*
X136364099Y-82413175D01*
X136216890Y-82368524D01*
X135987000Y-82489845D01*
X135987000Y-83683000D01*
X136007000Y-83683000D01*
X136007000Y-83937000D01*
X135987000Y-83937000D01*
X135987000Y-83957000D01*
X135733000Y-83957000D01*
X135733000Y-83937000D01*
X135713000Y-83937000D01*
X135713000Y-83683000D01*
X135733000Y-83683000D01*
X135733000Y-82489845D01*
X135503110Y-82368524D01*
X135355901Y-82413175D01*
X135093080Y-82538359D01*
X134859731Y-82712412D01*
X134664822Y-82928645D01*
X134595195Y-83045534D01*
X134473475Y-82863368D01*
X134266632Y-82656525D01*
X134023411Y-82494010D01*
X133753158Y-82382068D01*
X133466260Y-82325000D01*
X133173740Y-82325000D01*
X132886842Y-82382068D01*
X132616589Y-82494010D01*
X132373368Y-82656525D01*
X132166525Y-82863368D01*
X132050000Y-83037760D01*
X131933475Y-82863368D01*
X131726632Y-82656525D01*
X131483411Y-82494010D01*
X131213158Y-82382068D01*
X130926260Y-82325000D01*
X130633740Y-82325000D01*
X130346842Y-82382068D01*
X130076589Y-82494010D01*
X129833368Y-82656525D01*
X129626525Y-82863368D01*
X129504805Y-83045534D01*
X129435178Y-82928645D01*
X129240269Y-82712412D01*
X129006920Y-82538359D01*
X128744099Y-82413175D01*
X128596890Y-82368524D01*
X128367000Y-82489845D01*
X128367000Y-83683000D01*
X128387000Y-83683000D01*
X128387000Y-83937000D01*
X128367000Y-83937000D01*
X128367000Y-83957000D01*
X128113000Y-83957000D01*
X128113000Y-83937000D01*
X128093000Y-83937000D01*
X128093000Y-83683000D01*
X128113000Y-83683000D01*
X128113000Y-82489845D01*
X127883110Y-82368524D01*
X127735901Y-82413175D01*
X127473080Y-82538359D01*
X127239731Y-82712412D01*
X127044822Y-82928645D01*
X126975195Y-83045534D01*
X126853475Y-82863368D01*
X126646632Y-82656525D01*
X126403411Y-82494010D01*
X126133158Y-82382068D01*
X125846260Y-82325000D01*
X125553740Y-82325000D01*
X125266842Y-82382068D01*
X124996589Y-82494010D01*
X124753368Y-82656525D01*
X124546525Y-82863368D01*
X124430000Y-83037760D01*
X124313475Y-82863368D01*
X124106632Y-82656525D01*
X123863411Y-82494010D01*
X123593158Y-82382068D01*
X123306260Y-82325000D01*
X123013740Y-82325000D01*
X122726842Y-82382068D01*
X122456589Y-82494010D01*
X122213368Y-82656525D01*
X122006525Y-82863368D01*
X121890000Y-83037760D01*
X121773475Y-82863368D01*
X121566632Y-82656525D01*
X121323411Y-82494010D01*
X121053158Y-82382068D01*
X120766260Y-82325000D01*
X120473740Y-82325000D01*
X120186842Y-82382068D01*
X119916589Y-82494010D01*
X119673368Y-82656525D01*
X119466525Y-82863368D01*
X119344805Y-83045534D01*
X119275178Y-82928645D01*
X119080269Y-82712412D01*
X118846920Y-82538359D01*
X118584099Y-82413175D01*
X118436890Y-82368524D01*
X118207000Y-82489845D01*
X118207000Y-83683000D01*
X118227000Y-83683000D01*
X118227000Y-83937000D01*
X118207000Y-83937000D01*
X118207000Y-83957000D01*
X117953000Y-83957000D01*
X117953000Y-83937000D01*
X117933000Y-83937000D01*
X117933000Y-83683000D01*
X117953000Y-83683000D01*
X117953000Y-82489845D01*
X117723110Y-82368524D01*
X117575901Y-82413175D01*
X117313080Y-82538359D01*
X117079731Y-82712412D01*
X116884822Y-82928645D01*
X116815195Y-83045534D01*
X116693475Y-82863368D01*
X116486632Y-82656525D01*
X116243411Y-82494010D01*
X115973158Y-82382068D01*
X115686260Y-82325000D01*
X115393740Y-82325000D01*
X115106842Y-82382068D01*
X114836589Y-82494010D01*
X114593368Y-82656525D01*
X114386525Y-82863368D01*
X114270000Y-83037760D01*
X114153475Y-82863368D01*
X113946632Y-82656525D01*
X113703411Y-82494010D01*
X113433158Y-82382068D01*
X113146260Y-82325000D01*
X112853740Y-82325000D01*
X112566842Y-82382068D01*
X112296589Y-82494010D01*
X112053368Y-82656525D01*
X111846525Y-82863368D01*
X111684010Y-83106589D01*
X111572068Y-83376842D01*
X111515000Y-83663740D01*
X111515000Y-83956260D01*
X111572068Y-84243158D01*
X111684010Y-84513411D01*
X111846525Y-84756632D01*
X111978380Y-84888487D01*
X111905820Y-84910498D01*
X111795506Y-84969463D01*
X111698815Y-85048815D01*
X111619463Y-85145506D01*
X111560498Y-85255820D01*
X111524188Y-85375518D01*
X111511928Y-85500000D01*
X111511928Y-87200000D01*
X111524188Y-87324482D01*
X111560498Y-87444180D01*
X111619463Y-87554494D01*
X111698815Y-87651185D01*
X111795506Y-87730537D01*
X111905820Y-87789502D01*
X112025518Y-87825812D01*
X112150000Y-87838072D01*
X113850000Y-87838072D01*
X113974482Y-87825812D01*
X114094180Y-87789502D01*
X114204494Y-87730537D01*
X114301185Y-87651185D01*
X114380537Y-87554494D01*
X114439502Y-87444180D01*
X114461513Y-87371620D01*
X114593368Y-87503475D01*
X114836589Y-87665990D01*
X115106842Y-87777932D01*
X115393740Y-87835000D01*
X115686260Y-87835000D01*
X115973158Y-87777932D01*
X116243411Y-87665990D01*
X116486632Y-87503475D01*
X116693475Y-87296632D01*
X116810000Y-87122240D01*
X116926525Y-87296632D01*
X117133368Y-87503475D01*
X117258633Y-87587174D01*
X117249999Y-87586324D01*
X117212676Y-87590000D01*
X117212667Y-87590000D01*
X117101014Y-87600997D01*
X116957753Y-87644454D01*
X116825724Y-87715026D01*
X116709999Y-87809999D01*
X116686201Y-87838998D01*
X115988998Y-88536201D01*
X115960000Y-88559999D01*
X115936202Y-88588997D01*
X115936201Y-88588998D01*
X115885187Y-88651158D01*
X115776058Y-88709488D01*
X115643377Y-88818377D01*
X115534488Y-88951058D01*
X115453577Y-89102433D01*
X115403752Y-89266684D01*
X115388072Y-89425885D01*
X115388072Y-88900000D01*
X115375812Y-88775518D01*
X115339502Y-88655820D01*
X115280537Y-88545506D01*
X115201185Y-88448815D01*
X115104494Y-88369463D01*
X114994180Y-88310498D01*
X114874482Y-88274188D01*
X114750000Y-88261928D01*
X114150000Y-88261928D01*
X114025518Y-88274188D01*
X113905820Y-88310498D01*
X113795506Y-88369463D01*
X113698815Y-88448815D01*
X113619463Y-88545506D01*
X113560498Y-88655820D01*
X113524188Y-88775518D01*
X113511928Y-88900000D01*
X113511928Y-90200000D01*
X113524188Y-90324482D01*
X113535547Y-90361928D01*
X113464453Y-90361928D01*
X113475812Y-90324482D01*
X113488072Y-90200000D01*
X113485000Y-89835750D01*
X113326250Y-89677000D01*
X112677000Y-89677000D01*
X112677000Y-89697000D01*
X112423000Y-89697000D01*
X112423000Y-89677000D01*
X111773750Y-89677000D01*
X111615000Y-89835750D01*
X111611928Y-90200000D01*
X111624188Y-90324482D01*
X111639509Y-90374990D01*
X110461690Y-90374990D01*
X110460000Y-90050750D01*
X110301250Y-89892000D01*
X109327000Y-89892000D01*
X109327000Y-89912000D01*
X109073000Y-89912000D01*
X109073000Y-89892000D01*
X108098750Y-89892000D01*
X107940000Y-90050750D01*
X107936928Y-90640000D01*
X107943211Y-90703798D01*
X107738988Y-90908021D01*
X107709990Y-90931819D01*
X107686192Y-90960817D01*
X107686191Y-90960818D01*
X107615016Y-91047544D01*
X107544444Y-91179574D01*
X107530445Y-91225724D01*
X107526039Y-91240250D01*
X107513405Y-91216614D01*
X107402962Y-91082038D01*
X107363923Y-91050000D01*
X107402962Y-91017962D01*
X107513405Y-90883386D01*
X107595472Y-90729850D01*
X107646008Y-90563254D01*
X107663072Y-90390000D01*
X107663072Y-89140000D01*
X107646008Y-88966746D01*
X107622728Y-88890000D01*
X107936928Y-88890000D01*
X107940000Y-89479250D01*
X108098750Y-89638000D01*
X109073000Y-89638000D01*
X109073000Y-88413750D01*
X109327000Y-88413750D01*
X109327000Y-89638000D01*
X110301250Y-89638000D01*
X110460000Y-89479250D01*
X110463019Y-88900000D01*
X111611928Y-88900000D01*
X111615000Y-89264250D01*
X111773750Y-89423000D01*
X112423000Y-89423000D01*
X112423000Y-88423750D01*
X112677000Y-88423750D01*
X112677000Y-89423000D01*
X113326250Y-89423000D01*
X113485000Y-89264250D01*
X113488072Y-88900000D01*
X113475812Y-88775518D01*
X113439502Y-88655820D01*
X113380537Y-88545506D01*
X113301185Y-88448815D01*
X113204494Y-88369463D01*
X113094180Y-88310498D01*
X112974482Y-88274188D01*
X112850000Y-88261928D01*
X112835750Y-88265000D01*
X112677000Y-88423750D01*
X112423000Y-88423750D01*
X112264250Y-88265000D01*
X112250000Y-88261928D01*
X112125518Y-88274188D01*
X112005820Y-88310498D01*
X111895506Y-88369463D01*
X111798815Y-88448815D01*
X111719463Y-88545506D01*
X111660498Y-88655820D01*
X111624188Y-88775518D01*
X111611928Y-88900000D01*
X110463019Y-88900000D01*
X110463072Y-88890000D01*
X110450812Y-88765518D01*
X110414502Y-88645820D01*
X110355537Y-88535506D01*
X110276185Y-88438815D01*
X110179494Y-88359463D01*
X110069180Y-88300498D01*
X109949482Y-88264188D01*
X109825000Y-88251928D01*
X109485750Y-88255000D01*
X109327000Y-88413750D01*
X109073000Y-88413750D01*
X108914250Y-88255000D01*
X108575000Y-88251928D01*
X108450518Y-88264188D01*
X108330820Y-88300498D01*
X108220506Y-88359463D01*
X108123815Y-88438815D01*
X108044463Y-88535506D01*
X107985498Y-88645820D01*
X107949188Y-88765518D01*
X107936928Y-88890000D01*
X107622728Y-88890000D01*
X107595472Y-88800150D01*
X107513405Y-88646614D01*
X107402962Y-88512038D01*
X107268386Y-88401595D01*
X107114850Y-88319528D01*
X106948254Y-88268992D01*
X106775000Y-88251928D01*
X106025000Y-88251928D01*
X105851746Y-88268992D01*
X105685150Y-88319528D01*
X105531614Y-88401595D01*
X105397038Y-88512038D01*
X105286595Y-88646614D01*
X105242024Y-88730000D01*
X105160000Y-88730000D01*
X105160000Y-84882032D01*
X106120000Y-84882032D01*
X106120000Y-85277968D01*
X106197243Y-85666296D01*
X106348761Y-86032092D01*
X106568731Y-86361301D01*
X106848699Y-86641269D01*
X107177908Y-86861239D01*
X107543704Y-87012757D01*
X107932032Y-87090000D01*
X108327968Y-87090000D01*
X108716296Y-87012757D01*
X109082092Y-86861239D01*
X109411301Y-86641269D01*
X109691269Y-86361301D01*
X109911239Y-86032092D01*
X110062757Y-85666296D01*
X110140000Y-85277968D01*
X110140000Y-84882032D01*
X110062757Y-84493704D01*
X109911239Y-84127908D01*
X109691269Y-83798699D01*
X109411301Y-83518731D01*
X109082092Y-83298761D01*
X108716296Y-83147243D01*
X108327968Y-83070000D01*
X107932032Y-83070000D01*
X107543704Y-83147243D01*
X107177908Y-83298761D01*
X106848699Y-83518731D01*
X106568731Y-83798699D01*
X106348761Y-84127908D01*
X106197243Y-84493704D01*
X106120000Y-84882032D01*
X105160000Y-84882032D01*
X105160000Y-82110000D01*
X169090001Y-82110000D01*
X169090000Y-84632418D01*
%TA.AperFunction,Conductor*%
D19*
G36*
X169090000Y-84632418D02*
G01*
X169090001Y-84632428D01*
X169090000Y-108067581D01*
X169090000Y-108067582D01*
X169090001Y-111040000D01*
X105160000Y-111040000D01*
X105160000Y-107882032D01*
X106120000Y-107882032D01*
X106120000Y-108277968D01*
X106197243Y-108666296D01*
X106348761Y-109032092D01*
X106568731Y-109361301D01*
X106848699Y-109641269D01*
X107177908Y-109861239D01*
X107543704Y-110012757D01*
X107932032Y-110090000D01*
X108327968Y-110090000D01*
X108716296Y-110012757D01*
X109082092Y-109861239D01*
X109411301Y-109641269D01*
X109691269Y-109361301D01*
X109911239Y-109032092D01*
X110062757Y-108666296D01*
X110140000Y-108277968D01*
X110140000Y-107882032D01*
X110062757Y-107493704D01*
X109911239Y-107127908D01*
X109691269Y-106798699D01*
X109411301Y-106518731D01*
X109082092Y-106298761D01*
X108716296Y-106147243D01*
X108327968Y-106070000D01*
X107932032Y-106070000D01*
X107543704Y-106147243D01*
X107177908Y-106298761D01*
X106848699Y-106518731D01*
X106568731Y-106798699D01*
X106348761Y-107127908D01*
X106197243Y-107493704D01*
X106120000Y-107882032D01*
X105160000Y-107882032D01*
X105160000Y-103156891D01*
X105718519Y-103156891D01*
X105815843Y-103431252D01*
X105964822Y-103681355D01*
X106159731Y-103897588D01*
X106393080Y-104071641D01*
X106655901Y-104196825D01*
X106803110Y-104241476D01*
X107033000Y-104120155D01*
X107033000Y-102927000D01*
X105839186Y-102927000D01*
X105718519Y-103156891D01*
X105160000Y-103156891D01*
X105160000Y-102443109D01*
X105718519Y-102443109D01*
X105839186Y-102673000D01*
X107033000Y-102673000D01*
X107033000Y-101479845D01*
X107287000Y-101479845D01*
X107287000Y-102673000D01*
X107307000Y-102673000D01*
X107307000Y-102927000D01*
X107287000Y-102927000D01*
X107287000Y-104120155D01*
X107516890Y-104241476D01*
X107664099Y-104196825D01*
X107926920Y-104071641D01*
X108160269Y-103897588D01*
X108236034Y-103813534D01*
X108260498Y-103894180D01*
X108319463Y-104004494D01*
X108398815Y-104101185D01*
X108495506Y-104180537D01*
X108605820Y-104239502D01*
X108725518Y-104275812D01*
X108850000Y-104288072D01*
X110550000Y-104288072D01*
X110674482Y-104275812D01*
X110794180Y-104239502D01*
X110904494Y-104180537D01*
X111001185Y-104101185D01*
X111080537Y-104004494D01*
X111139502Y-103894180D01*
X111175812Y-103774482D01*
X111188072Y-103650000D01*
X111188072Y-101950000D01*
X111175812Y-101825518D01*
X111139502Y-101705820D01*
X111080537Y-101595506D01*
X111001185Y-101498815D01*
X110904494Y-101419463D01*
X110794180Y-101360498D01*
X110674482Y-101324188D01*
X110550000Y-101311928D01*
X108850000Y-101311928D01*
X108725518Y-101324188D01*
X108605820Y-101360498D01*
X108495506Y-101419463D01*
X108398815Y-101498815D01*
X108319463Y-101595506D01*
X108260498Y-101705820D01*
X108236034Y-101786466D01*
X108160269Y-101702412D01*
X107926920Y-101528359D01*
X107664099Y-101403175D01*
X107516890Y-101358524D01*
X107287000Y-101479845D01*
X107033000Y-101479845D01*
X106803110Y-101358524D01*
X106655901Y-101403175D01*
X106393080Y-101528359D01*
X106159731Y-101702412D01*
X105964822Y-101918645D01*
X105815843Y-102168748D01*
X105718519Y-102443109D01*
X105160000Y-102443109D01*
X105160000Y-98478000D01*
X105241824Y-98478000D01*
X105286395Y-98561386D01*
X105396838Y-98695962D01*
X105531414Y-98806405D01*
X105684950Y-98888472D01*
X105851546Y-98939008D01*
X106024800Y-98956072D01*
X106774800Y-98956072D01*
X106948054Y-98939008D01*
X107114650Y-98888472D01*
X107268186Y-98806405D01*
X107402762Y-98695962D01*
X107513205Y-98561386D01*
X107595272Y-98407850D01*
X107645808Y-98241254D01*
X107662872Y-98068000D01*
X107662872Y-96975778D01*
X107709989Y-97033191D01*
X107738992Y-97056994D01*
X107936728Y-97254729D01*
X107936728Y-98068000D01*
X107953792Y-98241254D01*
X108004328Y-98407850D01*
X108086395Y-98561386D01*
X108196838Y-98695962D01*
X108331414Y-98806405D01*
X108484950Y-98888472D01*
X108651546Y-98939008D01*
X108824800Y-98956072D01*
X109574800Y-98956072D01*
X109748054Y-98939008D01*
X109914650Y-98888472D01*
X110068186Y-98806405D01*
X110202762Y-98695962D01*
X110313205Y-98561386D01*
X110395272Y-98407850D01*
X110445808Y-98241254D01*
X110462872Y-98068000D01*
X110462872Y-97216317D01*
X110470000Y-97225002D01*
X110498998Y-97248800D01*
X110585724Y-97319975D01*
X110706003Y-97384266D01*
X110717754Y-97390547D01*
X110861015Y-97434004D01*
X110972668Y-97445001D01*
X110972678Y-97445001D01*
X111010001Y-97448677D01*
X111047324Y-97445001D01*
X112556928Y-97445001D01*
X112556928Y-97673270D01*
X111563988Y-98666211D01*
X111534990Y-98690009D01*
X111511192Y-98719007D01*
X111511191Y-98719008D01*
X111440016Y-98805734D01*
X111369444Y-98937764D01*
X111369067Y-98939008D01*
X111325988Y-99081024D01*
X111320369Y-99138072D01*
X111311314Y-99230010D01*
X111314991Y-99267342D01*
X111314990Y-103987667D01*
X111311314Y-104024990D01*
X111314990Y-104062312D01*
X111314990Y-104062322D01*
X111325987Y-104173975D01*
X111369444Y-104317236D01*
X111440016Y-104449266D01*
X111479861Y-104497816D01*
X111534989Y-104564991D01*
X111563992Y-104588793D01*
X111773043Y-104797845D01*
X111765000Y-104879508D01*
X111765000Y-105420491D01*
X111785764Y-105631308D01*
X111867818Y-105901807D01*
X112001068Y-106151100D01*
X112180392Y-106369607D01*
X112398899Y-106548932D01*
X112587984Y-106650000D01*
X112398900Y-106751068D01*
X112180393Y-106930392D01*
X112001068Y-107148899D01*
X111867818Y-107398192D01*
X111785764Y-107668691D01*
X111765000Y-107879508D01*
X111765000Y-108420491D01*
X111785764Y-108631308D01*
X111867818Y-108901807D01*
X112001068Y-109151100D01*
X112180392Y-109369607D01*
X112398899Y-109548932D01*
X112648192Y-109682182D01*
X112918691Y-109764236D01*
X113200000Y-109791943D01*
X113481308Y-109764236D01*
X113751807Y-109682182D01*
X114001100Y-109548932D01*
X114219607Y-109369608D01*
X114398932Y-109151101D01*
X114527803Y-108910000D01*
X114894198Y-108910000D01*
X114840226Y-108946063D01*
X114696063Y-109090226D01*
X114582795Y-109259744D01*
X114504774Y-109448102D01*
X114465000Y-109648061D01*
X114465000Y-109851939D01*
X114504774Y-110051898D01*
X114582795Y-110240256D01*
X114696063Y-110409774D01*
X114840226Y-110553937D01*
X115009744Y-110667205D01*
X115198102Y-110745226D01*
X115398061Y-110785000D01*
X115601939Y-110785000D01*
X115801898Y-110745226D01*
X115990256Y-110667205D01*
X116159774Y-110553937D01*
X116303937Y-110409774D01*
X116417205Y-110240256D01*
X116495226Y-110051898D01*
X116535000Y-109851939D01*
X116535000Y-109648061D01*
X116495226Y-109448102D01*
X116417205Y-109259744D01*
X116303937Y-109090226D01*
X116159774Y-108946063D01*
X116105802Y-108910000D01*
X119485199Y-108910000D01*
X119511928Y-108936729D01*
X119511928Y-110200000D01*
X119524188Y-110324482D01*
X119560498Y-110444180D01*
X119619463Y-110554494D01*
X119698815Y-110651185D01*
X119795506Y-110730537D01*
X119905820Y-110789502D01*
X120025518Y-110825812D01*
X120150000Y-110838072D01*
X121850000Y-110838072D01*
X121974482Y-110825812D01*
X122094180Y-110789502D01*
X122204494Y-110730537D01*
X122301185Y-110651185D01*
X122380537Y-110554494D01*
X122439502Y-110444180D01*
X122475812Y-110324482D01*
X122488072Y-110200000D01*
X122488072Y-108936729D01*
X122921914Y-108502887D01*
X127518063Y-108502887D01*
X127575404Y-108779306D01*
X127685570Y-109039227D01*
X127844327Y-109272662D01*
X128045575Y-109470639D01*
X128281579Y-109625551D01*
X128543270Y-109731444D01*
X128600961Y-109741904D01*
X128823000Y-109619915D01*
X128823000Y-108277000D01*
X129077000Y-108277000D01*
X129077000Y-109619915D01*
X129299039Y-109741904D01*
X129356730Y-109731444D01*
X129562792Y-109648061D01*
X130215000Y-109648061D01*
X130215000Y-109851939D01*
X130254774Y-110051898D01*
X130332795Y-110240256D01*
X130446063Y-110409774D01*
X130590226Y-110553937D01*
X130759744Y-110667205D01*
X130948102Y-110745226D01*
X131148061Y-110785000D01*
X131351939Y-110785000D01*
X131551898Y-110745226D01*
X131740256Y-110667205D01*
X131909774Y-110553937D01*
X132053937Y-110409774D01*
X132167205Y-110240256D01*
X132245226Y-110051898D01*
X132285000Y-109851939D01*
X132285000Y-109648061D01*
X132245226Y-109448102D01*
X132167205Y-109259744D01*
X132053937Y-109090226D01*
X131909774Y-108946063D01*
X131740256Y-108832795D01*
X131551898Y-108754774D01*
X131351939Y-108715000D01*
X131148061Y-108715000D01*
X130948102Y-108754774D01*
X130759744Y-108832795D01*
X130590226Y-108946063D01*
X130446063Y-109090226D01*
X130332795Y-109259744D01*
X130254774Y-109448102D01*
X130215000Y-109648061D01*
X129562792Y-109648061D01*
X129618421Y-109625551D01*
X129854425Y-109470639D01*
X130055673Y-109272662D01*
X130214430Y-109039227D01*
X130324596Y-108779306D01*
X130381937Y-108502887D01*
X130229474Y-108277000D01*
X129077000Y-108277000D01*
X128823000Y-108277000D01*
X127670526Y-108277000D01*
X127518063Y-108502887D01*
X122921914Y-108502887D01*
X125921914Y-105502887D01*
X127518063Y-105502887D01*
X127575404Y-105779306D01*
X127685570Y-106039227D01*
X127844327Y-106272662D01*
X128045575Y-106470639D01*
X128281579Y-106625551D01*
X128341999Y-106650000D01*
X128281579Y-106674449D01*
X128045575Y-106829361D01*
X127844327Y-107027338D01*
X127685570Y-107260773D01*
X127575404Y-107520694D01*
X127518063Y-107797113D01*
X127670526Y-108023000D01*
X128823000Y-108023000D01*
X128823000Y-106680085D01*
X128768241Y-106650000D01*
X128823000Y-106619915D01*
X128823000Y-105277000D01*
X129077000Y-105277000D01*
X129077000Y-106619915D01*
X129131759Y-106650000D01*
X129077000Y-106680085D01*
X129077000Y-108023000D01*
X130229474Y-108023000D01*
X130381937Y-107797113D01*
X130324596Y-107520694D01*
X130214430Y-107260773D01*
X130055673Y-107027338D01*
X129854425Y-106829361D01*
X129618421Y-106674449D01*
X129558001Y-106650000D01*
X129618421Y-106625551D01*
X129854425Y-106470639D01*
X130055673Y-106272662D01*
X130214430Y-106039227D01*
X130324596Y-105779306D01*
X130381937Y-105502887D01*
X130229474Y-105277000D01*
X129077000Y-105277000D01*
X128823000Y-105277000D01*
X127670526Y-105277000D01*
X127518063Y-105502887D01*
X125921914Y-105502887D01*
X126627688Y-104797113D01*
X127518063Y-104797113D01*
X127670526Y-105023000D01*
X128823000Y-105023000D01*
X128823000Y-103680085D01*
X129077000Y-103680085D01*
X129077000Y-105023000D01*
X130229474Y-105023000D01*
X130381937Y-104797113D01*
X130324596Y-104520694D01*
X130214430Y-104260773D01*
X130055673Y-104027338D01*
X129854425Y-103829361D01*
X129618421Y-103674449D01*
X129356730Y-103568556D01*
X129299039Y-103558096D01*
X129077000Y-103680085D01*
X128823000Y-103680085D01*
X128600961Y-103558096D01*
X128543270Y-103568556D01*
X128281579Y-103674449D01*
X128045575Y-103829361D01*
X127844327Y-104027338D01*
X127685570Y-104260773D01*
X127575404Y-104520694D01*
X127518063Y-104797113D01*
X126627688Y-104797113D01*
X127761003Y-103663799D01*
X127790001Y-103640001D01*
X127884974Y-103524276D01*
X127955546Y-103392247D01*
X127999003Y-103248986D01*
X128010000Y-103137333D01*
X128010000Y-103137325D01*
X128013676Y-103100000D01*
X128010000Y-103062675D01*
X128010000Y-102434940D01*
X128148899Y-102548932D01*
X128398192Y-102682182D01*
X128668691Y-102764236D01*
X128950000Y-102791943D01*
X129102156Y-102776957D01*
X135261928Y-108936730D01*
X135261928Y-110200000D01*
X135274188Y-110324482D01*
X135310498Y-110444180D01*
X135369463Y-110554494D01*
X135448815Y-110651185D01*
X135545506Y-110730537D01*
X135655820Y-110789502D01*
X135775518Y-110825812D01*
X135900000Y-110838072D01*
X137600000Y-110838072D01*
X137724482Y-110825812D01*
X137844180Y-110789502D01*
X137954494Y-110730537D01*
X138051185Y-110651185D01*
X138130537Y-110554494D01*
X138189502Y-110444180D01*
X138225812Y-110324482D01*
X138238072Y-110200000D01*
X138238072Y-108502887D01*
X140768063Y-108502887D01*
X140825404Y-108779306D01*
X140935570Y-109039227D01*
X141094327Y-109272662D01*
X141295575Y-109470639D01*
X141531579Y-109625551D01*
X141793270Y-109731444D01*
X141850961Y-109741904D01*
X142073000Y-109619915D01*
X142073000Y-108277000D01*
X142327000Y-108277000D01*
X142327000Y-109619915D01*
X142549039Y-109741904D01*
X142606730Y-109731444D01*
X142812792Y-109648061D01*
X143465000Y-109648061D01*
X143465000Y-109851939D01*
X143504774Y-110051898D01*
X143582795Y-110240256D01*
X143696063Y-110409774D01*
X143840226Y-110553937D01*
X144009744Y-110667205D01*
X144198102Y-110745226D01*
X144398061Y-110785000D01*
X144601939Y-110785000D01*
X144801898Y-110745226D01*
X144990256Y-110667205D01*
X145159774Y-110553937D01*
X145303937Y-110409774D01*
X145417205Y-110240256D01*
X145495226Y-110051898D01*
X145535000Y-109851939D01*
X145535000Y-109648061D01*
X145495226Y-109448102D01*
X145417205Y-109259744D01*
X145303937Y-109090226D01*
X145159774Y-108946063D01*
X144990256Y-108832795D01*
X144801898Y-108754774D01*
X144601939Y-108715000D01*
X144398061Y-108715000D01*
X144198102Y-108754774D01*
X144009744Y-108832795D01*
X143840226Y-108946063D01*
X143696063Y-109090226D01*
X143582795Y-109259744D01*
X143504774Y-109448102D01*
X143465000Y-109648061D01*
X142812792Y-109648061D01*
X142868421Y-109625551D01*
X143104425Y-109470639D01*
X143305673Y-109272662D01*
X143464430Y-109039227D01*
X143574596Y-108779306D01*
X143631937Y-108502887D01*
X143479474Y-108277000D01*
X142327000Y-108277000D01*
X142073000Y-108277000D01*
X140920526Y-108277000D01*
X140768063Y-108502887D01*
X138238072Y-108502887D01*
X138238072Y-108500000D01*
X138225812Y-108375518D01*
X138189502Y-108255820D01*
X138130537Y-108145506D01*
X138051185Y-108048815D01*
X137954494Y-107969463D01*
X137844180Y-107910498D01*
X137763534Y-107886034D01*
X137847588Y-107810269D01*
X138021641Y-107576920D01*
X138146825Y-107314099D01*
X138191476Y-107166890D01*
X138070155Y-106937000D01*
X136877000Y-106937000D01*
X136877000Y-106957000D01*
X136623000Y-106957000D01*
X136623000Y-106937000D01*
X136603000Y-106937000D01*
X136603000Y-106683000D01*
X136623000Y-106683000D01*
X136623000Y-105489186D01*
X136877000Y-105489186D01*
X136877000Y-106683000D01*
X138070155Y-106683000D01*
X138191476Y-106453110D01*
X138146825Y-106305901D01*
X138021641Y-106043080D01*
X137847588Y-105809731D01*
X137631355Y-105614822D01*
X137443441Y-105502887D01*
X140768063Y-105502887D01*
X140825404Y-105779306D01*
X140935570Y-106039227D01*
X141094327Y-106272662D01*
X141295575Y-106470639D01*
X141531579Y-106625551D01*
X141591999Y-106650000D01*
X141531579Y-106674449D01*
X141295575Y-106829361D01*
X141094327Y-107027338D01*
X140935570Y-107260773D01*
X140825404Y-107520694D01*
X140768063Y-107797113D01*
X140920526Y-108023000D01*
X142073000Y-108023000D01*
X142073000Y-106680085D01*
X142018241Y-106650000D01*
X142073000Y-106619915D01*
X142073000Y-105277000D01*
X142327000Y-105277000D01*
X142327000Y-106619915D01*
X142381759Y-106650000D01*
X142327000Y-106680085D01*
X142327000Y-108023000D01*
X143479474Y-108023000D01*
X143631937Y-107797113D01*
X143574596Y-107520694D01*
X143464430Y-107260773D01*
X143305673Y-107027338D01*
X143104425Y-106829361D01*
X142868421Y-106674449D01*
X142808001Y-106650000D01*
X142868421Y-106625551D01*
X143104425Y-106470639D01*
X143305673Y-106272662D01*
X143464430Y-106039227D01*
X143574596Y-105779306D01*
X143631937Y-105502887D01*
X143479474Y-105277000D01*
X142327000Y-105277000D01*
X142073000Y-105277000D01*
X140920526Y-105277000D01*
X140768063Y-105502887D01*
X137443441Y-105502887D01*
X137381252Y-105465843D01*
X137106891Y-105368519D01*
X136877000Y-105489186D01*
X136623000Y-105489186D01*
X136393109Y-105368519D01*
X136118748Y-105465843D01*
X135868645Y-105614822D01*
X135652412Y-105809731D01*
X135478359Y-106043080D01*
X135353175Y-106305901D01*
X135308524Y-106453110D01*
X135429844Y-106682998D01*
X135265000Y-106682998D01*
X135265000Y-106790198D01*
X133271915Y-104797113D01*
X140768063Y-104797113D01*
X140920526Y-105023000D01*
X142073000Y-105023000D01*
X142073000Y-103680085D01*
X142327000Y-103680085D01*
X142327000Y-105023000D01*
X143479474Y-105023000D01*
X143631937Y-104797113D01*
X143574596Y-104520694D01*
X143464430Y-104260773D01*
X143305673Y-104027338D01*
X143104425Y-103829361D01*
X142868421Y-103674449D01*
X142606730Y-103568556D01*
X142549039Y-103558096D01*
X142327000Y-103680085D01*
X142073000Y-103680085D01*
X141850961Y-103558096D01*
X141793270Y-103568556D01*
X141531579Y-103674449D01*
X141295575Y-103829361D01*
X141094327Y-104027338D01*
X140935570Y-104260773D01*
X140825404Y-104520694D01*
X140768063Y-104797113D01*
X133271915Y-104797113D01*
X131969256Y-103494455D01*
X132053937Y-103409774D01*
X132167205Y-103240256D01*
X132245226Y-103051898D01*
X132285000Y-102851939D01*
X132285000Y-102648061D01*
X132245226Y-102448102D01*
X132167205Y-102259744D01*
X132053937Y-102090226D01*
X131909774Y-101946063D01*
X131740256Y-101832795D01*
X131551898Y-101754774D01*
X131351939Y-101715000D01*
X131148061Y-101715000D01*
X130948102Y-101754774D01*
X130759744Y-101832795D01*
X130590226Y-101946063D01*
X130505545Y-102030744D01*
X130317076Y-101842275D01*
X130424276Y-101784974D01*
X130540001Y-101690001D01*
X130563804Y-101660997D01*
X132115000Y-100109802D01*
X132115000Y-100177002D01*
X132270525Y-100177002D01*
X132118063Y-100402887D01*
X132175404Y-100679306D01*
X132285570Y-100939227D01*
X132444327Y-101172662D01*
X132645575Y-101370639D01*
X132881579Y-101525551D01*
X133143270Y-101631444D01*
X133200961Y-101641904D01*
X133423000Y-101519915D01*
X133423000Y-100177000D01*
X133677000Y-100177000D01*
X133677000Y-101519915D01*
X133899039Y-101641904D01*
X133956730Y-101631444D01*
X134218421Y-101525551D01*
X134454425Y-101370639D01*
X134655673Y-101172662D01*
X134814430Y-100939227D01*
X134924596Y-100679306D01*
X134981937Y-100402887D01*
X134829474Y-100177000D01*
X133677000Y-100177000D01*
X133423000Y-100177000D01*
X133403000Y-100177000D01*
X133403000Y-99923000D01*
X133423000Y-99923000D01*
X133423000Y-99903000D01*
X133677000Y-99903000D01*
X133677000Y-99923000D01*
X134829474Y-99923000D01*
X134981937Y-99697113D01*
X134924596Y-99420694D01*
X134814430Y-99160773D01*
X134655673Y-98927338D01*
X134454425Y-98729361D01*
X134218421Y-98574449D01*
X133956730Y-98468556D01*
X133899039Y-98458096D01*
X133677002Y-98580084D01*
X133677002Y-98547800D01*
X134997778Y-97227025D01*
X135108167Y-97300785D01*
X135354761Y-97402928D01*
X135616544Y-97455000D01*
X135883456Y-97455000D01*
X136145239Y-97402928D01*
X136391833Y-97300785D01*
X136613762Y-97152497D01*
X136802497Y-96963762D01*
X136950785Y-96741833D01*
X137052928Y-96495239D01*
X137105000Y-96233456D01*
X137105000Y-95966544D01*
X137083461Y-95858263D01*
X141169213Y-99944015D01*
X141001068Y-100148899D01*
X140867818Y-100398192D01*
X140785764Y-100668691D01*
X140765000Y-100879508D01*
X140765000Y-101420491D01*
X140785764Y-101631308D01*
X140867818Y-101901807D01*
X141001068Y-102151100D01*
X141180392Y-102369607D01*
X141398899Y-102548932D01*
X141648192Y-102682182D01*
X141918691Y-102764236D01*
X142200000Y-102791943D01*
X142315742Y-102780543D01*
X148511928Y-108976730D01*
X148511928Y-110240000D01*
X148524188Y-110364482D01*
X148560498Y-110484180D01*
X148619463Y-110594494D01*
X148698815Y-110691185D01*
X148795506Y-110770537D01*
X148905820Y-110829502D01*
X149025518Y-110865812D01*
X149150000Y-110878072D01*
X150850000Y-110878072D01*
X150974482Y-110865812D01*
X151094180Y-110829502D01*
X151204494Y-110770537D01*
X151301185Y-110691185D01*
X151380537Y-110594494D01*
X151439502Y-110484180D01*
X151475812Y-110364482D01*
X151488072Y-110240000D01*
X151488072Y-108540000D01*
X151475812Y-108415518D01*
X151439502Y-108295820D01*
X151380537Y-108185506D01*
X151301185Y-108088815D01*
X151204494Y-108009463D01*
X151094180Y-107950498D01*
X151013534Y-107926034D01*
X151062349Y-107882032D01*
X164120000Y-107882032D01*
X164120000Y-108277968D01*
X164197243Y-108666296D01*
X164348761Y-109032092D01*
X164568731Y-109361301D01*
X164848699Y-109641269D01*
X165177908Y-109861239D01*
X165543704Y-110012757D01*
X165932032Y-110090000D01*
X166327968Y-110090000D01*
X166716296Y-110012757D01*
X167082092Y-109861239D01*
X167411301Y-109641269D01*
X167691269Y-109361301D01*
X167911239Y-109032092D01*
X168062757Y-108666296D01*
X168140000Y-108277968D01*
X168140000Y-107882032D01*
X168062757Y-107493704D01*
X167911239Y-107127908D01*
X167691269Y-106798699D01*
X167411301Y-106518731D01*
X167082092Y-106298761D01*
X166716296Y-106147243D01*
X166327968Y-106070000D01*
X165932032Y-106070000D01*
X165543704Y-106147243D01*
X165177908Y-106298761D01*
X164848699Y-106518731D01*
X164568731Y-106798699D01*
X164348761Y-107127908D01*
X164197243Y-107493704D01*
X164120000Y-107882032D01*
X151062349Y-107882032D01*
X151097588Y-107850269D01*
X151271641Y-107616920D01*
X151396825Y-107354099D01*
X151441476Y-107206890D01*
X151320155Y-106977000D01*
X150127000Y-106977000D01*
X150127000Y-106997000D01*
X149873000Y-106997000D01*
X149873000Y-106977000D01*
X149853000Y-106977000D01*
X149853000Y-106723000D01*
X149873000Y-106723000D01*
X149873000Y-105529186D01*
X150127000Y-105529186D01*
X150127000Y-106723000D01*
X151320155Y-106723000D01*
X151441476Y-106493110D01*
X151396825Y-106345901D01*
X151271641Y-106083080D01*
X151097588Y-105849731D01*
X150881355Y-105654822D01*
X150631252Y-105505843D01*
X150356891Y-105408519D01*
X150127000Y-105529186D01*
X149873000Y-105529186D01*
X149643109Y-105408519D01*
X149368748Y-105505843D01*
X149118645Y-105654822D01*
X148902412Y-105849731D01*
X148728359Y-106083080D01*
X148603175Y-106345901D01*
X148558524Y-106493110D01*
X148679844Y-106722998D01*
X148515000Y-106722998D01*
X148515000Y-106830198D01*
X145199256Y-103514455D01*
X145303937Y-103409774D01*
X145417205Y-103240256D01*
X145495226Y-103051898D01*
X145535000Y-102851939D01*
X145535000Y-102648061D01*
X145495226Y-102448102D01*
X145417205Y-102259744D01*
X145303937Y-102090226D01*
X145159774Y-101946063D01*
X144990256Y-101832795D01*
X144801898Y-101754774D01*
X144601939Y-101715000D01*
X144398061Y-101715000D01*
X144198102Y-101754774D01*
X144009744Y-101832795D01*
X143840226Y-101946063D01*
X143735545Y-102050744D01*
X143544849Y-101860048D01*
X143614236Y-101631309D01*
X143635000Y-101420492D01*
X143635000Y-100879509D01*
X143614236Y-100668692D01*
X143533606Y-100402887D01*
X145368063Y-100402887D01*
X145425404Y-100679306D01*
X145535570Y-100939227D01*
X145694327Y-101172662D01*
X145895575Y-101370639D01*
X146131579Y-101525551D01*
X146393270Y-101631444D01*
X146450961Y-101641904D01*
X146673000Y-101519915D01*
X146673000Y-100177000D01*
X146927000Y-100177000D01*
X146927000Y-101519915D01*
X147149039Y-101641904D01*
X147206730Y-101631444D01*
X147468421Y-101525551D01*
X147704425Y-101370639D01*
X147905673Y-101172662D01*
X148023098Y-101000000D01*
X163740928Y-101000000D01*
X163740928Y-102200000D01*
X163757992Y-102373254D01*
X163808528Y-102539850D01*
X163890595Y-102693386D01*
X164001038Y-102827962D01*
X164135614Y-102938405D01*
X164289150Y-103020472D01*
X164455746Y-103071008D01*
X164629000Y-103088072D01*
X166079000Y-103088072D01*
X166252254Y-103071008D01*
X166418850Y-103020472D01*
X166572386Y-102938405D01*
X166706962Y-102827962D01*
X166817405Y-102693386D01*
X166899472Y-102539850D01*
X166950008Y-102373254D01*
X166967072Y-102200000D01*
X166967072Y-101000000D01*
X166950008Y-100826746D01*
X166899472Y-100660150D01*
X166817405Y-100506614D01*
X166706962Y-100372038D01*
X166572386Y-100261595D01*
X166467039Y-100205286D01*
X166488429Y-100189049D01*
X166681496Y-99971193D01*
X166828352Y-99719858D01*
X166920476Y-99456890D01*
X166799155Y-99227000D01*
X165481000Y-99227000D01*
X165481000Y-99247000D01*
X165227000Y-99247000D01*
X165227000Y-99227000D01*
X163908845Y-99227000D01*
X163787524Y-99456890D01*
X163879648Y-99719858D01*
X164026504Y-99971193D01*
X164219571Y-100189049D01*
X164240961Y-100205286D01*
X164135614Y-100261595D01*
X164001038Y-100372038D01*
X163890595Y-100506614D01*
X163808528Y-100660150D01*
X163757992Y-100826746D01*
X163740928Y-101000000D01*
X148023098Y-101000000D01*
X148064430Y-100939227D01*
X148174596Y-100679306D01*
X148231937Y-100402887D01*
X148079474Y-100177000D01*
X146927000Y-100177000D01*
X146673000Y-100177000D01*
X145520526Y-100177000D01*
X145368063Y-100402887D01*
X143533606Y-100402887D01*
X143532182Y-100398193D01*
X143398932Y-100148899D01*
X143219608Y-99930392D01*
X143001101Y-99751068D01*
X142938941Y-99717843D01*
X142932653Y-99697113D01*
X145368063Y-99697113D01*
X145520526Y-99923000D01*
X146673000Y-99923000D01*
X146673000Y-98580085D01*
X146927000Y-98580085D01*
X146927000Y-99923000D01*
X148079474Y-99923000D01*
X148231937Y-99697113D01*
X148174596Y-99420694D01*
X148064430Y-99160773D01*
X147905673Y-98927338D01*
X147704425Y-98729361D01*
X147468421Y-98574449D01*
X147206730Y-98468556D01*
X147149039Y-98458096D01*
X146927000Y-98580085D01*
X146673000Y-98580085D01*
X146450961Y-98458096D01*
X146393270Y-98468556D01*
X146131579Y-98574449D01*
X145895575Y-98729361D01*
X145694327Y-98927338D01*
X145535570Y-99160773D01*
X145425404Y-99420694D01*
X145368063Y-99697113D01*
X142932653Y-99697113D01*
X142905546Y-99607753D01*
X142834974Y-99475723D01*
X142763799Y-99388997D01*
X142740001Y-99359999D01*
X142711003Y-99336201D01*
X137463804Y-94089003D01*
X137440001Y-94059999D01*
X137324276Y-93965026D01*
X137192247Y-93894454D01*
X137048986Y-93850997D01*
X136937333Y-93840000D01*
X136937322Y-93840000D01*
X136900000Y-93836324D01*
X136862678Y-93840000D01*
X132869803Y-93840000D01*
X135109803Y-91600000D01*
X163736815Y-91600000D01*
X163765487Y-91891111D01*
X163850401Y-92171034D01*
X163988294Y-92429014D01*
X164173866Y-92655134D01*
X164399986Y-92840706D01*
X164417374Y-92850000D01*
X164399986Y-92859294D01*
X164173866Y-93044866D01*
X163988294Y-93270986D01*
X163850401Y-93528966D01*
X163765487Y-93808889D01*
X163736815Y-94100000D01*
X163765487Y-94391111D01*
X163850401Y-94671034D01*
X163988294Y-94929014D01*
X164173866Y-95155134D01*
X164399986Y-95340706D01*
X164417374Y-95350000D01*
X164399986Y-95359294D01*
X164173866Y-95544866D01*
X163988294Y-95770986D01*
X163850401Y-96028966D01*
X163765487Y-96308889D01*
X163736815Y-96600000D01*
X163765487Y-96891111D01*
X163850401Y-97171034D01*
X163988294Y-97429014D01*
X164173866Y-97655134D01*
X164399986Y-97840706D01*
X164425722Y-97854462D01*
X164219571Y-98010951D01*
X164026504Y-98228807D01*
X163879648Y-98480142D01*
X163787524Y-98743110D01*
X163908845Y-98973000D01*
X165227000Y-98973000D01*
X165227000Y-98953000D01*
X165481000Y-98953000D01*
X165481000Y-98973000D01*
X166799155Y-98973000D01*
X166920476Y-98743110D01*
X166828352Y-98480142D01*
X166681496Y-98228807D01*
X166488429Y-98010951D01*
X166282278Y-97854462D01*
X166308014Y-97840706D01*
X166534134Y-97655134D01*
X166719706Y-97429014D01*
X166857599Y-97171034D01*
X166942513Y-96891111D01*
X166971185Y-96600000D01*
X166942513Y-96308889D01*
X166857599Y-96028966D01*
X166719706Y-95770986D01*
X166534134Y-95544866D01*
X166308014Y-95359294D01*
X166290626Y-95350000D01*
X166308014Y-95340706D01*
X166534134Y-95155134D01*
X166719706Y-94929014D01*
X166857599Y-94671034D01*
X166942513Y-94391111D01*
X166971185Y-94100000D01*
X166942513Y-93808889D01*
X166857599Y-93528966D01*
X166719706Y-93270986D01*
X166534134Y-93044866D01*
X166308014Y-92859294D01*
X166290626Y-92850000D01*
X166308014Y-92840706D01*
X166534134Y-92655134D01*
X166719706Y-92429014D01*
X166857599Y-92171034D01*
X166942513Y-91891111D01*
X166971185Y-91600000D01*
X166942513Y-91308889D01*
X166857599Y-91028966D01*
X166719706Y-90770986D01*
X166534134Y-90544866D01*
X166308014Y-90359294D01*
X166050034Y-90221401D01*
X165770111Y-90136487D01*
X165551950Y-90115000D01*
X165156050Y-90115000D01*
X164937889Y-90136487D01*
X164657966Y-90221401D01*
X164399986Y-90359294D01*
X164173866Y-90544866D01*
X163988294Y-90770986D01*
X163850401Y-91028966D01*
X163765487Y-91308889D01*
X163736815Y-91600000D01*
X135109803Y-91600000D01*
X137546004Y-89163800D01*
X137575002Y-89140002D01*
X137669975Y-89024277D01*
X137740547Y-88892248D01*
X137784004Y-88748987D01*
X137795001Y-88637334D01*
X137795001Y-88637326D01*
X137798677Y-88600001D01*
X137795001Y-88562676D01*
X137795001Y-87706753D01*
X137966842Y-87777932D01*
X138253740Y-87835000D01*
X138546260Y-87835000D01*
X138833158Y-87777932D01*
X139103411Y-87665990D01*
X139346632Y-87503475D01*
X139553475Y-87296632D01*
X139670000Y-87122240D01*
X139786525Y-87296632D01*
X139993368Y-87503475D01*
X140236589Y-87665990D01*
X140506842Y-87777932D01*
X140793740Y-87835000D01*
X141086260Y-87835000D01*
X141373158Y-87777932D01*
X141643411Y-87665990D01*
X141886632Y-87503475D01*
X142093475Y-87296632D01*
X142215195Y-87114466D01*
X142284822Y-87231355D01*
X142479731Y-87447588D01*
X142713080Y-87621641D01*
X142975901Y-87746825D01*
X143123110Y-87791476D01*
X143353000Y-87670155D01*
X143353000Y-86477000D01*
X143333000Y-86477000D01*
X143333000Y-86223000D01*
X143353000Y-86223000D01*
X143353000Y-86203000D01*
X143607000Y-86203000D01*
X143607000Y-86223000D01*
X143627000Y-86223000D01*
X143627000Y-86477000D01*
X143607000Y-86477000D01*
X143607000Y-87670155D01*
X143836890Y-87791476D01*
X143984099Y-87746825D01*
X144246920Y-87621641D01*
X144480269Y-87447588D01*
X144675178Y-87231355D01*
X144744805Y-87114466D01*
X144866525Y-87296632D01*
X145073368Y-87503475D01*
X145316589Y-87665990D01*
X145586842Y-87777932D01*
X145873740Y-87835000D01*
X146166260Y-87835000D01*
X146453158Y-87777932D01*
X146723411Y-87665990D01*
X146966632Y-87503475D01*
X147173475Y-87296632D01*
X147290000Y-87122240D01*
X147406525Y-87296632D01*
X147613368Y-87503475D01*
X147856589Y-87665990D01*
X148126842Y-87777932D01*
X148413740Y-87835000D01*
X148706260Y-87835000D01*
X148993158Y-87777932D01*
X149263411Y-87665990D01*
X149506632Y-87503475D01*
X149713475Y-87296632D01*
X149830000Y-87122240D01*
X149946525Y-87296632D01*
X150153368Y-87503475D01*
X150396589Y-87665990D01*
X150666842Y-87777932D01*
X150953740Y-87835000D01*
X151246260Y-87835000D01*
X151533158Y-87777932D01*
X151803411Y-87665990D01*
X152046632Y-87503475D01*
X152253475Y-87296632D01*
X152370000Y-87122240D01*
X152486525Y-87296632D01*
X152693368Y-87503475D01*
X152936589Y-87665990D01*
X153206842Y-87777932D01*
X153493740Y-87835000D01*
X153786260Y-87835000D01*
X154073158Y-87777932D01*
X154343411Y-87665990D01*
X154586632Y-87503475D01*
X154793475Y-87296632D01*
X154910000Y-87122240D01*
X155026525Y-87296632D01*
X155233368Y-87503475D01*
X155476589Y-87665990D01*
X155746842Y-87777932D01*
X156033740Y-87835000D01*
X156326260Y-87835000D01*
X156613158Y-87777932D01*
X156883411Y-87665990D01*
X157126632Y-87503475D01*
X157333475Y-87296632D01*
X157450000Y-87122240D01*
X157566525Y-87296632D01*
X157773368Y-87503475D01*
X158016589Y-87665990D01*
X158286842Y-87777932D01*
X158573740Y-87835000D01*
X158866260Y-87835000D01*
X159153158Y-87777932D01*
X159423411Y-87665990D01*
X159666632Y-87503475D01*
X159873475Y-87296632D01*
X159995195Y-87114466D01*
X160064822Y-87231355D01*
X160259731Y-87447588D01*
X160493080Y-87621641D01*
X160755901Y-87746825D01*
X160903110Y-87791476D01*
X161133000Y-87670155D01*
X161133000Y-86477000D01*
X161387000Y-86477000D01*
X161387000Y-87670155D01*
X161616890Y-87791476D01*
X161764099Y-87746825D01*
X162026920Y-87621641D01*
X162260269Y-87447588D01*
X162455178Y-87231355D01*
X162604157Y-86981252D01*
X162701481Y-86706891D01*
X162580814Y-86477000D01*
X161387000Y-86477000D01*
X161133000Y-86477000D01*
X161113000Y-86477000D01*
X161113000Y-86223000D01*
X161133000Y-86223000D01*
X161133000Y-86203000D01*
X161387000Y-86203000D01*
X161387000Y-86223000D01*
X162580814Y-86223000D01*
X162701481Y-85993109D01*
X162604157Y-85718748D01*
X162455178Y-85468645D01*
X162260269Y-85252412D01*
X162030594Y-85081100D01*
X162206632Y-84963475D01*
X162288075Y-84882032D01*
X164120000Y-84882032D01*
X164120000Y-85277968D01*
X164197243Y-85666296D01*
X164348761Y-86032092D01*
X164568731Y-86361301D01*
X164848699Y-86641269D01*
X165177908Y-86861239D01*
X165543704Y-87012757D01*
X165932032Y-87090000D01*
X166327968Y-87090000D01*
X166716296Y-87012757D01*
X167082092Y-86861239D01*
X167411301Y-86641269D01*
X167691269Y-86361301D01*
X167911239Y-86032092D01*
X168062757Y-85666296D01*
X168140000Y-85277968D01*
X168140000Y-84882032D01*
X168062757Y-84493704D01*
X167911239Y-84127908D01*
X167691269Y-83798699D01*
X167411301Y-83518731D01*
X167082092Y-83298761D01*
X166716296Y-83147243D01*
X166327968Y-83070000D01*
X165932032Y-83070000D01*
X165543704Y-83147243D01*
X165177908Y-83298761D01*
X164848699Y-83518731D01*
X164568731Y-83798699D01*
X164348761Y-84127908D01*
X164197243Y-84493704D01*
X164120000Y-84882032D01*
X162288075Y-84882032D01*
X162413475Y-84756632D01*
X162575990Y-84513411D01*
X162687932Y-84243158D01*
X162745000Y-83956260D01*
X162745000Y-83663740D01*
X162687932Y-83376842D01*
X162575990Y-83106589D01*
X162413475Y-82863368D01*
X162206632Y-82656525D01*
X161963411Y-82494010D01*
X161693158Y-82382068D01*
X161406260Y-82325000D01*
X161113740Y-82325000D01*
X160826842Y-82382068D01*
X160556589Y-82494010D01*
X160313368Y-82656525D01*
X160106525Y-82863368D01*
X159990000Y-83037760D01*
X159873475Y-82863368D01*
X159666632Y-82656525D01*
X159423411Y-82494010D01*
X159153158Y-82382068D01*
X158866260Y-82325000D01*
X158573740Y-82325000D01*
X158286842Y-82382068D01*
X158016589Y-82494010D01*
X157773368Y-82656525D01*
X157566525Y-82863368D01*
X157450000Y-83037760D01*
X157333475Y-82863368D01*
X157126632Y-82656525D01*
X156883411Y-82494010D01*
X156613158Y-82382068D01*
X156326260Y-82325000D01*
X156033740Y-82325000D01*
X155746842Y-82382068D01*
X155476589Y-82494010D01*
X155233368Y-82656525D01*
X155026525Y-82863368D01*
X154904805Y-83045534D01*
X154835178Y-82928645D01*
X154640269Y-82712412D01*
X154406920Y-82538359D01*
X154144099Y-82413175D01*
X153996890Y-82368524D01*
X153767000Y-82489845D01*
X153767000Y-83683000D01*
X153787000Y-83683000D01*
X153787000Y-83937000D01*
X153767000Y-83937000D01*
X153767000Y-83957000D01*
X153513000Y-83957000D01*
X153513000Y-83937000D01*
X153493000Y-83937000D01*
X153493000Y-83683000D01*
X153513000Y-83683000D01*
X153513000Y-82489845D01*
X153283110Y-82368524D01*
X153135901Y-82413175D01*
X152873080Y-82538359D01*
X152639731Y-82712412D01*
X152444822Y-82928645D01*
X152375195Y-83045534D01*
X152253475Y-82863368D01*
X152046632Y-82656525D01*
X151803411Y-82494010D01*
X151533158Y-82382068D01*
X151246260Y-82325000D01*
X150953740Y-82325000D01*
X150666842Y-82382068D01*
X150396589Y-82494010D01*
X150153368Y-82656525D01*
X149946525Y-82863368D01*
X149824805Y-83045534D01*
X149755178Y-82928645D01*
X149560269Y-82712412D01*
X149326920Y-82538359D01*
X149064099Y-82413175D01*
X148916890Y-82368524D01*
X148687000Y-82489845D01*
X148687000Y-83683000D01*
X148707000Y-83683000D01*
X148707000Y-83937000D01*
X148687000Y-83937000D01*
X148687000Y-83957000D01*
X148433000Y-83957000D01*
X148433000Y-83937000D01*
X148413000Y-83937000D01*
X148413000Y-83683000D01*
X148433000Y-83683000D01*
X148433000Y-82489845D01*
X148203110Y-82368524D01*
X148055901Y-82413175D01*
X147793080Y-82538359D01*
X147559731Y-82712412D01*
X147364822Y-82928645D01*
X147295195Y-83045534D01*
X147173475Y-82863368D01*
X146966632Y-82656525D01*
X146723411Y-82494010D01*
X146453158Y-82382068D01*
X146166260Y-82325000D01*
X145873740Y-82325000D01*
X145586842Y-82382068D01*
X145316589Y-82494010D01*
X145073368Y-82656525D01*
X144866525Y-82863368D01*
X144750000Y-83037760D01*
X144633475Y-82863368D01*
X144426632Y-82656525D01*
X144183411Y-82494010D01*
X143913158Y-82382068D01*
X143626260Y-82325000D01*
X143333740Y-82325000D01*
X143046842Y-82382068D01*
X142776589Y-82494010D01*
X142533368Y-82656525D01*
X142326525Y-82863368D01*
X142210000Y-83037760D01*
X142093475Y-82863368D01*
X141886632Y-82656525D01*
X141643411Y-82494010D01*
X141373158Y-82382068D01*
X141086260Y-82325000D01*
X140793740Y-82325000D01*
X140506842Y-82382068D01*
X140236589Y-82494010D01*
X139993368Y-82656525D01*
X139786525Y-82863368D01*
X139670000Y-83037760D01*
X139553475Y-82863368D01*
X139346632Y-82656525D01*
X139103411Y-82494010D01*
X138833158Y-82382068D01*
X138546260Y-82325000D01*
X138253740Y-82325000D01*
X137966842Y-82382068D01*
X137696589Y-82494010D01*
X137453368Y-82656525D01*
X137246525Y-82863368D01*
X137124805Y-83045534D01*
X137055178Y-82928645D01*
X136860269Y-82712412D01*
X136626920Y-82538359D01*
X136364099Y-82413175D01*
X136216890Y-82368524D01*
X135987000Y-82489845D01*
X135987000Y-83683000D01*
X136007000Y-83683000D01*
X136007000Y-83937000D01*
X135987000Y-83937000D01*
X135987000Y-83957000D01*
X135733000Y-83957000D01*
X135733000Y-83937000D01*
X135713000Y-83937000D01*
X135713000Y-83683000D01*
X135733000Y-83683000D01*
X135733000Y-82489845D01*
X135503110Y-82368524D01*
X135355901Y-82413175D01*
X135093080Y-82538359D01*
X134859731Y-82712412D01*
X134664822Y-82928645D01*
X134595195Y-83045534D01*
X134473475Y-82863368D01*
X134266632Y-82656525D01*
X134023411Y-82494010D01*
X133753158Y-82382068D01*
X133466260Y-82325000D01*
X133173740Y-82325000D01*
X132886842Y-82382068D01*
X132616589Y-82494010D01*
X132373368Y-82656525D01*
X132166525Y-82863368D01*
X132050000Y-83037760D01*
X131933475Y-82863368D01*
X131726632Y-82656525D01*
X131483411Y-82494010D01*
X131213158Y-82382068D01*
X130926260Y-82325000D01*
X130633740Y-82325000D01*
X130346842Y-82382068D01*
X130076589Y-82494010D01*
X129833368Y-82656525D01*
X129626525Y-82863368D01*
X129504805Y-83045534D01*
X129435178Y-82928645D01*
X129240269Y-82712412D01*
X129006920Y-82538359D01*
X128744099Y-82413175D01*
X128596890Y-82368524D01*
X128367000Y-82489845D01*
X128367000Y-83683000D01*
X128387000Y-83683000D01*
X128387000Y-83937000D01*
X128367000Y-83937000D01*
X128367000Y-83957000D01*
X128113000Y-83957000D01*
X128113000Y-83937000D01*
X128093000Y-83937000D01*
X128093000Y-83683000D01*
X128113000Y-83683000D01*
X128113000Y-82489845D01*
X127883110Y-82368524D01*
X127735901Y-82413175D01*
X127473080Y-82538359D01*
X127239731Y-82712412D01*
X127044822Y-82928645D01*
X126975195Y-83045534D01*
X126853475Y-82863368D01*
X126646632Y-82656525D01*
X126403411Y-82494010D01*
X126133158Y-82382068D01*
X125846260Y-82325000D01*
X125553740Y-82325000D01*
X125266842Y-82382068D01*
X124996589Y-82494010D01*
X124753368Y-82656525D01*
X124546525Y-82863368D01*
X124430000Y-83037760D01*
X124313475Y-82863368D01*
X124106632Y-82656525D01*
X123863411Y-82494010D01*
X123593158Y-82382068D01*
X123306260Y-82325000D01*
X123013740Y-82325000D01*
X122726842Y-82382068D01*
X122456589Y-82494010D01*
X122213368Y-82656525D01*
X122006525Y-82863368D01*
X121890000Y-83037760D01*
X121773475Y-82863368D01*
X121566632Y-82656525D01*
X121323411Y-82494010D01*
X121053158Y-82382068D01*
X120766260Y-82325000D01*
X120473740Y-82325000D01*
X120186842Y-82382068D01*
X119916589Y-82494010D01*
X119673368Y-82656525D01*
X119466525Y-82863368D01*
X119344805Y-83045534D01*
X119275178Y-82928645D01*
X119080269Y-82712412D01*
X118846920Y-82538359D01*
X118584099Y-82413175D01*
X118436890Y-82368524D01*
X118207000Y-82489845D01*
X118207000Y-83683000D01*
X118227000Y-83683000D01*
X118227000Y-83937000D01*
X118207000Y-83937000D01*
X118207000Y-83957000D01*
X117953000Y-83957000D01*
X117953000Y-83937000D01*
X117933000Y-83937000D01*
X117933000Y-83683000D01*
X117953000Y-83683000D01*
X117953000Y-82489845D01*
X117723110Y-82368524D01*
X117575901Y-82413175D01*
X117313080Y-82538359D01*
X117079731Y-82712412D01*
X116884822Y-82928645D01*
X116815195Y-83045534D01*
X116693475Y-82863368D01*
X116486632Y-82656525D01*
X116243411Y-82494010D01*
X115973158Y-82382068D01*
X115686260Y-82325000D01*
X115393740Y-82325000D01*
X115106842Y-82382068D01*
X114836589Y-82494010D01*
X114593368Y-82656525D01*
X114386525Y-82863368D01*
X114270000Y-83037760D01*
X114153475Y-82863368D01*
X113946632Y-82656525D01*
X113703411Y-82494010D01*
X113433158Y-82382068D01*
X113146260Y-82325000D01*
X112853740Y-82325000D01*
X112566842Y-82382068D01*
X112296589Y-82494010D01*
X112053368Y-82656525D01*
X111846525Y-82863368D01*
X111684010Y-83106589D01*
X111572068Y-83376842D01*
X111515000Y-83663740D01*
X111515000Y-83956260D01*
X111572068Y-84243158D01*
X111684010Y-84513411D01*
X111846525Y-84756632D01*
X111978380Y-84888487D01*
X111905820Y-84910498D01*
X111795506Y-84969463D01*
X111698815Y-85048815D01*
X111619463Y-85145506D01*
X111560498Y-85255820D01*
X111524188Y-85375518D01*
X111511928Y-85500000D01*
X111511928Y-87200000D01*
X111524188Y-87324482D01*
X111560498Y-87444180D01*
X111619463Y-87554494D01*
X111698815Y-87651185D01*
X111795506Y-87730537D01*
X111905820Y-87789502D01*
X112025518Y-87825812D01*
X112150000Y-87838072D01*
X113850000Y-87838072D01*
X113974482Y-87825812D01*
X114094180Y-87789502D01*
X114204494Y-87730537D01*
X114301185Y-87651185D01*
X114380537Y-87554494D01*
X114439502Y-87444180D01*
X114461513Y-87371620D01*
X114593368Y-87503475D01*
X114836589Y-87665990D01*
X115106842Y-87777932D01*
X115393740Y-87835000D01*
X115686260Y-87835000D01*
X115973158Y-87777932D01*
X116243411Y-87665990D01*
X116486632Y-87503475D01*
X116693475Y-87296632D01*
X116810000Y-87122240D01*
X116926525Y-87296632D01*
X117133368Y-87503475D01*
X117258633Y-87587174D01*
X117249999Y-87586324D01*
X117212676Y-87590000D01*
X117212667Y-87590000D01*
X117101014Y-87600997D01*
X116957753Y-87644454D01*
X116825724Y-87715026D01*
X116709999Y-87809999D01*
X116686201Y-87838998D01*
X115988998Y-88536201D01*
X115960000Y-88559999D01*
X115936202Y-88588997D01*
X115936201Y-88588998D01*
X115885187Y-88651158D01*
X115776058Y-88709488D01*
X115643377Y-88818377D01*
X115534488Y-88951058D01*
X115453577Y-89102433D01*
X115403752Y-89266684D01*
X115388072Y-89425885D01*
X115388072Y-88900000D01*
X115375812Y-88775518D01*
X115339502Y-88655820D01*
X115280537Y-88545506D01*
X115201185Y-88448815D01*
X115104494Y-88369463D01*
X114994180Y-88310498D01*
X114874482Y-88274188D01*
X114750000Y-88261928D01*
X114150000Y-88261928D01*
X114025518Y-88274188D01*
X113905820Y-88310498D01*
X113795506Y-88369463D01*
X113698815Y-88448815D01*
X113619463Y-88545506D01*
X113560498Y-88655820D01*
X113524188Y-88775518D01*
X113511928Y-88900000D01*
X113511928Y-90200000D01*
X113524188Y-90324482D01*
X113535547Y-90361928D01*
X113464453Y-90361928D01*
X113475812Y-90324482D01*
X113488072Y-90200000D01*
X113485000Y-89835750D01*
X113326250Y-89677000D01*
X112677000Y-89677000D01*
X112677000Y-89697000D01*
X112423000Y-89697000D01*
X112423000Y-89677000D01*
X111773750Y-89677000D01*
X111615000Y-89835750D01*
X111611928Y-90200000D01*
X111624188Y-90324482D01*
X111639509Y-90374990D01*
X110461690Y-90374990D01*
X110460000Y-90050750D01*
X110301250Y-89892000D01*
X109327000Y-89892000D01*
X109327000Y-89912000D01*
X109073000Y-89912000D01*
X109073000Y-89892000D01*
X108098750Y-89892000D01*
X107940000Y-90050750D01*
X107936928Y-90640000D01*
X107943211Y-90703798D01*
X107738988Y-90908021D01*
X107709990Y-90931819D01*
X107686192Y-90960817D01*
X107686191Y-90960818D01*
X107615016Y-91047544D01*
X107544444Y-91179574D01*
X107530445Y-91225724D01*
X107526039Y-91240250D01*
X107513405Y-91216614D01*
X107402962Y-91082038D01*
X107363923Y-91050000D01*
X107402962Y-91017962D01*
X107513405Y-90883386D01*
X107595472Y-90729850D01*
X107646008Y-90563254D01*
X107663072Y-90390000D01*
X107663072Y-89140000D01*
X107646008Y-88966746D01*
X107622728Y-88890000D01*
X107936928Y-88890000D01*
X107940000Y-89479250D01*
X108098750Y-89638000D01*
X109073000Y-89638000D01*
X109073000Y-88413750D01*
X109327000Y-88413750D01*
X109327000Y-89638000D01*
X110301250Y-89638000D01*
X110460000Y-89479250D01*
X110463019Y-88900000D01*
X111611928Y-88900000D01*
X111615000Y-89264250D01*
X111773750Y-89423000D01*
X112423000Y-89423000D01*
X112423000Y-88423750D01*
X112677000Y-88423750D01*
X112677000Y-89423000D01*
X113326250Y-89423000D01*
X113485000Y-89264250D01*
X113488072Y-88900000D01*
X113475812Y-88775518D01*
X113439502Y-88655820D01*
X113380537Y-88545506D01*
X113301185Y-88448815D01*
X113204494Y-88369463D01*
X113094180Y-88310498D01*
X112974482Y-88274188D01*
X112850000Y-88261928D01*
X112835750Y-88265000D01*
X112677000Y-88423750D01*
X112423000Y-88423750D01*
X112264250Y-88265000D01*
X112250000Y-88261928D01*
X112125518Y-88274188D01*
X112005820Y-88310498D01*
X111895506Y-88369463D01*
X111798815Y-88448815D01*
X111719463Y-88545506D01*
X111660498Y-88655820D01*
X111624188Y-88775518D01*
X111611928Y-88900000D01*
X110463019Y-88900000D01*
X110463072Y-88890000D01*
X110450812Y-88765518D01*
X110414502Y-88645820D01*
X110355537Y-88535506D01*
X110276185Y-88438815D01*
X110179494Y-88359463D01*
X110069180Y-88300498D01*
X109949482Y-88264188D01*
X109825000Y-88251928D01*
X109485750Y-88255000D01*
X109327000Y-88413750D01*
X109073000Y-88413750D01*
X108914250Y-88255000D01*
X108575000Y-88251928D01*
X108450518Y-88264188D01*
X108330820Y-88300498D01*
X108220506Y-88359463D01*
X108123815Y-88438815D01*
X108044463Y-88535506D01*
X107985498Y-88645820D01*
X107949188Y-88765518D01*
X107936928Y-88890000D01*
X107622728Y-88890000D01*
X107595472Y-88800150D01*
X107513405Y-88646614D01*
X107402962Y-88512038D01*
X107268386Y-88401595D01*
X107114850Y-88319528D01*
X106948254Y-88268992D01*
X106775000Y-88251928D01*
X106025000Y-88251928D01*
X105851746Y-88268992D01*
X105685150Y-88319528D01*
X105531614Y-88401595D01*
X105397038Y-88512038D01*
X105286595Y-88646614D01*
X105242024Y-88730000D01*
X105160000Y-88730000D01*
X105160000Y-84882032D01*
X106120000Y-84882032D01*
X106120000Y-85277968D01*
X106197243Y-85666296D01*
X106348761Y-86032092D01*
X106568731Y-86361301D01*
X106848699Y-86641269D01*
X107177908Y-86861239D01*
X107543704Y-87012757D01*
X107932032Y-87090000D01*
X108327968Y-87090000D01*
X108716296Y-87012757D01*
X109082092Y-86861239D01*
X109411301Y-86641269D01*
X109691269Y-86361301D01*
X109911239Y-86032092D01*
X110062757Y-85666296D01*
X110140000Y-85277968D01*
X110140000Y-84882032D01*
X110062757Y-84493704D01*
X109911239Y-84127908D01*
X109691269Y-83798699D01*
X109411301Y-83518731D01*
X109082092Y-83298761D01*
X108716296Y-83147243D01*
X108327968Y-83070000D01*
X107932032Y-83070000D01*
X107543704Y-83147243D01*
X107177908Y-83298761D01*
X106848699Y-83518731D01*
X106568731Y-83798699D01*
X106348761Y-84127908D01*
X106197243Y-84493704D01*
X106120000Y-84882032D01*
X105160000Y-84882032D01*
X105160000Y-82110000D01*
X169090001Y-82110000D01*
X169090000Y-84632418D01*
G37*
%TD.AperFunction*%
D18*
X119558791Y-106443592D02*
X119515000Y-106663740D01*
X119515000Y-106956260D01*
X119572068Y-107243158D01*
X119632892Y-107390000D01*
X114527803Y-107390000D01*
X114398932Y-107148899D01*
X114219608Y-106930392D01*
X114001101Y-106751068D01*
X113812016Y-106650000D01*
X114001100Y-106548932D01*
X114219607Y-106369608D01*
X114398932Y-106151101D01*
X114527803Y-105910000D01*
X119025199Y-105910000D01*
X119558791Y-106443592D01*
%TA.AperFunction,Conductor*%
D19*
G36*
X119558791Y-106443592D02*
G01*
X119515000Y-106663740D01*
X119515000Y-106956260D01*
X119572068Y-107243158D01*
X119632892Y-107390000D01*
X114527803Y-107390000D01*
X114398932Y-107148899D01*
X114219608Y-106930392D01*
X114001101Y-106751068D01*
X113812016Y-106650000D01*
X114001100Y-106548932D01*
X114219607Y-106369608D01*
X114398932Y-106151101D01*
X114527803Y-105910000D01*
X119025199Y-105910000D01*
X119558791Y-106443592D01*
G37*
%TD.AperFunction*%
D18*
X126284488Y-97023942D02*
X126346907Y-97100000D01*
X126284488Y-97176058D01*
X126203577Y-97327433D01*
X126153752Y-97491684D01*
X126136928Y-97662500D01*
X126136928Y-98262500D01*
X126153752Y-98433316D01*
X126203577Y-98597567D01*
X126284488Y-98748942D01*
X126393377Y-98881623D01*
X126490000Y-98960920D01*
X126490001Y-102785197D01*
X122485000Y-106790199D01*
X122485000Y-106663740D01*
X122427932Y-106376842D01*
X122315990Y-106106589D01*
X122153475Y-105863368D01*
X121946632Y-105656525D01*
X121772240Y-105540000D01*
X121946632Y-105423475D01*
X122153475Y-105216632D01*
X122315990Y-104973411D01*
X122427932Y-104703158D01*
X122485000Y-104416260D01*
X122485000Y-104123740D01*
X122441210Y-103903592D01*
X122686005Y-103658797D01*
X122715002Y-103635000D01*
X122809975Y-103519275D01*
X122880547Y-103387246D01*
X122924004Y-103243985D01*
X122935001Y-103132332D01*
X122935001Y-103132323D01*
X122938677Y-103095000D01*
X122935001Y-103057677D01*
X122935001Y-100294290D01*
X126256922Y-96972370D01*
X126284488Y-97023942D01*
%TA.AperFunction,Conductor*%
D19*
G36*
X126284488Y-97023942D02*
G01*
X126346907Y-97100000D01*
X126284488Y-97176058D01*
X126203577Y-97327433D01*
X126153752Y-97491684D01*
X126136928Y-97662500D01*
X126136928Y-98262500D01*
X126153752Y-98433316D01*
X126203577Y-98597567D01*
X126284488Y-98748942D01*
X126393377Y-98881623D01*
X126490000Y-98960920D01*
X126490001Y-102785197D01*
X122485000Y-106790199D01*
X122485000Y-106663740D01*
X122427932Y-106376842D01*
X122315990Y-106106589D01*
X122153475Y-105863368D01*
X121946632Y-105656525D01*
X121772240Y-105540000D01*
X121946632Y-105423475D01*
X122153475Y-105216632D01*
X122315990Y-104973411D01*
X122427932Y-104703158D01*
X122485000Y-104416260D01*
X122485000Y-104123740D01*
X122441210Y-103903592D01*
X122686005Y-103658797D01*
X122715002Y-103635000D01*
X122809975Y-103519275D01*
X122880547Y-103387246D01*
X122924004Y-103243985D01*
X122935001Y-103132332D01*
X122935001Y-103132323D01*
X122938677Y-103095000D01*
X122935001Y-103057677D01*
X122935001Y-100294290D01*
X126256922Y-96972370D01*
X126284488Y-97023942D01*
G37*
%TD.AperFunction*%
D18*
X114582795Y-102259744D02*
X114504774Y-102448102D01*
X114465000Y-102648061D01*
X114465000Y-102851939D01*
X114504774Y-103051898D01*
X114582795Y-103240256D01*
X114696063Y-103409774D01*
X114840226Y-103553937D01*
X115009744Y-103667205D01*
X115198102Y-103745226D01*
X115398061Y-103785000D01*
X115601939Y-103785000D01*
X115801898Y-103745226D01*
X115990256Y-103667205D01*
X116159774Y-103553937D01*
X116303937Y-103409774D01*
X116417205Y-103240256D01*
X116495226Y-103051898D01*
X116535000Y-102851939D01*
X116535000Y-102648061D01*
X116495226Y-102448102D01*
X116417205Y-102259744D01*
X116333861Y-102135010D01*
X117790209Y-102135010D01*
X119558790Y-103903592D01*
X119515000Y-104123740D01*
X119515000Y-104408888D01*
X119488986Y-104400997D01*
X119377333Y-104390000D01*
X119377322Y-104390000D01*
X119340000Y-104386324D01*
X119302678Y-104390000D01*
X114527803Y-104390000D01*
X114398932Y-104148899D01*
X114219608Y-103930392D01*
X114001101Y-103751068D01*
X113751808Y-103617818D01*
X113481309Y-103535764D01*
X113200000Y-103508057D01*
X112918692Y-103535764D01*
X112834990Y-103561154D01*
X112834990Y-102738846D01*
X112918691Y-102764236D01*
X113200000Y-102791943D01*
X113481308Y-102764236D01*
X113751807Y-102682182D01*
X114001100Y-102548932D01*
X114219607Y-102369608D01*
X114398932Y-102151101D01*
X114407533Y-102135010D01*
X114666139Y-102135010D01*
X114582795Y-102259744D01*
%TA.AperFunction,Conductor*%
D19*
G36*
X114582795Y-102259744D02*
G01*
X114504774Y-102448102D01*
X114465000Y-102648061D01*
X114465000Y-102851939D01*
X114504774Y-103051898D01*
X114582795Y-103240256D01*
X114696063Y-103409774D01*
X114840226Y-103553937D01*
X115009744Y-103667205D01*
X115198102Y-103745226D01*
X115398061Y-103785000D01*
X115601939Y-103785000D01*
X115801898Y-103745226D01*
X115990256Y-103667205D01*
X116159774Y-103553937D01*
X116303937Y-103409774D01*
X116417205Y-103240256D01*
X116495226Y-103051898D01*
X116535000Y-102851939D01*
X116535000Y-102648061D01*
X116495226Y-102448102D01*
X116417205Y-102259744D01*
X116333861Y-102135010D01*
X117790209Y-102135010D01*
X119558790Y-103903592D01*
X119515000Y-104123740D01*
X119515000Y-104408888D01*
X119488986Y-104400997D01*
X119377333Y-104390000D01*
X119377322Y-104390000D01*
X119340000Y-104386324D01*
X119302678Y-104390000D01*
X114527803Y-104390000D01*
X114398932Y-104148899D01*
X114219608Y-103930392D01*
X114001101Y-103751068D01*
X113751808Y-103617818D01*
X113481309Y-103535764D01*
X113200000Y-103508057D01*
X112918692Y-103535764D01*
X112834990Y-103561154D01*
X112834990Y-102738846D01*
X112918691Y-102764236D01*
X113200000Y-102791943D01*
X113481308Y-102764236D01*
X113751807Y-102682182D01*
X114001100Y-102548932D01*
X114219607Y-102369608D01*
X114398932Y-102151101D01*
X114407533Y-102135010D01*
X114666139Y-102135010D01*
X114582795Y-102259744D01*
G37*
%TD.AperFunction*%
D18*
X121386928Y-97811730D02*
X121386928Y-98012500D01*
X121403752Y-98183316D01*
X121453577Y-98347567D01*
X121534488Y-98498942D01*
X121643377Y-98631623D01*
X121776058Y-98740512D01*
X121927433Y-98821423D01*
X122091684Y-98871248D01*
X122197972Y-98881717D01*
X121663999Y-99415690D01*
X121635001Y-99439488D01*
X121611203Y-99468486D01*
X121611202Y-99468487D01*
X121540027Y-99555213D01*
X121469455Y-99687243D01*
X121425999Y-99830504D01*
X121411325Y-99979489D01*
X121415002Y-100016821D01*
X121415002Y-100309133D01*
X121356891Y-100288519D01*
X121127000Y-100409186D01*
X121127000Y-101603000D01*
X121147000Y-101603000D01*
X121147000Y-101857000D01*
X121127000Y-101857000D01*
X121127000Y-101877000D01*
X120873000Y-101877000D01*
X120873000Y-101857000D01*
X120853000Y-101857000D01*
X120853000Y-101603000D01*
X120873000Y-101603000D01*
X120873000Y-100409186D01*
X120643109Y-100288519D01*
X120368748Y-100385843D01*
X120118645Y-100534822D01*
X119902412Y-100729731D01*
X119728359Y-100963080D01*
X119603175Y-101225901D01*
X119558524Y-101373110D01*
X119679844Y-101602998D01*
X119515000Y-101602998D01*
X119515000Y-101710199D01*
X118934733Y-101129932D01*
X119064430Y-100939227D01*
X119174596Y-100679306D01*
X119231937Y-100402887D01*
X119079474Y-100177000D01*
X117927000Y-100177000D01*
X117927000Y-100197000D01*
X117673000Y-100197000D01*
X117673000Y-100177000D01*
X116520526Y-100177000D01*
X116368063Y-100402887D01*
X116412066Y-100615010D01*
X114597952Y-100615010D01*
X114532182Y-100398193D01*
X114398932Y-100148899D01*
X114219608Y-99930392D01*
X114001101Y-99751068D01*
X113751808Y-99617818D01*
X113481309Y-99535764D01*
X113200000Y-99508057D01*
X112918692Y-99535764D01*
X112834990Y-99561154D01*
X112834990Y-99544811D01*
X113281730Y-99098072D01*
X113795000Y-99098072D01*
X113919482Y-99085812D01*
X114039180Y-99049502D01*
X114149494Y-98990537D01*
X114246185Y-98911185D01*
X114325537Y-98814494D01*
X114384502Y-98704180D01*
X114420812Y-98584482D01*
X114433072Y-98460000D01*
X114433072Y-98287872D01*
X115141213Y-98996013D01*
X115165011Y-99025011D01*
X115194009Y-99048809D01*
X115280735Y-99119984D01*
X115385181Y-99175812D01*
X115412765Y-99190556D01*
X115556026Y-99234013D01*
X115667679Y-99245010D01*
X115667688Y-99245010D01*
X115705011Y-99248686D01*
X115742334Y-99245010D01*
X116499867Y-99245010D01*
X116425404Y-99420694D01*
X116368063Y-99697113D01*
X116520526Y-99923000D01*
X117673000Y-99923000D01*
X117673000Y-99903000D01*
X117927000Y-99903000D01*
X117927000Y-99923000D01*
X119079474Y-99923000D01*
X119231937Y-99697113D01*
X119174596Y-99420694D01*
X119091884Y-99225547D01*
X119207237Y-99190556D01*
X119211884Y-99188072D01*
X119800000Y-99188072D01*
X119924482Y-99175812D01*
X120044180Y-99139502D01*
X120154494Y-99080537D01*
X120251185Y-99001185D01*
X120330537Y-98904494D01*
X120389502Y-98794180D01*
X120425812Y-98674482D01*
X120438072Y-98550000D01*
X120438072Y-97250000D01*
X120425812Y-97125518D01*
X120414453Y-97088072D01*
X120663271Y-97088072D01*
X121386928Y-97811730D01*
%TA.AperFunction,Conductor*%
D19*
G36*
X121386928Y-97811730D02*
G01*
X121386928Y-98012500D01*
X121403752Y-98183316D01*
X121453577Y-98347567D01*
X121534488Y-98498942D01*
X121643377Y-98631623D01*
X121776058Y-98740512D01*
X121927433Y-98821423D01*
X122091684Y-98871248D01*
X122197972Y-98881717D01*
X121663999Y-99415690D01*
X121635001Y-99439488D01*
X121611203Y-99468486D01*
X121611202Y-99468487D01*
X121540027Y-99555213D01*
X121469455Y-99687243D01*
X121425999Y-99830504D01*
X121411325Y-99979489D01*
X121415002Y-100016821D01*
X121415002Y-100309133D01*
X121356891Y-100288519D01*
X121127000Y-100409186D01*
X121127000Y-101603000D01*
X121147000Y-101603000D01*
X121147000Y-101857000D01*
X121127000Y-101857000D01*
X121127000Y-101877000D01*
X120873000Y-101877000D01*
X120873000Y-101857000D01*
X120853000Y-101857000D01*
X120853000Y-101603000D01*
X120873000Y-101603000D01*
X120873000Y-100409186D01*
X120643109Y-100288519D01*
X120368748Y-100385843D01*
X120118645Y-100534822D01*
X119902412Y-100729731D01*
X119728359Y-100963080D01*
X119603175Y-101225901D01*
X119558524Y-101373110D01*
X119679844Y-101602998D01*
X119515000Y-101602998D01*
X119515000Y-101710199D01*
X118934733Y-101129932D01*
X119064430Y-100939227D01*
X119174596Y-100679306D01*
X119231937Y-100402887D01*
X119079474Y-100177000D01*
X117927000Y-100177000D01*
X117927000Y-100197000D01*
X117673000Y-100197000D01*
X117673000Y-100177000D01*
X116520526Y-100177000D01*
X116368063Y-100402887D01*
X116412066Y-100615010D01*
X114597952Y-100615010D01*
X114532182Y-100398193D01*
X114398932Y-100148899D01*
X114219608Y-99930392D01*
X114001101Y-99751068D01*
X113751808Y-99617818D01*
X113481309Y-99535764D01*
X113200000Y-99508057D01*
X112918692Y-99535764D01*
X112834990Y-99561154D01*
X112834990Y-99544811D01*
X113281730Y-99098072D01*
X113795000Y-99098072D01*
X113919482Y-99085812D01*
X114039180Y-99049502D01*
X114149494Y-98990537D01*
X114246185Y-98911185D01*
X114325537Y-98814494D01*
X114384502Y-98704180D01*
X114420812Y-98584482D01*
X114433072Y-98460000D01*
X114433072Y-98287872D01*
X115141213Y-98996013D01*
X115165011Y-99025011D01*
X115194009Y-99048809D01*
X115280735Y-99119984D01*
X115385181Y-99175812D01*
X115412765Y-99190556D01*
X115556026Y-99234013D01*
X115667679Y-99245010D01*
X115667688Y-99245010D01*
X115705011Y-99248686D01*
X115742334Y-99245010D01*
X116499867Y-99245010D01*
X116425404Y-99420694D01*
X116368063Y-99697113D01*
X116520526Y-99923000D01*
X117673000Y-99923000D01*
X117673000Y-99903000D01*
X117927000Y-99903000D01*
X117927000Y-99923000D01*
X119079474Y-99923000D01*
X119231937Y-99697113D01*
X119174596Y-99420694D01*
X119091884Y-99225547D01*
X119207237Y-99190556D01*
X119211884Y-99188072D01*
X119800000Y-99188072D01*
X119924482Y-99175812D01*
X120044180Y-99139502D01*
X120154494Y-99080537D01*
X120251185Y-99001185D01*
X120330537Y-98904494D01*
X120389502Y-98794180D01*
X120425812Y-98674482D01*
X120438072Y-98550000D01*
X120438072Y-97250000D01*
X120425812Y-97125518D01*
X120414453Y-97088072D01*
X120663271Y-97088072D01*
X121386928Y-97811730D01*
G37*
%TD.AperFunction*%
D18*
X119511928Y-96450000D02*
X119524188Y-96574482D01*
X119535547Y-96611928D01*
X119464453Y-96611928D01*
X119475812Y-96574482D01*
X119488072Y-96450000D01*
X119485000Y-96085750D01*
X119326250Y-95927000D01*
X118677000Y-95927000D01*
X118677000Y-96886322D01*
X118669463Y-96895506D01*
X118610498Y-97005820D01*
X118574188Y-97125518D01*
X118561928Y-97250000D01*
X118561928Y-97725010D01*
X117613072Y-97725010D01*
X117613072Y-97422500D01*
X117596248Y-97251684D01*
X117546423Y-97087433D01*
X117465512Y-96936058D01*
X117356623Y-96803377D01*
X117303768Y-96760000D01*
X117356623Y-96716623D01*
X117465512Y-96583942D01*
X117546423Y-96432567D01*
X117596248Y-96268316D01*
X117613072Y-96097500D01*
X117613072Y-95809230D01*
X117615000Y-95807302D01*
X117615000Y-95927002D01*
X117773748Y-95927002D01*
X117615000Y-96085750D01*
X117611928Y-96450000D01*
X117624188Y-96574482D01*
X117660498Y-96694180D01*
X117719463Y-96804494D01*
X117798815Y-96901185D01*
X117895506Y-96980537D01*
X118005820Y-97039502D01*
X118125518Y-97075812D01*
X118250000Y-97088072D01*
X118264250Y-97085000D01*
X118423000Y-96926250D01*
X118423000Y-95927000D01*
X118403000Y-95927000D01*
X118403000Y-95673000D01*
X118423000Y-95673000D01*
X118423000Y-95653000D01*
X118677000Y-95653000D01*
X118677000Y-95673000D01*
X119326250Y-95673000D01*
X119414251Y-95584999D01*
X119511928Y-95584999D01*
X119511928Y-96450000D01*
%TA.AperFunction,Conductor*%
D19*
G36*
X119511928Y-96450000D02*
G01*
X119524188Y-96574482D01*
X119535547Y-96611928D01*
X119464453Y-96611928D01*
X119475812Y-96574482D01*
X119488072Y-96450000D01*
X119485000Y-96085750D01*
X119326250Y-95927000D01*
X118677000Y-95927000D01*
X118677000Y-96886322D01*
X118669463Y-96895506D01*
X118610498Y-97005820D01*
X118574188Y-97125518D01*
X118561928Y-97250000D01*
X118561928Y-97725010D01*
X117613072Y-97725010D01*
X117613072Y-97422500D01*
X117596248Y-97251684D01*
X117546423Y-97087433D01*
X117465512Y-96936058D01*
X117356623Y-96803377D01*
X117303768Y-96760000D01*
X117356623Y-96716623D01*
X117465512Y-96583942D01*
X117546423Y-96432567D01*
X117596248Y-96268316D01*
X117613072Y-96097500D01*
X117613072Y-95809230D01*
X117615000Y-95807302D01*
X117615000Y-95927002D01*
X117773748Y-95927002D01*
X117615000Y-96085750D01*
X117611928Y-96450000D01*
X117624188Y-96574482D01*
X117660498Y-96694180D01*
X117719463Y-96804494D01*
X117798815Y-96901185D01*
X117895506Y-96980537D01*
X118005820Y-97039502D01*
X118125518Y-97075812D01*
X118250000Y-97088072D01*
X118264250Y-97085000D01*
X118423000Y-96926250D01*
X118423000Y-95927000D01*
X118403000Y-95927000D01*
X118403000Y-95673000D01*
X118423000Y-95673000D01*
X118423000Y-95653000D01*
X118677000Y-95653000D01*
X118677000Y-95673000D01*
X119326250Y-95673000D01*
X119414251Y-95584999D01*
X119511928Y-95584999D01*
X119511928Y-96450000D01*
G37*
%TD.AperFunction*%
D18*
X130863748Y-96085858D02*
X130849605Y-96100000D01*
X130863748Y-96114143D01*
X130684143Y-96293748D01*
X130670000Y-96279605D01*
X130655858Y-96293748D01*
X130476253Y-96114143D01*
X130490395Y-96100000D01*
X130476253Y-96085858D01*
X130655858Y-95906253D01*
X130670000Y-95920395D01*
X130684143Y-95906253D01*
X130863748Y-96085858D01*
%TA.AperFunction,Conductor*%
D19*
G36*
X130863748Y-96085858D02*
G01*
X130849605Y-96100000D01*
X130863748Y-96114143D01*
X130684143Y-96293748D01*
X130670000Y-96279605D01*
X130655858Y-96293748D01*
X130476253Y-96114143D01*
X130490395Y-96100000D01*
X130476253Y-96085858D01*
X130655858Y-95906253D01*
X130670000Y-95920395D01*
X130684143Y-95906253D01*
X130863748Y-96085858D01*
G37*
%TD.AperFunction*%
D18*
X114658271Y-94421928D02*
X114145000Y-94421928D01*
X114020518Y-94434188D01*
X113900820Y-94470498D01*
X113790506Y-94529463D01*
X113693815Y-94608815D01*
X113614463Y-94705506D01*
X113555498Y-94815820D01*
X113519188Y-94935518D01*
X113506928Y-95060000D01*
X113506928Y-95925001D01*
X113409251Y-95925001D01*
X113321250Y-95837000D01*
X112672000Y-95837000D01*
X112672000Y-95857000D01*
X112418000Y-95857000D01*
X112418000Y-95837000D01*
X111768750Y-95837000D01*
X111680749Y-95925001D01*
X111324803Y-95925001D01*
X110463072Y-95063271D01*
X110463072Y-95060000D01*
X111606928Y-95060000D01*
X111610000Y-95424250D01*
X111768750Y-95583000D01*
X112418000Y-95583000D01*
X112418000Y-94583750D01*
X112672000Y-94583750D01*
X112672000Y-95583000D01*
X113321250Y-95583000D01*
X113480000Y-95424250D01*
X113483072Y-95060000D01*
X113470812Y-94935518D01*
X113434502Y-94815820D01*
X113375537Y-94705506D01*
X113296185Y-94608815D01*
X113199494Y-94529463D01*
X113089180Y-94470498D01*
X112969482Y-94434188D01*
X112845000Y-94421928D01*
X112830750Y-94425000D01*
X112672000Y-94583750D01*
X112418000Y-94583750D01*
X112259250Y-94425000D01*
X112245000Y-94421928D01*
X112120518Y-94434188D01*
X112000820Y-94470498D01*
X111890506Y-94529463D01*
X111793815Y-94608815D01*
X111714463Y-94705506D01*
X111655498Y-94815820D01*
X111619188Y-94935518D01*
X111606928Y-95060000D01*
X110463072Y-95060000D01*
X110463072Y-94250000D01*
X110446008Y-94076746D01*
X110395472Y-93910150D01*
X110313405Y-93756614D01*
X110202962Y-93622038D01*
X110182201Y-93605000D01*
X110202962Y-93587962D01*
X110313405Y-93453386D01*
X110349958Y-93385001D01*
X115695197Y-93385001D01*
X114658271Y-94421928D01*
%TA.AperFunction,Conductor*%
D19*
G36*
X114658271Y-94421928D02*
G01*
X114145000Y-94421928D01*
X114020518Y-94434188D01*
X113900820Y-94470498D01*
X113790506Y-94529463D01*
X113693815Y-94608815D01*
X113614463Y-94705506D01*
X113555498Y-94815820D01*
X113519188Y-94935518D01*
X113506928Y-95060000D01*
X113506928Y-95925001D01*
X113409251Y-95925001D01*
X113321250Y-95837000D01*
X112672000Y-95837000D01*
X112672000Y-95857000D01*
X112418000Y-95857000D01*
X112418000Y-95837000D01*
X111768750Y-95837000D01*
X111680749Y-95925001D01*
X111324803Y-95925001D01*
X110463072Y-95063271D01*
X110463072Y-95060000D01*
X111606928Y-95060000D01*
X111610000Y-95424250D01*
X111768750Y-95583000D01*
X112418000Y-95583000D01*
X112418000Y-94583750D01*
X112672000Y-94583750D01*
X112672000Y-95583000D01*
X113321250Y-95583000D01*
X113480000Y-95424250D01*
X113483072Y-95060000D01*
X113470812Y-94935518D01*
X113434502Y-94815820D01*
X113375537Y-94705506D01*
X113296185Y-94608815D01*
X113199494Y-94529463D01*
X113089180Y-94470498D01*
X112969482Y-94434188D01*
X112845000Y-94421928D01*
X112830750Y-94425000D01*
X112672000Y-94583750D01*
X112418000Y-94583750D01*
X112259250Y-94425000D01*
X112245000Y-94421928D01*
X112120518Y-94434188D01*
X112000820Y-94470498D01*
X111890506Y-94529463D01*
X111793815Y-94608815D01*
X111714463Y-94705506D01*
X111655498Y-94815820D01*
X111619188Y-94935518D01*
X111606928Y-95060000D01*
X110463072Y-95060000D01*
X110463072Y-94250000D01*
X110446008Y-94076746D01*
X110395472Y-93910150D01*
X110313405Y-93756614D01*
X110202962Y-93622038D01*
X110182201Y-93605000D01*
X110202962Y-93587962D01*
X110313405Y-93453386D01*
X110349958Y-93385001D01*
X115695197Y-93385001D01*
X114658271Y-94421928D01*
G37*
%TD.AperFunction*%
D18*
X128475000Y-90703740D02*
X128475000Y-90996260D01*
X128518790Y-91216408D01*
X126795219Y-92939980D01*
X119284821Y-92939980D01*
X119286729Y-92938072D01*
X119800000Y-92938072D01*
X119924482Y-92925812D01*
X120044180Y-92889502D01*
X120154494Y-92830537D01*
X120251185Y-92751185D01*
X120330537Y-92654494D01*
X120389502Y-92544180D01*
X120425812Y-92424482D01*
X120438072Y-92300000D01*
X120438072Y-91000000D01*
X120425812Y-90875518D01*
X120414453Y-90838072D01*
X120663271Y-90838072D01*
X121386928Y-91561730D01*
X121386928Y-91762500D01*
X121403752Y-91933316D01*
X121453577Y-92097567D01*
X121534488Y-92248942D01*
X121643377Y-92381623D01*
X121776058Y-92490512D01*
X121927433Y-92571423D01*
X122091684Y-92621248D01*
X122262500Y-92638072D01*
X122737500Y-92638072D01*
X122908316Y-92621248D01*
X123072567Y-92571423D01*
X123223942Y-92490512D01*
X123356623Y-92381623D01*
X123465512Y-92248942D01*
X123546423Y-92097567D01*
X123596248Y-91933316D01*
X123613072Y-91762500D01*
X123613072Y-91262500D01*
X123596248Y-91091684D01*
X123546423Y-90927433D01*
X123465512Y-90776058D01*
X123356623Y-90643377D01*
X123303768Y-90600000D01*
X123356623Y-90556623D01*
X123446178Y-90447500D01*
X128525970Y-90447500D01*
X128475000Y-90703740D01*
%TA.AperFunction,Conductor*%
D19*
G36*
X128475000Y-90703740D02*
G01*
X128475000Y-90996260D01*
X128518790Y-91216408D01*
X126795219Y-92939980D01*
X119284821Y-92939980D01*
X119286729Y-92938072D01*
X119800000Y-92938072D01*
X119924482Y-92925812D01*
X120044180Y-92889502D01*
X120154494Y-92830537D01*
X120251185Y-92751185D01*
X120330537Y-92654494D01*
X120389502Y-92544180D01*
X120425812Y-92424482D01*
X120438072Y-92300000D01*
X120438072Y-91000000D01*
X120425812Y-90875518D01*
X120414453Y-90838072D01*
X120663271Y-90838072D01*
X121386928Y-91561730D01*
X121386928Y-91762500D01*
X121403752Y-91933316D01*
X121453577Y-92097567D01*
X121534488Y-92248942D01*
X121643377Y-92381623D01*
X121776058Y-92490512D01*
X121927433Y-92571423D01*
X122091684Y-92621248D01*
X122262500Y-92638072D01*
X122737500Y-92638072D01*
X122908316Y-92621248D01*
X123072567Y-92571423D01*
X123223942Y-92490512D01*
X123356623Y-92381623D01*
X123465512Y-92248942D01*
X123546423Y-92097567D01*
X123596248Y-91933316D01*
X123613072Y-91762500D01*
X123613072Y-91262500D01*
X123596248Y-91091684D01*
X123546423Y-90927433D01*
X123465512Y-90776058D01*
X123356623Y-90643377D01*
X123303768Y-90600000D01*
X123356623Y-90556623D01*
X123446178Y-90447500D01*
X128525970Y-90447500D01*
X128475000Y-90703740D01*
G37*
%TD.AperFunction*%
D18*
X117615000Y-89264250D02*
X117773750Y-89423000D01*
X118423000Y-89423000D01*
X118423000Y-89403000D01*
X118677000Y-89403000D01*
X118677000Y-89423000D01*
X119326250Y-89423000D01*
X119485000Y-89264250D01*
X119486301Y-89110000D01*
X119511928Y-89110000D01*
X119511928Y-90200000D01*
X119524188Y-90324482D01*
X119535547Y-90361928D01*
X119464453Y-90361928D01*
X119475812Y-90324482D01*
X119488072Y-90200000D01*
X119485000Y-89835750D01*
X119326250Y-89677000D01*
X118677000Y-89677000D01*
X118677000Y-90636322D01*
X118669463Y-90645506D01*
X118610498Y-90755820D01*
X118574188Y-90875518D01*
X118561928Y-91000000D01*
X118561928Y-91513270D01*
X118210198Y-91865001D01*
X117602976Y-91865001D01*
X117613072Y-91762500D01*
X117613072Y-91262500D01*
X117596248Y-91091684D01*
X117546423Y-90927433D01*
X117465512Y-90776058D01*
X117356623Y-90643377D01*
X117303768Y-90600000D01*
X117356623Y-90556623D01*
X117465512Y-90423942D01*
X117546423Y-90272567D01*
X117568435Y-90200000D01*
X117611928Y-90200000D01*
X117624188Y-90324482D01*
X117660498Y-90444180D01*
X117719463Y-90554494D01*
X117798815Y-90651185D01*
X117895506Y-90730537D01*
X118005820Y-90789502D01*
X118125518Y-90825812D01*
X118250000Y-90838072D01*
X118264250Y-90835000D01*
X118423000Y-90676250D01*
X118423000Y-89677000D01*
X117773750Y-89677000D01*
X117615000Y-89835750D01*
X117611928Y-90200000D01*
X117568435Y-90200000D01*
X117596248Y-90108316D01*
X117613072Y-89937500D01*
X117613072Y-89437500D01*
X117596248Y-89266684D01*
X117552462Y-89122340D01*
X117564802Y-89110000D01*
X117613699Y-89110000D01*
X117615000Y-89264250D01*
%TA.AperFunction,Conductor*%
D19*
G36*
X117615000Y-89264250D02*
G01*
X117773750Y-89423000D01*
X118423000Y-89423000D01*
X118423000Y-89403000D01*
X118677000Y-89403000D01*
X118677000Y-89423000D01*
X119326250Y-89423000D01*
X119485000Y-89264250D01*
X119486301Y-89110000D01*
X119511928Y-89110000D01*
X119511928Y-90200000D01*
X119524188Y-90324482D01*
X119535547Y-90361928D01*
X119464453Y-90361928D01*
X119475812Y-90324482D01*
X119488072Y-90200000D01*
X119485000Y-89835750D01*
X119326250Y-89677000D01*
X118677000Y-89677000D01*
X118677000Y-90636322D01*
X118669463Y-90645506D01*
X118610498Y-90755820D01*
X118574188Y-90875518D01*
X118561928Y-91000000D01*
X118561928Y-91513270D01*
X118210198Y-91865001D01*
X117602976Y-91865001D01*
X117613072Y-91762500D01*
X117613072Y-91262500D01*
X117596248Y-91091684D01*
X117546423Y-90927433D01*
X117465512Y-90776058D01*
X117356623Y-90643377D01*
X117303768Y-90600000D01*
X117356623Y-90556623D01*
X117465512Y-90423942D01*
X117546423Y-90272567D01*
X117568435Y-90200000D01*
X117611928Y-90200000D01*
X117624188Y-90324482D01*
X117660498Y-90444180D01*
X117719463Y-90554494D01*
X117798815Y-90651185D01*
X117895506Y-90730537D01*
X118005820Y-90789502D01*
X118125518Y-90825812D01*
X118250000Y-90838072D01*
X118264250Y-90835000D01*
X118423000Y-90676250D01*
X118423000Y-89677000D01*
X117773750Y-89677000D01*
X117615000Y-89835750D01*
X117611928Y-90200000D01*
X117568435Y-90200000D01*
X117596248Y-90108316D01*
X117613072Y-89937500D01*
X117613072Y-89437500D01*
X117596248Y-89266684D01*
X117552462Y-89122340D01*
X117564802Y-89110000D01*
X117613699Y-89110000D01*
X117615000Y-89264250D01*
G37*
%TD.AperFunction*%
D18*
X134706525Y-87296632D02*
X134913368Y-87503475D01*
X135156589Y-87665990D01*
X135426842Y-87777932D01*
X135713740Y-87835000D01*
X136006260Y-87835000D01*
X136275002Y-87781544D01*
X136275002Y-88285198D01*
X133837203Y-90722998D01*
X133826252Y-90722998D01*
X133985000Y-90564250D01*
X133988072Y-90000000D01*
X133975812Y-89875518D01*
X133939502Y-89755820D01*
X133880537Y-89645506D01*
X133801185Y-89548815D01*
X133704494Y-89469463D01*
X133594180Y-89410498D01*
X133474482Y-89374188D01*
X133350000Y-89361928D01*
X132785750Y-89365000D01*
X132627000Y-89523750D01*
X132627000Y-90723000D01*
X132647000Y-90723000D01*
X132647000Y-90977000D01*
X132627000Y-90977000D01*
X132627000Y-90997000D01*
X132373000Y-90997000D01*
X132373000Y-90977000D01*
X132353000Y-90977000D01*
X132353000Y-90723000D01*
X132373000Y-90723000D01*
X132373000Y-89523750D01*
X132214250Y-89365000D01*
X131650000Y-89361928D01*
X131525518Y-89374188D01*
X131405820Y-89410498D01*
X131295506Y-89469463D01*
X131198815Y-89548815D01*
X131119463Y-89645506D01*
X131060498Y-89755820D01*
X131038487Y-89828380D01*
X130906632Y-89696525D01*
X130663411Y-89534010D01*
X130484076Y-89459727D01*
X132413508Y-87530296D01*
X132616589Y-87665990D01*
X132886842Y-87777932D01*
X133173740Y-87835000D01*
X133466260Y-87835000D01*
X133753158Y-87777932D01*
X134023411Y-87665990D01*
X134266632Y-87503475D01*
X134473475Y-87296632D01*
X134590000Y-87122240D01*
X134706525Y-87296632D01*
%TA.AperFunction,Conductor*%
D19*
G36*
X134706525Y-87296632D02*
G01*
X134913368Y-87503475D01*
X135156589Y-87665990D01*
X135426842Y-87777932D01*
X135713740Y-87835000D01*
X136006260Y-87835000D01*
X136275002Y-87781544D01*
X136275002Y-88285198D01*
X133837203Y-90722998D01*
X133826252Y-90722998D01*
X133985000Y-90564250D01*
X133988072Y-90000000D01*
X133975812Y-89875518D01*
X133939502Y-89755820D01*
X133880537Y-89645506D01*
X133801185Y-89548815D01*
X133704494Y-89469463D01*
X133594180Y-89410498D01*
X133474482Y-89374188D01*
X133350000Y-89361928D01*
X132785750Y-89365000D01*
X132627000Y-89523750D01*
X132627000Y-90723000D01*
X132647000Y-90723000D01*
X132647000Y-90977000D01*
X132627000Y-90977000D01*
X132627000Y-90997000D01*
X132373000Y-90997000D01*
X132373000Y-90977000D01*
X132353000Y-90977000D01*
X132353000Y-90723000D01*
X132373000Y-90723000D01*
X132373000Y-89523750D01*
X132214250Y-89365000D01*
X131650000Y-89361928D01*
X131525518Y-89374188D01*
X131405820Y-89410498D01*
X131295506Y-89469463D01*
X131198815Y-89548815D01*
X131119463Y-89645506D01*
X131060498Y-89755820D01*
X131038487Y-89828380D01*
X130906632Y-89696525D01*
X130663411Y-89534010D01*
X130484076Y-89459727D01*
X132413508Y-87530296D01*
X132616589Y-87665990D01*
X132886842Y-87777932D01*
X133173740Y-87835000D01*
X133466260Y-87835000D01*
X133753158Y-87777932D01*
X134023411Y-87665990D01*
X134266632Y-87503475D01*
X134473475Y-87296632D01*
X134590000Y-87122240D01*
X134706525Y-87296632D01*
G37*
%TD.AperFunction*%
D18*
X115403752Y-90108316D02*
X115453577Y-90272567D01*
X115534488Y-90423942D01*
X115643377Y-90556623D01*
X115696232Y-90600000D01*
X115643377Y-90643377D01*
X115553822Y-90752500D01*
X115427302Y-90752500D01*
X115257440Y-90582638D01*
X115280537Y-90554494D01*
X115339502Y-90444180D01*
X115375812Y-90324482D01*
X115388072Y-90200000D01*
X115388072Y-89949115D01*
X115403752Y-90108316D01*
%TA.AperFunction,Conductor*%
D19*
G36*
X115403752Y-90108316D02*
G01*
X115453577Y-90272567D01*
X115534488Y-90423942D01*
X115643377Y-90556623D01*
X115696232Y-90600000D01*
X115643377Y-90643377D01*
X115553822Y-90752500D01*
X115427302Y-90752500D01*
X115257440Y-90582638D01*
X115280537Y-90554494D01*
X115339502Y-90444180D01*
X115375812Y-90324482D01*
X115388072Y-90200000D01*
X115388072Y-89949115D01*
X115403752Y-90108316D01*
G37*
%TD.AperFunction*%
D18*
X123287000Y-86223000D02*
X123307000Y-86223000D01*
X123307000Y-86477000D01*
X123287000Y-86477000D01*
X123287000Y-86497000D01*
X123033000Y-86497000D01*
X123033000Y-86477000D01*
X123013000Y-86477000D01*
X123013000Y-86223000D01*
X123033000Y-86223000D01*
X123033000Y-86203000D01*
X123287000Y-86203000D01*
X123287000Y-86223000D01*
%TA.AperFunction,Conductor*%
D19*
G36*
X123287000Y-86223000D02*
G01*
X123307000Y-86223000D01*
X123307000Y-86477000D01*
X123287000Y-86477000D01*
X123287000Y-86497000D01*
X123033000Y-86497000D01*
X123033000Y-86477000D01*
X123013000Y-86477000D01*
X123013000Y-86223000D01*
X123033000Y-86223000D01*
X123033000Y-86203000D01*
X123287000Y-86203000D01*
X123287000Y-86223000D01*
G37*
%TD.AperFunction*%
%TD*%
M02*
